<?xml version="1.0" encoding="utf-8"?>
<!-- Generator: Adobe Illustrator 18.0.0, SVG Export Plug-In . SVG Version: 6.00 Build 0)  -->
<!DOCTYPE svg PUBLIC "-//W3C//DTD SVG 1.1//EN" "http://www.w3.org/Graphics/SVG/1.1/DTD/svg11.dtd">
<svg version="1.1" id="Layer_1" xmlns="http://www.w3.org/2000/svg" xmlns:xlink="http://www.w3.org/1999/xlink" x="0px" y="0px"
	 viewBox="0 0 841.9 595.3" enable-background="new 0 0 841.9 595.3" xml:space="preserve">
<g opacity="0.4">
	<path fill="#3E2E49" d="M654.6,539.8V27.4c0-16.9-16.9-19.7-19.7-19.7H240.7c-56.3,0-56.3,53.5-56.3,53.5v501.1
		c0,11.2,8.4,19.7,19.7,19.7h374.4c11.2,0,19.7-8.4,19.7-19.7h33.7C657.4,562.4,654.6,539.8,654.6,539.8L654.6,539.8z M502.6,179.4
		H285.8v-39.5h214v39.5H502.6z M612.4,520.1c-8.4,0-11.2,0-11.2,0V83.7c0-11.2-8.4-19.7-19.7-19.7H226.7c0-14.1,14.1-22.5,22.5-22.5
		h354.7c22.5,0,22.5,19.7,22.5,19.7v447.6C623.6,508.8,623.6,520.1,612.4,520.1L612.4,520.1z"/>
	<rect x="184.4" y="7.7" fill="none" width="470.1" height="577.2"/>
</g>
</svg>
