<?xml version="1.0" encoding="utf-8"?>
<!-- Generator: Adobe Illustrator 18.0.0, SVG Export Plug-In . SVG Version: 6.00 Build 0)  -->
<!DOCTYPE svg PUBLIC "-//W3C//DTD SVG 1.1//EN" "http://www.w3.org/Graphics/SVG/1.1/DTD/svg11.dtd">
<svg version="1.1" id="Layer_1" xmlns="http://www.w3.org/2000/svg" xmlns:xlink="http://www.w3.org/1999/xlink" x="0px" y="0px"
	 viewBox="0 0 841.9 595.3" enable-background="new 0 0 841.9 595.3" xml:space="preserve">
<g>
	<g>
		<path fill="#AA3263" d="M210.9,94.6h-72.4V24.3h70.3v70.3H210.9z M142.7,90.5h64.1V26.3h-64.1L142.7,90.5L142.7,90.5z"/>
	</g>
	<g>
		<path fill="#AA3263" d="M277.2,94.6h-70.3V24.3h70.3V94.6z M210.9,90.5H275V26.3h-64.1V90.5L210.9,90.5z"/>
	</g>
	<g>
		<path fill="#AA3263" d="M345.4,94.6h-70.3V24.3h70.3V94.6z M277.2,90.5h64.1V26.3h-64.1V90.5z"/>
	</g>
	<g>
		<path fill="#AA3263" d="M413.7,94.6h-70.3V24.3h70.3V94.6z M345.4,90.5h64.1V26.3h-64.1V90.5L345.4,90.5z"/>
	</g>
	<g>
		<path fill="#AA3263" d="M479.9,94.6h-70.4V24.3h70.3L479.9,94.6L479.9,94.6z M413.7,90.5h64.1V26.3h-64.1V90.5z"/>
	</g>
	<g>
		<path fill="#AA3263" d="M548.1,94.6h-70.3V24.3h70.3V94.6z M479.9,90.5H544V26.3h-64.1V90.5z"/>
	</g>
	<g>
		<rect x="546" y="24.3" fill="#AA3263" width="68.3" height="68.3"/>
	</g>
	<g>
		<rect x="614.3" y="24.3" fill="#AA3263" width="68.3" height="68.3"/>
	</g>
	<g>
		<path fill="#AA3263" d="M210.9,160.8h-72.4V90.5h70.3v70.3H210.9z M142.7,158.8h64.1V94.6h-64.1L142.7,158.8L142.7,158.8z"/>
	</g>
	<g>
		<rect x="208.9" y="92.5" fill="#AA3263" width="68.3" height="68.3"/>
	</g>
	<g>
		<rect x="275" y="92.5" fill="#AA3263" width="68.3" height="68.3"/>
	</g>
	<g>
		<rect x="343.3" y="92.5" fill="#AA3263" width="68.3" height="68.3"/>
	</g>
	<g>
		<rect x="411.6" y="92.5" fill="#AA3263" width="68.3" height="68.3"/>
	</g>
	<g>
		<path fill="#AA3263" d="M548.1,160.8h-70.3V90.5h70.3V160.8z M479.9,158.8H544V94.6h-64.1V158.8z"/>
	</g>
	<g>
		<path fill="#AA3263" d="M616.4,160.8h-70.3V90.5h70.3V160.8z M548.1,158.8h64.1V94.6h-64.1V158.8z"/>
	</g>
	<g>
		<path fill="#AA3263" d="M682.6,160.8h-70.3V90.5h70.3V160.8z M616.4,158.8h64.1V94.6h-64.1V158.8z"/>
	</g>
	<g>
		<path fill="#AA3263" d="M210.9,229h-72.4v-70.3h70.3V229H210.9z M142.7,227h64.1v-66.2h-64.1L142.7,227L142.7,227z"/>
	</g>
	<g>
		<path fill="#AA3263" d="M277.2,229h-70.3v-70.3h70.3V229z M210.9,227H275v-66.2h-64.1V227L210.9,227z"/>
	</g>
	<g>
		<path fill="#AA3263" d="M345.4,229h-70.3v-70.3h70.3V229z M277.2,227h64.1v-66.2h-64.1V227z"/>
	</g>
	<g>
		<path fill="#AA3263" d="M413.7,229h-70.3v-70.3h70.3V229z M345.4,227h64.1v-66.2h-64.1V227L345.4,227z"/>
	</g>
	<g>
		<rect x="411.6" y="160.8" fill="#AA3263" width="68.3" height="68.3"/>
	</g>
	<g>
		<path fill="#AA3263" d="M548.1,229h-70.3v-70.3h70.3V229z M479.9,227H544v-66.2h-64.1V227z"/>
	</g>
	<g>
		<rect x="546" y="160.8" fill="#AA3263" width="68.3" height="68.3"/>
	</g>
	<g>
		<rect x="614.3" y="160.8" fill="#AA3263" width="68.3" height="68.3"/>
	</g>
	<g>
		<path fill="#AA3263" d="M210.9,297.3h-72.4V227h70.3v70.3H210.9z M142.7,293.2h64.1v-64.1h-64.1L142.7,293.2L142.7,293.2z"/>
	</g>
	<g>
		<rect x="208.9" y="227" fill="#AA3263" width="68.3" height="68.3"/>
	</g>
	<g>
		<path fill="#AA3263" d="M345.4,297.3h-70.3V227h70.3V297.3z M277.2,293.2h64.1v-64.1h-64.1V293.2z"/>
	</g>
	<g>
		<rect x="343.3" y="227" fill="#AA3263" width="68.3" height="68.3"/>
	</g>
	<g>
		<path fill="#AA3263" d="M479.9,297.3h-70.4V227h70.3L479.9,297.3L479.9,297.3z M413.7,293.2h64.1v-64.1h-64.1V293.2z"/>
	</g>
	<g>
		<rect x="477.7" y="227" fill="#AA3263" width="68.3" height="68.3"/>
	</g>
	<g>
		<path fill="#AA3263" d="M616.4,297.3h-70.3V227h70.3V297.3z M548.1,293.2h64.1v-64.1h-64.1V293.2z"/>
	</g>
	<g>
		<path fill="#AA3263" d="M682.6,297.3h-70.3V227h70.3V297.3z M616.4,293.2h64.1v-64.1h-64.1V293.2z"/>
	</g>
	<g>
		<path fill="#AA3263" d="M210.9,363.5h-72.4v-70.3h70.3v70.3H210.9z M142.7,361.5h64.1v-64.1h-64.1L142.7,361.5L142.7,361.5z"/>
	</g>
	<g>
		<rect x="208.9" y="295.3" fill="#AA3263" width="68.3" height="68.3"/>
	</g>
	<g>
		<path fill="#AA3263" d="M345.4,363.5h-70.3v-70.3h70.3V363.5z M277.2,361.5h64.1v-64.1h-64.1V361.5z"/>
	</g>
	<g>
		<rect x="343.3" y="295.3" fill="#AA3263" width="68.3" height="68.3"/>
	</g>
	<g>
		<path fill="#AA3263" d="M479.9,363.5h-70.4v-70.3h70.3L479.9,363.5L479.9,363.5z M413.7,361.5h64.1v-64.1h-64.1V361.5z"/>
	</g>
	<g>
		<rect x="477.7" y="295.3" fill="#AA3263" width="68.3" height="68.3"/>
	</g>
	<g>
		<rect x="546" y="295.3" fill="#AA3263" width="68.3" height="68.3"/>
	</g>
	<g>
		<path fill="#AA3263" d="M682.6,363.5h-70.3v-70.3h70.3V363.5z M616.4,361.5h64.1v-64.1h-64.1V361.5z"/>
	</g>
	<g>
		<path fill="#AA3263" d="M210.9,431.8h-72.4v-70.3h70.3v70.3H210.9z M142.7,429.7h64.1v-64.1h-64.1L142.7,429.7L142.7,429.7z"/>
	</g>
	<g>
		<rect x="208.9" y="363.5" fill="#AA3263" width="68.3" height="68.3"/>
	</g>
	<g>
		<rect x="275" y="363.5" fill="#AA3263" width="68.3" height="68.3"/>
	</g>
	<g>
		<path fill="#AA3263" d="M413.7,431.8h-70.3v-70.3h70.3V431.8z M345.4,429.7h64.1v-64.1h-64.1V429.7L345.4,429.7z"/>
	</g>
	<g>
		<path fill="#AA3263" d="M479.9,431.8h-70.4v-70.3h70.3L479.9,431.8L479.9,431.8z M413.7,429.7h64.1v-64.1h-64.1V429.7z"/>
	</g>
	<g>
		<path fill="#AA3263" d="M548.1,431.8h-70.3v-70.3h70.3V431.8z M479.9,429.7H544v-64.1h-64.1V429.7z"/>
	</g>
	<g>
		<path fill="#AA3263" d="M616.4,431.8h-70.3v-70.3h70.3V431.8z M548.1,429.7h64.1v-64.1h-64.1V429.7z"/>
	</g>
	<g>
		<path fill="#AA3263" d="M682.6,431.8h-70.3v-70.3h70.3V431.8z M616.4,429.7h64.1v-64.1h-64.1V429.7z"/>
	</g>
	<g>
		<path fill="#AA3263" d="M210.9,500h-72.4v-70.3h70.3V500H210.9z M142.7,495.9h64.1v-64.1h-64.1L142.7,495.9L142.7,495.9z"/>
	</g>
	<g>
		<path fill="#AA3263" d="M277.2,500h-70.3v-70.3h70.3V500z M210.9,495.9H275v-64.1h-64.1V495.9L210.9,495.9z"/>
	</g>
	<g>
		<path fill="#AA3263" d="M345.4,500h-70.3v-70.3h70.3V500z M277.2,495.9h64.1v-64.1h-64.1V495.9z"/>
	</g>
	<g>
		<rect x="343.3" y="429.7" fill="#AA3263" width="68.3" height="68.3"/>
	</g>
	<g>
		<path fill="#AA3263" d="M479.9,500h-70.4v-70.3h70.3L479.9,500L479.9,500z M413.7,495.9h64.1v-64.1h-64.1V495.9z"/>
	</g>
	<g>
		<rect x="477.7" y="429.7" fill="#AA3263" width="68.3" height="68.3"/>
	</g>
	<g>
		<rect x="546" y="429.7" fill="#AA3263" width="68.3" height="68.3"/>
	</g>
	<g>
		<path fill="#AA3263" d="M682.6,500h-70.3v-70.3h70.3V500z M616.4,495.9h64.1v-64.1h-64.1V495.9z"/>
	</g>
	<g>
		<rect x="140.6" y="498" fill="#AA3263" width="68.3" height="68.3"/>
	</g>
	<g>
		<rect x="208.9" y="498" fill="#AA3263" width="68.3" height="68.3"/>
	</g>
	<g>
		<path fill="#AA3263" d="M345.4,566.2h-70.3V496h70.3V566.2z M277.2,564.2h64.1v-64.1h-64.1V564.2z"/>
	</g>
	<g>
		<path fill="#AA3263" d="M413.7,566.2h-70.3V496h70.3V566.2z M345.4,564.2h64.1v-64.1h-64.1V564.2L345.4,564.2z"/>
	</g>
	<g>
		<path fill="#AA3263" d="M479.9,566.2h-70.4V496h70.3L479.9,566.2L479.9,566.2z M413.7,564.2h64.1v-64.1h-64.1V564.2z"/>
	</g>
	<g>
		<path fill="#AA3263" d="M548.1,566.2h-70.3V496h70.3V566.2z M479.9,564.2H544v-64.1h-64.1V564.2z"/>
	</g>
	<g>
		<path fill="#AA3263" d="M616.4,566.2h-70.3V496h70.3V566.2z M548.1,564.2h64.1v-64.1h-64.1V564.2z"/>
	</g>
	<g>
		<path fill="#AA3263" d="M682.6,566.2h-70.3V496h70.3V566.2z M616.4,564.2h64.1v-64.1h-64.1V564.2z"/>
	</g>
	<g>
		<path fill="#AA3263" d="M690.8,574.5H132.3V18.1h558.5L690.8,574.5L690.8,574.5z M148.9,558h523.3V34.7H148.9V558z"/>
	</g>
</g>
</svg>
