<?xml version="1.0" encoding="utf-8"?>
<!-- Generator: Adobe Illustrator 18.0.0, SVG Export Plug-In . SVG Version: 6.00 Build 0)  -->
<!DOCTYPE svg PUBLIC "-//W3C//DTD SVG 1.1//EN" "http://www.w3.org/Graphics/SVG/1.1/DTD/svg11.dtd">
<svg version="1.1" id="Layer_1" xmlns="http://www.w3.org/2000/svg" xmlns:xlink="http://www.w3.org/1999/xlink" x="0px" y="0px"
	 viewBox="0 0 841.9 595.3" enable-background="new 0 0 841.9 595.3" xml:space="preserve">
<g>
	<g opacity="0.4">
		<path fill="#566F85" d="M420.6,400c0,5.6-2.8,11.2-8.4,14.1c-2.8,0-2.8,2.8-5.6,2.8c-2.8,0-5.6,0-8.4-2.8l-81.6-67.6h-47.9
			c-8.4,0-14.1-5.6-14.1-14.1v-62c0-8.4,5.6-14.1,14.1-14.1h42.3l81.6-67.6c5.6-2.8,11.2-5.6,16.9-2.8c5.6,2.8,8.4,8.4,8.4,14.1V400
			L420.6,400L420.6,400z M476.9,377.5L476.9,377.5c-5.6,0-8.4-2.8-11.2-5.6l-2.8-2.8c-5.6-5.6-5.6-14.1-2.8-19.7
			c11.2-14.1,16.9-33.7,16.9-50.7c0-19.7-5.6-39.5-19.7-53.5c-5.6-5.6-5.6-14.1,0-19.7l2.8-2.8c2.8-2.8,5.6-5.6,11.2-5.6
			c2.8,0,8.4,2.8,11.2,5.6c16.9,22.5,28.1,47.9,28.1,76c0,25.3-8.4,50.7-22.5,70.4C485.3,374.7,482.5,377.5,476.9,377.5L476.9,377.5
			z M538.8,422.6c-2.8,2.8-5.6,5.6-11.2,5.6l0,0c-2.8,0-8.4-2.8-11.2-5.6l-2.8-2.8c-5.6-5.6-5.6-14.1,0-19.7
			c25.3-28.1,36.6-64.8,36.6-101.3c0-39.5-14.1-76-39.5-104.1c-5.6-5.6-5.6-14.1,0-19.7l2.8-2.8c2.8-2.8,5.6-5.6,11.2-5.6
			c2.8,0,8.4,2.8,11.2,5.6c30.9,33.7,47.9,81.6,47.9,126.7C583.8,344,567,388.8,538.8,422.6L538.8,422.6z"/>
	</g>
	<path opacity="0.4" fill="#566F85" enable-background="new    " d="M783.7,56.6c-5.6-5.6-11.2-8.4-19.7-5.6c-2.8,0-5.6,0-5.6,0V34
		c0-5.6-2.8-14.1-8.4-16.9c-2.8-5.6-8.4-8.4-16.9-8.4c-228,2.8-295.6,62-312.5,87.3C367.1,17.1,167.2,8.7,105.2,8.7l0,0
		c-5.6,0-14.1,2.8-16.9,8.4c-5.6,2.8-8.4,8.4-8.4,16.9v16.9c-2.8,0-5.6,0-5.6,0l0,0c-8.4,0-14.1,2.8-19.7,5.6
		c-5.6,5.7-8.4,11.3-8.4,17v425.1c0,14.1,11.2,22.5,28.1,22.5c185.9,2.8,270.3,33.7,309.7,59.1c8.4,5.6,19.7,5.6,28.1,2.8
		c2.8,0,5.6-2.8,8.4-5.6c2.8,2.8,5.6,2.8,8.4,5.6c2.8,2.8,8.4,2.8,11.2,2.8c5.6,0,11.2-2.8,16.9-5.6
		c39.5-25.3,126.7-56.3,309.7-59.1c14.1,0,28.1-11.2,28.1-22.5V73.5C792.2,67.8,789.4,62.2,783.7,56.6z M733.1,473.2
		C558.6,476,477,509.7,437.5,538c-14.1,8.4-22.5,11.2-36.6,0c-39.5-28.1-123.9-62-295.6-64.8V34c242.1,2.8,290,70.4,295.6,78.8
		c11.2,14.1,25.3,11.2,36.6,0c5.6-11.2,56.3-78.8,295.6-81.6V473.2L733.1,473.2z"/>
</g>
</svg>
