<?xml version="1.0" encoding="utf-8"?>
<!-- Generator: Adobe Illustrator 18.0.0, SVG Export Plug-In . SVG Version: 6.00 Build 0)  -->
<!DOCTYPE svg PUBLIC "-//W3C//DTD SVG 1.1//EN" "http://www.w3.org/Graphics/SVG/1.1/DTD/svg11.dtd">
<svg version="1.1" id="Layer_1" xmlns="http://www.w3.org/2000/svg" xmlns:xlink="http://www.w3.org/1999/xlink" x="0px" y="0px"
	 viewBox="0 0 841.9 595.3" enable-background="new 0 0 841.9 595.3" xml:space="preserve">
<g>
	<path fill="#978047" d="M323.3,126.5c0,65.9,52.7,118.8,118.8,118.8s118.8-52.7,118.8-118.8S511.3,7.7,445.3,7.7
		S323.3,60.4,323.3,126.5L323.3,126.5z M36.4,126.5c0,65.9,52.7,118.8,118.8,118.8s118.8-52.7,118.8-118.8S224.4,7.7,155.1,7.7
		C89.1,7.7,36.4,60.4,36.4,126.5L36.4,126.5z M613.6,367.2v-72.5c0-26.4-23.1-49.4-49.4-49.4H85.9c-26.4,3.3-49.4,23.1-49.4,49.4
		v240.7c0,26.4,23.1,49.4,49.4,49.4H564c26.4,0,49.4-23.1,49.4-49.4v-72.5l191.3,118.8V248.4L613.6,367.2z M517.9,489.2H132v-145
		h385.9V489.2z"/>
</g>
</svg>
