<?xml version="1.0" encoding="utf-8"?>
<!-- Generator: Adobe Illustrator 18.1.1, SVG Export Plug-In . SVG Version: 6.00 Build 0)  -->
<svg version="1.1" id="Layer_1" xmlns="http://www.w3.org/2000/svg" xmlns:xlink="http://www.w3.org/1999/xlink" x="0px" y="0px"
	 viewBox="-150 300 300 300" enable-background="new -150 300 300 300" xml:space="preserve">
<g opacity="0.4">
	<path fill="#3E2E49" d="M83.8,536.8V354.2c0-6-6-7-7-7H-63.7c-20.1,0-20.1,19.1-20.1,19.1v178.6c0,4,3,7,7,7H56.6c4,0,7-3,7-7h12
		C84.8,544.8,83.8,536.8,83.8,536.8L83.8,536.8z M29.6,408.3h-77.3v-14.1h76.3v14.1H29.6z M68.7,529.7c-3,0-4,0-4,0V374.2
		c0-4-3-7-7-7H-68.7c0-5,5-8,8-8H65.7c8,0,8,7,8,7v159.5C72.7,525.7,72.7,529.7,68.7,529.7L68.7,529.7z"/>
	<rect x="-83.8" y="347.2" fill="none" width="167.5" height="205.7"/>
</g>
</svg>
