<?xml version="1.0" encoding="utf-8"?>
<!-- Generator: Adobe Illustrator 18.1.1, SVG Export Plug-In . SVG Version: 6.00 Build 0)  -->
<svg version="1.1" id="Social_Media_Dingdongs" xmlns="http://www.w3.org/2000/svg" xmlns:xlink="http://www.w3.org/1999/xlink"
	 x="0px" y="0px" viewBox="-300 200 600 300" enable-background="new -300 200 600 300" xml:space="preserve">
<g id="Twitter">
	<path fill="#FFFFFF" d="M181.6,429.4c-2.3,1-4.7,1.7-7.2,2c2.6-1.6,4.6-4.1,5.5-7c-2.4,1.5-5.2,2.5-8,3c-2.3-2.5-5.5-4-9.2-4
		c-6.9,0-12.6,5.6-12.6,12.6c0,1,0.1,1.9,0.4,2.9c-10.5-0.6-19.7-5.5-26-13.2c-1.1,1.8-1.7,4.1-1.7,6.4c0,4.3,2.2,8.2,5.6,10.5
		c-2-0.1-4-0.6-5.7-1.6v0.2c0,6.1,4.3,11.1,10.1,12.3c-1,0.3-2.2,0.5-3.3,0.5c-0.8,0-1.6-0.1-2.4-0.3c1.6,5,6.3,8.7,11.8,8.7
		c-4.3,3.4-9.8,5.3-15.7,5.3c-1,0-2-0.1-3-0.2c5.5,3.6,12.2,5.6,19.2,5.6c23.1,0,35.8-19.2,35.8-35.8v-1.7
		C177.9,434.2,180,432,181.6,429.4z"/>
</g>
<g id="Flickr">
	<path fill="#FFFFFF" d="M119.5,247.9c0,7.3,6,13.3,13.3,13.3c7.3,0,13.3-6,13.3-13.3s-6-13.3-13.3-13.3
		C125.5,234.6,119.5,240.6,119.5,247.9z M153.8,247.9c0,7.3,6,13.3,13.3,13.3s13.3-6,13.3-13.3s-6-13.3-13.3-13.3
		S153.8,240.6,153.8,247.9z"/>
</g>
<g id="GitHub">
	<path fill="#FFFFFF" d="M266,224.3c0.8,1.8,1.3,4.9,0.6,7.1c3.2,2.7,4.3,9.4,2.8,14.7c4.6,0.3,10-0.2,13.4,1.2
		c-3.3-0.4-7.8-1.3-11.9-1c-0.8,0.1-2,0-1.9,1.1c4.9,0.4,9.8,0.8,13.7,2.1c-4-0.7-8.8-1.6-13.7-1.8c-2,4-6.2,6-11.8,6.5
		c0.6,1.3,1.8,1.8,2.1,4c0.4,3.2-0.7,7.9,0.4,10c0.5,1,1.4,1,1.9,1.9c-1.4,1.7-4.9-0.2-5.2-1.9c-0.7-3,1-7.6-0.8-9.6
		c0.1,3.2-0.8,7.8,0.1,10.6c0.4,1.1,1.4,1.6,1.1,2.6c-6.5,0.7-3.8-8.4-4.8-13.6c-1,0.1-0.5,1.5-0.6,2.1c0,5.2,1.1,12.3-4.6,11.6
		c-0.2-1.1,0.8-1.5,1.1-2.5c1-2.9-0.2-7.3,0.3-10.7c-2.1,1.6,0.2,7.3-1.1,10.2c-0.8,1.7-3.2,2.4-5.1,1.6c0.2-1.2,1.5-1,2.1-2.2
		c0.8-1.6,0-3.9,0.3-6.3c-4,0.8-7.1-0.1-8.6-2.6c-0.7-1.1-0.8-2.4-1.7-3.4c-0.8-1-2.1-1.1-2.5-2.5c4.9-1.2,5.1,5.1,9.5,5.2
		c1.4,0,2.1-0.4,3.3-0.7c0.4-1.6,1.1-2.7,2.2-3.6c-5.5-0.8-10-2.5-12-6.6c-5,0.2-9.6,0.9-13.7,1.9c3.8-1.4,8.6-1.9,13.6-2.1
		c-0.3-1.8-2.9-1.3-4.6-1.2c-3,0.1-6.8,0.5-9.2,1c3.5-1.2,8.4-1.1,13-1.1c-1.4-4.5-0.9-11.6,2.2-14.3c-0.9-2.3-0.6-5.9,0.6-7.7
		c3.5,0.2,5.7,1.7,7.9,3.2c2.7-0.8,5.6-1.2,9.4-1c1.6,0.1,3.2,0.8,4.4,0.7c1.2-0.1,2.5-1.4,3.6-1.9
		C263.1,224.6,264.4,224.4,266,224.3z"/>
</g>
<g id="Tumblr">
	<path fill="#FFFFFF" d="M54.8,429.8v-13.5H46c-0.2,0.5-0.3,1-0.3,1.7c-0.1,0.3-0.2,0.5-0.2,0.8c-0.9,5-3.5,8.5-7.9,10.4
		c-1.3,0.6-2.5,0.7-3.8,0.6v10.8h6.4c0.1,15.3,0.1,23.1,0.1,23.6c0,0.3,0,0.6,0,0.9c0.8,6.7,4.3,10.7,10.5,12.2c2.5,0.7,5.2,1,7.9,1
		c3.5-0.1,6.9-0.7,10.2-1.8v-12.8c-2,0.6-3.8,1.2-5.4,1.6c-3.1,0.9-5.6,0.3-7.8-1.7c-0.2-0.3-0.5-0.7-0.6-1.2
		c-0.3-1.6-0.5-3.3-0.5-5v-16.9h13.8v-10.9H54.8V429.8z"/>
</g>
<g id="Facebook">
	<path fill="#FFFFFF" d="M66.5,218h-7.8c-8.7,0-14.4,5.8-14.4,14.8v6.8h-7.8c-0.6,0-1.3,0.5-1.3,1.3v9.9c0,0.6,0.5,1.3,1.3,1.3h7.8
		v24.9c0,0.6,0.5,1.3,1.3,1.3h10.2c0.6,0,1.3-0.5,1.3-1.3v-25.1h9.2c0.6,0,1.3-0.5,1.3-1.3v-9.9c0-0.3-0.1-0.6-0.3-0.8
		c-0.2-0.2-0.5-0.3-0.8-0.3h-9.2v-5.8c0-2.7,0.6-4.2,4.3-4.2h5.3c0.6,0,1.3-0.5,1.3-1.3v-9.2C67.7,218.5,67.2,218,66.5,218z"/>
</g>
<g id="Pinterest">
	<path fill="#FFFFFF" d="M75,336.9c-1.6-12-13.6-18.1-26.4-16.7c-10.1,1.1-20.2,9.3-20.6,21c-0.2,7.1,1.7,12.4,8.5,14
		c2.9-5.2-1-6.3-1.5-10.1c-2.5-15.4,17.8-25.9,28.4-15.2c7.3,7.4,2.5,30.3-9.3,27.9c-11.3-2.3,5.6-20.5-3.5-24.1
		c-7.3-2.9-11.2,8.9-7.7,14.7c-2.1,10-6.4,19.6-4.7,32.3c5.8-4.1,7.7-12.2,9.3-20.6c2.9,1.7,4.5,3.6,8.2,3.9
		C69.2,365.2,76.9,350.4,75,336.9z"/>
</g>
<g id="GooglePlus">
	<path fill="#FFFFFF" d="M-241.9,322.2h-13.4c-6,0-10.1,1.3-13.8,4.3c-2.9,2.6-4.7,6.2-4.7,9.8c0,5.6,4.2,11.5,12.2,11.5
		c0.8,0,1.6-0.1,2.3-0.1l-0.1,0.2c-0.3,0.8-0.7,1.4-0.7,2.6c0,2.2,1,3.6,2.1,4.8l0.1,0.1h-0.2c-3.2,0.2-9.4,0.7-13.7,3.3
		c-5.2,3.1-5.7,7.6-5.7,8.9c0,5.2,4.9,10.5,15.7,10.5c12.6,0,19.2-6.9,19.2-13.8c0-5.1-3-7.6-6.1-10.3l-2.7-2.1
		c-0.8-0.7-1.9-1.6-1.9-3.1c0-1.6,1-2.6,1.9-3.5l0.1-0.1c2.9-2.2,6.1-4.8,6.1-10.4s-3.5-8.5-5.2-9.9h4.5h0.1l3.8-2.5
		C-241.9,322.4-241.9,322.3-241.9,322.2C-241.7,322.3-241.8,322.2-241.9,322.2z M-258.2,375.3c-7.7,0-12.8-3.6-12.8-8.9
		c0-3.5,2.1-6,6.2-7.6c3.3-1.1,7.7-1.2,7.7-1.2c0.8,0,1.1,0,1.7,0.1c5.4,3.8,8,5.8,8,9.7C-247.3,372.3-251.5,375.3-258.2,375.3z
		 M-258.2,345.9c-6.5,0-9.1-8.5-9.1-13c0-2.3,0.6-4.1,1.6-5.5c1.2-1.4,3.2-2.5,5.1-2.5c5.9,0,9.3,7.9,9.3,13.5c0,0.9,0,3.6-1.8,5.4
		C-254.5,345.1-256.5,345.9-258.2,345.9z"/>
	<path fill="#FFFFFF" d="M-223.1,348.4h-7v-7c0-0.1-0.1-0.3-0.3-0.3h-3c-0.1,0-0.3,0.1-0.3,0.3v7h-7c-0.1,0-0.3,0.1-0.3,0.3v3.1
		c0,0.1,0.1,0.3,0.3,0.3h7v7c0,0.1,0.1,0.3,0.3,0.3h3c0.1,0,0.3-0.1,0.3-0.3v-7.1h7c0.1,0,0.3-0.1,0.3-0.3v-3.1
		C-222.8,348.7-222.9,348.4-223.1,348.4z"/>
</g>
<g id="Reddit">
	<path fill="#FFFFFF" d="M285.3,349.5c0-4.1-3.3-7.5-7.5-7.5c-1.9,0-3.7,0.8-5.1,2.1c-5.1-3.4-11.9-5.5-19.5-5.8l4.2-13.1l11.2,2.6
		v0.1c0,3.4,2.7,6.1,6.1,6.1s6.1-2.7,6.1-6.1s-2.7-6.1-6.1-6.1c-2.6,0-4.7,1.6-5.6,3.8L257,323c-0.6-0.1-1,0.2-1.2,0.7l-4.6,14.6
		c-7.9,0.1-15.1,2.3-20.4,5.6c-1.4-1.2-3.2-2-5-2c-4.1,0-7.5,3.3-7.5,7.5c0,2.6,1.5,5.1,3.7,6.4c-0.1,0.8-0.2,1.6-0.2,2.4
		c0,11,13.4,19.9,29.9,19.9s29.9-8.9,29.9-19.9c0-0.8-0.1-1.5-0.2-2.3C283.9,354.7,285.3,352.3,285.3,349.5z M274.7,324.1
		c2.1,0,4,1.8,4,4c0,2.3-1.8,4-4,4c-2.3,0-4-1.8-4-4S272.6,324.1,274.7,324.1z M220.4,349.5c0-2.9,2.4-5.3,5.3-5.3
		c1.2,0,2.4,0.5,3.3,1.1c-3,2.4-5.3,5.3-6.4,8.5C221.2,352.8,220.4,351.2,220.4,349.5z M251.7,376.1c-15.4,0-27.9-8-27.9-17.8
		c0-9.8,12.5-17.8,27.9-17.8c15.4,0,27.9,8,27.9,17.8C279.6,368.2,267,376.1,251.7,376.1z M280.9,354c-1.1-3.2-3.3-6.1-6.4-8.5
		c0.9-0.8,2.1-1.2,3.4-1.2c2.9,0,5.3,2.4,5.3,5.3C283.3,351.4,282.4,352.9,280.9,354z"/>
	<path fill="#FFFFFF" d="M246.1,354.6c0-2.5-2-4.4-4.4-4.4c-2.4,0-4.4,2-4.4,4.4c0,2.5,2,4.4,4.4,4.4
		C244.1,359,246.1,357.1,246.1,354.6z"/>
	<path fill="#FFFFFF" d="M262.1,350.2c-2.5,0-4.4,2-4.4,4.4c0,2.5,2,4.4,4.4,4.4c2.5,0,4.4-2,4.4-4.4
		C266.5,352.1,264.4,350.2,262.1,350.2z"/>
	<path fill="#FFFFFF" d="M261,366.3c-1.8,1.8-4.9,2.7-9.3,2.7l0,0l0,0c-4.4,0-7.3-0.9-9.3-2.7c-0.5-0.5-1-0.5-1.5,0
		c-0.5,0.5-0.5,1,0,1.5c2.3,2.3,5.8,3.3,10.7,3.3l0,0l0,0c5,0,8.5-1.1,10.7-3.3c0.5-0.5,0.5-1,0-1.5
		C262.2,365.8,261.5,365.8,261,366.3z"/>
</g>
<g id="RSS">
	<path fill="#FFFFFF" d="M-269.8,461.7c-4.8,0-8.6,3.9-8.6,8.6c0,4.8,3.9,8.6,8.6,8.6s8.6-3.9,8.6-8.6
		C-261.1,465.6-265,461.7-269.8,461.7z"/>
	<path fill="#FFFFFF" d="M-277.5,439.7c-0.5,0-0.9,0.4-0.9,0.9v11c0,0.5,0.4,0.9,0.9,0.9c14.1,0,25.6,11.5,25.6,25.6
		c0,0.5,0.4,0.9,0.9,0.9h11l0,0c0.5,0,0.9-0.4,0.9-0.9v-0.3C-239.3,456.8-256.4,439.7-277.5,439.7z"/>
	<path fill="#FFFFFF" d="M-220,477.8c-0.1-31.6-25.9-57.2-57.5-57.2c-0.5,0-0.9,0.4-0.9,0.9v11.4c0,0.5,0.4,0.9,0.9,0.9
		c24.5,0,44.4,19.9,44.4,44.4c0,0.5,0.4,0.9,0.9,0.9h11.4l0,0c0.5,0,0.9-0.4,0.9-0.9L-220,477.8z"/>
</g>
<g id="Printer">
	<path fill="#FFFFFF" d="M135.1,367.2v11.3h30v-11.3v-7.5h-30V367.2z M138.8,363.4h22.5v3.8h-22.5V363.4z M138.8,371h22.5v3.8h-22.5
		V371z"/>
	<polygon fill="#FFFFFF" points="165.1,333.4 165.1,322.2 135.1,322.2 135.1,333.4 135.1,340.9 165.1,340.9"/>
	<path fill="#FFFFFF" d="M172.6,333.4h-3.8v7.5v3.8h-37.6v-3.8v-7.5h-3.8c-3.8,0-7.5,3.8-7.5,7.5v18.8c0,3.8,3.8,7.5,7.5,7.5h3.8
		v-7.5v-3.8h37.6v3.8v7.5h3.8c3.8,0,7.5-3.8,7.5-7.5v-18.8C180.1,337.2,176.4,333.4,172.6,333.4z"/>
</g>
<g id="LinkedIn">
	<path fill="#FFFFFF" d="M-20.7,356.7v21.9h-12.6v-20.5c0-5.1-1.9-8.6-6.4-8.6c-3.5,0-5.6,2.3-6.5,4.6
		c-0.3,0.8-0.5,2-0.5,3.1v21.3h-12.6c0,0,0.1-34.5,0-38.1h12.6v5.4l-0.1,0.1h0.1V346c1.7-2.5,4.7-6.2,11.5-6.2
		C-27,339.5-20.7,345-20.7,356.7z M-72.6,322.1c-4.3,0-7.2,2.9-7.2,6.6s2.8,6.6,7.1,6.6h0.1c4.4,0,7.2-2.9,7.2-6.6
		C-65.6,324.9-68.3,322.1-72.6,322.1z M-79,378.5h12.6v-38.1H-79V378.5z"/>
</g>
<g id="Instagram">
	<path fill="#FFFFFF" d="M-171,321.9h42.3c4,0,7.2,2.9,7.2,7.2v42.3c0,4.3-3.2,7.2-7.2,7.2H-171c-4,0-7.2-2.9-7.2-7.2v-42.3
		C-178.3,324.9-175,321.9-171,321.9L-171,321.9z M-136.9,328.2c-1.4,0-2.6,1.2-2.6,2.6v6.2c0,1.4,1.2,2.6,2.6,2.6h6.4
		c1.4,0,2.6-1.2,2.6-2.6v-6.2c0-1.4-1.2-2.6-2.6-2.6H-136.9L-136.9,328.2z M-127.9,345.9h-5c0.4,1.5,0.8,3.1,0.8,4.9
		c0,9.4-7.9,17.1-17.6,17.1s-17.6-7.7-17.6-17.1c0-1.7,0.2-3.4,0.8-4.9h-5.2v24c0,1.2,1,2.3,2.3,2.3h39.6c1.2,0,2.3-1,2.3-2.3
		L-127.9,345.9L-127.9,345.9z M-149.9,339.1c-6.3,0-11.5,5-11.5,11c0,6.1,5.1,11,11.5,11c6.3,0,11.5-5,11.5-11
		C-138.4,344.1-143.5,339.1-149.9,339.1z"/>
</g>
<g id="Email">
	<path fill="#FFFFFF" d="M-19.9,263.2c0,1.3-0.4,2.6-1,3.7l-19.2-21.4l19-16.6c0.7,1.1,1.2,2.6,1.2,4.1L-19.9,263.2L-19.9,263.2z
		 M-50.2,249.4l26.4-23.1c-1.1-0.6-2.3-0.9-3.6-0.9h-45.5c-1.3,0-2.6,0.4-3.6,0.9L-50.2,249.4z M-42.8,247.9l-6.1,5.3
		c-0.4,0.3-0.8,0.5-1.2,0.5s-0.9-0.2-1.2-0.5l-6.1-5.3l-19.4,21.7c1.1,0.7,2.6,1.1,4,1.1h45.5c1.4,0,2.9-0.4,4-1.1L-42.8,247.9z
		 M-79.4,228.9c-0.7,1.1-1.2,2.6-1.2,4.1v30.3c0,1.3,0.4,2.6,1,3.7l19.2-21.4L-79.4,228.9z"/>
</g>
<g id="Search">
	<path fill="#FFFFFF" d="M-121.8,469.9l-13.6-13.6c-2,3.1-4.7,5.8-7.8,7.8l13.6,13.6c2.1,2.1,5.7,2.1,7.8,0
		C-119.7,475.6-119.7,472.1-121.8,469.9z"/>
	<path fill="#FFFFFF" d="M-135,442.5c0-12.2-10-22.2-22.2-22.2c-12.2,0-22.2,10-22.2,22.2c0,12.2,10,22.2,22.2,22.2
		C-144.9,464.7-135,454.7-135,442.5z M-157.2,459.1c-9.2,0-16.6-7.5-16.6-16.6s7.5-16.6,16.6-16.6c9.2,0,16.6,7.5,16.6,16.6
		S-148,459.1-157.2,459.1z"/>
	<path fill="#FFFFFF" d="M-170.1,442.5h3.6c0-5.1,4.2-9.2,9.2-9.2v-3.6C-164.3,429.5-170.1,435.3-170.1,442.5z"/>
</g>
<g id="Social">
	<path fill="#FFFFFF" d="M-31,458.1c-3.6,0-6.8,1.7-8.8,4.3l-19.2-9.8c0.2-1,0.5-1.9,0.5-2.9c0-1.1-0.2-2.1-0.5-3.2l19.1-9.8
		c2,2.7,5.2,4.5,8.9,4.5c6.2,0,11.3-5,11.3-11.3c0-6.2-5-11.2-11.3-11.2c-6.2,0-11.2,5-11.2,11.2c0,1.1,0.2,2,0.5,3l-19.1,9.8
		c-2-2.6-5.2-4.3-8.8-4.3c-6.2,0-11.2,5-11.2,11.3c0,6.3,5,11.3,11.2,11.3c3.7,0,6.9-1.8,8.9-4.5l19.1,9.8c-0.4,1-0.5,2-0.5,3.2
		c0,6.2,5,11.3,11.2,11.3c6.2,0,11.3-5,11.3-11.3C-19.7,463.2-24.7,458.1-31,458.1z"/>
</g>
<g id="Discuss">
	<path fill="#FFFFFF" d="M-125.6,224.5h-48.5c-3.3,0-6,2.7-6,6v54.6L-168,273h42.5c3.3,0,6-2.7,6-6v-36.3
		C-119.5,227.3-122.3,224.5-125.6,224.5z"/>
</g>
<polygon id="YouTube" fill="#FFFFFF" points="221.7,422.1 281.9,449.8 221.7,477.6 "/>
<path id="Beard" fill="#FFFFFF" d="M-278.9,221.1h10.5v52.1h-10.5V221.1z M-231.8,221.1h10.5v52.1h-10.5V221.1z M-273.7,270.4h47.1
	v8.3h-47.1V270.4z M-266.1,259.4h-2.3v10.9h2.3V259.4z M-266.1,263h34.3v-3.6h-34.3V263z M-234.2,270.4h2.4v-7.6h-2.4V270.4z
	 M-234.2,266.6h-31.9v3.8h31.9V266.6z"/>
</svg>
