<?xml version="1.0" encoding="utf-8"?>
<!-- Generator: Adobe Illustrator 19.1.0, SVG Export Plug-In . SVG Version: 6.00 Build 0)  -->
<!-- It is so shocking to find out how many people do not believe that they can learn, and how many more believe learning to be difficult. -->
<svg version="1.1" id="Kaitain_Vectors" xmlns="http://www.w3.org/2000/svg" xmlns:xlink="http://www.w3.org/1999/xlink" x="0px"
	 y="0px" width="500px" height="600px" viewBox="0 0 500 600" enable-background="new 0 0 500 600" xml:space="preserve">
<g id="Video">
	<path fill="#988147" d="M40.8,34.2c0,6.3,5,11.3,11.3,11.3s11.3-5,11.3-11.3s-4.7-11.3-11-11.3S40.8,27.9,40.8,34.2L40.8,34.2z
		 M13.5,34.2c0,6.3,5,11.3,11.3,11.3s11.3-5,11.3-11.3s-4.7-11.3-11.3-11.3C18.5,22.9,13.5,27.9,13.5,34.2L13.5,34.2z M68.5,57.1
		v-6.9c0-2.5-2.2-4.7-4.7-4.7H18.2c-2.5,0.3-4.7,2.2-4.7,4.7v22.9c0,2.5,2.2,4.7,4.7,4.7h45.5c2.5,0,4.7-2.2,4.7-4.7v-6.9l18.2,11.3
		V45.8L68.5,57.1z M59.3,68.7H22.6V54.9h36.8V68.7z"/>
</g>
<g id="Book">
	<path fill="#3F2E49" d="M172.4,73.5V24.7c0-1.6-1.6-1.9-1.9-1.9H133c-5.4,0-5.4,5.1-5.4,5.1v47.7c0,1.1,0.8,1.9,1.9,1.9h35.7
		c1.1,0,1.9-0.8,1.9-1.9h3.2C172.7,75.7,172.4,73.5,172.4,73.5L172.4,73.5z M157.9,39.2h-20.7v-3.8h20.4v3.8H157.9z M168.4,71.7
		c-0.8,0-1.1,0-1.1,0V30.1c0-1.1-0.8-1.9-1.9-1.9h-33.8c0-1.3,1.3-2.1,2.1-2.1h33.8c2.1,0,2.1,1.9,2.1,1.9v42.6
		C169.4,70.6,169.4,71.7,168.4,71.7L168.4,71.7z"/>
	<rect x="127.6" y="22.9" fill="none" width="44.8" height="55"/>
</g>
<g id="Crossword">
	<g>
		<path fill="#AB3264" d="M229.8,29.8h-7.2v-7h7v7L229.8,29.8z M223,29.4h6.4V23H223V29.4L223,29.4z"/>
	</g>
	<g>
		<path fill="#AB3264" d="M236.4,29.8h-7v-7h7V29.8z M229.8,29.4h6.4V23h-6.4V29.4L229.8,29.4z"/>
	</g>
	<g>
		<path fill="#AB3264" d="M243.1,29.8h-7v-7h7V29.8L243.1,29.8z M236.4,29.4h6.4V23h-6.4V29.4z"/>
	</g>
	<g>
		<path fill="#AB3264" d="M249.9,29.8h-7v-7h7V29.8z M243.1,29.4h6.4V23h-6.4V29.4L243.1,29.4z"/>
	</g>
	<g>
		<path fill="#AB3264" d="M256.4,29.8h-7v-7h7L256.4,29.8L256.4,29.8z M249.9,29.4h6.4V23h-6.4V29.4z"/>
	</g>
	<g>
		<path fill="#AB3264" d="M263.2,29.8h-7v-7h7V29.8z M256.4,29.4h6.4V23h-6.4V29.4z"/>
	</g>
	<g>
		<rect x="263" y="22.8" fill="#AB3264" width="6.8" height="6.8"/>
	</g>
	<g>
		<rect x="269.8" y="22.8" fill="#AB3264" width="6.8" height="6.8"/>
	</g>
	<g>
		<path fill="#AB3264" d="M229.8,36.3h-7.2v-7h7v7H229.8z M223,36.1h6.4v-6.4H223V36.1L223,36.1z"/>
	</g>
	<g>
		<rect x="229.6" y="29.6" fill="#AB3264" width="6.8" height="6.8"/>
	</g>
	<g>
		<rect x="236.1" y="29.6" fill="#AB3264" width="6.8" height="6.8"/>
	</g>
	<g>
		<rect x="242.9" y="29.6" fill="#AB3264" width="6.8" height="6.8"/>
	</g>
	<g>
		<rect x="249.7" y="29.6" fill="#AB3264" width="6.8" height="6.8"/>
	</g>
	<g>
		<path fill="#AB3264" d="M263.2,36.3h-7v-7h7V36.3z M256.4,36.1h6.4v-6.4h-6.4V36.1z"/>
	</g>
	<g>
		<path fill="#AB3264" d="M270,36.3h-7v-7h7V36.3z M263.2,36.1h6.4v-6.4h-6.4V36.1z"/>
	</g>
	<g>
		<path fill="#AB3264" d="M276.5,36.3h-7v-7h7V36.3z M270,36.1h6.4v-6.4H270V36.1z"/>
	</g>
	<g>
		<path fill="#AB3264" d="M229.8,43.1h-7.2v-7h7v7H229.8z M223,42.9h6.4v-6.6H223V42.9L223,42.9z"/>
	</g>
	<g>
		<path fill="#AB3264" d="M236.4,43.1h-7v-7h7V43.1z M229.8,42.9h6.4v-6.6h-6.4V42.9L229.8,42.9z"/>
	</g>
	<g>
		<path fill="#AB3264" d="M243.1,43.1h-7v-7h7V43.1L243.1,43.1z M236.4,42.9h6.4v-6.6h-6.4V42.9z"/>
	</g>
	<g>
		<path fill="#AB3264" d="M249.9,43.1h-7v-7h7V43.1z M243.1,42.9h6.4v-6.6h-6.4V42.9L243.1,42.9z"/>
	</g>
	<g>
		<rect x="249.7" y="36.3" fill="#AB3264" width="6.8" height="6.8"/>
	</g>
	<g>
		<path fill="#AB3264" d="M263.2,43.1h-7v-7h7V43.1z M256.4,42.9h6.4v-6.6h-6.4V42.9z"/>
	</g>
	<g>
		<rect x="263" y="36.3" fill="#AB3264" width="6.8" height="6.8"/>
	</g>
	<g>
		<rect x="269.8" y="36.3" fill="#AB3264" width="6.8" height="6.8"/>
	</g>
	<g>
		<path fill="#AB3264" d="M229.8,49.8h-7.2v-7h7v7H229.8z M223,49.4h6.4v-6.4H223V49.4L223,49.4z"/>
	</g>
	<g>
		<rect x="229.6" y="42.9" fill="#AB3264" width="6.8" height="6.8"/>
	</g>
	<g>
		<path fill="#AB3264" d="M243.1,49.8h-7v-7h7V49.8L243.1,49.8z M236.4,49.4h6.4v-6.4h-6.4V49.4z"/>
	</g>
	<g>
		<rect x="242.9" y="42.9" fill="#AB3264" width="6.8" height="6.8"/>
	</g>
	<g>
		<path fill="#AB3264" d="M256.4,49.8h-7v-7h7L256.4,49.8L256.4,49.8z M249.9,49.4h6.4v-6.4h-6.4V49.4z"/>
	</g>
	<g>
		<rect x="256.2" y="42.9" fill="#AB3264" width="6.8" height="6.8"/>
	</g>
	<g>
		<path fill="#AB3264" d="M270,49.8h-7v-7h7V49.8z M263.2,49.4h6.4v-6.4h-6.4V49.4z"/>
	</g>
	<g>
		<path fill="#AB3264" d="M276.5,49.8h-7v-7h7V49.8z M270,49.4h6.4v-6.4H270V49.4z"/>
	</g>
	<g>
		<path fill="#AB3264" d="M229.8,56.4h-7.2v-7h7v7H229.8z M223,56.2h6.4v-6.4H223V56.2L223,56.2z"/>
	</g>
	<g>
		<rect x="229.6" y="49.7" fill="#AB3264" width="6.8" height="6.8"/>
	</g>
	<g>
		<path fill="#AB3264" d="M243.1,56.4h-7v-7h7V56.4L243.1,56.4z M236.4,56.2h6.4v-6.4h-6.4V56.2z"/>
	</g>
	<g>
		<rect x="242.9" y="49.7" fill="#AB3264" width="6.8" height="6.8"/>
	</g>
	<g>
		<path fill="#AB3264" d="M256.4,56.4h-7v-7h7L256.4,56.4L256.4,56.4z M249.9,56.2h6.4v-6.4h-6.4V56.2z"/>
	</g>
	<g>
		<rect x="256.2" y="49.7" fill="#AB3264" width="6.8" height="6.8"/>
	</g>
	<g>
		<rect x="263" y="49.7" fill="#AB3264" width="6.8" height="6.8"/>
	</g>
	<g>
		<path fill="#AB3264" d="M276.5,56.4h-7v-7h7V56.4z M270,56.2h6.4v-6.4H270V56.2z"/>
	</g>
	<g>
		<path fill="#AB3264" d="M229.8,63.2h-7.2v-7h7v7H229.8z M223,63h6.4v-6.4H223V63L223,63z"/>
	</g>
	<g>
		<rect x="229.6" y="56.4" fill="#AB3264" width="6.8" height="6.8"/>
	</g>
	<g>
		<rect x="236.1" y="56.4" fill="#AB3264" width="6.8" height="6.8"/>
	</g>
	<g>
		<path fill="#AB3264" d="M249.9,63.2h-7v-7h7V63.2z M243.1,63h6.4v-6.4h-6.4V63L243.1,63z"/>
	</g>
	<g>
		<path fill="#AB3264" d="M256.4,63.2h-7v-7h7L256.4,63.2L256.4,63.2z M249.9,63h6.4v-6.4h-6.4V63z"/>
	</g>
	<g>
		<path fill="#AB3264" d="M263.2,63.2h-7v-7h7V63.2z M256.4,63h6.4v-6.4h-6.4V63z"/>
	</g>
	<g>
		<path fill="#AB3264" d="M270,63.2h-7v-7h7V63.2z M263.2,63h6.4v-6.4h-6.4V63z"/>
	</g>
	<g>
		<path fill="#AB3264" d="M276.5,63.2h-7v-7h7V63.2z M270,63h6.4v-6.4H270V63z"/>
	</g>
	<g>
		<path fill="#AB3264" d="M229.8,69.9h-7.2v-7h7v7H229.8z M223,69.5h6.4v-6.4H223V69.5L223,69.5z"/>
	</g>
	<g>
		<path fill="#AB3264" d="M236.4,69.9h-7v-7h7V69.9z M229.8,69.5h6.4v-6.4h-6.4V69.5L229.8,69.5z"/>
	</g>
	<g>
		<path fill="#AB3264" d="M243.1,69.9h-7v-7h7V69.9L243.1,69.9z M236.4,69.5h6.4v-6.4h-6.4V69.5z"/>
	</g>
	<g>
		<rect x="242.9" y="63" fill="#AB3264" width="6.8" height="6.8"/>
	</g>
	<g>
		<path fill="#AB3264" d="M256.4,69.9h-7v-7h7L256.4,69.9L256.4,69.9z M249.9,69.5h6.4v-6.4h-6.4V69.5z"/>
	</g>
	<g>
		<rect x="256.2" y="63" fill="#AB3264" width="6.8" height="6.8"/>
	</g>
	<g>
		<rect x="263" y="63" fill="#AB3264" width="6.8" height="6.8"/>
	</g>
	<g>
		<path fill="#AB3264" d="M276.5,69.9h-7v-7h7V69.9z M270,69.5h6.4v-6.4H270V69.5z"/>
	</g>
	<g>
		<rect x="222.8" y="69.7" fill="#AB3264" width="6.8" height="6.8"/>
	</g>
	<g>
		<rect x="229.6" y="69.7" fill="#AB3264" width="6.8" height="6.8"/>
	</g>
	<g>
		<path fill="#AB3264" d="M243.1,76.5h-7v-7h7V76.5L243.1,76.5z M236.4,76.3h6.4v-6.4h-6.4V76.3z"/>
	</g>
	<g>
		<path fill="#AB3264" d="M249.9,76.5h-7v-7h7V76.5z M243.1,76.3h6.4v-6.4h-6.4V76.3L243.1,76.3z"/>
	</g>
	<g>
		<path fill="#AB3264" d="M256.4,76.5h-7v-7h7L256.4,76.5L256.4,76.5z M249.9,76.3h6.4v-6.4h-6.4V76.3z"/>
	</g>
	<g>
		<path fill="#AB3264" d="M263.2,76.5h-7v-7h7V76.5z M256.4,76.3h6.4v-6.4h-6.4V76.3z"/>
	</g>
	<g>
		<path fill="#AB3264" d="M270,76.5h-7v-7h7V76.5z M263.2,76.3h6.4v-6.4h-6.4V76.3z"/>
	</g>
	<g>
		<path fill="#AB3264" d="M276.5,76.5h-7v-7h7V76.5z M270,76.3h6.4v-6.4H270V76.3z"/>
	</g>
	<g>
		<path fill="#AB3264" d="M277.3,77.3H222V22.2h55.4V77.3L277.3,77.3z M223.6,75.7h51.9V23.8h-51.9V75.7z"/>
	</g>
</g>
<g id="Picture">
	<rect x="11.2" y="123.4" fill="#231F20" width="24.3" height="25.8"/>
	<rect x="38" y="123.4" fill="#231F20" width="24.3" height="25.8"/>
	<rect x="64.7" y="123.4" fill="#231F20" width="24.3" height="25.8"/>
	<rect x="11.2" y="152.5" fill="#231F20" width="24.3" height="25.8"/>
	<rect x="38" y="152.5" fill="#231F20" width="24.3" height="25.8"/>
	<rect x="64.7" y="152.5" fill="#231F20" width="24.3" height="25.8"/>
</g>
<g id="Reading">
	<g>
		<path fill="#587085" d="M149.7,159.9c0,0.5-0.3,1.1-0.8,1.3c-0.3,0-0.3,0.3-0.5,0.3c-0.3,0-0.5,0-0.8-0.3l-7.7-6.4h-4.5
			c-0.8,0-1.3-0.5-1.3-1.3v-5.9c0-0.8,0.5-1.3,1.3-1.3h4l7.7-6.4c0.5-0.3,1.1-0.5,1.6-0.3c0.5,0.3,0.8,0.8,0.8,1.3v18.9H149.7
			L149.7,159.9z M155,157.8L155,157.8c-0.5,0-0.8-0.3-1.1-0.5l-0.3-0.3c-0.5-0.5-0.5-1.3-0.3-1.9c1.1-1.3,1.6-3.2,1.6-4.8
			c0-1.9-0.5-3.7-1.9-5.1c-0.5-0.5-0.5-1.3,0-1.9l0.3-0.3c0.3-0.3,0.5-0.5,1.1-0.5c0.3,0,0.8,0.3,1.1,0.5c1.6,2.1,2.7,4.5,2.7,7.2
			c0,2.4-0.8,4.8-2.1,6.7C155.8,157.5,155.5,157.8,155,157.8L155,157.8z M160.8,162c-0.3,0.3-0.5,0.5-1.1,0.5l0,0
			c-0.3,0-0.8-0.3-1.1-0.5l-0.3-0.3c-0.5-0.5-0.5-1.3,0-1.9c2.4-2.7,3.5-6.1,3.5-9.6c0-3.7-1.3-7.2-3.7-9.8c-0.5-0.5-0.5-1.3,0-1.9
			l0.3-0.3c0.3-0.3,0.5-0.5,1.1-0.5c0.3,0,0.8,0.3,1.1,0.5c2.9,3.2,4.5,7.7,4.5,12C165.1,154.6,163.5,158.8,160.8,162L160.8,162z"/>
	</g>
	<path fill="#587085" enable-background="new    " d="M184,127.4c-0.5-0.5-1.1-0.8-1.9-0.5c-0.3,0-0.5,0-0.5,0v-1.6
		c0-0.5-0.3-1.3-0.8-1.6c-0.3-0.5-0.8-0.8-1.6-0.8c-21.5,0.3-27.9,5.9-29.5,8.2c-5.1-7.5-23.9-8.2-29.8-8.2l0,0
		c-0.5,0-1.3,0.3-1.6,0.8c-0.5,0.3-0.8,0.8-0.8,1.6v1.6c-0.3,0-0.5,0-0.5,0l0,0c-0.8,0-1.3,0.3-1.9,0.5c-0.5,0.5-0.8,1.1-0.8,1.6
		v40.2c0,1.3,1.1,2.1,2.7,2.1c17.6,0.3,25.5,3.2,29.3,5.6c0.8,0.5,1.9,0.5,2.7,0.3c0.3,0,0.5-0.3,0.8-0.5c0.3,0.3,0.5,0.3,0.8,0.5
		s0.8,0.3,1.1,0.3c0.5,0,1.1-0.3,1.6-0.5c3.7-2.4,12-5.3,29.3-5.6c1.3,0,2.7-1.1,2.7-2.1V129C184.8,128.5,184.5,128,184,127.4z
		 M179.2,166.8c-16.5,0.3-24.2,3.4-27.9,6.1c-1.3,0.8-2.1,1.1-3.5,0c-3.7-2.7-11.7-5.9-27.9-6.1v-41.5c22.9,0.3,27.4,6.7,27.9,7.4
		c1.1,1.3,2.4,1.1,3.5,0c0.5-1.1,5.3-7.4,27.9-7.7V166.8L179.2,166.8z"/>
</g>
<g id="Jigsaw">
	<path fill="#719B59" d="M283.6,122.7h-67.5c-0.6,0-1.1,0.5-1.1,1.1v52.8c0,0.6,0.5,1.1,1.1,1.1h67.5c0.6,0,1.1-0.5,1.1-1.1v-52.8
		C284.7,123.1,284.2,122.7,283.6,122.7L283.6,122.7z M278.1,168.8l-15.2-15.7c-0.2-0.2-0.4-0.2-0.6,0l-10.5,9.3l-13.5-16.6
		c-0.1-0.1-0.2-0.2-0.4-0.2s-0.3,0.1-0.3,0.2l-15.9,21.4v-37.8h56.4V168.8L278.1,168.8z"/>
	<path fill="#719B59" d="M261.4,145.2c3,0,5.4-2.4,5.4-5.4c0-3-2.4-5.4-5.4-5.4c-3,0-5.4,2.4-5.4,5.4
		C256,142.8,258.4,145.2,261.4,145.2L261.4,145.2z"/>
</g>
<path id="Soundwave" fill="#E2E3E4" d="M386.7,41.8c-1,0-1.8,0.8-1.8,1.7v5.1h-1v-8.8
	c0-1-0.8-1.7-1.8-1.7c-1,0-1.8,0.8-1.8,1.7v8.8h-1V48c0-1-0.8-1.7-1.8-1.7c-1,0-1.8,0.8-1.8,1.7v0.6h-1V45c0-1-0.8-1.7-1.8-1.7
	c-1,0-1.8,0.8-1.8,1.7v3.6h-1v-8.8c0-1-0.8-1.7-1.8-1.7c-1,0-1.8,0.8-1.8,1.7v8.8h-1v-8.8c0-1-0.8-1.7-1.8-1.7c-1,0-1.8,0.8-1.8,1.7
	v8.8h-1V32.3c0-1-0.8-1.7-1.8-1.7c-1,0-1.8,0.8-1.8,1.7v16.3h-1v-1.4c0-1-0.8-1.7-1.8-1.7c-1,0-1.8,0.8-1.8,1.7v1.4h-1V45
	c0-1-0.8-1.7-1.8-1.7c-1,0-1.8,0.8-1.8,1.7v3.6h-1V30.2c0-1-0.8-1.7-1.8-1.7c-1,0-1.8,0.8-1.8,1.7v18.4h-1v-8.8c0-1-0.8-1.7-1.8-1.7
	c-1,0-1.8,0.8-1.8,1.7v8.8h-1v-8.8c0-1-0.8-1.7-1.8-1.7s-1.8,0.8-1.8,1.7v8.8h-1V45c0-1-0.8-1.7-1.8-1.7c-1,0-1.8,0.8-1.8,1.7v3.6
	h-1v-8.8c0-1-0.8-1.7-1.8-1.7c-1,0-1.8,0.8-1.8,1.7v8.8h-1V24.7c0-1-0.8-1.7-1.8-1.7c-1,0-1.8,0.8-1.8,1.7v23.9h-1v-8.8
	c0-1-0.8-1.7-1.8-1.7s-1.8,0.8-1.8,1.7v8.8h-1V45c0-1-0.8-1.7-1.8-1.7c-1,0-1.8,0.8-1.8,1.7v10.7c0,1,0.8,1.7,1.8,1.7
	c1,0,1.8-0.8,1.8-1.7v-3.6h1v8.8c0,1,0.8,1.7,1.8,1.7c1,0,1.8-0.8,1.8-1.7v-8.8h1V76c0,1,0.8,1.7,1.8,1.7c1,0,1.8-0.8,1.8-1.7V52.1
	h1v8.8c0,1,0.8,1.7,1.8,1.7c1,0,1.8-0.8,1.8-1.7v-8.8h1v3.6c0,1,0.8,1.7,1.8,1.7c1,0,1.8-0.8,1.8-1.7v-3.6h1v8.8
	c0,1,0.8,1.7,1.8,1.7s1.8-0.8,1.8-1.7v-8.8h1v8.8c0,1,0.8,1.7,1.8,1.7c1,0,1.8-0.8,1.8-1.7v-8.8h1v18.4c0,1,0.8,1.7,1.8,1.7
	c1,0,1.8-0.8,1.8-1.7V52.1h1v3.6c0,1,0.8,1.7,1.8,1.7c1,0,1.8-0.8,1.8-1.7v-3.6h1v1.4c0,1,0.8,1.7,1.8,1.7c1,0,1.8-0.8,1.8-1.7v-1.4
	h1v16.3c0,1,0.8,1.7,1.8,1.7c1,0,1.8-0.8,1.8-1.7V52.1h1v8.8c0,1,0.8,1.7,1.8,1.7c1,0,1.8-0.8,1.8-1.7v-8.8h1v8.8
	c0,1,0.8,1.7,1.8,1.7c1,0,1.8-0.8,1.8-1.7v-8.8h1v3.6c0,1,0.8,1.7,1.8,1.7c1,0,1.8-0.8,1.8-1.7v-3.6h1v0.6c0,1,0.8,1.7,1.8,1.7
	c1,0,1.8-0.8,1.8-1.7v-0.6h1v8.8c0,1,0.8,1.7,1.8,1.7c1,0,1.8-0.8,1.8-1.7v-8.8h1v5.1c0,1,0.8,1.7,1.8,1.7c1,0,1.8-0.8,1.8-1.7V43.5
	C388.5,42.6,387.7,41.8,386.7,41.8"/>
<g id="Download">
	<path id="path3006" fill="#FFFFFF" d="M469.8,57.9v12.4h-39.3V57.9h-7.5V74c0,2,1.7,3.6,3.8,3.6
		h46.8c2.1,0,3.8-1.6,3.8-3.6V57.9H469.8z"/>
	<path id="path3008" fill="#FFFFFF" d="M449.4,56.7L438.6,44c0,0-1.6-1.5,0.1-1.5h6.1V24.1
		c0,0-0.2-0.9,1.2-0.9h8.6c1,0,1,0.8,1,0.8v18.2h5.6c2.2,0,0.5,1.6,0.5,1.6s-9.2,11.8-10.5,13.1C450.3,57.7,449.4,56.7,449.4,56.7"
		/>
</g>
<g id="Quote_Open" transform="translate(0,-852.36218)">
	<g id="text2985" transform="matrix(1.8927911,0,0,1.8927911,-785.21256,836.08226)">
		<path id="path2990" fill="#010101" d="M589.2,64.6c-1.7,1-3,1.8-4.1,2.5c-1,0.7-2.1,1.6-3.2,2.7
			c-1,1-1.8,2.2-2.3,3.4c-0.5,1.2-0.9,2.7-1.1,4.5h2.6c2.2,0,3.9,0.6,5.2,1.7c1.3,1.1,1.9,2.7,1.9,4.8c0,1.5-0.6,2.9-1.7,4.2
			c-1.1,1.3-2.6,1.9-4.6,1.9c-3.1,0-5.3-1-6.6-3c-1.3-2-2-4.7-2-8c0-2.3,0.5-4.4,1.5-6.3c1-1.9,2.2-3.6,3.6-5.1
			c1.5-1.5,3-2.8,4.7-3.9c1.6-1.1,3-1.9,4.1-2.6L589.2,64.6"/>
	</g>
</g>
<g id="layer1" transform="translate(0,-852.36218)">
	<g id="text2985_1_" transform="matrix(-1.8927911,0,0,-1.8927911,894.63954,1068.6421)">
		<path id="path2990_1_" fill="#010101" d="M287.7,35.8c-1.7,1-3,1.8-4.1,2.5
			c-1,0.7-2.1,1.6-3.2,2.7c-1,1-1.8,2.2-2.3,3.4c-0.5,1.2-0.9,2.7-1.1,4.5h2.6c2.2,0,3.9,0.6,5.2,1.7c1.3,1.1,1.9,2.7,1.9,4.8
			c0,1.5-0.6,2.9-1.7,4.2c-1.1,1.3-2.6,1.9-4.6,1.9c-3.1,0-5.3-1-6.6-3c-1.3-2-2-4.7-2-8c0-2.3,0.5-4.4,1.5-6.3
			c1-1.9,2.2-3.6,3.6-5.1c1.5-1.5,3-2.8,4.7-3.9c1.6-1.1,3-1.9,4.1-2.6L287.7,35.8"/>
	</g>
</g>
<g id="Tuairisc_Dark">
	<path fill="#1B181C" d="M91.5,209.2c0,0.9-0.3,1.7-0.9,2.4c-0.6,0.7-1.3,1-2.2,1c-0.8,0-1.5-0.3-2.1-1c-0.6-0.6-0.9-1.4-0.9-2.2
		c0-0.9,0.3-1.6,0.9-2.3c0.6-0.6,1.3-1,2.1-1c0.9,0,1.6,0.3,2.2,0.9C91.2,207.6,91.5,208.4,91.5,209.2z"/>
	<path fill="#1B181C" d="M124,209.2c0,0.9-0.3,1.7-0.9,2.4c-0.6,0.7-1.3,1-2.2,1c-0.8,0-1.5-0.3-2.1-1c-0.6-0.6-0.9-1.4-0.9-2.2
		c0-0.9,0.3-1.6,0.9-2.3c0.6-0.6,1.3-1,2.1-1c0.9,0,1.6,0.3,2.2,0.9C123.7,207.6,124,208.4,124,209.2z"/>
	<path fill="#1B181C" d="M59.1,241.5l-7.6,0.5l-0.4-0.3v-3H51c-0.4,0.4-0.8,0.8-1.3,1.3c-0.5,0.4-1,0.9-1.6,1.2
		c-0.7,0.4-1.4,0.7-2.1,1c-0.7,0.2-1.6,0.3-2.8,0.3c-2.1,0-3.6-0.7-4.7-2c-1.1-1.3-1.6-3.3-1.6-5.9v-11.1c0-0.6-0.1-1-0.3-1.4
		c-0.2-0.4-0.5-0.7-0.9-1c-0.3-0.2-0.6-0.3-1.1-0.4c-0.4-0.1-0.9-0.1-1.4-0.2v-1.6l7.8-0.6l0.4,0.3v16.2c0,1.7,0.4,3,1.1,3.8
		c0.8,0.9,1.7,1.3,2.7,1.3c0.9,0,1.6-0.1,2.3-0.4c0.7-0.3,1.2-0.6,1.7-0.9c0.4-0.3,0.8-0.7,1.1-1.1c0.3-0.4,0.6-0.7,0.7-1v-13.2
		c0-0.5-0.1-1-0.3-1.4s-0.5-0.7-0.9-1c-0.3-0.2-0.7-0.3-1.3-0.3c-0.6,0-1.2-0.1-1.9-0.1v-1.6l8.5-0.6l0.4,0.3v18.5
		c0,0.5,0.1,1,0.3,1.4c0.2,0.4,0.5,0.7,0.9,1c0.3,0.2,0.6,0.3,1,0.3c0.4,0.1,0.8,0.1,1.3,0.1L59.1,241.5L59.1,241.5z"/>
	<path fill="#1B181C" d="M94.4,241.9H83.2v-1.6c0.4,0,0.7-0.1,1.1-0.1s0.7-0.1,1-0.2c0.4-0.1,0.8-0.4,1-0.7c0.2-0.4,0.3-0.8,0.3-1.4
		v-14.4c0-0.5-0.1-1-0.3-1.4c-0.2-0.4-0.5-0.8-1-1c-0.3-0.2-0.7-0.4-1.3-0.5c-0.6-0.1-1.1-0.2-1.6-0.2v-1.6l8.2-0.5l0.3,0.3v19
		c0,0.6,0.1,1,0.3,1.4c0.2,0.4,0.5,0.6,1,0.8c0.3,0.1,0.7,0.3,1,0.3c0.3,0.1,0.7,0.1,1.1,0.2V241.9z"/>
	<path fill="#1B181C" d="M80.3,240.2c-0.3-0.1-0.7-0.2-1-0.3c-0.5-0.2-0.8-0.4-1-0.8c-0.2-0.4-0.3-0.8-0.3-1.4v-1.7h0
		c0-1.5,0-3,0.1-4.3c0-1.7,0.1-3.7,0.1-6c0-1.6-0.2-2.9-0.6-3.9c-0.4-1-1-1.8-1.8-2.4c-0.8-0.6-1.7-1-2.7-1.2
		c-1-0.2-2.1-0.3-3.5-0.3c-1,0-1.9,0.2-3,0.5c-1,0.3-1.9,0.7-2.6,1.1c-0.8,0.5-1.5,1.1-2,1.8c-0.5,0.7-0.8,1.4-0.8,2.1
		c0,0.7,0.2,1.3,0.6,1.9c0.4,0.6,0.9,0.8,1.7,0.8c0.9,0,1.6-0.2,2.1-0.7c0.5-0.5,0.7-1,0.7-1.5c0-0.5-0.1-1.1-0.2-1.7
		c-0.1-0.6-0.2-1.1-0.2-1.4c0.3-0.3,0.7-0.5,1.3-0.8c0.6-0.2,1.3-0.4,2-0.4c1.1,0,1.9,0.2,2.4,0.6c0.6,0.4,1,0.9,1.3,1.5
		c0.3,0.5,0.5,1.1,0.6,1.7c0.1,0.6,0.1,1,0.1,1.2v2.3c-0.8,0.4-2.2,1-4.4,1.7c-2.2,0.7-3.6,1.2-4.3,1.5c-0.6,0.2-1.2,0.5-1.8,0.9
		s-1.2,0.8-1.6,1.3c-0.5,0.6-0.9,1.2-1.1,1.9c-0.3,0.7-0.4,1.5-0.4,2.4c0,1.7,0.6,3.1,1.7,4.2c1.1,1.1,2.6,1.6,4.3,1.6
		c1.7,0,3.1-0.3,4.2-0.9c1.2-0.6,2.3-1.5,3.3-2.6h0.1c0.2,1.1,0.7,1.9,1.4,2.5c0.7,0.6,1.7,0.9,2.9,0.9c0.7,0,2.5-0.2,3.3-0.5v-1.6
		C81,240.3,80.6,240.3,80.3,240.2z M71.4,239.1c-0.9,0.5-1.8,0.8-3,0.8c-1.1,0-1.9-0.3-2.6-0.9c-0.7-0.6-1-1.6-1-2.9
		c0-1,0.2-1.9,0.7-2.6c0.5-0.7,1.1-1.4,1.9-1.9c0.9-0.6,1.8-1,2.8-1.4c1-0.4,2.2-0.8,3.5-1.2l-0.1,8.2
		C73,237.9,72.3,238.6,71.4,239.1z"/>
	<path fill="#1B181C" d="M114,221.6c0,0.8-0.2,1.5-0.6,2.1c-0.4,0.6-1,0.9-1.8,0.9c-0.9,0-1.6-0.2-2-0.7c-0.5-0.5-0.7-1-0.7-1.5
		c0-0.3,0-0.7,0.1-0.9c0.1-0.3,0.1-0.6,0.2-0.9c-0.7,0-1.6,0.3-2.6,0.9c-1,0.6-1.8,1.4-2.5,2.6v13.6c0,0.6,0.1,1,0.3,1.3
		c0.2,0.3,0.5,0.6,1,0.8c0.4,0.2,0.9,0.3,1.5,0.4c0.6,0.1,1.2,0.1,1.6,0.2v1.6H96.1v-1.6c0.4,0,0.7-0.1,1.1-0.1c0.4,0,0.7-0.1,1-0.2
		c0.4-0.1,0.8-0.4,1-0.7c0.2-0.4,0.3-0.8,0.3-1.4v-14.4c0-0.5-0.1-1-0.3-1.4c-0.2-0.5-0.5-0.8-1-1.1c-0.3-0.2-0.7-0.3-1.1-0.4
		c-0.4-0.1-0.9-0.1-1.3-0.2v-1.6l7.8-0.5l0.3,0.3v3.3h0.1c1-1.3,2.1-2.2,3.3-2.9c1.2-0.7,2.3-1,3.3-1c1,0,1.8,0.3,2.4,1
		C113.7,219.7,114,220.5,114,221.6z"/>
	<path fill="#1B181C" d="M123.5,237.7c0,0.6,0.1,1,0.3,1.4c0.2,0.4,0.5,0.6,1,0.8c0.3,0.1,0.7,0.3,1,0.3c0.3,0.1,0.7,0.1,1.1,0.2
		v1.6h-11.2v-1.6c0.4,0,0.7-0.1,1.1-0.1c0.4,0,0.7-0.1,1-0.2c0.4-0.1,0.8-0.4,1-0.7c0.2-0.4,0.3-0.8,0.3-1.4v-14.4
		c0-0.5-0.1-1-0.3-1.4c-0.2-0.4-0.5-0.8-1-1c-0.3-0.2-0.7-0.4-1.3-0.5c-0.6-0.1-1.1-0.2-1.6-0.2v-1.6l8.2-0.5l0.3,0.3L123.5,237.7
		L123.5,237.7z"/>
	<path fill="#1B181C" d="M144.1,230.5c0.6,0.6,1.1,1.2,1.5,2c0.3,0.7,0.5,1.6,0.5,2.7c0,2.2-0.8,3.9-2.4,5.3
		c-1.6,1.4-3.7,2.1-6.3,2.1c-1.4,0-2.6-0.2-3.7-0.7c-1.1-0.5-2-0.9-2.4-1.3l-0.5,1.5h-1.8l-0.2-8.1h1.6c0.1,0.6,0.4,1.3,0.8,2.2
		c0.4,0.8,0.9,1.6,1.5,2.2c0.6,0.7,1.4,1.3,2.2,1.8c0.9,0.5,1.8,0.7,2.9,0.7c1.5,0,2.7-0.3,3.5-1c0.8-0.7,1.2-1.7,1.2-3
		c0-0.7-0.1-1.2-0.4-1.7c-0.3-0.5-0.6-0.9-1.1-1.3c-0.5-0.4-1.2-0.7-1.9-1c-0.8-0.3-1.6-0.6-2.5-0.9c-0.7-0.2-1.6-0.5-2.5-0.9
		c-0.9-0.4-1.7-0.8-2.3-1.4c-0.7-0.6-1.3-1.2-1.7-2c-0.4-0.8-0.7-1.7-0.7-2.8c0-1.9,0.7-3.5,2.1-4.8c1.4-1.3,3.3-2,5.7-2
		c0.9,0,1.8,0.1,2.8,0.4c1,0.2,1.7,0.5,2.3,0.9l0.5-1.2h1.7l0.4,7.5h-1.6c-0.3-1.7-1-3-2.1-4.1c-1.1-1.1-2.4-1.6-4-1.6
		c-1.3,0-2.3,0.3-3,1c-0.7,0.7-1.1,1.4-1.1,2.4c0,0.7,0.1,1.3,0.4,1.8c0.2,0.5,0.6,0.9,1.1,1.2c0.5,0.3,1.1,0.6,1.8,0.9
		c0.7,0.3,1.6,0.6,2.7,0.9c1,0.3,2,0.7,2.9,1.2C142.7,229.5,143.5,230,144.1,230.5z"/>
	<path fill="#1B181C" d="M159.2,242.5c-3.4,0-6-1.1-7.9-3.4c-1.9-2.2-2.9-5.2-2.9-9c0-1.6,0.3-3.2,0.8-4.6c0.5-1.4,1.3-2.7,2.2-3.9
		c0.9-1.1,2.1-2,3.5-2.7c1.4-0.7,2.9-1,4.6-1c2.3,0,4.1,0.5,5.6,1.6c1.4,1.1,2.1,2.6,2.1,4.5c0,0.8-0.2,1.5-0.6,2.1
		c-0.4,0.6-1,0.9-1.9,0.9c-0.9,0-1.6-0.2-2.2-0.7c-0.5-0.5-0.8-1-0.8-1.6c0-0.7,0.1-1.4,0.3-2.2c0.2-0.7,0.3-1.3,0.3-1.6
		c-0.3-0.5-0.7-0.8-1.3-1c-0.6-0.2-1.2-0.2-1.8-0.2c-0.8,0-1.5,0.2-2.2,0.5c-0.7,0.3-1.3,0.9-2,1.8c-0.6,0.8-1.1,1.8-1.4,3.2
		c-0.4,1.3-0.5,2.9-0.5,4.8c0,2.9,0.6,5.3,1.9,7.2c1.3,1.9,3,2.8,5.1,2.8c1.5,0,2.8-0.4,3.8-1.1c1-0.7,2-1.9,2.9-3.3l1.5,1
		c-1,1.9-2.4,3.3-4.1,4.4S161,242.5,159.2,242.5z"/>
	<g>
		<path fill="#516673" d="M192.3,230.9c-0.1-0.5-0.2-0.9-0.3-1.2c-0.2-0.3-0.4-0.6-0.7-0.8c-0.3-0.2-0.7-0.3-1.1-0.3
			c-0.8,0-1.4,0.3-1.9,1c-0.5,0.6-0.8,1.5-0.8,2.7h5C192.4,231.8,192.4,231.4,192.3,230.9z"/>
		<path fill="#516673" d="M193.8,218.6h-18.4c-1.6,0-2.9,1.4-2.9,3.1v18c0,1.7,1.3,3.1,2.9,3.1h18.4c1.6,0,2.9-1.4,2.9-3.1v-18
			C196.8,220,195.5,218.6,193.8,218.6z M180.7,222.8c0.3-0.3,0.6-0.4,1-0.4c0.4,0,0.8,0.1,1,0.4c0.3,0.3,0.4,0.6,0.4,1
			c0,0.4-0.1,0.8-0.4,1.1c-0.3,0.3-0.6,0.5-1,0.5c-0.4,0-0.7-0.1-1-0.4c-0.3-0.3-0.4-0.6-0.4-1C180.3,223.4,180.4,223.1,180.7,222.8
			z M177.1,238.7c-0.3,0.3-0.6,0.4-1.1,0.4c-0.4,0-0.8-0.1-1.1-0.4c-0.3-0.3-0.4-0.6-0.4-1s0.1-0.8,0.4-1.1c0.3-0.3,0.6-0.4,1.1-0.4
			c0.4,0,0.8,0.1,1.1,0.4c0.3,0.3,0.4,0.6,0.4,1.1S177.4,238.4,177.1,238.7z M184.5,238.9h-5.2v-0.7c0.2,0,0.3,0,0.5,0
			c0.2,0,0.3,0,0.5-0.1c0.2-0.1,0.4-0.2,0.5-0.3c0.1-0.2,0.1-0.4,0.1-0.6v-6.6c0-0.2-0.1-0.4-0.2-0.6c-0.1-0.2-0.3-0.4-0.4-0.5
			c-0.1-0.1-0.3-0.2-0.6-0.2c-0.3-0.1-0.5-0.1-0.7-0.1v-0.7l3.8-0.2l0.2,0.2v8.8c0,0.3,0,0.5,0.1,0.6c0.1,0.2,0.3,0.3,0.5,0.4
			c0.2,0.1,0.3,0.1,0.5,0.2c0.2,0,0.3,0.1,0.5,0.1L184.5,238.9L184.5,238.9z M193,238.4c-0.8,0.5-1.6,0.8-2.6,0.8
			c-0.9,0-1.6-0.2-2.3-0.5c-0.6-0.3-1.2-0.7-1.6-1.2c-0.4-0.5-0.7-1.1-0.9-1.8c-0.2-0.7-0.3-1.4-0.3-2.2c0-0.7,0.1-1.4,0.3-2.1
			c0.2-0.7,0.5-1.3,1-1.8c0.4-0.5,0.9-0.9,1.5-1.3c0.6-0.3,1.3-0.5,2.1-0.5c0.8,0,1.5,0.1,2,0.4c0.6,0.2,1,0.6,1.4,1
			c0.3,0.4,0.6,0.9,0.7,1.4c0.2,0.6,0.2,1.2,0.2,1.8v0.7h-7.1c0,0.7,0.1,1.3,0.2,1.9c0.1,0.6,0.3,1.1,0.6,1.5c0.3,0.4,0.7,0.8,1.1,1
			c0.5,0.2,1,0.4,1.6,0.4c0.6,0,1.2-0.2,1.7-0.5c0.5-0.3,0.9-0.8,1.4-1.6l0.8,0.5C194.4,237.2,193.8,237.9,193,238.4z"/>
	</g>
	<path fill="#1B181C" d="M5.7,208.4v0.5v6.9h1.7c0.1-0.4,0.4-0.9,0.8-1.5c0.4-0.6,0.8-1.2,1.3-1.7c0.5-0.5,1-1,1.5-1.5
		c0.6-0.4,1.1-0.7,1.6-0.7c0.7-0.1,1.4-0.1,2.1-0.1c0.7,0,1.3,0,1.8,0h1.4v27c0,0.6-0.1,1.2-0.4,1.5c-0.2,0.4-0.6,0.7-1.1,0.9
		c-0.3,0.1-1,0.3-1.9,0.4c-0.9,0.1-1.6,0.2-2,0.2v1.7h15.8v-1.7c-0.5,0-1.2-0.1-2.1-0.3c-0.9-0.2-1.5-0.3-1.8-0.4
		c-0.6-0.2-0.9-0.6-1.2-1c-0.2-0.4-0.3-0.9-0.3-1.4v-26.8h1.4c0.6,0,1.3,0,2.1,0c0.7,0,1.4,0.1,1.8,0.1c0.5,0.1,1.1,0.3,1.6,0.7
		c0.6,0.4,1.1,0.9,1.6,1.5c0.5,0.5,0.9,1.1,1.2,1.7c0.4,0.6,0.6,1.1,0.8,1.5h1.6v-6.9v-0.5H5.7z"/>
</g>
<g id="Tuairisc_Light">
	<g id="g3088" transform="translate(212.5292,43.7021)">
		<path id="path3090" fill="#FFFFFF" d="M-122,215.9c0,0.9-0.3,1.7-0.9,2.5c-0.6,0.7-1.3,1-2.2,1
			c-0.9,0-1.4-0.3-2-1c-0.6-0.7-0.9-1.4-0.9-2.2c0-0.9,0.3-1.6,0.9-2.3c0.6-0.7,1.3-1,2-1c0.9,0,1.6,0.3,2.2,0.9
			S-122,215.2-122,215.9"/>
	</g>
	<g id="g3092" transform="translate(230.4865,43.7021)">
		<path id="path3094" fill="#FFFFFF" d="M-107.5,215.9c0,0.9-0.3,1.7-0.9,2.5
			c-0.6,0.7-1.3,1-2.2,1c-0.9,0-1.4-0.3-2-1c-0.6-0.7-0.9-1.4-0.9-2.2c0-0.9,0.3-1.6,0.9-2.3c0.6-0.7,1.3-1,2-1
			c0.9,0,1.6,0.3,2.2,0.9C-107.7,214.5-107.5,215.2-107.5,215.9"/>
	</g>
	<g id="g3096" transform="translate(194.6863,25.8522)">
		<path id="path3098" fill="#FFFFFF" d="M-136.6,267.1l-7.7,0.6l-0.3-0.3v-3h-0.1
			c-0.4,0.4-0.9,0.9-1.3,1.3c-0.4,0.4-1,0.9-1.6,1.3c-0.7,0.4-1.4,0.7-2,1c-0.7,0.3-1.6,0.3-2.8,0.3c-2,0-3.6-0.7-4.6-2
			c-1-1.4-1.6-3.3-1.6-6.1v-11.5c0-0.6-0.1-1-0.3-1.4c-0.1-0.4-0.6-0.7-0.9-1c-0.3-0.1-0.6-0.3-1-0.4c-0.4-0.1-0.9-0.1-1.3-0.1V244
			l7.8-0.6l0.3,0.3v16.7c0,1.7,0.4,3,1.2,3.9c0.7,0.9,1.6,1.3,2.8,1.3c0.9,0,1.6-0.1,2.3-0.4c0.7-0.3,1.3-0.6,1.7-1
			c0.4-0.3,0.9-0.7,1.2-1c0.3-0.3,0.6-0.7,0.7-1v-13.5c0-0.6-0.1-1-0.3-1.4c-0.3-0.4-0.6-0.7-0.9-1c-0.3-0.1-0.7-0.3-1.3-0.3
			s-1.2-0.1-1.9-0.1v-1.6l8.6-0.6l0.3,0.3v19c0,0.6,0.1,1,0.3,1.4c0.3,0.4,0.6,0.7,0.9,1c0.3,0.1,0.6,0.3,1,0.3
			c0.4,0,0.9,0.1,1.3,0.1v1.3H-136.6z"/>
	</g>
	<g id="g3100" transform="translate(214.1592,25.6174)">
		<path id="path3102" fill="#FFFFFF" d="M-120.7,267.7H-132v-1.6c0.4,0,0.7,0,1.2-0.1
			c0.4,0,0.7-0.1,1-0.1c0.4-0.1,0.7-0.4,1-0.7c0.1-0.3,0.3-0.9,0.3-1.4v-14.8c0-0.6-0.1-1-0.3-1.4c-0.3-0.4-0.6-0.7-1-1
			c-0.3-0.1-0.7-0.3-1.3-0.4c-0.6-0.1-1.2-0.3-1.6-0.3V244l8.3-0.6l0.3,0.3v19.4c0,0.6,0.1,1,0.3,1.4c0.1,0.4,0.6,0.6,1,0.9
			c0.3,0.1,0.7,0.3,1,0.3c0.3,0.1,0.7,0.1,1.2,0.1L-120.7,267.7L-120.7,267.7z"/>
	</g>
	<g id="g3104" transform="translate(201.4742,27.1635)">
		<path id="path3106" fill="#FFFFFF" d="M-130.9,263.3c-0.9,0.6-1.9,0.9-2.9,0.9s-1.9-0.3-2.6-1
			c-0.7-0.6-1-1.6-1-2.9c0-1,0.3-1.9,0.7-2.8c0.4-0.7,1-1.4,1.9-1.9c0.9-0.6,1.7-1,2.8-1.4c1-0.4,2.2-0.7,3.5-1.2l-0.1,8.4
			C-129.5,262-130.2,262.7-130.9,263.3 M-122.1,264.3c-0.3-0.1-0.7-0.1-1-0.3c-0.4-0.1-0.7-0.4-1-0.9c-0.1-0.4-0.3-0.9-0.3-1.4V260
			l0,0c0-1.6,0-3,0-4.3c0-1.7,0-3.8,0-6.1c0-1.6-0.1-2.9-0.6-3.9c-0.4-1-1-1.9-1.9-2.5c-0.9-0.6-1.7-1-2.8-1.2s-2.2-0.3-3.5-0.3
			c-1,0-1.9,0.1-2.9,0.4c-1,0.3-1.9,0.7-2.6,1.2c-0.9,0.6-1.4,1.2-2,1.9c-0.6,0.7-0.7,1.4-0.7,2.2s0.1,1.3,0.6,1.9
			c0.4,0.6,1,0.9,1.7,0.9c0.9,0,1.6-0.3,2-0.7c0.4-0.4,0.7-1,0.7-1.6s-0.1-1.2-0.3-1.7c-0.1-0.6-0.3-1.2-0.3-1.4
			c0.3-0.3,0.7-0.6,1.3-0.7c0.6-0.3,1.3-0.4,2-0.4c1,0,1.9,0.3,2.5,0.7c0.6,0.4,1,1,1.3,1.6c0.3,0.6,0.4,1.2,0.6,1.7
			c0.1,0.6,0.1,1,0.1,1.2v2.5c-0.7,0.4-2.2,1-4.3,1.7c-2.2,0.7-3.6,1.3-4.3,1.6c-0.6,0.3-1.2,0.6-1.9,0.9c-0.6,0.4-1.2,0.9-1.6,1.3
			c-0.4,0.6-0.9,1.3-1.2,2c-0.3,0.7-0.4,1.6-0.4,2.5c0,1.7,0.6,3.2,1.7,4.3s2.6,1.6,4.3,1.6c1.6,0,3-0.3,4.2-0.9
			c1.2-0.6,2.3-1.4,3.3-2.6h0.1c0.1,1.2,0.7,2,1.4,2.6c0.7,0.6,1.7,0.9,2.9,0.9c0.7,0,2.6-0.3,3.3-0.4V265
			C-121.4,264.5-121.8,264.5-122.1,264.3"/>
	</g>
	<g id="g3108" transform="translate(224.9546,36.8176)">
		<path id="path3110" fill="#FFFFFF" d="M-111.8,235.7c0,0.9-0.1,1.6-0.6,2.2s-1,1-1.9,1
			s-1.6-0.3-2-0.7c-0.4-0.4-0.7-1-0.7-1.6c0-0.3,0-0.7,0.1-1c0-0.3,0.1-0.6,0.1-0.9c-0.7,0-1.6,0.3-2.6,0.9c-1,0.6-1.9,1.4-2.5,2.6
			v13.9c0,0.6,0.1,1,0.3,1.4c0.1,0.3,0.6,0.6,1,0.9c0.4,0.1,0.9,0.3,1.6,0.4c0.6,0.1,1.2,0.1,1.6,0.1v1.6h-12.3V255
			c0.4,0,0.7,0,1.2-0.1c0.4,0,0.7-0.1,1-0.1c0.4-0.1,0.7-0.4,1-0.7c0.1-0.4,0.3-0.9,0.3-1.4v-14.8c0-0.4-0.1-1-0.3-1.4
			c-0.1-0.4-0.6-0.9-1-1.2c-0.3-0.1-0.7-0.3-1-0.4c-0.4-0.1-0.9-0.1-1.3-0.1V233l7.8-0.6l0.3,0.3v3.3h0.1c1-1.3,2-2.3,3.3-3
			c1.2-0.7,2.3-1,3.3-1s1.7,0.3,2.5,1C-112.3,233.7-111.8,234.6-111.8,235.7"/>
	</g>
	<g id="g3112" transform="translate(230.2261,27.9646)">
		<path id="path3114" fill="#FFFFFF" d="M-107.6,261c0,0.6,0.1,1,0.3,1.4c0.1,0.4,0.6,0.6,1,0.9
			c0.3,0.1,0.7,0.3,1,0.3c0.3,0.1,0.7,0.1,1.2,0.1v1.6h-11.3v-1.6c0.4,0,0.7,0,1.2-0.1c0.4,0,0.7-0.1,1-0.1c0.4-0.1,0.7-0.4,1-0.7
			c0.1-0.4,0.3-0.9,0.3-1.4v-14.8c0-0.6-0.1-1-0.3-1.4c-0.3-0.4-0.6-0.7-1-1c-0.3-0.1-0.7-0.3-1.3-0.4c-0.6-0.1-1-0.3-1.6-0.3v-1.6
			l8.3-0.6l0.3,0.3L-107.6,261L-107.6,261z"/>
	</g>
	<g id="g3116" transform="translate(241.555,31.9153)">
		<path id="path3118" fill="#FFFFFF" d="M-98.4,249.6c0.6,0.6,1.2,1.3,1.4,2
			c0.3,0.7,0.6,1.7,0.6,2.8c0,2.2-0.9,4.1-2.5,5.4c-1.6,1.4-3.8,2.2-6.2,2.2c-1.3,0-2.6-0.3-3.8-0.7c-1.2-0.4-2-1-2.5-1.4l-0.4,1.6
			h-1.7l-0.3-8.3h1.6c0.1,0.6,0.4,1.3,0.9,2.2c0.4,0.9,0.9,1.6,1.4,2.3s1.3,1.3,2.2,1.7c0.9,0.4,1.9,0.7,2.9,0.7
			c1.4,0,2.6-0.3,3.5-1c0.9-0.7,1.2-1.7,1.2-3c0-0.7-0.1-1.3-0.4-1.7c-0.3-0.4-0.6-0.9-1.2-1.3c-0.6-0.4-1.2-0.7-1.9-1
			c-0.7-0.3-1.6-0.6-2.5-0.9c-0.7-0.3-1.6-0.6-2.5-0.9c-0.9-0.4-1.7-0.9-2.3-1.4c-0.7-0.6-1.3-1.3-1.7-2c-0.4-0.9-0.7-1.7-0.7-2.9
			c0-1.9,0.7-3.6,2.2-4.9c1.4-1.3,3.3-2,5.7-2c0.9,0,1.9,0.1,2.8,0.3c1,0.3,1.7,0.6,2.3,0.9l0.6-1.3h1.7l0.3,7.7h-1.6
			c-0.3-1.7-1-3.2-2.2-4.2c-1.2-1-2.5-1.6-4.1-1.6c-1.3,0-2.3,0.3-3,1c-0.7,0.7-1.2,1.4-1.2,2.5c0,0.7,0.1,1.3,0.4,1.9
			c0.3,0.4,0.6,0.9,1.2,1.3c0.4,0.3,1,0.6,1.7,0.9c0.7,0.3,1.6,0.6,2.6,1c1,0.3,2,0.7,2.9,1.2C-99.7,248.6-99,249.2-98.4,249.6"/>
	</g>
	<g id="g3120" transform="translate(249.9109,25.2785)">
		<path id="path3122" fill="#FFFFFF" d="M-91.6,268.7c-3.3,0-5.9-1.2-8-3.5
			c-1.9-2.3-2.9-5.4-2.9-9.3c0-1.7,0.3-3.2,0.7-4.8c0.6-1.4,1.3-2.8,2.2-4.1c0.9-1.2,2-2,3.5-2.8c1.4-0.7,2.9-1,4.6-1
			c2.3,0,4.2,0.6,5.7,1.7c1.4,1.2,2.2,2.6,2.2,4.6c0,0.9-0.1,1.6-0.6,2.2c-0.4,0.6-1,0.9-1.9,0.9c-0.9,0-1.6-0.3-2.2-0.7
			s-0.7-1-0.7-1.6c0-0.7,0.1-1.4,0.3-2.2c0.1-0.7,0.3-1.3,0.3-1.7c-0.3-0.4-0.7-0.9-1.3-1c-0.6-0.1-1.2-0.3-1.7-0.3
			c-0.7,0-1.4,0.1-2.2,0.4c-0.7,0.3-1.3,1-2,1.9c-0.6,0.9-1,1.9-1.4,3.3c-0.4,1.3-0.6,3-0.6,4.9c0,3,0.6,5.5,1.9,7.4
			c1.3,1.9,3,2.9,5.1,2.9c1.6,0,2.8-0.4,3.8-1.2c1-0.7,2-1.9,2.9-3.5l1.4,1c-1,1.9-2.5,3.5-4.1,4.5C-88,268.1-89.7,268.7-91.6,268.7
			"/>
	</g>
	<g id="g3124" transform="translate(268.1834,31.6842)">
		<path id="path3126" fill="#FFFFFF" d="M-76.7,250.4c0-0.4-0.1-0.9-0.3-1.2
			c-0.1-0.3-0.4-0.6-0.7-0.9c-0.3-0.1-0.7-0.3-1.2-0.3c-0.7,0-1.4,0.3-1.9,1c-0.6,0.6-0.7,1.6-0.9,2.8h4.9
			C-76.6,251.3-76.6,250.8-76.7,250.4"/>
	</g>
	<g id="g3128" transform="translate(268.572,27.5658)">
		<path id="path3130" fill="#FFFFFF" d="M-76.4,262.2c-0.7,0.6-1.6,0.7-2.6,0.7
			c-0.9,0-1.6-0.1-2.3-0.4c-0.6-0.3-1.2-0.7-1.6-1.3c-0.4-0.6-0.7-1.2-1-1.9c-0.1-0.7-0.3-1.4-0.3-2.3c0-0.7,0.1-1.4,0.3-2.2
			c0.3-0.7,0.6-1.3,1-1.9c0.4-0.6,0.9-1,1.6-1.3c0.6-0.3,1.3-0.4,2-0.4s1.4,0.1,2,0.4c0.6,0.3,1,0.6,1.3,1c0.3,0.4,0.6,0.9,0.7,1.4
			c0.1,0.6,0.3,1.2,0.3,1.9v0.7h-7.1c0,0.7,0,1.4,0.1,2c0.1,0.6,0.3,1.2,0.6,1.6c0.3,0.4,0.7,0.7,1.2,1c0.4,0.3,1,0.4,1.6,0.4
			c0.6,0,1.2-0.1,1.7-0.4c0.4-0.3,0.9-0.9,1.3-1.7l0.7,0.4C-75,260.9-75.7,261.6-76.4,262.2 M-85,262.6h-5.2v-0.7c0.1,0,0.3,0,0.6,0
			c0.1,0,0.3,0,0.4-0.1c0.1,0,0.3-0.1,0.4-0.3c0.1-0.1,0.1-0.4,0.1-0.7v-6.8c0-0.3,0-0.4-0.1-0.7c-0.1-0.1-0.3-0.4-0.4-0.4
			c-0.1-0.1-0.3-0.1-0.6-0.3c-0.3,0-0.4-0.1-0.7-0.1v-0.7l3.8-0.3l0.1,0.1v9c0,0.3,0,0.4,0.1,0.6c0.1,0.1,0.3,0.3,0.4,0.4
			c0.1,0,0.3,0.1,0.4,0.1c0.1,0,0.3,0,0.6,0.1L-85,262.6L-85,262.6z M-92.4,262.5c-0.3,0.3-0.6,0.4-1,0.4c-0.4,0-0.7-0.1-1-0.4
			c-0.3-0.3-0.4-0.6-0.4-1c0-0.4,0.1-0.7,0.4-1s0.6-0.4,1-0.4c0.4,0,0.7,0.1,1,0.4c0.3,0.3,0.4,0.7,0.4,1
			C-91.9,261.7-92.1,262.2-92.4,262.5 M-88.7,246.1c0.3-0.3,0.6-0.4,1-0.4s0.7,0.1,1,0.4c0.3,0.3,0.4,0.6,0.4,1
			c0,0.4-0.1,0.9-0.4,1.2c-0.3,0.3-0.6,0.4-1,0.4s-0.7-0.1-1-0.4c-0.3-0.3-0.4-0.6-0.4-1C-89.2,246.8-89,246.4-88.7,246.1
			 M-75.5,241.9H-94c-1.6,0-2.9,1.4-2.9,3.2v18.6c0,1.7,1.3,3.2,2.9,3.2h18.4c1.6,0,2.9-1.4,2.9-3.2v-18.6
			C-72.6,243.3-74,241.9-75.5,241.9"/>
	</g>
	<g id="g3132" transform="translate(165.1729,44.1191)">
		<path id="path3134" fill="#FFFFFF" d="M-160.6,214.8v0.4v7.1h1.6c0.1-0.4,0.4-0.9,0.7-1.6
			c0.3-0.7,0.7-1.2,1.3-1.7c0.4-0.6,1-1,1.6-1.4c0.6-0.4,1.2-0.7,1.6-0.7c0.7,0,1.3-0.1,2-0.1c0.7,0,1.3,0,1.9,0h1.3v27.7
			c0,0.7-0.1,1.2-0.4,1.6c-0.3,0.4-0.6,0.7-1.2,0.9c-0.3,0.1-1,0.3-1.9,0.4c-0.9,0.1-1.6,0.1-2,0.1v1.7h15.8v-1.7
			c-0.4,0-1.2-0.1-2.2-0.3c-0.9-0.1-1.4-0.3-1.7-0.4c-0.6-0.3-0.9-0.6-1.2-1c-0.3-0.4-0.3-0.9-0.3-1.4v-27.5h1.3c0.6,0,1.3,0,2,0
			s1.3,0,1.9,0.1c0.6,0,1,0.3,1.6,0.7c0.6,0.4,1,0.9,1.6,1.4c0.4,0.6,0.9,1.2,1.3,1.7c0.4,0.6,0.6,1.2,0.7,1.6h1.6v-7.1v-0.4H-160.6
			z"/>
	</g>
</g>
<g id="Greann">
	<g id="g5">
		<path id="path7" fill="#FFFFFC" d="M100.5,325.7h-3.2l-1.1,2.2h-3l5.6-10.9h3.8l1.9,10.9h-3.5L100.5,325.7z M100.3,323.5l-0.5-3.2
			l-1.6,3.2H100.3z"/>
		<path id="path9" fill="#FFFFFC" d="M114.3,323.4l1.3,4.6h-3.6l-1.1-4.1h-1.4l-0.8,4.1h-3.4l2-10.9h5.2c1.4,0,2.5,0.3,3.2,0.8
			c0.7,0.6,1,1.3,1,2.3C116.8,321.8,116,322.8,114.3,323.4z M110,321.6h1.4c1.3,0,1.9-0.4,1.9-1.2c0-0.7-0.5-1-1.6-1h-1.3L110,321.6
			z"/>
	</g>
	<path id="path11" fill="#FFFFFC" d="M78.5,329.2l-18.9,3.4c-0.5-1.6-1.9-2.8-4-3.7c-2.2-0.9-4.5-1.3-7.1-1.3
		c-4.8,0-7.3,1.1-7.3,3.4c0,0.7,0.3,1.4,1,1.9c0.7,0.5,2.6,1.2,5.8,2l11.7,3c3.1,0.8,5.9,1.9,8.5,3.4c2.6,1.5,4.5,3.1,5.7,4.9
		c1.2,1.8,1.7,3.7,1.7,5.7c0,5.3-2.9,9.6-8.8,13c-5.8,3.4-13.6,5.2-23.4,5.2c-8.3,0-15.6-1.2-21.8-3.6c-6.2-2.4-10.5-6-13-11
		l21.2-2.9c1.8,3.7,6.4,5.5,13.6,5.5c3,0,5.2-0.4,6.5-1.2c1.3-0.8,2-1.7,2-2.7c0-0.6-0.3-1.2-0.8-1.7c-0.5-0.5-1.1-0.8-1.7-1
		c-0.6-0.2-3.4-1-8.4-2.3c-6.7-1.8-11.5-3.2-14.2-4.2c-2.7-1-5-2.6-6.8-4.6c-1.8-2-2.7-4.4-2.7-7.2c0-4.8,2.5-8.8,7.4-12.1
		c4.9-3.3,12.5-4.9,22.7-4.9c7.8,0,14.4,1.2,19.9,3.5C73,322.1,76.7,325.2,78.5,329.2z"/>
	<path id="path13" fill="#FFFFFC" d="M103,370.4c-7.6,0-13.9-1.6-19.1-4.8c-5.2-3.2-7.7-7.6-7.7-13.1c0-6.6,3-12.1,9-16.4
		c6-4.3,13.5-6.4,22.7-6.4c8.3,0,15,1.7,19.9,5c4.9,3.3,7.4,7.5,7.4,12.4c0,7.3-3.2,13-9.5,17.1C119.3,368.4,111.8,370.4,103,370.4z
		 M103.9,361c3.8,0,6.3-2,7.7-6c1.3-4,2-7.3,2-10c0-4.1-2.1-6.1-6.2-6.1c-3.7,0-6.3,2-7.7,6.1c-1.4,4.1-2.1,7.4-2.1,9.9
		C97.5,359,99.7,361,103.9,361z"/>
	<path id="path15" fill="#FFFFFC" d="M141.9,330.7h19l-1.4,6.3c1.5-2.6,3.9-4.4,7.2-5.6c3.3-1.2,6.9-1.8,10.5-1.8
		c4.6,0,8.4,0.9,11.3,2.6c2.9,1.7,4.3,4,4.3,6.8c0,1.1-0.2,2.4-0.5,3.9l-6.2,26.3h-20.7l5.5-23.2c0.4-1.5,0.5-2.5,0.5-2.9
		c0-2.2-1.6-3.2-4.8-3.2c-4.3,0-7,2.1-8,6.2l-5.5,23.2h-20.2L141.9,330.7z"/>
	<g id="g17">
		<path id="path19" fill="#FFFFFC" d="M116,372.1l-2.1,12.5h-2.8l-2.4-4.8c-0.7-1.3-1.1-2.4-1.2-3.1c0,0.2,0,0.3,0,0.4
			c0,0.3,0,0.8-0.1,1.4l-1,6.1h-3.1l2.1-12.5h3.4l1.4,2.9c1,2,1.6,3.5,1.9,4.5c0-0.3,0-0.4,0-0.6c0-0.4,0.1-1,0.2-2l0.8-4.8
			L116,372.1L116,372.1z"/>
		<path id="path21" fill="#FFFFFC" d="M122.6,382.1h-3.4l-1.2,2.6H115l5.8-12.5h3.9l1.9,12.5H123L122.6,382.1z M122.4,379.5
			l-0.5-3.6l-1.7,3.6H122.4z"/>
		<path id="path23" fill="#FFFFFC" d="M140.3,379.8l3.4,0.4c-0.4,1.4-1.1,2.5-2,3.4c-1,0.9-2.2,1.3-3.6,1.3c-1.6,0-2.8-0.5-3.8-1.6
			c-0.9-1.1-1.4-2.4-1.4-4.1c0-1.9,0.6-3.6,1.7-5.1c1.1-1.5,2.7-2.2,4.7-2.2c1.5,0,2.6,0.4,3.5,1.3c0.9,0.9,1.4,2.1,1.4,3.5
			l-3.5,0.3c0-0.8-0.1-1.3-0.4-1.7c-0.2-0.4-0.6-0.6-1.1-0.6c-0.9,0-1.6,0.7-1.9,2.1c-0.3,1.4-0.5,2.5-0.5,3.3
			c0,1.3,0.5,1.9,1.5,1.9c0.5,0,0.9-0.2,1.2-0.5C139.9,381.1,140.1,380.5,140.3,379.8z"/>
		<path id="path25" fill="#FFFFFC" d="M156.6,372.1l-1.3,7.7c-0.2,1.3-0.5,2.3-0.9,2.9c-0.4,0.6-1,1.1-1.8,1.5
			c-0.8,0.4-1.8,0.6-3,0.6c-1.5,0-2.6-0.3-3.5-1c-0.8-0.6-1.2-1.5-1.2-2.7c0-0.4,0-0.9,0.1-1.4l1.3-7.7h3.8l-1.3,7.7
			c-0.1,0.4-0.1,0.7-0.1,0.9c0,0.4,0.2,0.7,0.5,0.9c0.3,0.2,0.7,0.3,1.1,0.3c0.5,0,1-0.1,1.2-0.4s0.5-0.8,0.6-1.6l1.3-7.8
			L156.6,372.1L156.6,372.1z M150.5,370.9l4.1-1.2l0.6,1.7l-4.3,0.7L150.5,370.9z"/>
		<path id="path27" fill="#FFFFFC" d="M162.2,372.1l-2.1,12.5h-3.6l2.1-12.5H162.2z"/>
		<path id="path29" fill="#FFFFFC" d="M173.7,375l-3.2,0.8c-0.1-0.4-0.3-0.7-0.7-0.9c-0.4-0.2-0.8-0.3-1.2-0.3
			c-0.8,0-1.2,0.3-1.2,0.8c0,0.2,0.1,0.3,0.2,0.5c0.1,0.1,0.4,0.3,1,0.5l2,0.7c0.5,0.2,1,0.5,1.5,0.8c0.4,0.4,0.8,0.7,1,1.2
			c0.2,0.4,0.3,0.9,0.3,1.4c0,1.3-0.5,2.3-1.5,3.1c-1,0.8-2.3,1.2-4,1.2c-1.4,0-2.7-0.3-3.7-0.9c-1.1-0.6-1.8-1.5-2.2-2.6l3.6-0.7
			c0.3,0.9,1.1,1.3,2.3,1.3c0.5,0,0.9-0.1,1.1-0.3c0.2-0.2,0.3-0.4,0.3-0.6c0-0.2,0-0.3-0.1-0.4c-0.1-0.1-0.2-0.2-0.3-0.3
			c-0.1-0.1-0.6-0.2-1.4-0.5c-1.2-0.4-2-0.8-2.4-1c-0.5-0.2-0.8-0.6-1.2-1.1c-0.3-0.5-0.5-1.1-0.5-1.7c0-1.1,0.4-2.1,1.3-2.9
			c0.8-0.8,2.1-1.2,3.9-1.2c1.3,0,2.5,0.3,3.4,0.8C172.7,373.3,173.4,374,173.7,375z"/>
		<path id="path31" fill="#FFFFFC" d="M183.6,381.7l-0.5,2.9h-9.2l2.1-12.5h9l-0.5,2.7h-5.4l-0.3,2h4.5l-0.5,2.7h-4.5l-0.4,2.2
			H183.6L183.6,381.7z"/>
	</g>
</g>
<g id="Foras_Dark">
	<g>
		<path fill="#010101" d="M245.6,228.5c0,0.8,0,1.4,0.2,1.6c0.1,0.2,0.4,0.3,0.9,0.3l1,0.1v0.6c-1.1,0-2.1-0.1-3.1-0.1
			c-1,0-2,0-3.1,0.1v-0.6l1-0.1c0.5,0,0.8-0.1,0.9-0.3c0.1-0.2,0.2-0.8,0.2-1.6V219c0-0.8,0-1.4-0.2-1.6c-0.1-0.2-0.4-0.3-0.9-0.3
			l-1-0.1v-0.6c0.6,0,1.2,0,1.8,0c0.6,0,1.2,0,1.8,0c1.4,0,3.3-0.1,4.6-0.1c0.9,0,1.9,0,2.7,0.1c-0.2,0.9-0.3,2.1-0.3,3.2h-0.7v-1.4
			c0-0.3,0-0.5-0.2-0.6c-1.1-0.4-2.8-0.5-3.7-0.5c-0.6,0-1.2,0-1.8,0.2v5.6c0.7,0,1.4,0.1,2.4,0.1c1.3,0,2-0.1,2.2-0.2
			c0.1-0.1,0.1-0.3,0.2-0.6l0.1-1.1h0.6c0,0.9-0.1,1.7-0.1,2.4s0,1.6,0.1,2.3h-0.6l-0.1-1.3c0-0.3-0.1-0.5-0.2-0.5
			c-0.2-0.2-0.9-0.2-2.2-0.2c-1,0-1.8,0-2.4,0.1V228.5z"/>
		<path fill="#010101" d="M257.9,231.4c-2.6,0-4.5-2.1-4.5-4.9c0-3.2,2-5.4,5.4-5.4c2.7,0,4.8,2.1,4.8,4.8c0,3.2-2.3,5.5-5.5,5.5
			H257.9z M255.4,225.6c0,2.2,0.8,5.2,3.5,5.2c1.9,0,2.8-1.9,2.8-3.9c0-2.7-1.3-5.1-3.3-5.1C256.1,221.8,255.4,223.6,255.4,225.6z"
			/>
		<path fill="#010101" d="M266.5,224.1c0-0.7,0-1.2-0.1-1.3c-0.1-0.2-0.3-0.2-0.8-0.2h-0.8v-0.6c1.3-0.1,2.5-0.5,3.3-0.9l0.2,0.1
			v2.2h0l1.1-1.4c0.5-0.6,1.2-0.9,1.8-0.9c0.3,0,0.8,0.1,1,0.2l-0.2,2.5h-0.5c-0.2-0.5-0.7-1-1.4-1c-0.9,0-1.8,1-1.8,2.3v3.6
			c0,0.6,0,1,0.1,1.2c0.1,0.2,0.4,0.3,0.9,0.3l1.1,0.1v0.6c-1.1,0-2-0.1-3-0.1c-1,0-1.9,0-2.6,0.1v-0.6l1-0.1c0.3,0,0.6-0.1,0.7-0.3
			c0.1-0.2,0.1-0.7,0.1-1.2L266.5,224.1L266.5,224.1z"/>
		<path fill="#010101" d="M279.4,224.9L279.4,224.9c0-1.7-0.8-2.7-2.6-2.7c-0.9,0-1.2,0.1-1.5,0.5c-0.1,0.2-0.2,0.4-0.3,0.7
			l-0.3,0.7l-0.6-0.1v-1.4l1.1-0.7c0.9-0.6,1.8-0.7,2.4-0.7c2.6,0,3.5,1.2,3.5,4.2v3.9c0,0.3,0,0.7,0.1,0.9c0,0.2,0.2,0.3,0.5,0.3
			l0.8,0v0.6c-0.5,0-1-0.1-1.6-0.1c-0.6,0-1.1,0-1.6,0.1l0.1-1.8l-2.6,1.8c-0.2,0.1-0.6,0.2-1,0.2c-1.4,0-2.6-0.8-2.6-2.5
			c0-2.4,2.1-3,4.1-3.4L279.4,224.9z M279.4,225.6c-1,0.1-2,0.3-3.1,0.7c-0.7,0.3-1.3,1.2-1.3,2c0,1.1,0.8,1.7,1.6,1.7
			c0.7,0,1.3-0.5,2-1c0.3-0.2,0.6-0.6,0.7-0.7V225.6L279.4,225.6z"/>
		<path fill="#010101" d="M284.6,228v0.9c0,1.3,1.5,1.8,2.7,1.8c1.3,0,2.5-0.8,2.5-1.9c0-0.7-0.3-1.2-1-1.4
			c-0.9-0.2-2.1-0.5-3.1-0.8c-1-0.4-1.8-1-1.8-2.3c0-2.3,2-3.1,4-3.1c1,0,1.9,0.2,2.7,0.5c-0.1,0.8-0.1,1.5-0.1,2.4h-0.6v-0.5
			c0-1.1-1.2-1.7-2.4-1.7c-1.8,0-2.1,1-2.1,1.7c0,0.9,0.7,1.4,2.3,1.7c2.5,0.4,3.7,1,3.7,2.7c0,2.3-2.3,3.6-4.7,3.6
			c-1,0-1.9-0.1-3-0.5c0.2-0.9,0.2-2,0.2-2.9L284.6,228L284.6,228z"/>
		<path fill="#010101" d="M301,228.8c0,0.6,0,1,0.1,1.2c0.1,0.2,0.3,0.3,0.7,0.3l0.9,0.1v0.6c-0.7,0-1.6-0.1-2.6-0.1s-1.9,0-2.6,0.1
			v-0.6l0.9-0.1c0.3,0,0.6-0.1,0.7-0.3c0.1-0.2,0.1-0.7,0.1-1.2v-4.7c0-0.7,0-1.2-0.1-1.3c-0.1-0.2-0.3-0.2-0.8-0.2h-0.8v-0.6
			c1.3-0.1,2.5-0.5,3.3-0.9l0.2,0.1v1.8h0l1.6-1.4c0.5-0.4,0.9-0.5,1.7-0.5c2.5,0,3.5,1.4,3.5,3.7v4.1c0,0.6,0,1,0.1,1.2
			c0.1,0.2,0.3,0.3,0.7,0.3l0.9,0.1v0.6c-0.5,0-1.2-0.1-1.7-0.1s-1.2,0-1.7,0.1v-6c0-1.7-1-2.7-2.4-2.7c-1.3,0-2.6,1.1-2.6,2
			L301,228.8L301,228.8z"/>
		<path fill="#010101" d="M316.5,224.9L316.5,224.9c0-1.7-0.8-2.7-2.6-2.7c-0.9,0-1.2,0.1-1.5,0.5c-0.1,0.2-0.2,0.4-0.3,0.7
			l-0.3,0.7l-0.6-0.1v-1.4l1.1-0.7c0.9-0.6,1.8-0.7,2.4-0.7c2.6,0,3.5,1.2,3.5,4.2v3.9c0,0.3,0,0.7,0.1,0.9c0,0.2,0.2,0.3,0.5,0.3
			l0.8,0v0.6c-0.5,0-1-0.1-1.6-0.1c-0.6,0-1.1,0-1.6,0.1l0.1-1.8l-2.6,1.8c-0.2,0.1-0.6,0.2-1,0.2c-1.4,0-2.6-0.8-2.6-2.5
			c0-2.4,2.1-3,4.1-3.4L316.5,224.9z M316.5,225.6c-1,0.1-2,0.3-3.1,0.7c-0.7,0.3-1.3,1.2-1.3,2c0,1.1,0.8,1.7,1.6,1.7
			c0.7,0,1.3-0.5,2-1c0.3-0.2,0.6-0.6,0.7-0.7V225.6z"/>
		<path fill="#010101" d="M338,226.8c0-0.5-0.2-0.7-0.7-0.7l-1.7-0.1v-0.6c0.9,0,1.7,0,2.6,0c0.9,0,1.7,0,2.6,0l0.1,0.5l-0.6,0.2
			c-0.2,0.1-0.2,0.2-0.2,0.8v3.6c-1.8,0.5-4.1,1.1-5.5,1.1c-4.7,0-8.5-2.4-8.5-7.7c0-4.6,3.8-7.6,8.9-7.6c2.6,0,4.3,0.6,5.2,0.9
			c-0.2,1-0.4,2.1-0.4,3.2H339v-1.1c0-1-0.8-1.3-1.7-1.7c-0.7-0.2-1.6-0.4-3-0.4c-4,0-6.1,2.6-6.1,6.4c0,4.2,2.4,7.2,6.8,7.2
			c1.6,0,2.8-0.3,3-0.7c0.1-0.2,0.1-0.3,0.1-0.9L338,226.8L338,226.8z"/>
		<path fill="#010101" d="M348.4,224.9L348.4,224.9c0-1.7-0.8-2.7-2.6-2.7c-0.9,0-1.2,0.1-1.5,0.5c-0.1,0.2-0.2,0.4-0.3,0.7
			l-0.3,0.7l-0.6-0.1v-1.4l1.1-0.7c0.9-0.6,1.8-0.7,2.4-0.7c2.6,0,3.5,1.2,3.5,4.2v3.9c0,0.3,0,0.7,0.1,0.9c0,0.2,0.2,0.3,0.5,0.3
			l0.8,0v0.6c-0.5,0-1-0.1-1.6-0.1c-0.6,0-1.1,0-1.6,0.1l0.1-1.8l-2.6,1.8c-0.2,0.1-0.6,0.2-1,0.2c-1.4,0-2.6-0.8-2.6-2.5
			c0-2.4,2.1-3,4.1-3.4L348.4,224.9z M348.4,225.6c-1,0.1-2,0.3-3.1,0.7c-0.7,0.3-1.3,1.2-1.3,2c0,1.1,0.8,1.7,1.6,1.7
			c0.7,0,1.3-0.5,2-1c0.3-0.2,0.6-0.6,0.7-0.7V225.6z"/>
		<path fill="#010101" d="M361.5,225c0,0.3,0,0.6,0,0.9c-1.3,0.2-2.5,0.3-3.8,0.3h-3.1c0,2.5,1.2,4.1,3.8,4.1c1,0,1.8-0.5,2.6-1
			l0.3,0.2l-0.4,0.7c-0.1,0.2-2,1.2-3.4,1.2c-3.2,0-4.9-2-4.9-4.9c0-2.1,0.6-3.3,1.5-4c0.4-0.3,0.8-0.6,1.3-0.8
			c0.7-0.3,1.4-0.6,2.1-0.6C359.8,221.1,361.5,222.6,361.5,225z M354.6,225v0.3c0.9,0.1,1.8,0.1,2.7,0.1c0.8,0,1.6,0,2.3-0.1
			c0-2-0.7-3.6-2.2-3.6C355.8,221.8,354.6,222.9,354.6,225z"/>
		<path fill="#010101" d="M366.2,228.8c0,0.6,0,1,0.1,1.2c0.1,0.2,0.3,0.3,0.7,0.3l1,0.1v0.6c-0.8,0-1.6-0.1-2.6-0.1s-1.9,0-2.6,0.1
			v-0.6l1-0.1c0.3,0,0.6-0.1,0.7-0.3c0.1-0.2,0.1-0.7,0.1-1.2v-4.7c0-0.7,0-1.2-0.1-1.3c-0.1-0.2-0.3-0.2-0.8-0.2h-0.8v-0.6
			c1.3-0.1,2.5-0.5,3.3-0.9l0.2,0.1L366.2,228.8L366.2,228.8z M366.3,217.7c0,0.6-0.6,1.2-1.2,1.2c-0.6,0-1.2-0.6-1.2-1.2
			c0-0.6,0.6-1.2,1.2-1.2S366.3,217.1,366.3,217.7z"/>
		<path fill="#010101" d="M370.5,217.9c0-0.5-0.1-0.9-0.5-0.9h-1.2v-0.6c1.1-0.2,2.2-0.3,3.3-0.8l0.2,0.2v13c0,0.6,0,1,0.1,1.2
			c0.1,0.2,0.3,0.3,0.7,0.3l1,0.1v0.6c-0.8,0-1.6-0.1-2.6-0.1s-1.9,0-2.6,0.1v-0.6l1-0.1c0.3,0,0.6-0.1,0.7-0.3
			c0.1-0.2,0.1-0.7,0.1-1.2L370.5,217.9L370.5,217.9z"/>
		<path fill="#010101" d="M383.4,223c0.2,0.4,0.2,0.8,0.2,1.2c0,1.2-0.6,2.1-1.4,2.6c-0.9,0.7-2,1-3,1c-0.1,0-0.3,0-0.5,0
			c-0.3,0.3-1,0.7-1,1.2c0,0.8,1,0.8,1.6,0.8h3.4c1.9,0,2.5,1.6,2.5,2.6c0,2.2-2.2,4.5-5.7,4.5c-2.5,0-4.5-1.3-4.5-3.2
			c0-0.6,0.1-1.3,0.6-1.7l1.8-1c-0.9-0.2-1.4-0.6-1.4-1.3c0-0.3,0.1-0.6,0.3-0.9l1.6-1.3v0c-0.7,0-2.5-0.6-2.5-2.8
			c0-1.4,0.7-2.3,1.6-2.9c1-0.6,2.3-0.9,3.1-0.9c0.9,0,1.9,0.3,2.6,0.9l3-0.1l0.1,0.2l-0.5,0.9L383.4,223z M383.7,233.2
			c0-1.3-0.6-1.9-3-1.9c-0.6,0-1.3,0-2.2,0.1c-0.6,0.1-1.8,0.9-1.8,2.2c0,1.8,1.4,2.7,3.1,2.7C382.1,236.3,383.7,234.9,383.7,233.2z
			 M379.5,221.8c-1.4,0-2.1,1.1-2.1,2.5c0,1.8,1,2.8,2.4,2.8c1.2,0,2.1-0.9,2.1-2.2C381.9,223.3,381.2,221.8,379.5,221.8z"/>
		<path fill="#010101" d="M395.6,225c0,0.3,0,0.6,0,0.9c-1.3,0.2-2.5,0.3-3.8,0.3h-3.1c0,2.5,1.2,4.1,3.8,4.1c1,0,1.8-0.5,2.6-1
			l0.3,0.2l-0.4,0.7c-0.1,0.2-2,1.2-3.4,1.2c-3.2,0-4.9-2-4.9-4.9c0-2.1,0.6-3.3,1.5-4c0.4-0.3,0.8-0.6,1.3-0.8
			c0.7-0.3,1.4-0.6,2.1-0.6C393.9,221.1,395.6,222.6,395.6,225z M388.7,225v0.3c0.9,0.1,1.8,0.1,2.7,0.1c0.8,0,1.6,0,2.3-0.1
			c0-2-0.7-3.6-2.2-3.6C390,221.8,388.7,222.9,388.7,225z"/>
	</g>
	<path fill="#010101" d="M231.3,230.8c-0.8-5.5-8.4-6.8-11.3-6.8c-2.1,0-6.9,1-6.7,4.3s4.5,4.7,7.5,4.7c3,0,4.6-1.4,4.3-2.5
		c-0.2-1-0.5-1.4-1.6-2.1c-1.8-1.2-0.6-3,1.7-2c2.3,0.9,4.8,4.2,2.8,6.6c-2.1,2.4-5.7,3.1-10.6,2.3s-8-4.3-8-7.4
		c0-3.1,4.5-6.5,10.1-6.3c6,0.2,15.4,2.3,15.3,10.6c1-2.1,1.5-4.4,1.5-6.8c0-4.6-2-8.8-5.1-11.8h-22.4c-3.1,3-5.1,7.2-5.1,11.8
		c0,4.5,1.9,8.6,4.9,11.6h13C225.7,236.6,232,235.4,231.3,230.8z M222.7,229.5c-0.1,1.3-1.9,2.1-3.8,1.9c-2-0.2-3.5-1.4-3.3-2.7
		c0.1-1.3,1.9-2.1,3.9-1.9C221.4,227,222.9,228.3,222.7,229.5z"/>
</g>
<g id="Foras_Light">
	<g>
		<path fill="#FFFFFF" d="M246.3,279c0,0.8,0,1.4,0.2,1.6c0.1,0.2,0.4,0.3,0.9,0.3l1,0.1v0.6c-1.1,0-2.1-0.1-3.1-0.1
			c-1,0-2,0-3.1,0.1v-0.6l1-0.1c0.5,0,0.8-0.1,0.9-0.3c0.1-0.2,0.2-0.8,0.2-1.6v-9.4c0-0.8,0-1.4-0.2-1.6c-0.1-0.2-0.4-0.3-0.9-0.3
			l-1-0.1v-0.6c0.6,0,1.2,0,1.8,0s1.2,0,1.8,0c1.4,0,3.3-0.1,4.6-0.1c0.9,0,1.9,0,2.7,0.1c-0.2,0.9-0.3,2.1-0.3,3.2H252v-1.4
			c0-0.3,0-0.5-0.2-0.6c-1.1-0.4-2.8-0.5-3.7-0.5c-0.6,0-1.2,0-1.8,0.2v5.6c0.7,0,1.4,0.1,2.4,0.1c1.3,0,2-0.1,2.2-0.2
			c0.1-0.1,0.1-0.3,0.2-0.6l0.1-1.1h0.6c0,0.9-0.1,1.7-0.1,2.4c0,0.8,0,1.6,0.1,2.3h-0.6l-0.1-1.3c0-0.3-0.1-0.5-0.2-0.5
			c-0.2-0.2-0.9-0.2-2.2-0.2c-1,0-1.8,0-2.4,0.1V279z"/>
		<path fill="#FFFFFF" d="M258.6,281.9c-2.6,0-4.5-2.1-4.5-4.9c0-3.2,2-5.4,5.4-5.4c2.7,0,4.8,2.1,4.8,4.8c0,3.2-2.3,5.5-5.5,5.5
			H258.6z M256.1,276.1c0,2.2,0.8,5.2,3.5,5.2c1.9,0,2.8-1.9,2.8-3.9c0-2.7-1.3-5.1-3.3-5.1C256.8,272.3,256.1,274.1,256.1,276.1z"
			/>
		<path fill="#FFFFFF" d="M267.1,274.6c0-0.7,0-1.1-0.1-1.3c-0.1-0.2-0.3-0.2-0.8-0.2h-0.8v-0.6c1.3-0.1,2.5-0.5,3.3-0.9l0.2,0.1
			v2.2h0l1.2-1.4c0.5-0.6,1.2-0.9,1.8-0.9c0.3,0,0.8,0.1,1,0.2l-0.2,2.5h-0.5c-0.2-0.5-0.7-1-1.4-1c-0.9,0-1.8,1-1.8,2.3v3.6
			c0,0.6,0,1,0.1,1.2c0.1,0.2,0.4,0.3,0.9,0.3l1.1,0.1v0.6c-1.1,0-2-0.1-3-0.1c-1,0-1.9,0-2.6,0.1v-0.6l1-0.1c0.3,0,0.6-0.1,0.7-0.3
			c0.1-0.2,0.1-0.7,0.1-1.2L267.1,274.6L267.1,274.6z"/>
		<path fill="#FFFFFF" d="M280.1,275.4L280.1,275.4c0-1.7-0.8-2.7-2.6-2.7c-0.9,0-1.2,0.1-1.5,0.5c-0.1,0.2-0.2,0.4-0.3,0.7
			l-0.3,0.7l-0.6-0.1V273l1.1-0.7c0.9-0.6,1.8-0.7,2.4-0.7c2.6,0,3.5,1.2,3.5,4.2v3.9c0,0.3,0,0.7,0.1,0.9c0,0.2,0.2,0.3,0.5,0.3
			l0.8,0v0.6c-0.5,0-1-0.1-1.6-0.1c-0.6,0-1.1,0-1.6,0.1l0.1-1.8l-2.6,1.8c-0.2,0.1-0.6,0.2-1,0.2c-1.4,0-2.6-0.8-2.6-2.5
			c0-2.4,2.1-3,4.1-3.4L280.1,275.4z M280.1,276.1c-1,0.1-2,0.3-3.1,0.7c-0.7,0.3-1.3,1.2-1.3,2c0,1.1,0.8,1.7,1.6,1.7
			c0.7,0,1.3-0.5,2-1c0.3-0.2,0.6-0.6,0.7-0.7V276.1L280.1,276.1z"/>
		<path fill="#FFFFFF" d="M285.3,278.5v0.9c0,1.3,1.5,1.8,2.7,1.8c1.3,0,2.5-0.8,2.5-1.9c0-0.7-0.3-1.2-1-1.4
			c-0.9-0.2-2.1-0.5-3.1-0.8c-1-0.4-1.8-1-1.8-2.3c0-2.3,2-3.1,4-3.1c1,0,1.9,0.2,2.7,0.5c-0.1,0.8-0.1,1.5-0.1,2.4h-0.6v-0.5
			c0-1.1-1.2-1.7-2.4-1.7c-1.8,0-2.1,1-2.1,1.7c0,0.9,0.7,1.4,2.3,1.7c2.5,0.4,3.7,1,3.7,2.7c0,2.3-2.3,3.6-4.7,3.6
			c-1,0-1.9-0.1-3-0.5c0.2-0.9,0.2-2,0.2-2.9L285.3,278.5L285.3,278.5z"/>
		<path fill="#FFFFFF" d="M301.7,279.3c0,0.6,0,1,0.1,1.2c0.1,0.2,0.3,0.3,0.7,0.3l0.9,0.1v0.6c-0.7,0-1.6-0.1-2.6-0.1
			s-1.9,0-2.6,0.1v-0.6l0.9-0.1c0.3,0,0.6-0.1,0.7-0.3c0.1-0.2,0.1-0.7,0.1-1.2v-4.7c0-0.7,0-1.1-0.1-1.3c-0.1-0.2-0.3-0.2-0.8-0.2
			h-0.8v-0.6c1.3-0.1,2.5-0.5,3.3-0.9l0.2,0.1v1.8h0l1.6-1.4c0.5-0.4,0.9-0.5,1.7-0.5c2.5,0,3.5,1.4,3.5,3.7v4.1c0,0.6,0,1,0.1,1.2
			c0.1,0.2,0.3,0.3,0.7,0.3l0.9,0.1v0.6c-0.5,0-1.2-0.1-1.7-0.1s-1.2,0-1.7,0.1v-6c0-1.7-1-2.7-2.4-2.7c-1.3,0-2.6,1.1-2.6,2
			L301.7,279.3L301.7,279.3z"/>
		<path fill="#FFFFFF" d="M317.2,275.4L317.2,275.4c0-1.7-0.8-2.7-2.6-2.7c-0.9,0-1.2,0.1-1.5,0.5c-0.1,0.2-0.2,0.4-0.3,0.7
			l-0.3,0.7l-0.6-0.1V273l1.1-0.7c0.9-0.6,1.8-0.7,2.4-0.7c2.6,0,3.5,1.2,3.5,4.2v3.9c0,0.3,0,0.7,0.1,0.9c0,0.2,0.2,0.3,0.5,0.3
			l0.8,0v0.6c-0.5,0-1-0.1-1.6-0.1c-0.6,0-1.1,0-1.6,0.1l0.1-1.8l-2.6,1.8c-0.2,0.1-0.6,0.2-1,0.2c-1.4,0-2.6-0.8-2.6-2.5
			c0-2.4,2.1-3,4.1-3.4L317.2,275.4z M317.2,276.1c-1,0.1-2,0.3-3.1,0.7c-0.7,0.3-1.3,1.2-1.3,2c0,1.1,0.8,1.7,1.6,1.7
			c0.7,0,1.3-0.5,2-1c0.3-0.2,0.6-0.6,0.7-0.7V276.1z"/>
		<path fill="#FFFFFF" d="M338.7,277.3c0-0.5-0.2-0.7-0.7-0.7l-1.7-0.1v-0.6c0.9,0,1.7,0,2.6,0c0.9,0,1.7,0,2.6,0l0.1,0.5l-0.6,0.2
			c-0.2,0.1-0.2,0.2-0.2,0.8v3.6c-1.8,0.5-4.1,1.1-5.5,1.1c-4.7,0-8.5-2.4-8.5-7.7c0-4.6,3.8-7.6,8.9-7.6c2.6,0,4.3,0.6,5.2,0.9
			c-0.2,1-0.4,2.1-0.4,3.2h-0.7v-1.1c0-1-0.8-1.3-1.7-1.7c-0.7-0.2-1.6-0.4-3-0.4c-4,0-6.1,2.6-6.1,6.4c0,4.2,2.4,7.2,6.8,7.2
			c1.6,0,2.8-0.3,3-0.7c0.1-0.2,0.1-0.3,0.1-0.9L338.7,277.3L338.7,277.3z"/>
		<path fill="#FFFFFF" d="M349,275.4L349,275.4c0-1.7-0.8-2.7-2.6-2.7c-0.9,0-1.2,0.1-1.5,0.5c-0.1,0.2-0.2,0.4-0.3,0.7l-0.3,0.7
			l-0.6-0.1V273l1.1-0.7c0.9-0.6,1.8-0.7,2.4-0.7c2.6,0,3.5,1.2,3.5,4.2v3.9c0,0.3,0,0.7,0.1,0.9c0,0.2,0.2,0.3,0.5,0.3l0.8,0v0.6
			c-0.5,0-1-0.1-1.6-0.1c-0.6,0-1.1,0-1.6,0.1l0.1-1.8l-2.6,1.8c-0.2,0.1-0.6,0.2-1,0.2c-1.4,0-2.6-0.8-2.6-2.5c0-2.4,2.1-3,4.1-3.4
			L349,275.4z M349,276.1c-1,0.1-2,0.3-3.1,0.7c-0.7,0.3-1.3,1.2-1.3,2c0,1.1,0.8,1.7,1.6,1.7c0.7,0,1.3-0.5,2-1
			c0.3-0.2,0.6-0.6,0.7-0.7V276.1z"/>
		<path fill="#FFFFFF" d="M362.2,275.5c0,0.3,0,0.6,0,0.9c-1.3,0.2-2.5,0.3-3.8,0.3h-3.1c0,2.5,1.2,4.1,3.8,4.1c1,0,1.8-0.5,2.6-1
			l0.3,0.2l-0.4,0.7c-0.1,0.2-2,1.2-3.4,1.2c-3.2,0-4.9-2-4.9-4.9c0-2.1,0.6-3.3,1.5-4c0.4-0.3,0.8-0.6,1.3-0.8
			c0.7-0.3,1.4-0.6,2.1-0.6C360.5,271.6,362.2,273.1,362.2,275.5z M355.3,275.5v0.3c0.9,0.1,1.8,0.1,2.7,0.1c0.8,0,1.6,0,2.3-0.1
			c0-2-0.7-3.6-2.2-3.6C356.5,272.3,355.3,273.4,355.3,275.5z"/>
		<path fill="#FFFFFF" d="M366.9,279.3c0,0.6,0,1,0.1,1.2c0.1,0.2,0.3,0.3,0.7,0.3l1,0.1v0.6c-0.8,0-1.6-0.1-2.6-0.1s-1.9,0-2.6,0.1
			v-0.6l1-0.1c0.3,0,0.6-0.1,0.7-0.3c0.1-0.2,0.1-0.7,0.1-1.2v-4.7c0-0.7,0-1.1-0.1-1.3c-0.1-0.2-0.3-0.2-0.8-0.2h-0.8v-0.6
			c1.3-0.1,2.5-0.5,3.3-0.9l0.2,0.1V279.3L366.9,279.3z M367,268.2c0,0.6-0.6,1.2-1.2,1.2s-1.1-0.6-1.1-1.2c0-0.6,0.6-1.2,1.1-1.2
			C366.4,267,367,267.6,367,268.2z"/>
		<path fill="#FFFFFF" d="M371.2,268.4c0-0.5-0.1-0.9-0.5-0.9h-1.2V267c1.1-0.2,2.2-0.3,3.3-0.8l0.2,0.2v13c0,0.6,0,1,0.1,1.2
			c0.1,0.2,0.3,0.3,0.7,0.3l1,0.1v0.6c-0.8,0-1.6-0.1-2.6-0.1s-1.9,0-2.6,0.1v-0.6l1-0.1c0.3,0,0.6-0.1,0.7-0.3
			c0.1-0.2,0.1-0.7,0.1-1.2L371.2,268.4L371.2,268.4z"/>
		<path fill="#FFFFFF" d="M384.1,273.5c0.2,0.4,0.2,0.8,0.2,1.2c0,1.2-0.6,2.1-1.4,2.6c-0.9,0.7-2,1-3,1c-0.1,0-0.3,0-0.5,0
			c-0.3,0.3-1,0.7-1,1.2c0,0.8,1,0.8,1.6,0.8h3.4c1.9,0,2.5,1.6,2.5,2.6c0,2.2-2.2,4.5-5.7,4.5c-2.5,0-4.5-1.3-4.5-3.2
			c0-0.6,0.1-1.3,0.6-1.7l1.8-1c-0.9-0.2-1.4-0.6-1.4-1.3c0-0.3,0.1-0.6,0.3-0.9l1.6-1.3v0c-0.7,0-2.5-0.6-2.5-2.8
			c0-1.4,0.7-2.3,1.6-2.9c1-0.6,2.3-0.9,3.1-0.9c0.9,0,1.9,0.3,2.6,0.9l3-0.1l0.1,0.2l-0.5,0.9L384.1,273.5z M384.4,283.7
			c0-1.3-0.6-1.9-3-1.9c-0.6,0-1.3,0-2.2,0.1c-0.6,0.1-1.8,0.9-1.8,2.2c0,1.8,1.4,2.7,3.1,2.7C382.8,286.8,384.4,285.4,384.4,283.7z
			 M380.2,272.3c-1.4,0-2.1,1.1-2.1,2.5c0,1.8,1,2.8,2.4,2.8c1.2,0,2.1-0.9,2.1-2.2C382.6,273.8,381.9,272.3,380.2,272.3z"/>
		<path fill="#FFFFFF" d="M396.3,275.5c0,0.3,0,0.6,0,0.9c-1.3,0.2-2.5,0.3-3.8,0.3h-3.1c0,2.5,1.2,4.1,3.8,4.1c1,0,1.8-0.5,2.6-1
			l0.3,0.2l-0.4,0.7c-0.1,0.2-2,1.2-3.4,1.2c-3.2,0-4.9-2-4.9-4.9c0-2.1,0.6-3.3,1.5-4c0.4-0.3,0.8-0.6,1.3-0.8
			c0.7-0.3,1.4-0.6,2.1-0.6C394.6,271.6,396.3,273.1,396.3,275.5z M389.4,275.5v0.3c0.9,0.1,1.8,0.1,2.7,0.1c0.8,0,1.6,0,2.3-0.1
			c0-2-0.7-3.6-2.2-3.6C390.7,272.3,389.4,273.4,389.4,275.5z"/>
	</g>
	<path fill="#FFFFFF" d="M232,281.3c-0.8-5.5-8.4-6.8-11.3-6.8c-2.1,0-6.9,1-6.7,4.3s4.5,4.7,7.5,4.7c3,0,4.6-1.4,4.3-2.5
		c-0.2-1-0.5-1.4-1.6-2.1c-1.8-1.2-0.6-3,1.7-2c2.3,0.9,4.8,4.2,2.8,6.6c-2.1,2.4-5.7,3.1-10.6,2.3c-4.8-0.8-8-4.3-8-7.4
		c0-3.1,4.5-6.5,10.1-6.3c6,0.2,15.4,2.3,15.3,10.6c1-2.1,1.5-4.4,1.5-6.8c0-4.6-2-8.8-5.1-11.8h-22.4c-3.1,3-5.1,7.2-5.1,11.8
		c0,4.5,1.9,8.6,4.9,11.6h13C226.4,287.1,232.6,285.9,232,281.3z M223.4,280c-0.1,1.3-1.9,2.1-3.8,1.9c-2-0.2-3.5-1.4-3.3-2.7
		c0.1-1.3,1.9-2.1,3.9-1.9C222.1,277.5,223.6,278.8,223.4,280z"/>
</g>
</svg>
