<?xml version="1.0" encoding="utf-8"?>
<!-- Generator: Adobe Illustrator 19.1.0, SVG Export Plug-In . SVG Version: 6.00 Build 0)  -->
<svg version="1.1" id="Kaitain_Vectors" xmlns="http://www.w3.org/2000/svg" xmlns:xlink="http://www.w3.org/1999/xlink" x="0px"
	 y="0px" width="400px" height="200px" viewBox="100 151 400 200" style="enable-background:new 100 151 400 200;"
	 xml:space="preserve">
<style type="text/css">
	.st0{fill:#988147;}
	.st1{fill:#3F2E49;}
	.st2{fill:none;}
	.st3{fill:#AB3264;}
	.st4{fill:#231F20;}
	.st5{fill:#587085;}
	.st6{fill:#719B59;}
	.st7{fill:#E2E3E4;}
	.st8{fill:#FFFFFF;}
</style>
<g id="Video">
	<path class="st0" d="M140.8,185.2c0,6.3,5,11.3,11.3,11.3c6.3,0,11.3-5,11.3-11.3s-4.7-11.3-11-11.3
		C146.1,173.9,140.8,178.9,140.8,185.2L140.8,185.2z M113.5,185.2c0,6.3,5,11.3,11.3,11.3s11.3-5,11.3-11.3s-4.7-11.3-11.3-11.3
		C118.5,173.9,113.5,178.9,113.5,185.2L113.5,185.2z M168.5,208.1v-6.9c0-2.5-2.2-4.7-4.7-4.7h-45.6c-2.5,0.3-4.7,2.2-4.7,4.7v22.9
		c0,2.5,2.2,4.7,4.7,4.7h45.5c2.5,0,4.7-2.2,4.7-4.7v-6.9l18.2,11.3v-31.7L168.5,208.1z M159.3,219.7h-36.7v-13.8h36.8L159.3,219.7
		L159.3,219.7z"/>
</g>
<g id="Book">
	<path class="st1" d="M272.4,224.5v-48.8c0-1.6-1.6-1.9-1.9-1.9H233c-5.4,0-5.4,5.1-5.4,5.1v47.7c0,1.1,0.8,1.9,1.9,1.9h35.7
		c1.1,0,1.9-0.8,1.9-1.9h3.2C272.7,226.7,272.4,224.5,272.4,224.5L272.4,224.5z M257.9,190.2h-20.7v-3.8h20.4v3.8H257.9z
		 M268.4,222.7c-0.8,0-1.1,0-1.1,0v-41.6c0-1.1-0.8-1.9-1.9-1.9h-33.8c0-1.3,1.3-2.1,2.1-2.1h33.8c2.1,0,2.1,1.9,2.1,1.9v42.6
		C269.4,221.6,269.4,222.7,268.4,222.7L268.4,222.7z"/>
	<rect x="227.6" y="173.9" class="st2" width="44.8" height="55"/>
</g>
<g id="Crossword">
	<g>
		<path class="st3" d="M329.8,180.8h-7.2v-7h7v7H329.8z M323,180.4h6.4V174H323V180.4L323,180.4z"/>
	</g>
	<g>
		<path class="st3" d="M336.4,180.8h-7v-7h7V180.8z M329.8,180.4h6.4V174h-6.4V180.4L329.8,180.4z"/>
	</g>
	<g>
		<path class="st3" d="M343.1,180.8h-7v-7h7V180.8L343.1,180.8z M336.4,180.4h6.4V174h-6.4V180.4z"/>
	</g>
	<g>
		<path class="st3" d="M349.9,180.8h-7v-7h7V180.8z M343.1,180.4h6.4V174h-6.4V180.4L343.1,180.4z"/>
	</g>
	<g>
		<path class="st3" d="M356.4,180.8h-7v-7h7V180.8L356.4,180.8z M349.9,180.4h6.4V174h-6.4V180.4z"/>
	</g>
	<g>
		<path class="st3" d="M363.2,180.8h-7v-7h7V180.8z M356.4,180.4h6.4V174h-6.4V180.4z"/>
	</g>
	<g>
		<rect x="363" y="173.8" class="st3" width="6.8" height="6.8"/>
	</g>
	<g>
		<rect x="369.8" y="173.8" class="st3" width="6.8" height="6.8"/>
	</g>
	<g>
		<path class="st3" d="M329.8,187.3h-7.2v-7h7v7H329.8z M323,187.1h6.4v-6.4H323V187.1L323,187.1z"/>
	</g>
	<g>
		<rect x="329.6" y="180.6" class="st3" width="6.8" height="6.8"/>
	</g>
	<g>
		<rect x="336.1" y="180.6" class="st3" width="6.8" height="6.8"/>
	</g>
	<g>
		<rect x="342.9" y="180.6" class="st3" width="6.8" height="6.8"/>
	</g>
	<g>
		<rect x="349.7" y="180.6" class="st3" width="6.8" height="6.8"/>
	</g>
	<g>
		<path class="st3" d="M363.2,187.3h-7v-7h7V187.3z M356.4,187.1h6.4v-6.4h-6.4V187.1z"/>
	</g>
	<g>
		<path class="st3" d="M370,187.3h-7v-7h7V187.3z M363.2,187.1h6.4v-6.4h-6.4V187.1z"/>
	</g>
	<g>
		<path class="st3" d="M376.5,187.3h-7v-7h7V187.3z M370,187.1h6.4v-6.4H370V187.1z"/>
	</g>
	<g>
		<path class="st3" d="M329.8,194.1h-7.2v-7h7v7H329.8z M323,193.9h6.4v-6.6H323V193.9L323,193.9z"/>
	</g>
	<g>
		<path class="st3" d="M336.4,194.1h-7v-7h7V194.1z M329.8,193.9h6.4v-6.6h-6.4V193.9L329.8,193.9z"/>
	</g>
	<g>
		<path class="st3" d="M343.1,194.1h-7v-7h7V194.1L343.1,194.1z M336.4,193.9h6.4v-6.6h-6.4V193.9z"/>
	</g>
	<g>
		<path class="st3" d="M349.9,194.1h-7v-7h7V194.1z M343.1,193.9h6.4v-6.6h-6.4V193.9L343.1,193.9z"/>
	</g>
	<g>
		<rect x="349.7" y="187.3" class="st3" width="6.8" height="6.8"/>
	</g>
	<g>
		<path class="st3" d="M363.2,194.1h-7v-7h7V194.1z M356.4,193.9h6.4v-6.6h-6.4V193.9z"/>
	</g>
	<g>
		<rect x="363" y="187.3" class="st3" width="6.8" height="6.8"/>
	</g>
	<g>
		<rect x="369.8" y="187.3" class="st3" width="6.8" height="6.8"/>
	</g>
	<g>
		<path class="st3" d="M329.8,200.8h-7.2v-7h7v7H329.8z M323,200.4h6.4V194H323V200.4L323,200.4z"/>
	</g>
	<g>
		<rect x="329.6" y="193.9" class="st3" width="6.8" height="6.8"/>
	</g>
	<g>
		<path class="st3" d="M343.1,200.8h-7v-7h7V200.8L343.1,200.8z M336.4,200.4h6.4V194h-6.4V200.4z"/>
	</g>
	<g>
		<rect x="342.9" y="193.9" class="st3" width="6.8" height="6.8"/>
	</g>
	<g>
		<path class="st3" d="M356.4,200.8h-7v-7h7V200.8L356.4,200.8z M349.9,200.4h6.4V194h-6.4V200.4z"/>
	</g>
	<g>
		<rect x="356.2" y="193.9" class="st3" width="6.8" height="6.8"/>
	</g>
	<g>
		<path class="st3" d="M370,200.8h-7v-7h7V200.8z M363.2,200.4h6.4V194h-6.4V200.4z"/>
	</g>
	<g>
		<path class="st3" d="M376.5,200.8h-7v-7h7V200.8z M370,200.4h6.4V194H370V200.4z"/>
	</g>
	<g>
		<path class="st3" d="M329.8,207.4h-7.2v-7h7v7H329.8z M323,207.2h6.4v-6.4H323V207.2L323,207.2z"/>
	</g>
	<g>
		<rect x="329.6" y="200.7" class="st3" width="6.8" height="6.8"/>
	</g>
	<g>
		<path class="st3" d="M343.1,207.4h-7v-7h7V207.4L343.1,207.4z M336.4,207.2h6.4v-6.4h-6.4V207.2z"/>
	</g>
	<g>
		<rect x="342.9" y="200.7" class="st3" width="6.8" height="6.8"/>
	</g>
	<g>
		<path class="st3" d="M356.4,207.4h-7v-7h7V207.4L356.4,207.4z M349.9,207.2h6.4v-6.4h-6.4V207.2z"/>
	</g>
	<g>
		<rect x="356.2" y="200.7" class="st3" width="6.8" height="6.8"/>
	</g>
	<g>
		<rect x="363" y="200.7" class="st3" width="6.8" height="6.8"/>
	</g>
	<g>
		<path class="st3" d="M376.5,207.4h-7v-7h7V207.4z M370,207.2h6.4v-6.4H370V207.2z"/>
	</g>
	<g>
		<path class="st3" d="M329.8,214.2h-7.2v-7h7v7H329.8z M323,214h6.4v-6.4H323V214L323,214z"/>
	</g>
	<g>
		<rect x="329.6" y="207.4" class="st3" width="6.8" height="6.8"/>
	</g>
	<g>
		<rect x="336.1" y="207.4" class="st3" width="6.8" height="6.8"/>
	</g>
	<g>
		<path class="st3" d="M349.9,214.2h-7v-7h7V214.2z M343.1,214h6.4v-6.4h-6.4V214L343.1,214z"/>
	</g>
	<g>
		<path class="st3" d="M356.4,214.2h-7v-7h7V214.2L356.4,214.2z M349.9,214h6.4v-6.4h-6.4V214z"/>
	</g>
	<g>
		<path class="st3" d="M363.2,214.2h-7v-7h7V214.2z M356.4,214h6.4v-6.4h-6.4V214z"/>
	</g>
	<g>
		<path class="st3" d="M370,214.2h-7v-7h7V214.2z M363.2,214h6.4v-6.4h-6.4V214z"/>
	</g>
	<g>
		<path class="st3" d="M376.5,214.2h-7v-7h7V214.2z M370,214h6.4v-6.4H370V214z"/>
	</g>
	<g>
		<path class="st3" d="M329.8,220.9h-7.2v-7h7v7H329.8z M323,220.5h6.4v-6.4H323V220.5L323,220.5z"/>
	</g>
	<g>
		<path class="st3" d="M336.4,220.9h-7v-7h7V220.9z M329.8,220.5h6.4v-6.4h-6.4V220.5L329.8,220.5z"/>
	</g>
	<g>
		<path class="st3" d="M343.1,220.9h-7v-7h7V220.9L343.1,220.9z M336.4,220.5h6.4v-6.4h-6.4V220.5z"/>
	</g>
	<g>
		<rect x="342.9" y="214" class="st3" width="6.8" height="6.8"/>
	</g>
	<g>
		<path class="st3" d="M356.4,220.9h-7v-7h7V220.9L356.4,220.9z M349.9,220.5h6.4v-6.4h-6.4V220.5z"/>
	</g>
	<g>
		<rect x="356.2" y="214" class="st3" width="6.8" height="6.8"/>
	</g>
	<g>
		<rect x="363" y="214" class="st3" width="6.8" height="6.8"/>
	</g>
	<g>
		<path class="st3" d="M376.5,220.9h-7v-7h7V220.9z M370,220.5h6.4v-6.4H370V220.5z"/>
	</g>
	<g>
		<rect x="322.8" y="220.7" class="st3" width="6.8" height="6.8"/>
	</g>
	<g>
		<rect x="329.6" y="220.7" class="st3" width="6.8" height="6.8"/>
	</g>
	<g>
		<path class="st3" d="M343.1,227.5h-7v-7h7V227.5L343.1,227.5z M336.4,227.3h6.4v-6.4h-6.4V227.3z"/>
	</g>
	<g>
		<path class="st3" d="M349.9,227.5h-7v-7h7V227.5z M343.1,227.3h6.4v-6.4h-6.4V227.3L343.1,227.3z"/>
	</g>
	<g>
		<path class="st3" d="M356.4,227.5h-7v-7h7V227.5L356.4,227.5z M349.9,227.3h6.4v-6.4h-6.4V227.3z"/>
	</g>
	<g>
		<path class="st3" d="M363.2,227.5h-7v-7h7V227.5z M356.4,227.3h6.4v-6.4h-6.4V227.3z"/>
	</g>
	<g>
		<path class="st3" d="M370,227.5h-7v-7h7V227.5z M363.2,227.3h6.4v-6.4h-6.4V227.3z"/>
	</g>
	<g>
		<path class="st3" d="M376.5,227.5h-7v-7h7V227.5z M370,227.3h6.4v-6.4H370V227.3z"/>
	</g>
	<g>
		<path class="st3" d="M377.3,228.3H322v-55.1h55.4v55.1H377.3z M323.6,226.7h51.9v-51.9h-51.9V226.7z"/>
	</g>
</g>
<g id="Picture">
	<rect x="111.2" y="274.4" class="st4" width="24.3" height="25.8"/>
	<rect x="138" y="274.4" class="st4" width="24.3" height="25.8"/>
	<rect x="164.7" y="274.4" class="st4" width="24.3" height="25.8"/>
	<rect x="111.2" y="303.5" class="st4" width="24.3" height="25.8"/>
	<rect x="138" y="303.5" class="st4" width="24.3" height="25.8"/>
	<rect x="164.7" y="303.5" class="st4" width="24.3" height="25.8"/>
</g>
<g id="Reading">
	<g>
		<path class="st5" d="M249.7,310.9c0,0.5-0.3,1.1-0.8,1.3c-0.3,0-0.3,0.3-0.5,0.3c-0.3,0-0.5,0-0.8-0.3l-7.7-6.4h-4.5
			c-0.8,0-1.3-0.5-1.3-1.3v-5.9c0-0.8,0.5-1.3,1.3-1.3h4l7.7-6.4c0.5-0.3,1.1-0.5,1.6-0.3c0.5,0.3,0.8,0.8,0.8,1.3v18.9h0.2V310.9z
			 M255,308.8L255,308.8c-0.5,0-0.8-0.3-1.1-0.5l-0.3-0.3c-0.5-0.5-0.5-1.3-0.3-1.9c1.1-1.3,1.6-3.2,1.6-4.8c0-1.9-0.5-3.7-1.9-5.1
			c-0.5-0.5-0.5-1.3,0-1.9l0.3-0.3c0.3-0.3,0.5-0.5,1.1-0.5c0.3,0,0.8,0.3,1.1,0.5c1.6,2.1,2.7,4.5,2.7,7.2c0,2.4-0.8,4.8-2.1,6.7
			C255.8,308.5,255.5,308.8,255,308.8L255,308.8z M260.8,313c-0.3,0.3-0.5,0.5-1.1,0.5l0,0c-0.3,0-0.8-0.3-1.1-0.5l-0.3-0.3
			c-0.5-0.5-0.5-1.3,0-1.9c2.4-2.7,3.5-6.1,3.5-9.6c0-3.7-1.3-7.2-3.7-9.8c-0.5-0.5-0.5-1.3,0-1.9l0.3-0.3c0.3-0.3,0.5-0.5,1.1-0.5
			c0.3,0,0.8,0.3,1.1,0.5c2.9,3.2,4.5,7.7,4.5,12C265.1,305.6,263.5,309.8,260.8,313L260.8,313z"/>
	</g>
	<path class="st5" d="M284,278.4c-0.5-0.5-1.1-0.8-1.9-0.5c-0.3,0-0.5,0-0.5,0v-1.6c0-0.5-0.3-1.3-0.8-1.6c-0.3-0.5-0.8-0.8-1.6-0.8
		c-21.5,0.3-27.9,5.9-29.5,8.2c-5.1-7.5-23.9-8.2-29.8-8.2l0,0c-0.5,0-1.3,0.3-1.6,0.8c-0.5,0.3-0.8,0.8-0.8,1.6v1.6
		c-0.3,0-0.5,0-0.5,0l0,0c-0.8,0-1.3,0.3-1.9,0.5c-0.5,0.5-0.8,1.1-0.8,1.6v40.2c0,1.3,1.1,2.1,2.7,2.1c17.6,0.3,25.5,3.2,29.3,5.6
		c0.8,0.5,1.9,0.5,2.7,0.3c0.3,0,0.5-0.3,0.8-0.5c0.3,0.3,0.5,0.3,0.8,0.5c0.3,0.2,0.8,0.3,1.1,0.3c0.5,0,1.1-0.3,1.6-0.5
		c3.7-2.4,12-5.3,29.3-5.6c1.3,0,2.7-1.1,2.7-2.1V280C284.8,279.5,284.5,279,284,278.4z M279.2,317.8c-16.5,0.3-24.2,3.4-27.9,6.1
		c-1.3,0.8-2.1,1.1-3.5,0c-3.7-2.7-11.7-5.9-27.9-6.1v-41.5c22.9,0.3,27.4,6.7,27.9,7.4c1.1,1.3,2.4,1.1,3.5,0
		c0.5-1.1,5.3-7.4,27.9-7.7V317.8L279.2,317.8z"/>
</g>
<g id="Jigsaw">
	<path class="st6" d="M383.6,273.7h-67.5c-0.6,0-1.1,0.5-1.1,1.1v52.8c0,0.6,0.5,1.1,1.1,1.1h67.5c0.6,0,1.1-0.5,1.1-1.1v-52.8
		C384.7,274.1,384.2,273.7,383.6,273.7L383.6,273.7z M378.1,319.8l-15.2-15.7c-0.2-0.2-0.4-0.2-0.6,0l-10.5,9.3l-13.5-16.6
		c-0.1-0.1-0.2-0.2-0.4-0.2s-0.3,0.1-0.3,0.2l-15.9,21.4v-37.8h56.4V319.8L378.1,319.8z"/>
	<path class="st6" d="M361.4,296.2c3,0,5.4-2.4,5.4-5.4s-2.4-5.4-5.4-5.4s-5.4,2.4-5.4,5.4S358.4,296.2,361.4,296.2L361.4,296.2z"/>
</g>
<path id="Soundwave" class="st7" d="M486.7,192.8c-1,0-1.8,0.8-1.8,1.7v5.1h-1v-8.8c0-1-0.8-1.7-1.8-1.7s-1.8,0.8-1.8,1.7v8.8h-1
	V199c0-1-0.8-1.7-1.8-1.7s-1.8,0.8-1.8,1.7v0.6h-1V196c0-1-0.8-1.7-1.8-1.7s-1.8,0.8-1.8,1.7v3.6h-1v-8.8c0-1-0.8-1.7-1.8-1.7
	s-1.8,0.8-1.8,1.7v8.8h-1v-8.8c0-1-0.8-1.7-1.8-1.7s-1.8,0.8-1.8,1.7v8.8h-1v-16.3c0-1-0.8-1.7-1.8-1.7s-1.8,0.8-1.8,1.7v16.3h-1
	v-1.4c0-1-0.8-1.7-1.8-1.7s-1.8,0.8-1.8,1.7v1.4h-1V196c0-1-0.8-1.7-1.8-1.7s-1.8,0.8-1.8,1.7v3.6h-1v-18.4c0-1-0.8-1.7-1.8-1.7
	s-1.8,0.8-1.8,1.7v18.4h-1v-8.8c0-1-0.8-1.7-1.8-1.7s-1.8,0.8-1.8,1.7v8.8h-1v-8.8c0-1-0.8-1.7-1.8-1.7s-1.8,0.8-1.8,1.7v8.8h-1V196
	c0-1-0.8-1.7-1.8-1.7s-1.8,0.8-1.8,1.7v3.6h-1v-8.8c0-1-0.8-1.7-1.8-1.7s-1.8,0.8-1.8,1.7v8.8h-1v-23.9c0-1-0.8-1.7-1.8-1.7
	s-1.8,0.8-1.8,1.7v23.9h-1v-8.8c0-1-0.8-1.7-1.8-1.7s-1.8,0.8-1.8,1.7v8.8h-1V196c0-1-0.8-1.7-1.8-1.7s-1.8,0.8-1.8,1.7v10.7
	c0,1,0.8,1.7,1.8,1.7s1.8-0.8,1.8-1.7v-3.6h1v8.8c0,1,0.8,1.7,1.8,1.7s1.8-0.8,1.8-1.7v-8.8h1V227c0,1,0.8,1.7,1.8,1.7
	s1.8-0.8,1.8-1.7v-23.9h1v8.8c0,1,0.8,1.7,1.8,1.7s1.8-0.8,1.8-1.7v-8.8h1v3.6c0,1,0.8,1.7,1.8,1.7s1.8-0.8,1.8-1.7v-3.6h1v8.8
	c0,1,0.8,1.7,1.8,1.7s1.8-0.8,1.8-1.7v-8.8h1v8.8c0,1,0.8,1.7,1.8,1.7s1.8-0.8,1.8-1.7v-8.8h1v18.4c0,1,0.8,1.7,1.8,1.7
	s1.8-0.8,1.8-1.7v-18.4h1v3.6c0,1,0.8,1.7,1.8,1.7s1.8-0.8,1.8-1.7v-3.6h1v1.4c0,1,0.8,1.7,1.8,1.7s1.8-0.8,1.8-1.7v-1.4h1v16.3
	c0,1,0.8,1.7,1.8,1.7s1.8-0.8,1.8-1.7v-16.3h1v8.8c0,1,0.8,1.7,1.8,1.7s1.8-0.8,1.8-1.7v-8.8h1v8.8c0,1,0.8,1.7,1.8,1.7
	s1.8-0.8,1.8-1.7v-8.8h1v3.6c0,1,0.8,1.7,1.8,1.7s1.8-0.8,1.8-1.7v-3.6h1v0.6c0,1,0.8,1.7,1.8,1.7s1.8-0.8,1.8-1.7v-0.6h1v8.8
	c0,1,0.8,1.7,1.8,1.7s1.8-0.8,1.8-1.7v-8.8h1v5.1c0,1,0.8,1.7,1.8,1.7s1.8-0.8,1.8-1.7v-13.7C488.5,193.6,487.7,192.8,486.7,192.8"
	/>
<g id="Download">
	<path id="path3006" class="st8" d="M469.4,308.8v12.4h-39.3v-12.4h-7.5v16.1c0,2,1.7,3.6,3.8,3.6h46.8c2.1,0,3.8-1.6,3.8-3.6v-16.1
		H469.4z"/>
	<path id="path3008" class="st8" d="M449,307.6l-10.8-12.7c0,0-1.6-1.5,0.1-1.5h6.1V275c0,0-0.2-0.9,1.2-0.9h8.6c1,0,1,0.8,1,0.8
		v18.2h5.6c2.2,0,0.5,1.6,0.5,1.6s-9.2,11.8-10.5,13.1C449.9,308.6,449,307.6,449,307.6"/>
</g>
</svg>
