<?xml version="1.0" encoding="utf-8"?>
<!-- Generator: Adobe Illustrator 19.1.0, SVG Export Plug-In . SVG Version: 6.00 Build 0)  -->
<svg version="1.1" id="Layer_1" xmlns="http://www.w3.org/2000/svg" xmlns:xlink="http://www.w3.org/1999/xlink" x="0px" y="0px"
	 width="191.9px" height="23.4px" viewBox="0 0 191.9 23.4" style="enable-background:new 0 0 191.9 23.4;" xml:space="preserve">
<style type="text/css">
	.st0{fill:#FFFFFF;}
</style>
<g id="Foras_Dark">
	<g>
		<path class="st0" d="M41.9,14.9c0,0.8,0,1.4,0.2,1.6c0.1,0.2,0.4,0.3,0.9,0.3l1,0.1v0.6c-1.1,0-2.1-0.1-3.1-0.1s-2,0-3.1,0.1v-0.6
			l1-0.1c0.5,0,0.8-0.1,0.9-0.3c0.1-0.2,0.2-0.8,0.2-1.6V5.4c0-0.8,0-1.4-0.2-1.6c-0.1-0.2-0.4-0.3-0.9-0.3l-1-0.1V2.8
			c0.6,0,1.2,0,1.8,0s1.2,0,1.8,0c1.4,0,3.3-0.1,4.6-0.1c0.9,0,1.9,0,2.7,0.1c-0.2,0.9-0.3,2.1-0.3,3.2h-0.7V4.6
			c0-0.3,0-0.5-0.2-0.6c-1.1-0.4-2.8-0.5-3.7-0.5c-0.6,0-1.2,0-1.8,0.2v5.6c0.7,0,1.4,0.1,2.4,0.1c1.3,0,2-0.1,2.2-0.2
			c0.1-0.1,0.1-0.3,0.2-0.6l0.1-1.1h0.6c0,0.9-0.1,1.7-0.1,2.4s0,1.6,0.1,2.3h-0.6l-0.1-1.3c0-0.3-0.1-0.5-0.2-0.5
			c-0.2-0.2-0.9-0.2-2.2-0.2c-1,0-1.8,0-2.4,0.1L41.9,14.9L41.9,14.9z"/>
		<path class="st0" d="M54.2,17.8c-2.6,0-4.5-2.1-4.5-4.9c0-3.2,2-5.4,5.4-5.4c2.7,0,4.8,2.1,4.8,4.8c0,3.2-2.3,5.5-5.5,5.5
			L54.2,17.8L54.2,17.8z M51.7,12c0,2.2,0.8,5.2,3.5,5.2c1.9,0,2.8-1.9,2.8-3.9c0-2.7-1.3-5.1-3.3-5.1C52.4,8.2,51.7,10,51.7,12z"/>
		<path class="st0" d="M62.8,10.5c0-0.7,0-1.2-0.1-1.3C62.6,9,62.4,9,61.9,9h-0.8V8.4c1.3-0.1,2.5-0.5,3.3-0.9l0.2,0.1v2.2l0,0
			l1.1-1.4c0.5-0.6,1.2-0.9,1.8-0.9c0.3,0,0.8,0.1,1,0.2l-0.2,2.5h-0.5c-0.2-0.5-0.7-1-1.4-1c-0.9,0-1.8,1-1.8,2.3v3.6
			c0,0.6,0,1,0.1,1.2s0.4,0.3,0.9,0.3l1.1,0.1v0.6c-1.1,0-2-0.1-3-0.1s-1.9,0-2.6,0.1v-0.6l1-0.1c0.3,0,0.6-0.1,0.7-0.3
			s0.1-0.7,0.1-1.2L62.8,10.5L62.8,10.5z"/>
		<path class="st0" d="M75.7,11.3L75.7,11.3c0-1.7-0.8-2.7-2.6-2.7c-0.9,0-1.2,0.1-1.5,0.5c-0.1,0.2-0.2,0.4-0.3,0.7L71,10.5
			l-0.6-0.1V9l1.1-0.7c0.9-0.6,1.8-0.7,2.4-0.7c2.6,0,3.5,1.2,3.5,4.2v3.9c0,0.3,0,0.7,0.1,0.9c0,0.2,0.2,0.3,0.5,0.3h0.8v0.6
			c-0.5,0-1-0.1-1.6-0.1s-1.1,0-1.6,0.1l0.1-1.8l-2.6,1.8c-0.2,0.1-0.6,0.2-1,0.2c-1.4,0-2.6-0.8-2.6-2.5c0-2.4,2.1-3,4.1-3.4
			L75.7,11.3z M75.7,12c-1,0.1-2,0.3-3.1,0.7c-0.7,0.3-1.3,1.2-1.3,2c0,1.1,0.8,1.7,1.6,1.7c0.7,0,1.3-0.5,2-1
			c0.3-0.2,0.6-0.6,0.7-0.7L75.7,12L75.7,12z"/>
		<path class="st0" d="M80.9,14.4v0.9c0,1.3,1.5,1.8,2.7,1.8c1.3,0,2.5-0.8,2.5-1.9c0-0.7-0.3-1.2-1-1.4C84.2,13.6,83,13.3,82,13
			c-1-0.4-1.8-1-1.8-2.3c0-2.3,2-3.1,4-3.1c1,0,1.9,0.2,2.7,0.5c-0.1,0.8-0.1,1.5-0.1,2.4h-0.6V10c0-1.1-1.2-1.7-2.4-1.7
			c-1.8,0-2.1,1-2.1,1.7c0,0.9,0.7,1.4,2.3,1.7c2.5,0.4,3.7,1,3.7,2.7c0,2.3-2.3,3.6-4.7,3.6c-1,0-1.9-0.1-3-0.5
			c0.2-0.9,0.2-2,0.2-2.9L80.9,14.4L80.9,14.4z"/>
		<path class="st0" d="M97.3,15.2c0,0.6,0,1,0.1,1.2s0.3,0.3,0.7,0.3l0.9,0.1v0.6c-0.7,0-1.6-0.1-2.6-0.1s-1.9,0-2.6,0.1v-0.6
			l0.9-0.1c0.3,0,0.6-0.1,0.7-0.3s0.1-0.7,0.1-1.2v-4.7c0-0.7,0-1.2-0.1-1.3C95.3,9,95.1,9,94.6,9h-0.8V8.4c1.3-0.1,2.5-0.5,3.3-0.9
			l0.2,0.1v1.8l0,0L98.9,8c0.5-0.4,0.9-0.5,1.7-0.5c2.5,0,3.5,1.4,3.5,3.7v4.1c0,0.6,0,1,0.1,1.2s0.3,0.3,0.7,0.3l0.9,0.1v0.6
			c-0.5,0-1.2-0.1-1.7-0.1s-1.2,0-1.7,0.1v-6c0-1.7-1-2.7-2.4-2.7c-1.3,0-2.6,1.1-2.6,2L97.3,15.2L97.3,15.2z"/>
		<path class="st0" d="M112.8,11.3L112.8,11.3c0-1.7-0.8-2.7-2.6-2.7c-0.9,0-1.2,0.1-1.5,0.5c-0.1,0.2-0.2,0.4-0.3,0.7l-0.3,0.7
			l-0.6-0.1V9l1.1-0.7c0.9-0.6,1.8-0.7,2.4-0.7c2.6,0,3.5,1.2,3.5,4.2v3.9c0,0.3,0,0.7,0.1,0.9c0,0.2,0.2,0.3,0.5,0.3h0.8v0.6
			c-0.5,0-1-0.1-1.6-0.1s-1.1,0-1.6,0.1l0.1-1.8l-2.6,1.8c-0.2,0.1-0.6,0.2-1,0.2c-1.4,0-2.6-0.8-2.6-2.5c0-2.4,2.1-3,4.1-3.4
			L112.8,11.3z M112.8,12c-1,0.1-2,0.3-3.1,0.7c-0.7,0.3-1.3,1.2-1.3,2c0,1.1,0.8,1.7,1.6,1.7c0.7,0,1.3-0.5,2-1
			c0.3-0.2,0.6-0.6,0.7-0.7L112.8,12L112.8,12z"/>
		<path class="st0" d="M134.3,13.2c0-0.5-0.2-0.7-0.7-0.7l-1.7-0.1v-0.6c0.9,0,1.7,0,2.6,0s1.7,0,2.6,0l0.1,0.5l-0.6,0.2
			c-0.2,0.1-0.2,0.2-0.2,0.8v3.6c-1.8,0.5-4.1,1.1-5.5,1.1c-4.7,0-8.5-2.4-8.5-7.7c0-4.6,3.8-7.6,8.9-7.6c2.6,0,4.3,0.6,5.2,0.9
			c-0.2,1-0.4,2.1-0.4,3.2h-0.8V5.7c0-1-0.8-1.3-1.7-1.7c-0.7-0.2-1.6-0.4-3-0.4c-4,0-6.1,2.6-6.1,6.4c0,4.2,2.4,7.2,6.8,7.2
			c1.6,0,2.8-0.3,3-0.7c0.1-0.2,0.1-0.3,0.1-0.9L134.3,13.2L134.3,13.2z"/>
		<path class="st0" d="M144.7,11.3L144.7,11.3c0-1.7-0.8-2.7-2.6-2.7c-0.9,0-1.2,0.1-1.5,0.5c-0.1,0.2-0.2,0.4-0.3,0.7l-0.3,0.7
			l-0.6-0.1V9l1.1-0.7c0.9-0.6,1.8-0.7,2.4-0.7c2.6,0,3.5,1.2,3.5,4.2v3.9c0,0.3,0,0.7,0.1,0.9c0,0.2,0.2,0.3,0.5,0.3h0.8v0.6
			c-0.5,0-1-0.1-1.6-0.1s-1.1,0-1.6,0.1l0.1-1.8l-2.6,1.8c-0.2,0.1-0.6,0.2-1,0.2c-1.4,0-2.6-0.8-2.6-2.5c0-2.4,2.1-3,4.1-3.4
			L144.7,11.3z M144.7,12c-1,0.1-2,0.3-3.1,0.7c-0.7,0.3-1.3,1.2-1.3,2c0,1.1,0.8,1.7,1.6,1.7c0.7,0,1.3-0.5,2-1
			c0.3-0.2,0.6-0.6,0.7-0.7L144.7,12L144.7,12z"/>
		<path class="st0" d="M157.8,11.4c0,0.3,0,0.6,0,0.9c-1.3,0.2-2.5,0.3-3.8,0.3h-3.1c0,2.5,1.2,4.1,3.8,4.1c1,0,1.8-0.5,2.6-1
			l0.3,0.2l-0.4,0.7c-0.1,0.2-2,1.2-3.4,1.2c-3.2,0-4.9-2-4.9-4.9c0-2.1,0.6-3.3,1.5-4c0.4-0.3,0.8-0.6,1.3-0.8
			c0.7-0.3,1.4-0.6,2.1-0.6C156.1,7.5,157.8,9,157.8,11.4z M150.9,11.4v0.3c0.9,0.1,1.8,0.1,2.7,0.1c0.8,0,1.6,0,2.3-0.1
			c0-2-0.7-3.6-2.2-3.6C152.1,8.2,150.9,9.3,150.9,11.4z"/>
		<path class="st0" d="M162.5,15.2c0,0.6,0,1,0.1,1.2s0.3,0.3,0.7,0.3l1,0.1v0.6c-0.8,0-1.6-0.1-2.6-0.1s-1.9,0-2.6,0.1v-0.6l1-0.1
			c0.3,0,0.6-0.1,0.7-0.3s0.1-0.7,0.1-1.2v-4.7c0-0.7,0-1.2-0.1-1.3C160.7,9,160.5,9,160,9h-0.8V8.4c1.3-0.1,2.5-0.5,3.3-0.9
			l0.2,0.1L162.5,15.2L162.5,15.2z M162.6,4.1c0,0.6-0.6,1.2-1.2,1.2s-1.2-0.6-1.2-1.2c0-0.6,0.6-1.2,1.2-1.2S162.6,3.5,162.6,4.1z"
			/>
		<path class="st0" d="M166.8,4.3c0-0.5-0.1-0.9-0.5-0.9h-1.2V2.8c1.1-0.2,2.2-0.3,3.3-0.8l0.2,0.2v13c0,0.6,0,1,0.1,1.2
			s0.3,0.3,0.7,0.3l1,0.1v0.6c-0.8,0-1.6-0.1-2.6-0.1s-1.9,0-2.6,0.1v-0.6l1-0.1c0.3,0,0.6-0.1,0.7-0.3s0.1-0.7,0.1-1.2L166.8,4.3
			L166.8,4.3z"/>
		<path class="st0" d="M179.7,9.4c0.2,0.4,0.2,0.8,0.2,1.2c0,1.2-0.6,2.1-1.4,2.6c-0.9,0.7-2,1-3,1c-0.1,0-0.3,0-0.5,0
			c-0.3,0.3-1,0.7-1,1.2c0,0.8,1,0.8,1.6,0.8h3.4c1.9,0,2.5,1.6,2.5,2.6c0,2.2-2.2,4.5-5.7,4.5c-2.5,0-4.5-1.3-4.5-3.2
			c0-0.6,0.1-1.3,0.6-1.7l1.8-1c-0.9-0.2-1.4-0.6-1.4-1.3c0-0.3,0.1-0.6,0.3-0.9l1.6-1.3l0,0c-0.7,0-2.5-0.6-2.5-2.8
			c0-1.4,0.7-2.3,1.6-2.9c1-0.6,2.3-0.9,3.1-0.9c0.9,0,1.9,0.3,2.6,0.9l3-0.1l0.1,0.2l-0.5,0.9L179.7,9.4z M180,19.6
			c0-1.3-0.6-1.9-3-1.9c-0.6,0-1.3,0-2.2,0.1c-0.6,0.1-1.8,0.9-1.8,2.2c0,1.8,1.4,2.7,3.1,2.7C178.4,22.7,180,21.3,180,19.6z
			 M175.8,8.2c-1.4,0-2.1,1.1-2.1,2.5c0,1.8,1,2.8,2.4,2.8c1.2,0,2.1-0.9,2.1-2.2C178.2,9.7,177.5,8.2,175.8,8.2z"/>
		<path class="st0" d="M191.9,11.4c0,0.3,0,0.6,0,0.9c-1.3,0.2-2.5,0.3-3.8,0.3H185c0,2.5,1.2,4.1,3.8,4.1c1,0,1.8-0.5,2.6-1
			l0.3,0.2l-0.4,0.7c-0.1,0.2-2,1.2-3.4,1.2c-3.2,0-4.9-2-4.9-4.9c0-2.1,0.6-3.3,1.5-4c0.4-0.3,0.8-0.6,1.3-0.8
			c0.7-0.3,1.4-0.6,2.1-0.6C190.2,7.5,191.9,9,191.9,11.4z M185,11.4v0.3c0.9,0.1,1.8,0.1,2.7,0.1c0.8,0,1.6,0,2.3-0.1
			c0-2-0.7-3.6-2.2-3.6C186.3,8.2,185,9.3,185,11.4z"/>
	</g>
	<path class="st0" d="M27.6,17.2c-0.8-5.5-8.4-6.8-11.3-6.8c-2.1,0-6.9,1-6.7,4.3s4.5,4.7,7.5,4.7s4.6-1.4,4.3-2.5
		c-0.2-1-0.5-1.4-1.6-2.1c-1.8-1.2-0.6-3,1.7-2c2.3,0.9,4.8,4.2,2.8,6.6c-2.1,2.4-5.7,3.1-10.6,2.3s-8-4.3-8-7.4
		c0-3.1,4.5-6.5,10.1-6.3c6,0.2,15.4,2.3,15.3,10.6c1-2.1,1.5-4.4,1.5-6.8c0-4.6-2-8.8-5.1-11.8H5.1C2,3,0,7.2,0,11.8
		c0,4.5,1.9,8.6,4.9,11.6h13C22,23,28.3,21.8,27.6,17.2z M19,15.9c-0.1,1.3-1.9,2.1-3.8,1.9c-2-0.2-3.5-1.4-3.3-2.7
		c0.1-1.3,1.9-2.1,3.9-1.9C17.7,13.4,19.2,14.7,19,15.9z"/>
</g>
</svg>
