<?xml version="1.0" encoding="utf-8"?>
<!-- Generator: Adobe Illustrator 19.1.0, SVG Export Plug-In . SVG Version: 6.00 Build 0)  -->
<svg version="1.1" id="Layer_1" xmlns="http://www.w3.org/2000/svg" xmlns:xlink="http://www.w3.org/1999/xlink" x="0px" y="0px"
	 width="184.2px" height="68.7px" viewBox="0 0 184.2 68.7" style="enable-background:new 0 0 184.2 68.7;" xml:space="preserve">
<g id="Greann">
	<g id="g5">
		<path id="path7" d="M91.9,9.5h-3.2l-1.1,2.2h-3l5.6-10.9H94l1.9,10.9h-3.5L91.9,9.5z M91.7,7.3l-0.5-3.2l-1.6,3.2H91.7z"/>
		<path id="path9" d="M105.7,7.2l1.3,4.6h-3.6l-1.1-4.1h-1.4l-0.8,4.1h-3.4l2-10.9h5.2c1.4,0,2.5,0.3,3.2,0.8c0.7,0.6,1,1.3,1,2.3
			C108.2,5.6,107.4,6.6,105.7,7.2z M101.4,5.4h1.4c1.3,0,1.9-0.4,1.9-1.2c0-0.7-0.5-1-1.6-1h-1.3L101.4,5.4z"/>
	</g>
	<path id="path11" d="M69.9,13L51,16.4c-0.5-1.6-1.9-2.8-4-3.7c-2.2-0.9-4.5-1.3-7.1-1.3c-4.8,0-7.3,1.1-7.3,3.4
		c0,0.7,0.3,1.4,1,1.9s2.6,1.2,5.8,2l11.7,3c3.1,0.8,5.9,1.9,8.5,3.4s4.5,3.1,5.7,4.9s1.7,3.7,1.7,5.7c0,5.3-2.9,9.6-8.8,13
		c-5.8,3.4-13.6,5.2-23.4,5.2c-8.3,0-15.6-1.2-21.8-3.6s-10.5-6-13-11l21.2-2.9c1.8,3.7,6.4,5.5,13.6,5.5c3,0,5.2-0.4,6.5-1.2
		c1.3-0.8,2-1.7,2-2.7c0-0.6-0.3-1.2-0.8-1.7s-1.1-0.8-1.7-1c-0.6-0.2-3.4-1-8.4-2.3c-6.7-1.8-11.5-3.2-14.2-4.2s-5-2.6-6.8-4.6
		S8.7,19.8,8.7,17c0-4.8,2.5-8.8,7.4-12.1C21,1.6,28.6,0,38.8,0c7.8,0,14.4,1.2,19.9,3.5C64.4,5.9,68.1,9,69.9,13z"/>
	<path id="path13" d="M94.4,54.2c-7.6,0-13.9-1.6-19.1-4.8c-5.2-3.2-7.7-7.6-7.7-13.1c0-6.6,3-12.1,9-16.4s13.5-6.4,22.7-6.4
		c8.3,0,15,1.7,19.9,5s7.4,7.5,7.4,12.4c0,7.3-3.2,13-9.5,17.1C110.7,52.2,103.2,54.2,94.4,54.2z M95.3,44.8c3.8,0,6.3-2,7.7-6
		c1.3-4,2-7.3,2-10c0-4.1-2.1-6.1-6.2-6.1c-3.7,0-6.3,2-7.7,6.1c-1.4,4.1-2.1,7.4-2.1,9.9C88.9,42.8,91.1,44.8,95.3,44.8z"/>
	<path id="path15" d="M133.3,14.5h19l-1.4,6.3c1.5-2.6,3.9-4.4,7.2-5.6s6.9-1.8,10.5-1.8c4.6,0,8.4,0.9,11.3,2.6
		c2.9,1.7,4.3,4,4.3,6.8c0,1.1-0.2,2.4-0.5,3.9L177.5,53h-20.7l5.5-23.2c0.4-1.5,0.5-2.5,0.5-2.9c0-2.2-1.6-3.2-4.8-3.2
		c-4.3,0-7,2.1-8,6.2l-5.5,23.2h-20.2L133.3,14.5z"/>
	<g id="g17">
		<path id="path19" d="M107.4,55.9l-2.1,12.5h-2.8l-2.4-4.8c-0.7-1.3-1.1-2.4-1.2-3.1c0,0.2,0,0.3,0,0.4c0,0.3,0,0.8-0.1,1.4l-1,6.1
			h-3.1l2.1-12.5h3.4l1.4,2.9c1,2,1.6,3.5,1.9,4.5c0-0.3,0-0.4,0-0.6c0-0.4,0.1-1,0.2-2l0.8-4.8H107.4L107.4,55.9z"/>
		<path id="path21" d="M114,65.9h-3.4l-1.2,2.6h-3l5.8-12.5h3.9l1.9,12.5h-3.6L114,65.9z M113.8,63.3l-0.5-3.6l-1.7,3.6H113.8z"/>
		<path id="path23" d="M131.7,63.6l3.4,0.4c-0.4,1.4-1.1,2.5-2,3.4c-1,0.9-2.2,1.3-3.6,1.3c-1.6,0-2.8-0.5-3.8-1.6
			c-0.9-1.1-1.4-2.4-1.4-4.1c0-1.9,0.6-3.6,1.7-5.1c1.1-1.5,2.7-2.2,4.7-2.2c1.5,0,2.6,0.4,3.5,1.3s1.4,2.1,1.4,3.5l-3.5,0.3
			c0-0.8-0.1-1.3-0.4-1.7c-0.2-0.4-0.6-0.6-1.1-0.6c-0.9,0-1.6,0.7-1.9,2.1c-0.3,1.4-0.5,2.5-0.5,3.3c0,1.3,0.5,1.9,1.5,1.9
			c0.5,0,0.9-0.2,1.2-0.5C131.3,64.9,131.5,64.3,131.7,63.6z"/>
		<path id="path25" d="M148,55.9l-1.3,7.7c-0.2,1.3-0.5,2.3-0.9,2.9s-1,1.1-1.8,1.5s-1.8,0.6-3,0.6c-1.5,0-2.6-0.3-3.5-1
			c-0.8-0.6-1.2-1.5-1.2-2.7c0-0.4,0-0.9,0.1-1.4l1.3-7.7h3.8l-1.3,7.7c-0.1,0.4-0.1,0.7-0.1,0.9c0,0.4,0.2,0.7,0.5,0.9
			c0.3,0.2,0.7,0.3,1.1,0.3c0.5,0,1-0.1,1.2-0.4s0.5-0.8,0.6-1.6l1.3-7.8L148,55.9L148,55.9z M141.9,54.7l4.1-1.2l0.6,1.7l-4.3,0.7
			L141.9,54.7z"/>
		<path id="path27" d="M153.6,55.9l-2.1,12.5h-3.6l2.1-12.5H153.6z"/>
		<path id="path29" d="M165.1,58.8l-3.2,0.8c-0.1-0.4-0.3-0.7-0.7-0.9c-0.4-0.2-0.8-0.3-1.2-0.3c-0.8,0-1.2,0.3-1.2,0.8
			c0,0.2,0.1,0.3,0.2,0.5c0.1,0.1,0.4,0.3,1,0.5l2,0.7c0.5,0.2,1,0.5,1.5,0.8c0.4,0.4,0.8,0.7,1,1.2c0.2,0.4,0.3,0.9,0.3,1.4
			c0,1.3-0.5,2.3-1.5,3.1c-1,0.8-2.3,1.2-4,1.2c-1.4,0-2.7-0.3-3.7-0.9c-1.1-0.6-1.8-1.5-2.2-2.6l3.6-0.7c0.3,0.9,1.1,1.3,2.3,1.3
			c0.5,0,0.9-0.1,1.1-0.3c0.2-0.2,0.3-0.4,0.3-0.6s0-0.3-0.1-0.4s-0.2-0.2-0.3-0.3c-0.1-0.1-0.6-0.2-1.4-0.5c-1.2-0.4-2-0.8-2.4-1
			c-0.5-0.2-0.8-0.6-1.2-1.1c-0.3-0.5-0.5-1.1-0.5-1.7c0-1.1,0.4-2.1,1.3-2.9c0.8-0.8,2.1-1.2,3.9-1.2c1.3,0,2.5,0.3,3.4,0.8
			C164.1,57.1,164.8,57.8,165.1,58.8z"/>
		<path id="path31" d="M175,65.5l-0.5,2.9h-9.2l2.1-12.5h9l-0.5,2.7h-5.4l-0.3,2h4.5l-0.5,2.7h-4.5l-0.4,2.2L175,65.5L175,65.5z"/>
	</g>
</g>
</svg>
