<?xml version="1.0" encoding="utf-8"?>
<!-- Generator: Adobe Illustrator 19.1.0, SVG Export Plug-In . SVG Version: 6.00 Build 0)  -->
<svg version="1.1" id="Kaitain_Vectors" xmlns="http://www.w3.org/2000/svg" xmlns:xlink="http://www.w3.org/1999/xlink" x="0px"
	 y="0px" width="500px" height="600px" viewBox="0 0 500 600" enable-background="new 0 0 500 600" xml:space="preserve">
<g id="Video">
	<path fill="#988147" d="M40.8,34.2c0,6.3,5,11.3,11.3,11.3s11.3-5,11.3-11.3s-4.7-11.3-11-11.3S40.8,27.9,40.8,34.2L40.8,34.2z
		 M13.5,34.2c0,6.3,5,11.3,11.3,11.3s11.3-5,11.3-11.3s-4.7-11.3-11.3-11.3C18.5,22.9,13.5,27.9,13.5,34.2L13.5,34.2z M68.5,57.1
		v-6.9c0-2.5-2.2-4.7-4.7-4.7H18.2c-2.5,0.3-4.7,2.2-4.7,4.7v22.9c0,2.5,2.2,4.7,4.7,4.7h45.5c2.5,0,4.7-2.2,4.7-4.7v-6.9l18.2,11.3
		V45.8L68.5,57.1z M59.3,68.7H22.6V54.9h36.8V68.7z"/>
</g>
<g id="Book">
	<path fill="#3F2E49" d="M172.4,73.5V24.7c0-1.6-1.6-1.9-1.9-1.9H133c-5.4,0-5.4,5.1-5.4,5.1v47.7c0,1.1,0.8,1.9,1.9,1.9h35.7
		c1.1,0,1.9-0.8,1.9-1.9h3.2C172.7,75.7,172.4,73.5,172.4,73.5L172.4,73.5z M157.9,39.2h-20.7v-3.8h20.4v3.8H157.9z M168.4,71.7
		c-0.8,0-1.1,0-1.1,0V30.1c0-1.1-0.8-1.9-1.9-1.9h-33.8c0-1.3,1.3-2.1,2.1-2.1h33.8c2.1,0,2.1,1.9,2.1,1.9v42.6
		C169.4,70.6,169.4,71.7,168.4,71.7L168.4,71.7z"/>
	<rect x="127.6" y="22.9" fill="none" width="44.8" height="55"/>
</g>
<g id="Crossword">
	<g>
		<path fill="#AB3264" d="M229.8,29.8h-7.2v-7h7v7L229.8,29.8z M223,29.4h6.4V23H223V29.4L223,29.4z"/>
	</g>
	<g>
		<path fill="#AB3264" d="M236.4,29.8h-7v-7h7V29.8z M229.8,29.4h6.4V23h-6.4V29.4L229.8,29.4z"/>
	</g>
	<g>
		<path fill="#AB3264" d="M243.1,29.8h-7v-7h7V29.8L243.1,29.8z M236.4,29.4h6.4V23h-6.4V29.4z"/>
	</g>
	<g>
		<path fill="#AB3264" d="M249.9,29.8h-7v-7h7V29.8z M243.1,29.4h6.4V23h-6.4V29.4L243.1,29.4z"/>
	</g>
	<g>
		<path fill="#AB3264" d="M256.4,29.8h-7v-7h7L256.4,29.8L256.4,29.8z M249.9,29.4h6.4V23h-6.4V29.4z"/>
	</g>
	<g>
		<path fill="#AB3264" d="M263.2,29.8h-7v-7h7V29.8z M256.4,29.4h6.4V23h-6.4V29.4z"/>
	</g>
	<g>
		<rect x="263" y="22.8" fill="#AB3264" width="6.8" height="6.8"/>
	</g>
	<g>
		<rect x="269.8" y="22.8" fill="#AB3264" width="6.8" height="6.8"/>
	</g>
	<g>
		<path fill="#AB3264" d="M229.8,36.3h-7.2v-7h7v7H229.8z M223,36.1h6.4v-6.4H223V36.1L223,36.1z"/>
	</g>
	<g>
		<rect x="229.6" y="29.6" fill="#AB3264" width="6.8" height="6.8"/>
	</g>
	<g>
		<rect x="236.1" y="29.6" fill="#AB3264" width="6.8" height="6.8"/>
	</g>
	<g>
		<rect x="242.9" y="29.6" fill="#AB3264" width="6.8" height="6.8"/>
	</g>
	<g>
		<rect x="249.7" y="29.6" fill="#AB3264" width="6.8" height="6.8"/>
	</g>
	<g>
		<path fill="#AB3264" d="M263.2,36.3h-7v-7h7V36.3z M256.4,36.1h6.4v-6.4h-6.4V36.1z"/>
	</g>
	<g>
		<path fill="#AB3264" d="M270,36.3h-7v-7h7V36.3z M263.2,36.1h6.4v-6.4h-6.4V36.1z"/>
	</g>
	<g>
		<path fill="#AB3264" d="M276.5,36.3h-7v-7h7V36.3z M270,36.1h6.4v-6.4H270V36.1z"/>
	</g>
	<g>
		<path fill="#AB3264" d="M229.8,43.1h-7.2v-7h7v7H229.8z M223,42.9h6.4v-6.6H223V42.9L223,42.9z"/>
	</g>
	<g>
		<path fill="#AB3264" d="M236.4,43.1h-7v-7h7V43.1z M229.8,42.9h6.4v-6.6h-6.4V42.9L229.8,42.9z"/>
	</g>
	<g>
		<path fill="#AB3264" d="M243.1,43.1h-7v-7h7V43.1L243.1,43.1z M236.4,42.9h6.4v-6.6h-6.4V42.9z"/>
	</g>
	<g>
		<path fill="#AB3264" d="M249.9,43.1h-7v-7h7V43.1z M243.1,42.9h6.4v-6.6h-6.4V42.9L243.1,42.9z"/>
	</g>
	<g>
		<rect x="249.7" y="36.3" fill="#AB3264" width="6.8" height="6.8"/>
	</g>
	<g>
		<path fill="#AB3264" d="M263.2,43.1h-7v-7h7V43.1z M256.4,42.9h6.4v-6.6h-6.4V42.9z"/>
	</g>
	<g>
		<rect x="263" y="36.3" fill="#AB3264" width="6.8" height="6.8"/>
	</g>
	<g>
		<rect x="269.8" y="36.3" fill="#AB3264" width="6.8" height="6.8"/>
	</g>
	<g>
		<path fill="#AB3264" d="M229.8,49.8h-7.2v-7h7v7H229.8z M223,49.4h6.4v-6.4H223V49.4L223,49.4z"/>
	</g>
	<g>
		<rect x="229.6" y="42.9" fill="#AB3264" width="6.8" height="6.8"/>
	</g>
	<g>
		<path fill="#AB3264" d="M243.1,49.8h-7v-7h7V49.8L243.1,49.8z M236.4,49.4h6.4v-6.4h-6.4V49.4z"/>
	</g>
	<g>
		<rect x="242.9" y="42.9" fill="#AB3264" width="6.8" height="6.8"/>
	</g>
	<g>
		<path fill="#AB3264" d="M256.4,49.8h-7v-7h7L256.4,49.8L256.4,49.8z M249.9,49.4h6.4v-6.4h-6.4V49.4z"/>
	</g>
	<g>
		<rect x="256.2" y="42.9" fill="#AB3264" width="6.8" height="6.8"/>
	</g>
	<g>
		<path fill="#AB3264" d="M270,49.8h-7v-7h7V49.8z M263.2,49.4h6.4v-6.4h-6.4V49.4z"/>
	</g>
	<g>
		<path fill="#AB3264" d="M276.5,49.8h-7v-7h7V49.8z M270,49.4h6.4v-6.4H270V49.4z"/>
	</g>
	<g>
		<path fill="#AB3264" d="M229.8,56.4h-7.2v-7h7v7H229.8z M223,56.2h6.4v-6.4H223V56.2L223,56.2z"/>
	</g>
	<g>
		<rect x="229.6" y="49.7" fill="#AB3264" width="6.8" height="6.8"/>
	</g>
	<g>
		<path fill="#AB3264" d="M243.1,56.4h-7v-7h7V56.4L243.1,56.4z M236.4,56.2h6.4v-6.4h-6.4V56.2z"/>
	</g>
	<g>
		<rect x="242.9" y="49.7" fill="#AB3264" width="6.8" height="6.8"/>
	</g>
	<g>
		<path fill="#AB3264" d="M256.4,56.4h-7v-7h7L256.4,56.4L256.4,56.4z M249.9,56.2h6.4v-6.4h-6.4V56.2z"/>
	</g>
	<g>
		<rect x="256.2" y="49.7" fill="#AB3264" width="6.8" height="6.8"/>
	</g>
	<g>
		<rect x="263" y="49.7" fill="#AB3264" width="6.8" height="6.8"/>
	</g>
	<g>
		<path fill="#AB3264" d="M276.5,56.4h-7v-7h7V56.4z M270,56.2h6.4v-6.4H270V56.2z"/>
	</g>
	<g>
		<path fill="#AB3264" d="M229.8,63.2h-7.2v-7h7v7H229.8z M223,63h6.4v-6.4H223V63L223,63z"/>
	</g>
	<g>
		<rect x="229.6" y="56.4" fill="#AB3264" width="6.8" height="6.8"/>
	</g>
	<g>
		<rect x="236.1" y="56.4" fill="#AB3264" width="6.8" height="6.8"/>
	</g>
	<g>
		<path fill="#AB3264" d="M249.9,63.2h-7v-7h7V63.2z M243.1,63h6.4v-6.4h-6.4V63L243.1,63z"/>
	</g>
	<g>
		<path fill="#AB3264" d="M256.4,63.2h-7v-7h7L256.4,63.2L256.4,63.2z M249.9,63h6.4v-6.4h-6.4V63z"/>
	</g>
	<g>
		<path fill="#AB3264" d="M263.2,63.2h-7v-7h7V63.2z M256.4,63h6.4v-6.4h-6.4V63z"/>
	</g>
	<g>
		<path fill="#AB3264" d="M270,63.2h-7v-7h7V63.2z M263.2,63h6.4v-6.4h-6.4V63z"/>
	</g>
	<g>
		<path fill="#AB3264" d="M276.5,63.2h-7v-7h7V63.2z M270,63h6.4v-6.4H270V63z"/>
	</g>
	<g>
		<path fill="#AB3264" d="M229.8,69.9h-7.2v-7h7v7H229.8z M223,69.5h6.4v-6.4H223V69.5L223,69.5z"/>
	</g>
	<g>
		<path fill="#AB3264" d="M236.4,69.9h-7v-7h7V69.9z M229.8,69.5h6.4v-6.4h-6.4V69.5L229.8,69.5z"/>
	</g>
	<g>
		<path fill="#AB3264" d="M243.1,69.9h-7v-7h7V69.9L243.1,69.9z M236.4,69.5h6.4v-6.4h-6.4V69.5z"/>
	</g>
	<g>
		<rect x="242.9" y="63" fill="#AB3264" width="6.8" height="6.8"/>
	</g>
	<g>
		<path fill="#AB3264" d="M256.4,69.9h-7v-7h7L256.4,69.9L256.4,69.9z M249.9,69.5h6.4v-6.4h-6.4V69.5z"/>
	</g>
	<g>
		<rect x="256.2" y="63" fill="#AB3264" width="6.8" height="6.8"/>
	</g>
	<g>
		<rect x="263" y="63" fill="#AB3264" width="6.8" height="6.8"/>
	</g>
	<g>
		<path fill="#AB3264" d="M276.5,69.9h-7v-7h7V69.9z M270,69.5h6.4v-6.4H270V69.5z"/>
	</g>
	<g>
		<rect x="222.8" y="69.7" fill="#AB3264" width="6.8" height="6.8"/>
	</g>
	<g>
		<rect x="229.6" y="69.7" fill="#AB3264" width="6.8" height="6.8"/>
	</g>
	<g>
		<path fill="#AB3264" d="M243.1,76.5h-7v-7h7V76.5L243.1,76.5z M236.4,76.3h6.4v-6.4h-6.4V76.3z"/>
	</g>
	<g>
		<path fill="#AB3264" d="M249.9,76.5h-7v-7h7V76.5z M243.1,76.3h6.4v-6.4h-6.4V76.3L243.1,76.3z"/>
	</g>
	<g>
		<path fill="#AB3264" d="M256.4,76.5h-7v-7h7L256.4,76.5L256.4,76.5z M249.9,76.3h6.4v-6.4h-6.4V76.3z"/>
	</g>
	<g>
		<path fill="#AB3264" d="M263.2,76.5h-7v-7h7V76.5z M256.4,76.3h6.4v-6.4h-6.4V76.3z"/>
	</g>
	<g>
		<path fill="#AB3264" d="M270,76.5h-7v-7h7V76.5z M263.2,76.3h6.4v-6.4h-6.4V76.3z"/>
	</g>
	<g>
		<path fill="#AB3264" d="M276.5,76.5h-7v-7h7V76.5z M270,76.3h6.4v-6.4H270V76.3z"/>
	</g>
	<g>
		<path fill="#AB3264" d="M277.3,77.3H222V22.2h55.4V77.3L277.3,77.3z M223.6,75.7h51.9V23.8h-51.9V75.7z"/>
	</g>
</g>
<g id="Picture">
	<rect x="11.2" y="123.4" fill="#231F20" width="24.3" height="25.8"/>
	<rect x="38" y="123.4" fill="#231F20" width="24.3" height="25.8"/>
	<rect x="64.7" y="123.4" fill="#231F20" width="24.3" height="25.8"/>
	<rect x="11.2" y="152.5" fill="#231F20" width="24.3" height="25.8"/>
	<rect x="38" y="152.5" fill="#231F20" width="24.3" height="25.8"/>
	<rect x="64.7" y="152.5" fill="#231F20" width="24.3" height="25.8"/>
</g>
<g id="Reading">
	<g>
		<path fill="#587085" d="M149.7,159.9c0,0.5-0.3,1.1-0.8,1.3c-0.3,0-0.3,0.3-0.5,0.3c-0.3,0-0.5,0-0.8-0.3l-7.7-6.4h-4.5
			c-0.8,0-1.3-0.5-1.3-1.3v-5.9c0-0.8,0.5-1.3,1.3-1.3h4l7.7-6.4c0.5-0.3,1.1-0.5,1.6-0.3c0.5,0.3,0.8,0.8,0.8,1.3v18.9H149.7
			L149.7,159.9z M155,157.8L155,157.8c-0.5,0-0.8-0.3-1.1-0.5l-0.3-0.3c-0.5-0.5-0.5-1.3-0.3-1.9c1.1-1.3,1.6-3.2,1.6-4.8
			c0-1.9-0.5-3.7-1.9-5.1c-0.5-0.5-0.5-1.3,0-1.9l0.3-0.3c0.3-0.3,0.5-0.5,1.1-0.5c0.3,0,0.8,0.3,1.1,0.5c1.6,2.1,2.7,4.5,2.7,7.2
			c0,2.4-0.8,4.8-2.1,6.7C155.8,157.5,155.5,157.8,155,157.8L155,157.8z M160.8,162c-0.3,0.3-0.5,0.5-1.1,0.5l0,0
			c-0.3,0-0.8-0.3-1.1-0.5l-0.3-0.3c-0.5-0.5-0.5-1.3,0-1.9c2.4-2.7,3.5-6.1,3.5-9.6c0-3.7-1.3-7.2-3.7-9.8c-0.5-0.5-0.5-1.3,0-1.9
			l0.3-0.3c0.3-0.3,0.5-0.5,1.1-0.5c0.3,0,0.8,0.3,1.1,0.5c2.9,3.2,4.5,7.7,4.5,12C165.1,154.6,163.5,158.8,160.8,162L160.8,162z"/>
	</g>
	<path fill="#587085" enable-background="new    " d="M184,127.4c-0.5-0.5-1.1-0.8-1.9-0.5c-0.3,0-0.5,0-0.5,0v-1.6
		c0-0.5-0.3-1.3-0.8-1.6c-0.3-0.5-0.8-0.8-1.6-0.8c-21.5,0.3-27.9,5.9-29.5,8.2c-5.1-7.5-23.9-8.2-29.8-8.2l0,0
		c-0.5,0-1.3,0.3-1.6,0.8c-0.5,0.3-0.8,0.8-0.8,1.6v1.6c-0.3,0-0.5,0-0.5,0l0,0c-0.8,0-1.3,0.3-1.9,0.5c-0.5,0.5-0.8,1.1-0.8,1.6
		v40.2c0,1.3,1.1,2.1,2.7,2.1c17.6,0.3,25.5,3.2,29.3,5.6c0.8,0.5,1.9,0.5,2.7,0.3c0.3,0,0.5-0.3,0.8-0.5c0.3,0.3,0.5,0.3,0.8,0.5
		s0.8,0.3,1.1,0.3c0.5,0,1.1-0.3,1.6-0.5c3.7-2.4,12-5.3,29.3-5.6c1.3,0,2.7-1.1,2.7-2.1V129C184.8,128.5,184.5,128,184,127.4z
		 M179.2,166.8c-16.5,0.3-24.2,3.4-27.9,6.1c-1.3,0.8-2.1,1.1-3.5,0c-3.7-2.7-11.7-5.9-27.9-6.1v-41.5c22.9,0.3,27.4,6.7,27.9,7.4
		c1.1,1.3,2.4,1.1,3.5,0c0.5-1.1,5.3-7.4,27.9-7.7V166.8L179.2,166.8z"/>
</g>
<g id="Jigsaw">
	<path fill="#719B59" d="M283.6,122.7h-67.5c-0.6,0-1.1,0.5-1.1,1.1v52.8c0,0.6,0.5,1.1,1.1,1.1h67.5c0.6,0,1.1-0.5,1.1-1.1v-52.8
		C284.7,123.1,284.2,122.7,283.6,122.7L283.6,122.7z M278.1,168.8l-15.2-15.7c-0.2-0.2-0.4-0.2-0.6,0l-10.5,9.3l-13.5-16.6
		c-0.1-0.1-0.2-0.2-0.4-0.2s-0.3,0.1-0.3,0.2l-15.9,21.4v-37.8h56.4V168.8L278.1,168.8z"/>
	<path fill="#719B59" d="M261.4,145.2c3,0,5.4-2.4,5.4-5.4c0-3-2.4-5.4-5.4-5.4c-3,0-5.4,2.4-5.4,5.4
		C256,142.8,258.4,145.2,261.4,145.2L261.4,145.2z"/>
</g>
<path id="Soundwave" inkscape:connector-curvature="0" fill="#E2E3E4" d="M386.7,41.8c-1,0-1.8,0.8-1.8,1.7v5.1h-1v-8.8
	c0-1-0.8-1.7-1.8-1.7c-1,0-1.8,0.8-1.8,1.7v8.8h-1V48c0-1-0.8-1.7-1.8-1.7c-1,0-1.8,0.8-1.8,1.7v0.6h-1V45c0-1-0.8-1.7-1.8-1.7
	c-1,0-1.8,0.8-1.8,1.7v3.6h-1v-8.8c0-1-0.8-1.7-1.8-1.7c-1,0-1.8,0.8-1.8,1.7v8.8h-1v-8.8c0-1-0.8-1.7-1.8-1.7c-1,0-1.8,0.8-1.8,1.7
	v8.8h-1V32.3c0-1-0.8-1.7-1.8-1.7c-1,0-1.8,0.8-1.8,1.7v16.3h-1v-1.4c0-1-0.8-1.7-1.8-1.7c-1,0-1.8,0.8-1.8,1.7v1.4h-1V45
	c0-1-0.8-1.7-1.8-1.7c-1,0-1.8,0.8-1.8,1.7v3.6h-1V30.2c0-1-0.8-1.7-1.8-1.7c-1,0-1.8,0.8-1.8,1.7v18.4h-1v-8.8c0-1-0.8-1.7-1.8-1.7
	c-1,0-1.8,0.8-1.8,1.7v8.8h-1v-8.8c0-1-0.8-1.7-1.8-1.7s-1.8,0.8-1.8,1.7v8.8h-1V45c0-1-0.8-1.7-1.8-1.7c-1,0-1.8,0.8-1.8,1.7v3.6
	h-1v-8.8c0-1-0.8-1.7-1.8-1.7c-1,0-1.8,0.8-1.8,1.7v8.8h-1V24.7c0-1-0.8-1.7-1.8-1.7c-1,0-1.8,0.8-1.8,1.7v23.9h-1v-8.8
	c0-1-0.8-1.7-1.8-1.7s-1.8,0.8-1.8,1.7v8.8h-1V45c0-1-0.8-1.7-1.8-1.7c-1,0-1.8,0.8-1.8,1.7v10.7c0,1,0.8,1.7,1.8,1.7
	c1,0,1.8-0.8,1.8-1.7v-3.6h1v8.8c0,1,0.8,1.7,1.8,1.7c1,0,1.8-0.8,1.8-1.7v-8.8h1V76c0,1,0.8,1.7,1.8,1.7c1,0,1.8-0.8,1.8-1.7V52.1
	h1v8.8c0,1,0.8,1.7,1.8,1.7c1,0,1.8-0.8,1.8-1.7v-8.8h1v3.6c0,1,0.8,1.7,1.8,1.7c1,0,1.8-0.8,1.8-1.7v-3.6h1v8.8
	c0,1,0.8,1.7,1.8,1.7s1.8-0.8,1.8-1.7v-8.8h1v8.8c0,1,0.8,1.7,1.8,1.7c1,0,1.8-0.8,1.8-1.7v-8.8h1v18.4c0,1,0.8,1.7,1.8,1.7
	c1,0,1.8-0.8,1.8-1.7V52.1h1v3.6c0,1,0.8,1.7,1.8,1.7c1,0,1.8-0.8,1.8-1.7v-3.6h1v1.4c0,1,0.8,1.7,1.8,1.7c1,0,1.8-0.8,1.8-1.7v-1.4
	h1v16.3c0,1,0.8,1.7,1.8,1.7c1,0,1.8-0.8,1.8-1.7V52.1h1v8.8c0,1,0.8,1.7,1.8,1.7c1,0,1.8-0.8,1.8-1.7v-8.8h1v8.8
	c0,1,0.8,1.7,1.8,1.7c1,0,1.8-0.8,1.8-1.7v-8.8h1v3.6c0,1,0.8,1.7,1.8,1.7c1,0,1.8-0.8,1.8-1.7v-3.6h1v0.6c0,1,0.8,1.7,1.8,1.7
	c1,0,1.8-0.8,1.8-1.7v-0.6h1v8.8c0,1,0.8,1.7,1.8,1.7c1,0,1.8-0.8,1.8-1.7v-8.8h1v5.1c0,1,0.8,1.7,1.8,1.7c1,0,1.8-0.8,1.8-1.7V43.5
	C388.5,42.6,387.7,41.8,386.7,41.8"/>
<g id="Download">
	<path id="path3006" inkscape:connector-curvature="0" fill="#FFFFFF" d="M469.8,57.9v12.4h-39.3V57.9h-7.5V74c0,2,1.7,3.6,3.8,3.6
		h46.8c2.1,0,3.8-1.6,3.8-3.6V57.9H469.8z"/>
	<path id="path3008" inkscape:connector-curvature="0" fill="#FFFFFF" d="M449.4,56.7L438.6,44c0,0-1.6-1.5,0.1-1.5h6.1V24.1
		c0,0-0.2-0.9,1.2-0.9h8.6c1,0,1,0.8,1,0.8v18.2h5.6c2.2,0,0.5,1.6,0.5,1.6s-9.2,11.8-10.5,13.1C450.3,57.7,449.4,56.7,449.4,56.7"
		/>
</g>
<g id="Quote_Open" transform="translate(0,-852.36218)" inkscape:groupmode="layer" inkscape:label="Layer 1">
	<g id="text2985" transform="matrix(1.8927911,0,0,1.8927911,-785.21256,836.08226)">
		<path id="path2990" inkscape:connector-curvature="0" fill="#010101" d="M607.9,76.2c-1.7,1-3,1.8-4.1,2.5c-1,0.7-2.1,1.6-3.2,2.7
			c-1,1-1.8,2.2-2.3,3.4c-0.5,1.2-0.9,2.7-1.1,4.5h2.6c2.2,0,3.9,0.6,5.2,1.7c1.3,1.1,1.9,2.7,1.9,4.8c0,1.5-0.6,2.9-1.7,4.2
			c-1.1,1.3-2.6,1.9-4.6,1.9c-3.1,0-5.3-1-6.6-3c-1.3-2-2-4.7-2-8c0-2.3,0.5-4.4,1.5-6.3c1-1.9,2.2-3.6,3.6-5.1
			c1.5-1.5,3-2.8,4.7-3.9c1.6-1.1,3-1.9,4.1-2.6L607.9,76.2"/>
	</g>
</g>
<g id="layer1" transform="translate(0,-852.36218)" inkscape:groupmode="layer" inkscape:label="Layer 1">
	<g id="text2985_1_" transform="matrix(-1.8927911,0,0,-1.8927911,894.63954,1068.6421)">
		<path id="path2990_1_" inkscape:connector-curvature="0" fill="#010101" d="M242.8,23.7c-1.7,1-3,1.8-4.1,2.5
			c-1,0.7-2.1,1.6-3.2,2.7c-1,1-1.8,2.2-2.3,3.4c-0.5,1.2-0.9,2.7-1.1,4.5h2.6c2.2,0,3.9,0.6,5.2,1.7c1.3,1.1,1.9,2.7,1.9,4.8
			c0,1.5-0.6,2.9-1.7,4.2c-1.1,1.3-2.6,1.9-4.6,1.9c-3.1,0-5.3-1-6.6-3c-1.3-2-2-4.7-2-8c0-2.3,0.5-4.4,1.5-6.3
			c1-1.9,2.2-3.6,3.6-5.1c1.5-1.5,3-2.8,4.7-3.9c1.6-1.1,3-1.9,4.1-2.6L242.8,23.7"/>
	</g>
</g>
<g id="Tuairisc_Dark">
	<path fill="#1B181C" d="M91,234.1c0,0.9-0.3,1.7-0.9,2.4c-0.6,0.7-1.3,1-2.2,1c-0.8,0-1.5-0.3-2.1-1c-0.6-0.6-0.9-1.4-0.9-2.2
		c0-0.9,0.3-1.6,0.9-2.3c0.6-0.6,1.3-1,2.1-1c0.9,0,1.6,0.3,2.2,0.9C90.7,232.6,91,233.3,91,234.1z"/>
	<path fill="#1B181C" d="M123.6,234.1c0,0.9-0.3,1.7-0.9,2.4c-0.6,0.7-1.3,1-2.2,1c-0.8,0-1.5-0.3-2.1-1c-0.6-0.6-0.9-1.4-0.9-2.2
		c0-0.9,0.3-1.6,0.9-2.3c0.6-0.6,1.3-1,2.1-1c0.9,0,1.6,0.3,2.2,0.9C123.3,232.6,123.6,233.3,123.6,234.1z"/>
	<path fill="#1B181C" d="M58.7,266.4l-7.6,0.5l-0.4-0.3v-3h-0.1c-0.4,0.4-0.8,0.8-1.3,1.3c-0.5,0.4-1,0.9-1.6,1.2
		c-0.7,0.4-1.4,0.7-2.1,1c-0.7,0.2-1.6,0.3-2.8,0.3c-2.1,0-3.6-0.7-4.7-2c-1.1-1.3-1.6-3.3-1.6-5.9v-11.1c0-0.6-0.1-1-0.3-1.4
		c-0.2-0.4-0.5-0.7-0.9-1c-0.3-0.2-0.6-0.3-1.1-0.4c-0.4-0.1-0.9-0.1-1.4-0.2v-1.6l7.8-0.6l0.4,0.3v16.2c0,1.7,0.4,3,1.1,3.8
		c0.8,0.9,1.7,1.3,2.7,1.3c0.9,0,1.6-0.1,2.3-0.4c0.7-0.3,1.2-0.6,1.7-0.9c0.4-0.3,0.8-0.7,1.1-1.1c0.3-0.4,0.6-0.7,0.7-1v-13.2
		c0-0.5-0.1-1-0.3-1.4c-0.2-0.4-0.5-0.7-0.9-1c-0.3-0.2-0.7-0.3-1.3-0.3c-0.6,0-1.2-0.1-1.9-0.1v-1.6l8.5-0.6l0.4,0.3v18.5
		c0,0.5,0.1,1,0.3,1.4c0.2,0.4,0.5,0.7,0.9,1c0.3,0.2,0.6,0.3,1,0.3c0.4,0.1,0.8,0.1,1.3,0.1L58.7,266.4L58.7,266.4z"/>
	<path fill="#1B181C" d="M94,266.8H82.7v-1.6c0.4,0,0.7-0.1,1.1-0.1c0.4,0,0.7-0.1,1-0.2c0.4-0.1,0.8-0.4,1-0.7
		c0.2-0.4,0.3-0.8,0.3-1.4v-14.4c0-0.5-0.1-1-0.3-1.4c-0.2-0.4-0.5-0.8-1-1c-0.3-0.2-0.7-0.4-1.3-0.5c-0.6-0.1-1.1-0.2-1.6-0.2v-1.6
		l8.2-0.5l0.3,0.3v19c0,0.6,0.1,1,0.3,1.4c0.2,0.4,0.5,0.6,1,0.8c0.3,0.1,0.7,0.3,1,0.3c0.3,0.1,0.7,0.1,1.1,0.2V266.8z"/>
	<path fill="#1B181C" d="M79.9,265.1c-0.3-0.1-0.7-0.2-1-0.3c-0.5-0.2-0.8-0.4-1-0.8c-0.2-0.4-0.3-0.8-0.3-1.4v-1.7h0
		c0-1.5,0-3,0.1-4.3c0-1.7,0.1-3.7,0.1-6c0-1.6-0.2-2.9-0.6-3.9c-0.4-1-1-1.8-1.8-2.4c-0.8-0.6-1.7-1-2.7-1.2
		c-1-0.2-2.1-0.3-3.5-0.3c-1,0-1.9,0.2-3,0.5c-1,0.3-1.9,0.7-2.6,1.1c-0.8,0.5-1.5,1.1-2,1.8c-0.5,0.7-0.8,1.4-0.8,2.1
		c0,0.7,0.2,1.3,0.6,1.9c0.4,0.6,0.9,0.8,1.7,0.8c0.9,0,1.6-0.2,2.1-0.7c0.5-0.5,0.7-1,0.7-1.5c0-0.5-0.1-1.1-0.2-1.7
		c-0.1-0.6-0.2-1.1-0.2-1.4c0.3-0.3,0.7-0.5,1.3-0.8c0.6-0.2,1.3-0.4,2-0.4c1.1,0,1.9,0.2,2.4,0.6c0.6,0.4,1,0.9,1.3,1.5
		c0.3,0.5,0.5,1.1,0.6,1.7c0.1,0.6,0.1,1,0.1,1.2v2.3c-0.8,0.4-2.2,1-4.4,1.7c-2.2,0.7-3.6,1.2-4.3,1.5c-0.6,0.2-1.2,0.5-1.8,0.9
		c-0.6,0.4-1.2,0.8-1.6,1.3c-0.5,0.6-0.9,1.2-1.1,1.9c-0.3,0.7-0.4,1.5-0.4,2.4c0,1.7,0.6,3.1,1.7,4.2c1.1,1.1,2.6,1.6,4.3,1.6
		c1.7,0,3.1-0.3,4.2-0.9c1.2-0.6,2.3-1.5,3.3-2.6h0.1c0.2,1.1,0.7,1.9,1.4,2.5c0.7,0.6,1.7,0.9,2.9,0.9c0.7,0,2.5-0.2,3.3-0.5v-1.6
		C80.6,265.2,80.2,265.2,79.9,265.1z M71,264c-0.9,0.5-1.8,0.8-3,0.8c-1.1,0-1.9-0.3-2.6-0.9c-0.7-0.6-1-1.6-1-2.9
		c0-1,0.2-1.9,0.7-2.6c0.5-0.7,1.1-1.4,1.9-1.9c0.9-0.6,1.8-1,2.8-1.4c1-0.4,2.2-0.8,3.5-1.2l-0.1,8.2C72.6,262.9,71.8,263.5,71,264
		z"/>
	<path fill="#1B181C" d="M113.5,246.6c0,0.8-0.2,1.5-0.6,2.1c-0.4,0.6-1,0.9-1.8,0.9c-0.9,0-1.6-0.2-2-0.7c-0.5-0.5-0.7-1-0.7-1.5
		c0-0.3,0-0.7,0.1-0.9c0.1-0.3,0.1-0.6,0.2-0.9c-0.7,0-1.6,0.3-2.6,0.9c-1,0.6-1.8,1.4-2.5,2.6v13.6c0,0.6,0.1,1,0.3,1.3
		c0.2,0.3,0.5,0.6,1,0.8c0.4,0.2,0.9,0.3,1.5,0.4c0.6,0.1,1.2,0.1,1.6,0.2v1.6H95.7v-1.6c0.4,0,0.7-0.1,1.1-0.1c0.4,0,0.7-0.1,1-0.2
		c0.4-0.1,0.8-0.4,1-0.7c0.2-0.4,0.3-0.8,0.3-1.4v-14.4c0-0.5-0.1-1-0.3-1.4c-0.2-0.5-0.5-0.8-1-1.1c-0.3-0.2-0.7-0.3-1.1-0.4
		c-0.4-0.1-0.9-0.1-1.3-0.2v-1.6l7.8-0.5l0.3,0.3v3.3h0.1c1-1.3,2.1-2.2,3.3-2.9c1.2-0.7,2.3-1,3.3-1c1,0,1.8,0.3,2.4,1
		C113.2,244.6,113.5,245.5,113.5,246.6z"/>
	<path fill="#1B181C" d="M123.1,262.6c0,0.6,0.1,1,0.3,1.4c0.2,0.4,0.5,0.6,1,0.8c0.3,0.1,0.7,0.3,1,0.3c0.3,0.1,0.7,0.1,1.1,0.2
		v1.6h-11.2v-1.6c0.4,0,0.7-0.1,1.1-0.1c0.4,0,0.7-0.1,1-0.2c0.4-0.1,0.8-0.4,1-0.7c0.2-0.4,0.3-0.8,0.3-1.4v-14.4
		c0-0.5-0.1-1-0.3-1.4c-0.2-0.4-0.5-0.8-1-1c-0.3-0.2-0.7-0.4-1.3-0.5c-0.6-0.1-1.1-0.2-1.6-0.2v-1.6l8.2-0.5l0.3,0.3L123.1,262.6
		L123.1,262.6z"/>
	<path fill="#1B181C" d="M143.6,255.4c0.6,0.6,1.1,1.2,1.5,2c0.3,0.7,0.5,1.6,0.5,2.7c0,2.2-0.8,3.9-2.4,5.3
		c-1.6,1.4-3.7,2.1-6.3,2.1c-1.4,0-2.6-0.2-3.7-0.7c-1.1-0.5-2-0.9-2.4-1.3l-0.5,1.5h-1.8l-0.2-8.1h1.6c0.1,0.6,0.4,1.3,0.8,2.2
		c0.4,0.8,0.9,1.6,1.5,2.2c0.6,0.7,1.4,1.3,2.2,1.8c0.9,0.5,1.8,0.7,2.9,0.7c1.5,0,2.7-0.3,3.5-1c0.8-0.7,1.2-1.7,1.2-3
		c0-0.7-0.1-1.2-0.4-1.7c-0.3-0.5-0.6-0.9-1.1-1.3c-0.5-0.4-1.2-0.7-1.9-1c-0.8-0.3-1.6-0.6-2.5-0.9c-0.7-0.2-1.6-0.5-2.5-0.9
		c-0.9-0.4-1.7-0.8-2.3-1.4c-0.7-0.6-1.3-1.2-1.7-2c-0.4-0.8-0.7-1.7-0.7-2.8c0-1.9,0.7-3.5,2.1-4.8c1.4-1.3,3.3-2,5.7-2
		c0.9,0,1.8,0.1,2.8,0.4c1,0.2,1.7,0.5,2.3,0.9l0.5-1.2h1.7l0.4,7.5h-1.6c-0.3-1.7-1-3-2.1-4.1c-1.1-1.1-2.4-1.6-4-1.6
		c-1.3,0-2.3,0.3-3,1c-0.7,0.7-1.1,1.4-1.1,2.4c0,0.7,0.1,1.3,0.4,1.8c0.2,0.5,0.6,0.9,1.1,1.2c0.5,0.3,1.1,0.6,1.8,0.9
		c0.7,0.3,1.6,0.6,2.7,0.9c1,0.3,2,0.7,2.9,1.2C142.3,254.4,143,254.9,143.6,255.4z"/>
	<path fill="#1B181C" d="M158.8,267.5c-3.4,0-6-1.1-7.9-3.4c-1.9-2.2-2.9-5.2-2.9-9c0-1.6,0.3-3.2,0.8-4.6c0.5-1.4,1.3-2.7,2.2-3.9
		c0.9-1.1,2.1-2,3.5-2.7c1.4-0.7,2.9-1,4.6-1c2.3,0,4.1,0.5,5.6,1.6c1.4,1.1,2.1,2.6,2.1,4.5c0,0.8-0.2,1.5-0.6,2.1
		c-0.4,0.6-1,0.9-1.9,0.9c-0.9,0-1.6-0.2-2.2-0.7c-0.5-0.5-0.8-1-0.8-1.6c0-0.7,0.1-1.4,0.3-2.2c0.2-0.7,0.3-1.3,0.3-1.6
		c-0.3-0.5-0.7-0.8-1.3-1c-0.6-0.2-1.2-0.2-1.8-0.2c-0.8,0-1.5,0.2-2.2,0.5c-0.7,0.3-1.3,0.9-2,1.8c-0.6,0.8-1.1,1.8-1.4,3.2
		c-0.4,1.3-0.5,2.9-0.5,4.8c0,2.9,0.6,5.3,1.9,7.2c1.3,1.9,3,2.8,5.1,2.8c1.5,0,2.8-0.4,3.8-1.1c1-0.7,2-1.9,2.9-3.3l1.5,1
		c-1,1.9-2.4,3.3-4.1,4.4C162.3,266.9,160.6,267.5,158.8,267.5z"/>
	<g>
		<path fill="#516673" d="M191.9,255.9c-0.1-0.5-0.2-0.9-0.3-1.2c-0.2-0.3-0.4-0.6-0.7-0.8c-0.3-0.2-0.7-0.3-1.1-0.3
			c-0.8,0-1.4,0.3-1.9,1c-0.5,0.6-0.8,1.5-0.8,2.7h5C192,256.8,191.9,256.3,191.9,255.9z"/>
		<path fill="#516673" d="M193.4,243.5H175c-1.6,0-2.9,1.4-2.9,3.1v18c0,1.7,1.3,3.1,2.9,3.1h18.4c1.6,0,2.9-1.4,2.9-3.1v-18
			C196.3,244.9,195,243.5,193.4,243.5z M180.3,247.7c0.3-0.3,0.6-0.4,1-0.4c0.4,0,0.8,0.1,1,0.4c0.3,0.3,0.4,0.6,0.4,1
			c0,0.4-0.1,0.8-0.4,1.1c-0.3,0.3-0.6,0.5-1,0.5c-0.4,0-0.7-0.1-1-0.4c-0.3-0.3-0.4-0.6-0.4-1C179.9,248.4,180,248,180.3,247.7z
			 M176.6,263.6c-0.3,0.3-0.6,0.4-1.1,0.4c-0.4,0-0.8-0.1-1.1-0.4c-0.3-0.3-0.4-0.6-0.4-1s0.1-0.8,0.4-1.1c0.3-0.3,0.6-0.4,1.1-0.4
			c0.4,0,0.8,0.1,1.1,0.4c0.3,0.3,0.4,0.6,0.4,1.1S176.9,263.3,176.6,263.6z M184,263.8h-5.2v-0.7c0.2,0,0.3,0,0.5,0
			c0.2,0,0.3,0,0.5-0.1c0.2-0.1,0.4-0.2,0.5-0.3c0.1-0.2,0.1-0.4,0.1-0.6v-6.6c0-0.2-0.1-0.4-0.2-0.6c-0.1-0.2-0.3-0.4-0.4-0.5
			c-0.1-0.1-0.3-0.2-0.6-0.2c-0.3-0.1-0.5-0.1-0.7-0.1v-0.7l3.8-0.2l0.2,0.2v8.8c0,0.3,0,0.5,0.1,0.6c0.1,0.2,0.3,0.3,0.5,0.4
			c0.2,0.1,0.3,0.1,0.5,0.2c0.2,0,0.3,0.1,0.5,0.1L184,263.8L184,263.8z M192.6,263.3c-0.8,0.5-1.6,0.8-2.6,0.8
			c-0.9,0-1.6-0.2-2.3-0.5c-0.6-0.3-1.2-0.7-1.6-1.2c-0.4-0.5-0.7-1.1-0.9-1.8c-0.2-0.7-0.3-1.4-0.3-2.2c0-0.7,0.1-1.4,0.3-2.1
			c0.2-0.7,0.5-1.3,1-1.8c0.4-0.5,0.9-0.9,1.5-1.3c0.6-0.3,1.3-0.5,2.1-0.5c0.8,0,1.5,0.1,2,0.4c0.6,0.2,1,0.6,1.4,1
			c0.3,0.4,0.6,0.9,0.7,1.4c0.2,0.6,0.2,1.2,0.2,1.8v0.7H187c0,0.7,0.1,1.3,0.2,1.9c0.1,0.6,0.3,1.1,0.6,1.5c0.3,0.4,0.7,0.8,1.1,1
			s1,0.4,1.6,0.4c0.6,0,1.2-0.2,1.7-0.5c0.5-0.3,0.9-0.8,1.4-1.6l0.8,0.5C193.9,262.1,193.3,262.8,192.6,263.3z"/>
	</g>
	<path fill="#1B181C" d="M5.2,233.3v0.5v6.9h1.7c0.1-0.4,0.4-0.9,0.8-1.5c0.4-0.6,0.8-1.2,1.3-1.7c0.5-0.5,1-1,1.5-1.5
		c0.6-0.4,1.1-0.7,1.6-0.7c0.7-0.1,1.4-0.1,2.1-0.1c0.7,0,1.3,0,1.8,0h1.4v27c0,0.6-0.1,1.2-0.4,1.5c-0.2,0.4-0.6,0.7-1.1,0.9
		c-0.3,0.1-1,0.3-1.9,0.4c-0.9,0.1-1.6,0.2-2,0.2v1.7h15.8v-1.7c-0.5,0-1.2-0.1-2.1-0.3c-0.9-0.2-1.5-0.3-1.8-0.4
		c-0.6-0.2-0.9-0.6-1.2-1c-0.2-0.4-0.3-0.9-0.3-1.4v-26.8h1.4c0.6,0,1.3,0,2.1,0c0.7,0,1.4,0.1,1.8,0.1c0.5,0.1,1.1,0.3,1.6,0.7
		c0.6,0.4,1.1,0.9,1.6,1.5c0.5,0.5,0.9,1.1,1.2,1.7c0.4,0.6,0.6,1.1,0.8,1.5h1.6v-6.9v-0.5H5.2z"/>
</g>
<g id="Tuairisc_Light">
	<g id="g3088" transform="translate(212.5292,43.7021)">
		<path id="path3090" inkscape:connector-curvature="0" fill="#FFFFFF" d="M77.9,190.4c0,0.9-0.3,1.7-0.9,2.5c-0.6,0.7-1.3,1-2.2,1
			c-0.9,0-1.4-0.3-2-1s-0.9-1.4-0.9-2.2c0-0.9,0.3-1.6,0.9-2.3c0.6-0.7,1.3-1,2-1c0.9,0,1.6,0.3,2.2,0.9S77.9,189.6,77.9,190.4"/>
	</g>
	<g id="g3092" transform="translate(230.4865,43.7021)">
		<path id="path3094" inkscape:connector-curvature="0" fill="#FFFFFF" d="M92.5,190.4c0,0.9-0.3,1.7-0.9,2.5c-0.6,0.7-1.3,1-2.2,1
			c-0.9,0-1.4-0.3-2-1s-0.9-1.4-0.9-2.2c0-0.9,0.3-1.6,0.9-2.3c0.6-0.7,1.3-1,2-1c0.9,0,1.6,0.3,2.2,0.9
			C92.2,188.9,92.5,189.6,92.5,190.4"/>
	</g>
	<g id="g3096" transform="translate(194.6863,25.8522)">
		<path id="path3098" inkscape:connector-curvature="0" fill="#FFFFFF" d="M63.3,241.5l-7.7,0.6l-0.3-0.3v-3h-0.1
			c-0.4,0.4-0.9,0.9-1.3,1.3c-0.4,0.4-1,0.9-1.6,1.3c-0.7,0.4-1.4,0.7-2,1c-0.7,0.3-1.6,0.3-2.8,0.3c-2,0-3.6-0.7-4.6-2
			c-1-1.4-1.6-3.3-1.6-6.1v-11.5c0-0.6-0.1-1-0.3-1.4c-0.1-0.4-0.6-0.7-0.9-1c-0.3-0.1-0.6-0.3-1-0.4c-0.4-0.1-0.9-0.1-1.3-0.1v-1.6
			l7.8-0.6l0.3,0.3v16.7c0,1.7,0.4,3,1.2,3.9c0.7,0.9,1.6,1.3,2.8,1.3c0.9,0,1.6-0.1,2.3-0.4c0.7-0.3,1.3-0.6,1.7-1
			c0.4-0.3,0.9-0.7,1.2-1c0.3-0.3,0.6-0.7,0.7-1v-13.5c0-0.6-0.1-1-0.3-1.4c-0.3-0.4-0.6-0.7-0.9-1c-0.3-0.1-0.7-0.3-1.3-0.3
			s-1.2-0.1-1.9-0.1v-1.6L60,218l0.3,0.3v19c0,0.6,0.1,1,0.3,1.4c0.3,0.4,0.6,0.7,0.9,1c0.3,0.1,0.6,0.3,1,0.3
			c0.4,0,0.9,0.1,1.3,0.1v1.3H63.3z"/>
	</g>
	<g id="g3100" transform="translate(214.1592,25.6174)">
		<path id="path3102" inkscape:connector-curvature="0" fill="#FFFFFF" d="M79.2,242.1H67.9v-1.6c0.4,0,0.7,0,1.2-0.1
			c0.4,0,0.7-0.1,1-0.1c0.4-0.1,0.7-0.4,1-0.7c0.1-0.3,0.3-0.9,0.3-1.4v-14.8c0-0.6-0.1-1-0.3-1.4c-0.3-0.4-0.6-0.7-1-1
			c-0.3-0.1-0.7-0.3-1.3-0.4c-0.6-0.1-1.2-0.3-1.6-0.3v-1.6l8.3-0.6l0.3,0.3v19.4c0,0.6,0.1,1,0.3,1.4c0.1,0.4,0.6,0.6,1,0.9
			c0.3,0.1,0.7,0.3,1,0.3c0.3,0.1,0.7,0.1,1.2,0.1L79.2,242.1L79.2,242.1z"/>
	</g>
	<g id="g3104" transform="translate(201.4742,27.1635)">
		<path id="path3106" inkscape:connector-curvature="0" fill="#FFFFFF" d="M69,237.7c-0.9,0.6-1.9,0.9-2.9,0.9c-1,0-1.9-0.3-2.6-1
			c-0.7-0.6-1-1.6-1-2.9c0-1,0.3-1.9,0.7-2.8c0.4-0.7,1-1.4,1.9-1.9c0.9-0.6,1.7-1,2.8-1.4c1-0.4,2.2-0.7,3.5-1.2l-0.1,8.4
			C70.4,236.4,69.7,237.1,69,237.7 M77.8,238.7c-0.3-0.1-0.7-0.1-1-0.3c-0.4-0.1-0.7-0.4-1-0.9c-0.1-0.4-0.3-0.9-0.3-1.4v-1.7l0,0
			c0-1.6,0-3,0-4.3c0-1.7,0-3.8,0-6.1c0-1.6-0.1-2.9-0.6-3.9c-0.4-1-1-1.9-1.9-2.5c-0.9-0.6-1.7-1-2.8-1.2s-2.2-0.3-3.5-0.3
			c-1,0-1.9,0.1-2.9,0.4c-1,0.3-1.9,0.7-2.6,1.2c-0.9,0.6-1.4,1.2-2,1.9c-0.6,0.7-0.7,1.4-0.7,2.2c0,0.7,0.1,1.3,0.6,1.9
			c0.4,0.6,1,0.9,1.7,0.9c0.9,0,1.6-0.3,2-0.7c0.4-0.4,0.7-1,0.7-1.6s-0.1-1.2-0.3-1.7c-0.1-0.6-0.3-1.2-0.3-1.4
			c0.3-0.3,0.7-0.6,1.3-0.7c0.6-0.3,1.3-0.4,2-0.4c1,0,1.9,0.3,2.5,0.7c0.6,0.4,1,1,1.3,1.6s0.4,1.2,0.6,1.7c0.1,0.6,0.1,1,0.1,1.2
			v2.5c-0.7,0.4-2.2,1-4.3,1.7c-2.2,0.7-3.6,1.3-4.3,1.6c-0.6,0.3-1.2,0.6-1.9,0.9c-0.6,0.4-1.2,0.9-1.6,1.3c-0.4,0.6-0.9,1.3-1.2,2
			c-0.3,0.7-0.4,1.6-0.4,2.5c0,1.7,0.6,3.2,1.7,4.3s2.6,1.6,4.3,1.6c1.6,0,3-0.3,4.2-0.9c1.2-0.6,2.3-1.4,3.3-2.6h0.1
			c0.1,1.2,0.7,2,1.4,2.6c0.7,0.6,1.7,0.9,2.9,0.9c0.7,0,2.6-0.3,3.3-0.4v-1.6C78.6,238.9,78.1,238.9,77.8,238.7"/>
	</g>
	<g id="g3108" transform="translate(224.9546,36.8176)">
		<path id="path3110" inkscape:connector-curvature="0" fill="#FFFFFF" d="M88.1,210.2c0,0.9-0.1,1.6-0.6,2.2s-1,1-1.9,1
			s-1.6-0.3-2-0.7c-0.4-0.4-0.7-1-0.7-1.6c0-0.3,0-0.7,0.1-1c0-0.3,0.1-0.6,0.1-0.9c-0.7,0-1.6,0.3-2.6,0.9c-1,0.6-1.9,1.4-2.5,2.6
			v13.9c0,0.6,0.1,1,0.3,1.4c0.1,0.3,0.6,0.6,1,0.9c0.4,0.1,0.9,0.3,1.6,0.4c0.6,0.1,1.2,0.1,1.6,0.1v1.6H70.3v-1.6
			c0.4,0,0.7,0,1.2-0.1c0.4,0,0.7-0.1,1-0.1c0.4-0.1,0.7-0.4,1-0.7c0.1-0.4,0.3-0.9,0.3-1.4v-14.8c0-0.4-0.1-1-0.3-1.4
			c-0.1-0.4-0.6-0.9-1-1.2c-0.3-0.1-0.7-0.3-1-0.4c-0.4-0.1-0.9-0.1-1.3-0.1v-1.6l7.8-0.6l0.3,0.3v3.3h0.1c1-1.3,2-2.3,3.3-3
			c1.2-0.7,2.3-1,3.3-1s1.7,0.3,2.5,1C87.7,208.1,88.1,209,88.1,210.2"/>
	</g>
	<g id="g3112" transform="translate(230.2261,27.9646)">
		<path id="path3114" inkscape:connector-curvature="0" fill="#FFFFFF" d="M92.4,235.5c0,0.6,0.1,1,0.3,1.4c0.1,0.4,0.6,0.6,1,0.9
			c0.3,0.1,0.7,0.3,1,0.3c0.3,0.1,0.7,0.1,1.2,0.1v1.6H84.5v-1.6c0.4,0,0.7,0,1.2-0.1c0.4,0,0.7-0.1,1-0.1c0.4-0.1,0.7-0.4,1-0.7
			c0.1-0.4,0.3-0.9,0.3-1.4V221c0-0.6-0.1-1-0.3-1.4c-0.3-0.4-0.6-0.7-1-1c-0.3-0.1-0.7-0.3-1.3-0.4c-0.6-0.1-1-0.3-1.6-0.3v-1.6
			l8.3-0.6l0.3,0.3L92.4,235.5L92.4,235.5z"/>
	</g>
	<g id="g3116" transform="translate(241.555,31.9153)">
		<path id="path3118" inkscape:connector-curvature="0" fill="#FFFFFF" d="M101.5,224.1c0.6,0.6,1.2,1.3,1.4,2s0.6,1.7,0.6,2.8
			c0,2.2-0.9,4.1-2.5,5.4c-1.6,1.4-3.8,2.2-6.2,2.2c-1.3,0-2.6-0.3-3.8-0.7c-1.2-0.4-2-1-2.5-1.4l-0.4,1.6h-1.7l-0.3-8.3h1.6
			c0.1,0.6,0.4,1.3,0.9,2.2c0.4,0.9,0.9,1.6,1.4,2.3s1.3,1.3,2.2,1.7c0.9,0.4,1.9,0.7,2.9,0.7c1.4,0,2.6-0.3,3.5-1
			c0.9-0.7,1.2-1.7,1.2-3c0-0.7-0.1-1.3-0.4-1.7c-0.3-0.4-0.6-0.9-1.2-1.3c-0.6-0.4-1.2-0.7-1.9-1s-1.6-0.6-2.5-0.9
			c-0.7-0.3-1.6-0.6-2.5-0.9c-0.9-0.4-1.7-0.9-2.3-1.4c-0.7-0.6-1.3-1.3-1.7-2c-0.4-0.9-0.7-1.7-0.7-2.9c0-1.9,0.7-3.6,2.2-4.9
			c1.4-1.3,3.3-2,5.7-2c0.9,0,1.9,0.1,2.8,0.3c1,0.3,1.7,0.6,2.3,0.9l0.6-1.3h1.7l0.3,7.7h-1.6c-0.3-1.7-1-3.2-2.2-4.2
			c-1.2-1-2.5-1.6-4.1-1.6c-1.3,0-2.3,0.3-3,1c-0.7,0.7-1.2,1.4-1.2,2.5c0,0.7,0.1,1.3,0.4,1.9c0.3,0.4,0.6,0.9,1.2,1.3
			c0.4,0.3,1,0.6,1.7,0.9c0.7,0.3,1.6,0.6,2.6,1c1,0.3,2,0.7,2.9,1.2C100.2,223,100.9,223.6,101.5,224.1"/>
	</g>
	<g id="g3120" transform="translate(249.9109,25.2785)">
		<path id="path3122" inkscape:connector-curvature="0" fill="#FFFFFF" d="M108.3,243.1c-3.3,0-5.9-1.2-8-3.5
			c-1.9-2.3-2.9-5.4-2.9-9.3c0-1.7,0.3-3.2,0.7-4.8c0.6-1.4,1.3-2.8,2.2-4.1c0.9-1.2,2-2,3.5-2.8c1.4-0.7,2.9-1,4.6-1
			c2.3,0,4.2,0.6,5.7,1.7c1.4,1.2,2.2,2.6,2.2,4.6c0,0.9-0.1,1.6-0.6,2.2c-0.4,0.6-1,0.9-1.9,0.9c-0.9,0-1.6-0.3-2.2-0.7
			c-0.6-0.4-0.7-1-0.7-1.6c0-0.7,0.1-1.4,0.3-2.2c0.1-0.7,0.3-1.3,0.3-1.7c-0.3-0.4-0.7-0.9-1.3-1s-1.2-0.3-1.7-0.3
			c-0.7,0-1.4,0.1-2.2,0.4c-0.7,0.3-1.3,1-2,1.9c-0.6,0.9-1,1.9-1.4,3.3c-0.4,1.3-0.6,3-0.6,4.9c0,3,0.6,5.5,1.9,7.4
			c1.3,1.9,3,2.9,5.1,2.9c1.6,0,2.8-0.4,3.8-1.2c1-0.7,2-1.9,2.9-3.5l1.4,1c-1,1.9-2.5,3.5-4.1,4.5
			C111.9,242.5,110.2,243.1,108.3,243.1"/>
	</g>
	<g id="g3124" transform="translate(268.1834,31.6842)">
		<path id="path3126" inkscape:connector-curvature="0" fill="#FFFFFF" d="M123.2,224.8c0-0.4-0.1-0.9-0.3-1.2
			c-0.1-0.3-0.4-0.6-0.7-0.9c-0.3-0.1-0.7-0.3-1.2-0.3c-0.7,0-1.4,0.3-1.9,1c-0.6,0.6-0.7,1.6-0.9,2.8h4.9
			C123.3,225.7,123.3,225.3,123.2,224.8"/>
	</g>
	<g id="g3128" transform="translate(268.572,27.5658)">
		<path id="path3130" inkscape:connector-curvature="0" fill="#FFFFFF" d="M123.5,236.6c-0.7,0.6-1.6,0.7-2.6,0.7
			c-0.9,0-1.6-0.1-2.3-0.4c-0.6-0.3-1.2-0.7-1.6-1.3c-0.4-0.6-0.7-1.2-1-1.9c-0.1-0.7-0.3-1.4-0.3-2.3c0-0.7,0.1-1.4,0.3-2.2
			c0.3-0.7,0.6-1.3,1-1.9c0.4-0.6,0.9-1,1.6-1.3c0.6-0.3,1.3-0.4,2-0.4s1.4,0.1,2,0.4c0.6,0.3,1,0.6,1.3,1c0.3,0.4,0.6,0.9,0.7,1.4
			c0.1,0.6,0.3,1.2,0.3,1.9v0.7h-7.1c0,0.7,0,1.4,0.1,2s0.3,1.2,0.6,1.6c0.3,0.4,0.7,0.7,1.2,1c0.4,0.3,1,0.4,1.6,0.4
			c0.6,0,1.2-0.1,1.7-0.4c0.4-0.3,0.9-0.9,1.3-1.7l0.7,0.4C125,235.3,124.2,236,123.5,236.6 M115,237h-5.2v-0.7c0.1,0,0.3,0,0.6,0
			c0.1,0,0.3,0,0.4-0.1c0.1,0,0.3-0.1,0.4-0.3c0.1-0.1,0.1-0.4,0.1-0.7v-6.8c0-0.3,0-0.4-0.1-0.7c-0.1-0.1-0.3-0.4-0.4-0.4
			c-0.1-0.1-0.3-0.1-0.6-0.3c-0.3,0-0.4-0.1-0.7-0.1V226l3.8-0.3l0.1,0.1v9c0,0.3,0,0.4,0.1,0.6c0.1,0.1,0.3,0.3,0.4,0.4
			c0.1,0,0.3,0.1,0.4,0.1c0.1,0,0.3,0,0.6,0.1L115,237L115,237z M107.6,236.9c-0.3,0.3-0.6,0.4-1,0.4c-0.4,0-0.7-0.1-1-0.4
			c-0.3-0.3-0.4-0.6-0.4-1c0-0.4,0.1-0.7,0.4-1c0.3-0.3,0.6-0.4,1-0.4c0.4,0,0.7,0.1,1,0.4c0.3,0.3,0.4,0.7,0.4,1
			C108,236.2,107.9,236.6,107.6,236.9 M111.2,220.5c0.3-0.3,0.6-0.4,1-0.4s0.7,0.1,1,0.4c0.3,0.3,0.4,0.6,0.4,1
			c0,0.4-0.1,0.9-0.4,1.2c-0.3,0.3-0.6,0.4-1,0.4s-0.7-0.1-1-0.4c-0.3-0.3-0.4-0.6-0.4-1C110.8,221.2,110.9,220.8,111.2,220.5
			 M124.4,216.3H106c-1.6,0-2.9,1.4-2.9,3.2v18.6c0,1.7,1.3,3.2,2.9,3.2h18.4c1.6,0,2.9-1.4,2.9-3.2v-18.6
			C127.3,217.8,126,216.3,124.4,216.3"/>
	</g>
	<g id="g3132" transform="translate(165.1729,44.1191)">
		<path id="path3134" inkscape:connector-curvature="0" fill="#FFFFFF" d="M39.3,189.3v0.4v7.1h1.6c0.1-0.4,0.4-0.9,0.7-1.6
			c0.3-0.7,0.7-1.2,1.3-1.7c0.4-0.6,1-1,1.6-1.4c0.6-0.4,1.2-0.7,1.6-0.7c0.7,0,1.3-0.1,2-0.1s1.3,0,1.9,0h1.3v27.7
			c0,0.7-0.1,1.2-0.4,1.6c-0.3,0.4-0.6,0.7-1.2,0.9c-0.3,0.1-1,0.3-1.9,0.4c-0.9,0.1-1.6,0.1-2,0.1v1.7h15.8v-1.7
			c-0.4,0-1.2-0.1-2.2-0.3c-0.9-0.1-1.4-0.3-1.7-0.4c-0.6-0.3-0.9-0.6-1.2-1c-0.3-0.4-0.3-0.9-0.3-1.4v-27.5h1.3c0.6,0,1.3,0,2,0
			c0.7,0,1.3,0,1.9,0.1c0.6,0,1,0.3,1.6,0.7c0.6,0.4,1,0.9,1.6,1.4c0.4,0.6,0.9,1.2,1.3,1.7c0.4,0.6,0.6,1.2,0.7,1.6h1.6v-7.1v-0.4
			H39.3z"/>
	</g>
</g>
<g id="Greann">
	<g id="g5">
		<path id="path7" fill="#FFFFFC" d="M100.5,325.7h-3.2l-1.1,2.2h-3l5.6-10.9h3.8l1.9,10.9h-3.5L100.5,325.7z M100.3,323.5l-0.5-3.2
			l-1.6,3.2H100.3z"/>
		<path id="path9" fill="#FFFFFC" d="M114.3,323.4l1.3,4.6h-3.6l-1.1-4.1h-1.4l-0.8,4.1h-3.4l2-10.9h5.2c1.4,0,2.5,0.3,3.2,0.8
			c0.7,0.6,1,1.3,1,2.3C116.8,321.8,116,322.8,114.3,323.4z M110,321.6h1.4c1.3,0,1.9-0.4,1.9-1.2c0-0.7-0.5-1-1.6-1h-1.3L110,321.6
			z"/>
	</g>
	<path id="path11" fill="#FFFFFC" d="M78.5,329.2l-18.9,3.4c-0.5-1.6-1.9-2.8-4-3.7c-2.2-0.9-4.5-1.3-7.1-1.3
		c-4.8,0-7.3,1.1-7.3,3.4c0,0.7,0.3,1.4,1,1.9c0.7,0.5,2.6,1.2,5.8,2l11.7,3c3.1,0.8,5.9,1.9,8.5,3.4c2.6,1.5,4.5,3.1,5.7,4.9
		c1.2,1.8,1.7,3.7,1.7,5.7c0,5.3-2.9,9.6-8.8,13c-5.8,3.4-13.6,5.2-23.4,5.2c-8.3,0-15.6-1.2-21.8-3.6c-6.2-2.4-10.5-6-13-11
		l21.2-2.9c1.8,3.7,6.4,5.5,13.6,5.5c3,0,5.2-0.4,6.5-1.2c1.3-0.8,2-1.7,2-2.7c0-0.6-0.3-1.2-0.8-1.7c-0.5-0.5-1.1-0.8-1.7-1
		c-0.6-0.2-3.4-1-8.4-2.3c-6.7-1.8-11.5-3.2-14.2-4.2c-2.7-1-5-2.6-6.8-4.6c-1.8-2-2.7-4.4-2.7-7.2c0-4.8,2.5-8.8,7.4-12.1
		c4.9-3.3,12.5-4.9,22.7-4.9c7.8,0,14.4,1.2,19.9,3.5C73,322.1,76.7,325.2,78.5,329.2z"/>
	<path id="path13" fill="#FFFFFC" d="M103,370.4c-7.6,0-13.9-1.6-19.1-4.8c-5.2-3.2-7.7-7.6-7.7-13.1c0-6.6,3-12.1,9-16.4
		c6-4.3,13.5-6.4,22.7-6.4c8.3,0,15,1.7,19.9,5c4.9,3.3,7.4,7.5,7.4,12.4c0,7.3-3.2,13-9.5,17.1C119.3,368.4,111.8,370.4,103,370.4z
		 M103.9,361c3.8,0,6.3-2,7.7-6c1.3-4,2-7.3,2-10c0-4.1-2.1-6.1-6.2-6.1c-3.7,0-6.3,2-7.7,6.1c-1.4,4.1-2.1,7.4-2.1,9.9
		C97.5,359,99.7,361,103.9,361z"/>
	<path id="path15" fill="#FFFFFC" d="M141.9,330.7h19l-1.4,6.3c1.5-2.6,3.9-4.4,7.2-5.6c3.3-1.2,6.9-1.8,10.5-1.8
		c4.6,0,8.4,0.9,11.3,2.6c2.9,1.7,4.3,4,4.3,6.8c0,1.1-0.2,2.4-0.5,3.9l-6.2,26.3h-20.7l5.5-23.2c0.4-1.5,0.5-2.5,0.5-2.9
		c0-2.2-1.6-3.2-4.8-3.2c-4.3,0-7,2.1-8,6.2l-5.5,23.2h-20.2L141.9,330.7z"/>
	<g id="g17">
		<path id="path19" fill="#FFFFFC" d="M116,372.1l-2.1,12.5h-2.8l-2.4-4.8c-0.7-1.3-1.1-2.4-1.2-3.1c0,0.2,0,0.3,0,0.4
			c0,0.3,0,0.8-0.1,1.4l-1,6.1h-3.1l2.1-12.5h3.4l1.4,2.9c1,2,1.6,3.5,1.9,4.5c0-0.3,0-0.4,0-0.6c0-0.4,0.1-1,0.2-2l0.8-4.8
			L116,372.1L116,372.1z"/>
		<path id="path21" fill="#FFFFFC" d="M122.6,382.1h-3.4l-1.2,2.6H115l5.8-12.5h3.9l1.9,12.5H123L122.6,382.1z M122.4,379.5
			l-0.5-3.6l-1.7,3.6H122.4z"/>
		<path id="path23" fill="#FFFFFC" d="M140.3,379.8l3.4,0.4c-0.4,1.4-1.1,2.5-2,3.4c-1,0.9-2.2,1.3-3.6,1.3c-1.6,0-2.8-0.5-3.8-1.6
			c-0.9-1.1-1.4-2.4-1.4-4.1c0-1.9,0.6-3.6,1.7-5.1c1.1-1.5,2.7-2.2,4.7-2.2c1.5,0,2.6,0.4,3.5,1.3c0.9,0.9,1.4,2.1,1.4,3.5
			l-3.5,0.3c0-0.8-0.1-1.3-0.4-1.7c-0.2-0.4-0.6-0.6-1.1-0.6c-0.9,0-1.6,0.7-1.9,2.1c-0.3,1.4-0.5,2.5-0.5,3.3
			c0,1.3,0.5,1.9,1.5,1.9c0.5,0,0.9-0.2,1.2-0.5C139.9,381.1,140.1,380.5,140.3,379.8z"/>
		<path id="path25" fill="#FFFFFC" d="M156.6,372.1l-1.3,7.7c-0.2,1.3-0.5,2.3-0.9,2.9c-0.4,0.6-1,1.1-1.8,1.5
			c-0.8,0.4-1.8,0.6-3,0.6c-1.5,0-2.6-0.3-3.5-1c-0.8-0.6-1.2-1.5-1.2-2.7c0-0.4,0-0.9,0.1-1.4l1.3-7.7h3.8l-1.3,7.7
			c-0.1,0.4-0.1,0.7-0.1,0.9c0,0.4,0.2,0.7,0.5,0.9c0.3,0.2,0.7,0.3,1.1,0.3c0.5,0,1-0.1,1.2-0.4s0.5-0.8,0.6-1.6l1.3-7.8
			L156.6,372.1L156.6,372.1z M150.5,370.9l4.1-1.2l0.6,1.7l-4.3,0.7L150.5,370.9z"/>
		<path id="path27" fill="#FFFFFC" d="M162.2,372.1l-2.1,12.5h-3.6l2.1-12.5H162.2z"/>
		<path id="path29" fill="#FFFFFC" d="M173.7,375l-3.2,0.8c-0.1-0.4-0.3-0.7-0.7-0.9c-0.4-0.2-0.8-0.3-1.2-0.3
			c-0.8,0-1.2,0.3-1.2,0.8c0,0.2,0.1,0.3,0.2,0.5c0.1,0.1,0.4,0.3,1,0.5l2,0.7c0.5,0.2,1,0.5,1.5,0.8c0.4,0.4,0.8,0.7,1,1.2
			c0.2,0.4,0.3,0.9,0.3,1.4c0,1.3-0.5,2.3-1.5,3.1c-1,0.8-2.3,1.2-4,1.2c-1.4,0-2.7-0.3-3.7-0.9c-1.1-0.6-1.8-1.5-2.2-2.6l3.6-0.7
			c0.3,0.9,1.1,1.3,2.3,1.3c0.5,0,0.9-0.1,1.1-0.3c0.2-0.2,0.3-0.4,0.3-0.6c0-0.2,0-0.3-0.1-0.4c-0.1-0.1-0.2-0.2-0.3-0.3
			c-0.1-0.1-0.6-0.2-1.4-0.5c-1.2-0.4-2-0.8-2.4-1c-0.5-0.2-0.8-0.6-1.2-1.1c-0.3-0.5-0.5-1.1-0.5-1.7c0-1.1,0.4-2.1,1.3-2.9
			c0.8-0.8,2.1-1.2,3.9-1.2c1.3,0,2.5,0.3,3.4,0.8C172.7,373.3,173.4,374,173.7,375z"/>
		<path id="path31" fill="#FFFFFC" d="M183.6,381.7l-0.5,2.9h-9.2l2.1-12.5h9l-0.5,2.7h-5.4l-0.3,2h4.5l-0.5,2.7h-4.5l-0.4,2.2
			H183.6L183.6,381.7z"/>
	</g>
</g>
<g id="Foras_Dark">
	<g>
		<path fill="#010101" d="M245.9,353.2c0,0.8,0,1.4,0.2,1.6c0.1,0.2,0.4,0.3,0.9,0.3l1,0.1v0.6c-1.1,0-2.1-0.1-3.1-0.1
			c-1,0-2,0-3.1,0.1v-0.6l1-0.1c0.5,0,0.8-0.1,0.9-0.3c0.1-0.2,0.2-0.8,0.2-1.6v-9.4c0-0.8,0-1.4-0.2-1.6c-0.1-0.2-0.4-0.3-0.9-0.3
			l-1-0.1v-0.6c0.6,0,1.2,0,1.8,0s1.2,0,1.8,0c1.4,0,3.3-0.1,4.6-0.1c0.9,0,1.9,0,2.7,0.1c-0.2,0.9-0.3,2.1-0.3,3.2h-0.7v-1.4
			c0-0.3,0-0.5-0.2-0.6c-1.1-0.4-2.8-0.5-3.7-0.5c-0.6,0-1.2,0-1.8,0.2v5.6c0.7,0,1.4,0.1,2.4,0.1c1.3,0,2-0.1,2.2-0.2
			c0.1-0.1,0.1-0.3,0.2-0.6l0.1-1.1h0.6c0,0.9-0.1,1.7-0.1,2.4c0,0.8,0,1.6,0.1,2.3h-0.6l-0.1-1.3c0-0.3-0.1-0.5-0.2-0.5
			c-0.2-0.2-0.9-0.2-2.2-0.2c-1,0-1.8,0-2.4,0.1C245.9,348.9,245.9,353.2,245.9,353.2z"/>
		<path fill="#010101" d="M258.3,356.2c-2.6,0-4.5-2.1-4.5-4.9c0-3.2,2-5.4,5.4-5.4c2.7,0,4.8,2.1,4.8,4.8c0,3.2-2.3,5.5-5.5,5.5
			H258.3z M255.7,350.3c0,2.2,0.8,5.2,3.5,5.2c1.9,0,2.8-1.9,2.8-3.9c0-2.7-1.3-5.1-3.3-5.1C256.4,346.5,255.7,348.4,255.7,350.3z"
			/>
		<path fill="#010101" d="M266.8,348.8c0-0.7,0-1.2-0.1-1.3c-0.1-0.2-0.3-0.2-0.8-0.2h-0.8v-0.6c1.3-0.1,2.5-0.5,3.3-0.9l0.2,0.1
			v2.2h0l1.2-1.4c0.5-0.6,1.2-0.9,1.8-0.9c0.3,0,0.8,0.1,1,0.2l-0.2,2.5h-0.5c-0.2-0.5-0.7-1-1.4-1c-0.9,0-1.8,1-1.8,2.3v3.6
			c0,0.6,0,1,0.1,1.2c0.1,0.2,0.4,0.3,0.9,0.3l1.1,0.1v0.6c-1.1,0-2-0.1-3-0.1c-1,0-1.9,0-2.6,0.1v-0.6l1-0.1c0.3,0,0.6-0.1,0.7-0.3
			c0.1-0.2,0.1-0.7,0.1-1.2L266.8,348.8L266.8,348.8z"/>
		<path fill="#010101" d="M279.8,349.7L279.8,349.7c0-1.7-0.8-2.7-2.6-2.7c-0.9,0-1.2,0.1-1.5,0.5c-0.1,0.2-0.2,0.4-0.3,0.7
			l-0.3,0.7l-0.6-0.1v-1.4l1.1-0.7c0.9-0.6,1.8-0.7,2.4-0.7c2.6,0,3.5,1.2,3.5,4.2v3.9c0,0.3,0,0.7,0.1,0.9c0,0.2,0.2,0.3,0.5,0.3
			l0.8,0v0.6c-0.5,0-1-0.1-1.6-0.1c-0.6,0-1.1,0-1.6,0.1l0.1-1.8l-2.6,1.8c-0.2,0.1-0.6,0.2-1,0.2c-1.4,0-2.6-0.8-2.6-2.5
			c0-2.4,2.1-3,4.1-3.4L279.8,349.7z M279.8,350.3c-1,0.1-2,0.3-3.1,0.7c-0.7,0.3-1.3,1.2-1.3,2c0,1.1,0.8,1.7,1.6,1.7
			c0.7,0,1.3-0.5,2-1c0.3-0.2,0.6-0.6,0.7-0.7V350.3L279.8,350.3z"/>
		<path fill="#010101" d="M285,352.7v0.9c0,1.3,1.5,1.8,2.7,1.8c1.3,0,2.5-0.8,2.5-1.9c0-0.7-0.3-1.2-1-1.4
			c-0.9-0.2-2.1-0.5-3.1-0.8c-1-0.4-1.8-1-1.8-2.3c0-2.3,2-3.1,4-3.1c1,0,1.9,0.2,2.7,0.5c-0.1,0.8-0.1,1.5-0.1,2.4h-0.6v-0.5
			c0-1.1-1.2-1.7-2.4-1.7c-1.8,0-2.1,1-2.1,1.7c0,0.9,0.7,1.4,2.3,1.7c2.5,0.4,3.7,1,3.7,2.7c0,2.3-2.3,3.6-4.7,3.6
			c-1,0-1.9-0.1-3-0.5c0.2-0.9,0.2-2,0.2-2.9L285,352.7L285,352.7z"/>
		<path fill="#010101" d="M301.3,353.6c0,0.6,0,1,0.1,1.2c0.1,0.2,0.3,0.3,0.7,0.3l0.9,0.1v0.6c-0.7,0-1.6-0.1-2.6-0.1
			s-1.9,0-2.6,0.1v-0.6l0.9-0.1c0.3,0,0.6-0.1,0.7-0.3c0.1-0.2,0.1-0.7,0.1-1.2v-4.7c0-0.7,0-1.2-0.1-1.3c-0.1-0.2-0.3-0.2-0.8-0.2
			h-0.8v-0.6c1.3-0.1,2.5-0.5,3.3-0.9l0.2,0.1v1.8h0l1.6-1.4c0.5-0.4,0.9-0.5,1.7-0.5c2.5,0,3.5,1.4,3.5,3.7v4.1c0,0.6,0,1,0.1,1.2
			c0.1,0.2,0.3,0.3,0.7,0.3l0.9,0.1v0.6c-0.5,0-1.2-0.1-1.7-0.1s-1.2,0-1.7,0.1v-6c0-1.7-1-2.7-2.4-2.7c-1.3,0-2.6,1.1-2.6,2
			L301.3,353.6L301.3,353.6z"/>
		<path fill="#010101" d="M316.8,349.7L316.8,349.7c0-1.7-0.8-2.7-2.6-2.7c-0.9,0-1.2,0.1-1.5,0.5c-0.1,0.2-0.2,0.4-0.3,0.7
			l-0.3,0.7l-0.6-0.1v-1.4l1.1-0.7c0.9-0.6,1.8-0.7,2.4-0.7c2.6,0,3.5,1.2,3.5,4.2v3.9c0,0.3,0,0.7,0.1,0.9c0,0.2,0.2,0.3,0.5,0.3
			l0.8,0v0.6c-0.5,0-1-0.1-1.6-0.1c-0.6,0-1.1,0-1.6,0.1l0.1-1.8l-2.6,1.8c-0.2,0.1-0.6,0.2-1,0.2c-1.4,0-2.6-0.8-2.6-2.5
			c0-2.4,2.1-3,4.1-3.4L316.8,349.7z M316.8,350.3c-1,0.1-2,0.3-3.1,0.7c-0.7,0.3-1.3,1.2-1.3,2c0,1.1,0.8,1.7,1.6,1.7
			c0.7,0,1.3-0.5,2-1c0.3-0.2,0.6-0.6,0.7-0.7V350.3z"/>
		<path fill="#010101" d="M338.3,351.6c0-0.5-0.2-0.7-0.7-0.7l-1.7-0.1v-0.6c0.9,0,1.7,0,2.6,0c0.9,0,1.7,0,2.6,0l0.1,0.5l-0.6,0.2
			c-0.2,0.1-0.2,0.2-0.2,0.8v3.6c-1.8,0.5-4.1,1.1-5.5,1.1c-4.7,0-8.5-2.4-8.5-7.7c0-4.6,3.8-7.6,8.9-7.6c2.6,0,4.3,0.6,5.2,0.9
			c-0.2,1-0.4,2.1-0.4,3.2h-0.7v-1.1c0-1-0.8-1.3-1.7-1.7c-0.7-0.2-1.6-0.4-3-0.4c-4,0-6.1,2.6-6.1,6.4c0,4.2,2.4,7.2,6.8,7.2
			c1.6,0,2.8-0.3,3-0.7c0.1-0.2,0.1-0.3,0.1-0.9L338.3,351.6L338.3,351.6z"/>
		<path fill="#010101" d="M348.7,349.7L348.7,349.7c0-1.7-0.8-2.7-2.6-2.7c-0.9,0-1.2,0.1-1.5,0.5c-0.1,0.2-0.2,0.4-0.3,0.7
			l-0.3,0.7l-0.6-0.1v-1.4l1.1-0.7c0.9-0.6,1.8-0.7,2.4-0.7c2.6,0,3.5,1.2,3.5,4.2v3.9c0,0.3,0,0.7,0.1,0.9c0,0.2,0.2,0.3,0.5,0.3
			l0.8,0v0.6c-0.5,0-1-0.1-1.6-0.1c-0.6,0-1.1,0-1.6,0.1l0.1-1.8l-2.6,1.8c-0.2,0.1-0.6,0.2-1,0.2c-1.4,0-2.6-0.8-2.6-2.5
			c0-2.4,2.1-3,4.1-3.4L348.7,349.7z M348.7,350.3c-1,0.1-2,0.3-3.1,0.7c-0.7,0.3-1.3,1.2-1.3,2c0,1.1,0.8,1.7,1.6,1.7
			c0.7,0,1.3-0.5,2-1c0.3-0.2,0.6-0.6,0.7-0.7V350.3z"/>
		<path fill="#010101" d="M361.9,349.7c0,0.3,0,0.6,0,0.9c-1.3,0.2-2.5,0.3-3.8,0.3h-3.1c0,2.5,1.2,4.1,3.8,4.1c1,0,1.8-0.5,2.6-1
			l0.3,0.2l-0.4,0.7c-0.1,0.2-2,1.2-3.4,1.2c-3.2,0-4.9-2-4.9-4.9c0-2.1,0.6-3.3,1.5-4c0.4-0.3,0.8-0.6,1.3-0.8
			c0.7-0.3,1.4-0.6,2.1-0.6C360.2,345.8,361.9,347.3,361.9,349.7z M355,349.8v0.3c0.9,0.1,1.8,0.1,2.7,0.1c0.8,0,1.6,0,2.3-0.1
			c0-2-0.7-3.6-2.2-3.6C356.2,346.5,355,347.7,355,349.8z"/>
		<path fill="#010101" d="M366.5,353.6c0,0.6,0,1,0.1,1.2c0.1,0.2,0.3,0.3,0.7,0.3l1,0.1v0.6c-0.8,0-1.6-0.1-2.6-0.1s-1.9,0-2.6,0.1
			v-0.6l1-0.1c0.3,0,0.6-0.1,0.7-0.3c0.1-0.2,0.1-0.7,0.1-1.2v-4.7c0-0.7,0-1.2-0.1-1.3c-0.1-0.2-0.3-0.2-0.8-0.2H363v-0.6
			c1.3-0.1,2.5-0.5,3.3-0.9l0.2,0.1V353.6L366.5,353.6z M366.7,342.4c0,0.6-0.6,1.2-1.2,1.2s-1.1-0.6-1.1-1.2c0-0.6,0.6-1.2,1.1-1.2
			C366.1,341.2,366.7,341.8,366.7,342.4z"/>
		<path fill="#010101" d="M370.9,342.7c0-0.5-0.1-0.9-0.5-0.9h-1.2v-0.6c1.1-0.2,2.2-0.3,3.3-0.8l0.2,0.2v13c0,0.6,0,1,0.1,1.2
			c0.1,0.2,0.3,0.3,0.7,0.3l1,0.1v0.6c-0.8,0-1.6-0.1-2.6-0.1s-1.9,0-2.6,0.1v-0.6l1-0.1c0.3,0,0.6-0.1,0.7-0.3
			c0.1-0.2,0.1-0.7,0.1-1.2L370.9,342.7L370.9,342.7z"/>
		<path fill="#010101" d="M383.8,347.8c0.2,0.4,0.2,0.8,0.2,1.2c0,1.2-0.6,2.1-1.4,2.6c-0.9,0.7-2,1-3,1c-0.1,0-0.3,0-0.5,0
			c-0.3,0.3-1,0.7-1,1.2c0,0.8,1,0.8,1.6,0.8h3.4c1.9,0,2.5,1.6,2.5,2.6c0,2.2-2.2,4.5-5.7,4.5c-2.5,0-4.5-1.3-4.5-3.2
			c0-0.6,0.1-1.3,0.6-1.7l1.8-1c-0.9-0.2-1.4-0.6-1.4-1.3c0-0.3,0.1-0.6,0.3-0.9l1.6-1.3v0c-0.7,0-2.5-0.6-2.5-2.8
			c0-1.4,0.7-2.3,1.6-2.9c1-0.6,2.3-0.9,3.1-0.9c0.9,0,1.9,0.3,2.6,0.9l3-0.1l0.1,0.2l-0.5,0.9C385.7,347.8,383.8,347.8,383.8,347.8
			z M384.1,357.9c0-1.3-0.6-1.9-3-1.9c-0.6,0-1.3,0-2.2,0.1c-0.6,0.1-1.8,0.9-1.8,2.2c0,1.8,1.4,2.7,3.1,2.7
			C382.5,361.1,384.1,359.6,384.1,357.9z M379.9,346.6c-1.4,0-2.1,1.1-2.1,2.5c0,1.8,1,2.8,2.4,2.8c1.2,0,2.1-0.9,2.1-2.2
			C382.3,348.1,381.6,346.6,379.9,346.6z"/>
		<path fill="#010101" d="M396,349.7c0,0.3,0,0.6,0,0.9c-1.3,0.2-2.5,0.3-3.8,0.3h-3.1c0,2.5,1.2,4.1,3.8,4.1c1,0,1.8-0.5,2.6-1
			l0.3,0.2l-0.4,0.7c-0.1,0.2-2,1.2-3.4,1.2c-3.2,0-4.9-2-4.9-4.9c0-2.1,0.6-3.3,1.5-4c0.4-0.3,0.8-0.6,1.3-0.8
			c0.7-0.3,1.4-0.6,2.1-0.6C394.3,345.8,396,347.3,396,349.7z M389.1,349.8v0.3c0.9,0.1,1.8,0.1,2.7,0.1c0.8,0,1.6,0,2.3-0.1
			c0-2-0.7-3.6-2.2-3.6C390.3,346.5,389.1,347.7,389.1,349.8z"/>
	</g>
	<path fill="#010101" d="M231.6,355.6c-0.8-5.5-8.4-6.8-11.3-6.8c-2.1,0-6.9,1-6.7,4.3s4.5,4.7,7.5,4.7c3,0,4.6-1.4,4.3-2.5
		c-0.2-1-0.5-1.4-1.6-2.1c-1.8-1.2-0.6-3,1.7-2c2.3,0.9,4.8,4.2,2.8,6.6c-2.1,2.4-5.7,3.1-10.6,2.3c-4.8-0.8-8-4.3-8-7.4
		s4.5-6.5,10.1-6.3c6,0.2,15.4,2.3,15.3,10.6c1-2.1,1.5-4.4,1.5-6.8c0-4.6-2-8.8-5.1-11.8h-22.4c-3.1,3-5.1,7.2-5.1,11.8
		c0,4.5,1.9,8.6,4.9,11.6h13C226,361.4,232.3,360.2,231.6,355.6z M223.1,354.2c-0.1,1.3-1.9,2.1-3.8,1.9c-2-0.2-3.5-1.4-3.3-2.7
		c0.1-1.3,1.9-2.1,3.9-1.9C221.7,351.8,223.2,353,223.1,354.2z"/>
</g>
<g id="Foras_Light">
	<g>
		<path fill="#FFFFFF" d="M46.1,454.2c0,0.8,0,1.4,0.2,1.6c0.1,0.2,0.4,0.3,0.9,0.3l1,0.1v0.6c-1.1,0-2.1-0.1-3.1-0.1
			c-1,0-2,0-3.1,0.1v-0.6l1-0.1c0.5,0,0.8-0.1,0.9-0.3c0.1-0.2,0.2-0.8,0.2-1.6v-9.4c0-0.8,0-1.4-0.2-1.6c-0.1-0.2-0.4-0.3-0.9-0.3
			l-1-0.1v-0.6c0.6,0,1.2,0,1.8,0c0.6,0,1.2,0,1.8,0c1.4,0,3.3-0.1,4.6-0.1c0.9,0,1.9,0,2.7,0.1c-0.2,0.9-0.3,2.1-0.3,3.2h-0.7v-1.4
			c0-0.3,0-0.5-0.2-0.6c-1.1-0.4-2.8-0.5-3.7-0.5c-0.6,0-1.2,0-1.8,0.2v5.6c0.7,0,1.4,0.1,2.4,0.1c1.3,0,2-0.1,2.2-0.2
			c0.1-0.1,0.1-0.3,0.2-0.6l0.1-1.1h0.6c0,0.9-0.1,1.7-0.1,2.4c0,0.8,0,1.6,0.1,2.3H51l-0.1-1.3c0-0.3-0.1-0.5-0.2-0.5
			c-0.2-0.2-0.9-0.2-2.2-0.2c-1,0-1.8,0-2.4,0.1C46.1,449.9,46.1,454.2,46.1,454.2z"/>
		<path fill="#FFFFFF" d="M58.4,457.2c-2.6,0-4.5-2.1-4.5-4.9c0-3.2,2-5.4,5.4-5.4c2.7,0,4.8,2.1,4.8,4.8c0,3.2-2.3,5.5-5.5,5.5
			H58.4z M55.9,451.3c0,2.2,0.8,5.2,3.5,5.2c1.9,0,2.8-1.9,2.8-3.9c0-2.7-1.3-5.1-3.3-5.1C56.6,447.5,55.9,449.4,55.9,451.3z"/>
		<path fill="#FFFFFF" d="M67,449.8c0-0.7,0-1.2-0.1-1.3c-0.1-0.2-0.3-0.2-0.8-0.2h-0.8v-0.6c1.3-0.1,2.5-0.5,3.3-0.9l0.2,0.1v2.2h0
			l1.2-1.4c0.5-0.6,1.2-0.9,1.8-0.9c0.3,0,0.8,0.1,1,0.2l-0.2,2.5h-0.5c-0.2-0.5-0.7-1-1.4-1c-0.9,0-1.8,1-1.8,2.3v3.6
			c0,0.6,0,1,0.1,1.2c0.1,0.2,0.4,0.3,0.9,0.3l1.1,0.1v0.6c-1.1,0-2-0.1-3-0.1c-1,0-1.9,0-2.6,0.1v-0.6l1-0.1c0.3,0,0.6-0.1,0.7-0.3
			c0.1-0.2,0.1-0.7,0.1-1.2L67,449.8L67,449.8z"/>
		<path fill="#FFFFFF" d="M79.9,450.7L79.9,450.7c0-1.7-0.8-2.7-2.6-2.7c-0.9,0-1.2,0.1-1.5,0.5c-0.1,0.2-0.2,0.4-0.3,0.7l-0.3,0.7
			l-0.6-0.1v-1.4l1.1-0.7c0.9-0.6,1.8-0.7,2.4-0.7c2.6,0,3.5,1.2,3.5,4.2v3.9c0,0.3,0,0.7,0.1,0.9c0,0.2,0.2,0.3,0.5,0.3l0.8,0v0.6
			c-0.5,0-1-0.1-1.6-0.1c-0.6,0-1.1,0-1.6,0.1l0.1-1.8l-2.6,1.8c-0.2,0.1-0.6,0.2-1,0.2c-1.4,0-2.6-0.8-2.6-2.5c0-2.4,2.1-3,4.1-3.4
			L79.9,450.7z M79.9,451.3c-1,0.1-2,0.3-3.1,0.7c-0.7,0.3-1.3,1.2-1.3,2c0,1.1,0.8,1.7,1.6,1.7c0.7,0,1.3-0.5,2-1
			c0.3-0.2,0.6-0.6,0.7-0.7V451.3L79.9,451.3z"/>
		<path fill="#FFFFFF" d="M85.2,453.7v0.9c0,1.3,1.5,1.8,2.7,1.8c1.3,0,2.5-0.8,2.5-1.9c0-0.7-0.3-1.2-1-1.4
			c-0.9-0.2-2.1-0.5-3.1-0.8c-1-0.4-1.8-1-1.8-2.3c0-2.3,2-3.1,4-3.1c1,0,1.9,0.2,2.7,0.5c-0.1,0.8-0.1,1.5-0.1,2.4h-0.6v-0.5
			c0-1.1-1.2-1.7-2.4-1.7c-1.8,0-2.1,1-2.1,1.7c0,0.9,0.7,1.4,2.3,1.7c2.5,0.4,3.7,1,3.7,2.7c0,2.3-2.3,3.6-4.7,3.6
			c-1,0-1.9-0.1-3-0.5c0.2-0.9,0.2-2,0.2-2.9L85.2,453.7L85.2,453.7z"/>
		<path fill="#FFFFFF" d="M101.5,454.6c0,0.6,0,1,0.1,1.2c0.1,0.2,0.3,0.3,0.7,0.3l0.9,0.1v0.6c-0.7,0-1.6-0.1-2.6-0.1
			s-1.9,0-2.6,0.1v-0.6l0.9-0.1c0.3,0,0.6-0.1,0.7-0.3c0.1-0.2,0.1-0.7,0.1-1.2v-4.7c0-0.7,0-1.2-0.1-1.3c-0.1-0.2-0.3-0.2-0.8-0.2
			H98v-0.6c1.3-0.1,2.5-0.5,3.3-0.9l0.2,0.1v1.8h0l1.6-1.4c0.5-0.4,0.9-0.5,1.7-0.5c2.5,0,3.5,1.4,3.5,3.7v4.1c0,0.6,0,1,0.1,1.2
			c0.1,0.2,0.3,0.3,0.7,0.3l0.9,0.1v0.6c-0.5,0-1.2-0.1-1.7-0.1c-0.6,0-1.2,0-1.7,0.1v-6c0-1.7-1-2.7-2.4-2.7c-1.3,0-2.6,1.1-2.6,2
			L101.5,454.6L101.5,454.6z"/>
		<path fill="#FFFFFF" d="M117,450.7L117,450.7c0-1.7-0.8-2.7-2.6-2.7c-0.9,0-1.2,0.1-1.5,0.5c-0.1,0.2-0.2,0.4-0.3,0.7l-0.3,0.7
			l-0.6-0.1v-1.4l1.1-0.7c0.9-0.6,1.8-0.7,2.4-0.7c2.6,0,3.5,1.2,3.5,4.2v3.9c0,0.3,0,0.7,0.1,0.9c0,0.2,0.2,0.3,0.5,0.3l0.8,0v0.6
			c-0.5,0-1-0.1-1.6-0.1c-0.6,0-1.1,0-1.6,0.1l0.1-1.8l-2.6,1.8c-0.2,0.1-0.6,0.2-1,0.2c-1.4,0-2.6-0.8-2.6-2.5c0-2.4,2.1-3,4.1-3.4
			L117,450.7z M117,451.3c-1,0.1-2,0.3-3.1,0.7c-0.7,0.3-1.3,1.2-1.3,2c0,1.1,0.8,1.7,1.6,1.7c0.7,0,1.3-0.5,2-1
			c0.3-0.2,0.6-0.6,0.7-0.7V451.3z"/>
		<path fill="#FFFFFF" d="M138.5,452.6c0-0.5-0.2-0.7-0.7-0.7l-1.7-0.1v-0.6c0.9,0,1.7,0,2.6,0c0.9,0,1.7,0,2.6,0l0.1,0.5l-0.6,0.2
			c-0.2,0.1-0.2,0.2-0.2,0.8v3.6c-1.8,0.5-4.1,1.1-5.5,1.1c-4.7,0-8.5-2.4-8.5-7.7c0-4.6,3.8-7.6,8.9-7.6c2.6,0,4.3,0.6,5.2,0.9
			c-0.2,1-0.4,2.1-0.4,3.2h-0.7v-1.1c0-1-0.8-1.3-1.7-1.7c-0.7-0.2-1.6-0.4-3-0.4c-4,0-6.1,2.6-6.1,6.4c0,4.2,2.4,7.2,6.8,7.2
			c1.6,0,2.8-0.3,3-0.7c0.1-0.2,0.1-0.3,0.1-0.9L138.5,452.6L138.5,452.6z"/>
		<path fill="#FFFFFF" d="M148.9,450.7L148.9,450.7c0-1.7-0.8-2.7-2.6-2.7c-0.9,0-1.2,0.1-1.5,0.5c-0.1,0.2-0.2,0.4-0.3,0.7
			l-0.3,0.7l-0.6-0.1v-1.4l1.1-0.7c0.9-0.6,1.8-0.7,2.4-0.7c2.6,0,3.5,1.2,3.5,4.2v3.9c0,0.3,0,0.7,0.1,0.9c0,0.2,0.2,0.3,0.5,0.3
			l0.8,0v0.6c-0.5,0-1-0.1-1.6-0.1c-0.6,0-1.1,0-1.6,0.1l0.1-1.8l-2.6,1.8c-0.2,0.1-0.6,0.2-1,0.2c-1.4,0-2.6-0.8-2.6-2.5
			c0-2.4,2.1-3,4.1-3.4L148.9,450.7z M148.9,451.3c-1,0.1-2,0.3-3.1,0.7c-0.7,0.3-1.3,1.2-1.3,2c0,1.1,0.8,1.7,1.6,1.7
			c0.7,0,1.3-0.5,2-1c0.3-0.2,0.6-0.6,0.7-0.7V451.3z"/>
		<path fill="#FFFFFF" d="M162,450.7c0,0.3,0,0.6,0,0.9c-1.3,0.2-2.5,0.3-3.8,0.3h-3.1c0,2.5,1.2,4.1,3.8,4.1c1,0,1.8-0.5,2.6-1
			l0.3,0.2l-0.4,0.7c-0.1,0.2-2,1.2-3.4,1.2c-3.2,0-4.9-2-4.9-4.9c0-2.1,0.6-3.3,1.5-4c0.4-0.3,0.8-0.6,1.3-0.8
			c0.7-0.3,1.4-0.6,2.1-0.6C160.3,446.8,162,448.3,162,450.7z M155.1,450.8v0.3c0.9,0.1,1.8,0.1,2.7,0.1c0.8,0,1.6,0,2.3-0.1
			c0-2-0.7-3.6-2.2-3.6C156.4,447.5,155.1,448.7,155.1,450.8z"/>
		<path fill="#FFFFFF" d="M166.7,454.6c0,0.6,0,1,0.1,1.2c0.1,0.2,0.3,0.3,0.7,0.3l1,0.1v0.6c-0.8,0-1.6-0.1-2.6-0.1
			c-1,0-1.9,0-2.6,0.1v-0.6l1-0.1c0.3,0,0.6-0.1,0.7-0.3c0.1-0.2,0.1-0.7,0.1-1.2v-4.7c0-0.7,0-1.2-0.1-1.3
			c-0.1-0.2-0.3-0.2-0.8-0.2h-0.8v-0.6c1.3-0.1,2.5-0.5,3.3-0.9l0.2,0.1L166.7,454.6L166.7,454.6z M166.9,443.4
			c0,0.6-0.6,1.2-1.2,1.2c-0.6,0-1.2-0.6-1.2-1.2c0-0.6,0.6-1.2,1.2-1.2C166.3,442.2,166.9,442.8,166.9,443.4z"/>
		<path fill="#FFFFFF" d="M171,443.7c0-0.5-0.1-0.9-0.5-0.9h-1.2v-0.6c1.1-0.2,2.2-0.3,3.3-0.8l0.2,0.2v13c0,0.6,0,1,0.1,1.2
			c0.1,0.2,0.3,0.3,0.7,0.3l1,0.1v0.6c-0.8,0-1.6-0.1-2.6-0.1s-1.9,0-2.6,0.1v-0.6l1-0.1c0.3,0,0.6-0.1,0.7-0.3
			c0.1-0.2,0.1-0.7,0.1-1.2L171,443.7L171,443.7z"/>
		<path fill="#FFFFFF" d="M184,448.8c0.2,0.4,0.2,0.8,0.2,1.2c0,1.2-0.6,2.1-1.4,2.6c-0.9,0.7-2,1-3,1c-0.1,0-0.3,0-0.5,0
			c-0.3,0.3-1,0.7-1,1.2c0,0.8,1,0.8,1.6,0.8h3.4c1.9,0,2.5,1.6,2.5,2.6c0,2.2-2.2,4.5-5.7,4.5c-2.5,0-4.5-1.3-4.5-3.2
			c0-0.6,0.1-1.3,0.6-1.7l1.8-1c-0.9-0.2-1.4-0.6-1.4-1.3c0-0.3,0.1-0.6,0.3-0.9l1.6-1.3v0c-0.7,0-2.5-0.6-2.5-2.8
			c0-1.4,0.7-2.3,1.6-2.9c1-0.6,2.3-0.9,3.1-0.9c0.9,0,1.9,0.3,2.6,0.9l3-0.1l0.1,0.2l-0.5,0.9C185.9,448.8,184,448.8,184,448.8z
			 M184.2,458.9c0-1.3-0.6-1.9-3-1.9c-0.6,0-1.3,0-2.2,0.1c-0.6,0.1-1.8,0.9-1.8,2.2c0,1.8,1.4,2.7,3.1,2.7
			C182.6,462.1,184.2,460.6,184.2,458.9z M180,447.6c-1.4,0-2.1,1.1-2.1,2.5c0,1.8,1,2.8,2.4,2.8c1.2,0,2.1-0.9,2.1-2.2
			C182.4,449.1,181.8,447.6,180,447.6z"/>
		<path fill="#FFFFFF" d="M196.2,450.7c0,0.3,0,0.6,0,0.9c-1.3,0.2-2.5,0.3-3.8,0.3h-3.1c0,2.5,1.2,4.1,3.8,4.1c1,0,1.8-0.5,2.6-1
			l0.3,0.2l-0.4,0.7c-0.1,0.2-2,1.2-3.4,1.2c-3.2,0-4.9-2-4.9-4.9c0-2.1,0.6-3.3,1.5-4c0.4-0.3,0.8-0.6,1.3-0.8
			c0.7-0.3,1.4-0.6,2.1-0.6C194.5,446.8,196.2,448.3,196.2,450.7z M189.3,450.8v0.3c0.9,0.1,1.8,0.1,2.7,0.1c0.8,0,1.6,0,2.3-0.1
			c0-2-0.7-3.6-2.2-3.6C190.5,447.5,189.3,448.7,189.3,450.8z"/>
	</g>
	<path fill="#FFFFFF" d="M31.8,456.6c-0.8-5.5-8.4-6.8-11.3-6.8c-2.1,0-6.9,1-6.7,4.3c0.2,3.3,4.5,4.7,7.5,4.7c3,0,4.6-1.4,4.3-2.5
		c-0.2-1-0.5-1.4-1.6-2.1c-1.8-1.2-0.6-3,1.7-2c2.3,0.9,4.8,4.2,2.8,6.6c-2.1,2.4-5.7,3.1-10.6,2.3c-4.8-0.8-8-4.3-8-7.4
		s4.5-6.5,10.1-6.3c6,0.2,15.4,2.3,15.3,10.6c1-2.1,1.5-4.4,1.5-6.8c0-4.6-2-8.8-5.1-11.8H9.4c-3.1,3-5.1,7.2-5.1,11.8
		c0,4.5,1.9,8.6,4.9,11.6h13C26.2,462.4,32.5,461.2,31.8,456.6z M23.2,455.2c-0.1,1.3-1.9,2.1-3.8,1.9c-2-0.2-3.5-1.4-3.3-2.7
		c0.1-1.3,1.9-2.1,3.9-1.9C21.9,452.8,23.4,454,23.2,455.2z"/>
</g>
</svg>
