<?xml version="1.0" encoding="utf-8"?>
<!-- Generator: Adobe Illustrator 19.1.0, SVG Export Plug-In . SVG Version: 6.00 Build 0)  -->
<svg version="1.1" id="Layer_1" xmlns="http://www.w3.org/2000/svg" xmlns:xlink="http://www.w3.org/1999/xlink" x="0px" y="0px"
	 width="191px" height="37.6px" viewBox="0 0 191 37.6" style="enable-background:new 0 0 191 37.6;" xml:space="preserve">
<style type="text/css">
	.st0{fill:#FFFFFF;}
</style>
<g id="Tuairisc_Dark">
	<path class="st0" d="M85.8,3.1c0,0.9-0.3,1.7-0.9,2.4s-1.3,1-2.2,1c-0.8,0-1.5-0.3-2.1-1c-0.6-0.6-0.9-1.4-0.9-2.2
		c0-0.9,0.3-1.6,0.9-2.3c0.6-0.6,1.3-1,2.1-1c0.9,0,1.6,0.3,2.2,0.9C85.5,1.5,85.8,2.3,85.8,3.1z"/>
	<path class="st0" d="M118.3,3.1c0,0.9-0.3,1.7-0.9,2.4s-1.3,1-2.2,1c-0.8,0-1.5-0.3-2.1-1c-0.6-0.6-0.9-1.4-0.9-2.2
		c0-0.9,0.3-1.6,0.9-2.3c0.6-0.6,1.3-1,2.1-1c0.9,0,1.6,0.3,2.2,0.9C118,1.5,118.3,2.3,118.3,3.1z"/>
	<path class="st0" d="M53.4,35.4l-7.6,0.5l-0.4-0.3v-3h-0.1c-0.4,0.4-0.8,0.8-1.3,1.3c-0.5,0.4-1,0.9-1.6,1.2
		c-0.7,0.4-1.4,0.7-2.1,1c-0.7,0.2-1.6,0.3-2.8,0.3c-2.1,0-3.6-0.7-4.7-2c-1.1-1.3-1.6-3.3-1.6-5.9V17.4c0-0.6-0.1-1-0.3-1.4
		s-0.5-0.7-0.9-1c-0.3-0.2-0.6-0.3-1.1-0.4c-0.4-0.1-0.9-0.1-1.4-0.2v-1.6l7.8-0.6l0.4,0.3v16.2c0,1.7,0.4,3,1.1,3.8
		c0.8,0.9,1.7,1.3,2.7,1.3c0.9,0,1.6-0.1,2.3-0.4c0.7-0.3,1.2-0.6,1.7-0.9c0.4-0.3,0.8-0.7,1.1-1.1c0.3-0.4,0.6-0.7,0.7-1V17.2
		c0-0.5-0.1-1-0.3-1.4s-0.5-0.7-0.9-1c-0.3-0.2-0.7-0.3-1.3-0.3s-1.2-0.1-1.9-0.1v-1.6l8.5-0.6l0.4,0.3V31c0,0.5,0.1,1,0.3,1.4
		s0.5,0.7,0.9,1c0.3,0.2,0.6,0.3,1,0.3c0.4,0.1,0.8,0.1,1.3,0.1L53.4,35.4L53.4,35.4z"/>
	<path class="st0" d="M88.7,35.8H77.5v-1.6c0.4,0,0.7-0.1,1.1-0.1s0.7-0.1,1-0.2c0.4-0.1,0.8-0.4,1-0.7c0.2-0.4,0.3-0.8,0.3-1.4
		V17.4c0-0.5-0.1-1-0.3-1.4c-0.2-0.4-0.5-0.8-1-1c-0.3-0.2-0.7-0.4-1.3-0.5c-0.6-0.1-1.1-0.2-1.6-0.2v-1.6l8.2-0.5l0.3,0.3v19
		c0,0.6,0.1,1,0.3,1.4c0.2,0.4,0.5,0.6,1,0.8c0.3,0.1,0.7,0.3,1,0.3c0.3,0.1,0.7,0.1,1.1,0.2v1.6H88.7z"/>
	<path class="st0" d="M74.6,34.1c-0.3-0.1-0.7-0.2-1-0.3c-0.5-0.2-0.8-0.4-1-0.8c-0.2-0.4-0.3-0.8-0.3-1.4v-1.7l0,0
		c0-1.5,0-3,0.1-4.3c0-1.7,0.1-3.7,0.1-6c0-1.6-0.2-2.9-0.6-3.9s-1-1.8-1.8-2.4c-0.8-0.6-1.7-1-2.7-1.2s-2.1-0.3-3.5-0.3
		c-1,0-1.9,0.2-3,0.5c-1,0.3-1.9,0.7-2.6,1.1c-0.8,0.5-1.5,1.1-2,1.8s-0.8,1.4-0.8,2.1c0,0.7,0.2,1.3,0.6,1.9
		c0.4,0.6,0.9,0.8,1.7,0.8c0.9,0,1.6-0.2,2.1-0.7s0.7-1,0.7-1.5s-0.1-1.1-0.2-1.7c-0.1-0.6-0.2-1.1-0.2-1.4c0.3-0.3,0.7-0.5,1.3-0.8
		c0.6-0.2,1.3-0.4,2-0.4c1.1,0,1.9,0.2,2.4,0.6c0.6,0.4,1,0.9,1.3,1.5c0.3,0.5,0.5,1.1,0.6,1.7c0.1,0.6,0.1,1,0.1,1.2v2.3
		c-0.8,0.4-2.2,1-4.4,1.7c-2.2,0.7-3.6,1.2-4.3,1.5c-0.6,0.2-1.2,0.5-1.8,0.9s-1.2,0.8-1.6,1.3c-0.5,0.6-0.9,1.2-1.1,1.9
		c-0.3,0.7-0.4,1.5-0.4,2.4c0,1.7,0.6,3.1,1.7,4.2c1.1,1.1,2.6,1.6,4.3,1.6c1.7,0,3.1-0.3,4.2-0.9c1.2-0.6,2.3-1.5,3.3-2.6h0.1
		c0.2,1.1,0.7,1.9,1.4,2.5c0.7,0.6,1.7,0.9,2.9,0.9c0.7,0,2.5-0.2,3.3-0.5v-1.6C75.3,34.2,74.9,34.2,74.6,34.1z M65.7,33
		c-0.9,0.5-1.8,0.8-3,0.8c-1.1,0-1.9-0.3-2.6-0.9c-0.7-0.6-1-1.6-1-2.9c0-1,0.2-1.9,0.7-2.6c0.5-0.7,1.1-1.4,1.9-1.9
		c0.9-0.6,1.8-1,2.8-1.4c1-0.4,2.2-0.8,3.5-1.2l-0.1,8.2C67.3,31.8,66.6,32.5,65.7,33z"/>
	<path class="st0" d="M108.3,15.5c0,0.8-0.2,1.5-0.6,2.1s-1,0.9-1.8,0.9c-0.9,0-1.6-0.2-2-0.7c-0.5-0.5-0.7-1-0.7-1.5
		c0-0.3,0-0.7,0.1-0.9c0.1-0.3,0.1-0.6,0.2-0.9c-0.7,0-1.6,0.3-2.6,0.9c-1,0.6-1.8,1.4-2.5,2.6v13.6c0,0.6,0.1,1,0.3,1.3
		c0.2,0.3,0.5,0.6,1,0.8c0.4,0.2,0.9,0.3,1.5,0.4c0.6,0.1,1.2,0.1,1.6,0.2v1.6H90.4v-1.6c0.4,0,0.7-0.1,1.1-0.1s0.7-0.1,1-0.2
		c0.4-0.1,0.8-0.4,1-0.7c0.2-0.4,0.3-0.8,0.3-1.4V17.5c0-0.5-0.1-1-0.3-1.4c-0.2-0.5-0.5-0.8-1-1.1c-0.3-0.2-0.7-0.3-1.1-0.4
		c-0.4-0.1-0.9-0.1-1.3-0.2v-1.6l7.8-0.5l0.3,0.3v3.3h0.1c1-1.3,2.1-2.2,3.3-2.9c1.2-0.7,2.3-1,3.3-1s1.8,0.3,2.4,1
		C108,13.6,108.3,14.4,108.3,15.5z"/>
	<path class="st0" d="M117.8,31.6c0,0.6,0.1,1,0.3,1.4c0.2,0.4,0.5,0.6,1,0.8c0.3,0.1,0.7,0.3,1,0.3c0.3,0.1,0.7,0.1,1.1,0.2v1.6
		H110v-1.6c0.4,0,0.7-0.1,1.1-0.1s0.7-0.1,1-0.2c0.4-0.1,0.8-0.4,1-0.7c0.2-0.4,0.3-0.8,0.3-1.4V17.5c0-0.5-0.1-1-0.3-1.4
		c-0.2-0.4-0.5-0.8-1-1c-0.3-0.2-0.7-0.4-1.3-0.5c-0.6-0.1-1.1-0.2-1.6-0.2v-1.6l8.2-0.5l0.3,0.3L117.8,31.6L117.8,31.6z"/>
	<path class="st0" d="M138.4,24.4c0.6,0.6,1.1,1.2,1.5,2c0.3,0.7,0.5,1.6,0.5,2.7c0,2.2-0.8,3.9-2.4,5.3c-1.6,1.4-3.7,2.1-6.3,2.1
		c-1.4,0-2.6-0.2-3.7-0.7c-1.1-0.5-2-0.9-2.4-1.3l-0.5,1.5h-1.8l-0.2-8.1h1.6c0.1,0.6,0.4,1.3,0.8,2.2c0.4,0.8,0.9,1.6,1.5,2.2
		c0.6,0.7,1.4,1.3,2.2,1.8c0.9,0.5,1.8,0.7,2.9,0.7c1.5,0,2.7-0.3,3.5-1s1.2-1.7,1.2-3c0-0.7-0.1-1.2-0.4-1.7
		c-0.3-0.5-0.6-0.9-1.1-1.3c-0.5-0.4-1.2-0.7-1.9-1c-0.8-0.3-1.6-0.6-2.5-0.9c-0.7-0.2-1.6-0.5-2.5-0.9s-1.7-0.8-2.3-1.4
		c-0.7-0.6-1.3-1.2-1.7-2s-0.7-1.7-0.7-2.8c0-1.9,0.7-3.5,2.1-4.8c1.4-1.3,3.3-2,5.7-2c0.9,0,1.8,0.1,2.8,0.4c1,0.2,1.7,0.5,2.3,0.9
		l0.5-1.2h1.7l0.4,7.5h-1.6c-0.3-1.7-1-3-2.1-4.1s-2.4-1.6-4-1.6c-1.3,0-2.3,0.3-3,1s-1.1,1.4-1.1,2.4c0,0.7,0.1,1.3,0.4,1.8
		c0.2,0.5,0.6,0.9,1.1,1.2s1.1,0.6,1.8,0.9c0.7,0.3,1.6,0.6,2.7,0.9c1,0.3,2,0.7,2.9,1.2C137,23.4,137.8,23.9,138.4,24.4z"/>
	<path class="st0" d="M153.5,36.4c-3.4,0-6-1.1-7.9-3.4c-1.9-2.2-2.9-5.2-2.9-9c0-1.6,0.3-3.2,0.8-4.6c0.5-1.4,1.3-2.7,2.2-3.9
		c0.9-1.1,2.1-2,3.5-2.7s2.9-1,4.6-1c2.3,0,4.1,0.5,5.6,1.6c1.4,1.1,2.1,2.6,2.1,4.5c0,0.8-0.2,1.5-0.6,2.1c-0.4,0.6-1,0.9-1.9,0.9
		s-1.6-0.2-2.2-0.7c-0.5-0.5-0.8-1-0.8-1.6c0-0.7,0.1-1.4,0.3-2.2c0.2-0.7,0.3-1.3,0.3-1.6c-0.3-0.5-0.7-0.8-1.3-1s-1.2-0.2-1.8-0.2
		c-0.8,0-1.5,0.2-2.2,0.5s-1.3,0.9-2,1.8c-0.6,0.8-1.1,1.8-1.4,3.2c-0.4,1.3-0.5,2.9-0.5,4.8c0,2.9,0.6,5.3,1.9,7.2
		c1.3,1.9,3,2.8,5.1,2.8c1.5,0,2.8-0.4,3.8-1.1c1-0.7,2-1.9,2.9-3.3l1.5,1c-1,1.9-2.4,3.3-4.1,4.4S155.3,36.4,153.5,36.4z"/>
	<g>
		<path class="st0" d="M186.6,24.8c-0.1-0.5-0.2-0.9-0.3-1.2c-0.2-0.3-0.4-0.6-0.7-0.8s-0.7-0.3-1.1-0.3c-0.8,0-1.4,0.3-1.9,1
			c-0.5,0.6-0.8,1.5-0.8,2.7h5C186.7,25.7,186.7,25.3,186.6,24.8z"/>
		<path class="st0" d="M188.1,12.5h-18.4c-1.6,0-2.9,1.4-2.9,3.1v18c0,1.7,1.3,3.1,2.9,3.1h18.4c1.6,0,2.9-1.4,2.9-3.1v-18
			C191.1,13.9,189.8,12.5,188.1,12.5z M175,16.7c0.3-0.3,0.6-0.4,1-0.4s0.8,0.1,1,0.4c0.3,0.3,0.4,0.6,0.4,1s-0.1,0.8-0.4,1.1
			c-0.3,0.3-0.6,0.5-1,0.5s-0.7-0.1-1-0.4c-0.3-0.3-0.4-0.6-0.4-1C174.6,17.3,174.7,17,175,16.7z M171.4,32.6
			c-0.3,0.3-0.6,0.4-1.1,0.4c-0.4,0-0.8-0.1-1.1-0.4c-0.3-0.3-0.4-0.6-0.4-1s0.1-0.8,0.4-1.1c0.3-0.3,0.6-0.4,1.1-0.4
			c0.4,0,0.8,0.1,1.1,0.4c0.3,0.3,0.4,0.6,0.4,1.1S171.7,32.3,171.4,32.6z M178.8,32.8h-5.2v-0.7c0.2,0,0.3,0,0.5,0s0.3,0,0.5-0.1
			s0.4-0.2,0.5-0.3c0.1-0.2,0.1-0.4,0.1-0.6v-6.6c0-0.2-0.1-0.4-0.2-0.6c-0.1-0.2-0.3-0.4-0.4-0.5c-0.1-0.1-0.3-0.2-0.6-0.2
			c-0.3-0.1-0.5-0.1-0.7-0.1v-0.7l3.8-0.2l0.2,0.2v8.8c0,0.3,0,0.5,0.1,0.6c0.1,0.2,0.3,0.3,0.5,0.4c0.2,0.1,0.3,0.1,0.5,0.2
			c0.2,0,0.3,0.1,0.5,0.1L178.8,32.8L178.8,32.8z M187.3,32.3c-0.8,0.5-1.6,0.8-2.6,0.8c-0.9,0-1.6-0.2-2.3-0.5
			c-0.6-0.3-1.2-0.7-1.6-1.2c-0.4-0.5-0.7-1.1-0.9-1.8s-0.3-1.4-0.3-2.2c0-0.7,0.1-1.4,0.3-2.1c0.2-0.7,0.5-1.3,1-1.8
			c0.4-0.5,0.9-0.9,1.5-1.3c0.6-0.3,1.3-0.5,2.1-0.5s1.5,0.1,2,0.4c0.6,0.2,1,0.6,1.4,1c0.3,0.4,0.6,0.9,0.7,1.4
			c0.2,0.6,0.2,1.2,0.2,1.8V27h-7.1c0,0.7,0.1,1.3,0.2,1.9c0.1,0.6,0.3,1.1,0.6,1.5s0.7,0.8,1.1,1c0.5,0.2,1,0.4,1.6,0.4
			s1.2-0.2,1.7-0.5s0.9-0.8,1.4-1.6l0.8,0.5C188.7,31.1,188.1,31.8,187.3,32.3z"/>
	</g>
	<path class="st0" d="M0,2.3v0.5v6.9h1.7c0.1-0.4,0.4-0.9,0.8-1.5C2.9,7.6,3.3,7,3.8,6.5s1-1,1.5-1.5c0.6-0.4,1.1-0.7,1.6-0.7
		C7.6,4.2,8.3,4.2,9,4.2c0.7,0,1.3,0,1.8,0h1.4v27c0,0.6-0.1,1.2-0.4,1.5c-0.2,0.4-0.6,0.7-1.1,0.9c-0.3,0.1-1,0.3-1.9,0.4
		c-0.9,0.1-1.6,0.2-2,0.2v1.7h15.8v-1.7c-0.5,0-1.2-0.1-2.1-0.3c-0.9-0.2-1.5-0.3-1.8-0.4c-0.6-0.2-0.9-0.6-1.2-1
		c-0.2-0.4-0.3-0.9-0.3-1.4V4.3h1.4c0.6,0,1.3,0,2.1,0c0.7,0,1.4,0.1,1.8,0.1c0.5,0.1,1.1,0.3,1.6,0.7c0.6,0.4,1.1,0.9,1.6,1.5
		c0.5,0.5,0.9,1.1,1.2,1.7c0.4,0.6,0.6,1.1,0.8,1.5h1.6V2.9V2.4L0,2.3L0,2.3z"/>
</g>
</svg>
