<?xml version="1.0" encoding="UTF-8" standalone="no"?>
<!-- Generator: Adobe Illustrator 15.0.0, SVG Export Plug-In . SVG Version: 6.00 Build 0)  -->

<svg
   xmlns:dc="http://purl.org/dc/elements/1.1/"
   xmlns:cc="http://creativecommons.org/ns#"
   xmlns:rdf="http://www.w3.org/1999/02/22-rdf-syntax-ns#"
   xmlns:svg="http://www.w3.org/2000/svg"
   xmlns="http://www.w3.org/2000/svg"
   xmlns:sodipodi="http://sodipodi.sourceforge.net/DTD/sodipodi-0.dtd"
   xmlns:inkscape="http://www.inkscape.org/namespaces/inkscape"
   version="1.1"
   id="Layer_1"
   x="0px"
   y="0px"
   width="419.96px"
   height="156.46px"
   viewBox="0 0 419.96 156.46"
   enable-background="new 0 0 419.96 156.46"
   xml:space="preserve"
   inkscape:version="0.48.4 r9939"
   sodipodi:docname="asnc_logo.svg"><metadata
     id="metadata37"><rdf:RDF><cc:Work
         rdf:about=""><dc:format>image/svg+xml</dc:format><dc:type
           rdf:resource="http://purl.org/dc/dcmitype/StillImage" /><dc:title></dc:title></cc:Work></rdf:RDF></metadata><defs
     id="defs35" /><sodipodi:namedview
     pagecolor="#ffffff"
     bordercolor="#666666"
     borderopacity="1"
     objecttolerance="10"
     gridtolerance="10"
     guidetolerance="10"
     inkscape:pageopacity="0"
     inkscape:pageshadow="2"
     inkscape:window-width="1366"
     inkscape:window-height="747"
     id="namedview33"
     showgrid="false"
     inkscape:zoom="0.75721499"
     inkscape:cx="209.98"
     inkscape:cy="78.230003"
     inkscape:window-x="0"
     inkscape:window-y="0"
     inkscape:window-maximized="1"
     inkscape:current-layer="Layer_1" /><g
     id="g3"><g
       id="g5"><path
         fill="#FFFFFC"
         d="M209.679,24.961h-6.943l-2.42,4.807h-6.427L205.892,6.25h8.139l4.026,23.519h-7.655L209.679,24.961z     M209.215,20.102l-1.03-6.806l-3.417,6.806H209.215z"
         id="path7" /><path
         fill="#FFFFFC"
         d="M239.586,19.912l2.808,9.857h-7.674l-2.281-8.942h-3.068l-1.656,8.942h-7.397l4.332-23.519h11.323    c3.077,0,5.358,0.612,6.841,1.835c1.481,1.223,2.223,2.885,2.223,4.988C245.035,16.437,243.218,18.717,239.586,19.912z     M230.276,15.933h2.916c2.803,0,4.203-0.861,4.203-2.584c0-1.447-1.175-2.171-3.526-2.171h-2.713L230.276,15.933z"
         id="path9" /></g><path
       fill="#FFFFFC"
       d="M162.169,32.524l-40.829,7.337c-1.162-3.352-4.071-5.99-8.724-7.913c-4.654-1.926-9.771-2.886-15.354-2.886   c-10.464,0-15.7,2.472-15.7,7.418c0,1.596,0.739,2.968,2.208,4.121c1.473,1.155,5.621,2.588,12.443,4.3l25.22,6.375   c6.586,1.656,12.717,4.093,18.381,7.304c5.669,3.211,9.742,6.727,12.229,10.543c2.483,3.816,3.729,7.892,3.729,12.23   c0,11.367-6.305,20.757-18.901,28.168c-12.6,7.417-29.41,11.121-50.423,11.121c-17.989,0-33.671-2.585-47.05-7.752   c-13.374-5.162-22.698-13.049-27.971-23.655l45.824-6.348c3.958,7.97,13.73,11.953,29.311,11.953   c6.514,0,11.226-0.838,14.136-2.515c2.904-1.675,4.36-3.585,4.36-5.729c0-1.37-0.564-2.582-1.688-3.627   c-1.122-1.041-2.327-1.8-3.604-2.266c-1.281-0.467-7.308-2.109-18.077-4.925c-14.572-3.805-24.785-6.82-30.649-9.043   c-5.856-2.225-10.744-5.534-14.662-9.929c-3.917-4.391-5.875-9.556-5.875-15.486c0-10.268,5.329-18.961,15.992-26.073   C57.155,8.136,73.461,4.581,95.401,4.581c16.75,0,31.097,2.502,43.041,7.501C150.38,17.083,158.29,23.898,162.169,32.524z"
       id="path11" /><path
       fill="#FFFFFC"
       d="M215.212,121.383c-16.361,0-30.11-3.445-41.234-10.344c-11.125-6.897-16.69-16.309-16.69-28.232   c0-14.343,6.453-26.129,19.368-35.361c12.908-9.231,29.21-13.848,48.911-13.848c17.987,0,32.275,3.611,42.858,10.839   c10.587,7.228,15.88,16.143,15.88,26.749c0,15.772-6.806,28.078-20.414,36.928C250.28,116.961,234.055,121.383,215.212,121.383z    M217.073,101.105c8.144,0,13.667-4.286,16.576-12.858c2.905-8.573,4.361-15.743,4.361-21.516c0-8.79-4.499-13.189-13.492-13.189   c-7.988,0-13.516,4.386-16.577,13.15c-3.062,8.764-4.594,15.923-4.594,21.471C203.348,96.793,207.922,101.105,217.073,101.105z"
       id="path13" /><path
       fill="#FFFFFC"
       d="M299.178,35.657h40.923l-3.102,13.521c3.173-5.553,8.366-9.606,15.573-12.16   c7.2-2.557,14.795-3.834,22.773-3.834c9.999,0,18.094,1.869,24.291,5.605c6.2,3.737,9.298,8.651,9.298,14.75   c0,2.363-0.383,5.192-1.153,8.49l-13.416,56.88h-44.71l11.866-50.032c0.773-3.187,1.161-5.304,1.161-6.348   c0-4.668-3.487-7.007-10.455-7.007c-9.371,0.005-15.105,4.454-17.194,13.355l-11.877,50.032h-43.638L299.178,35.657z"
       id="path15" /><g
       id="g17"><path
         fill="#FFFFFC"
         d="M243.134,125.016l-4.523,27.079h-6.02l-5.192-10.396c-1.416-2.844-2.308-5.093-2.683-6.745    c0.027,0.396,0.04,0.707,0.04,0.933c0,0.741-0.099,1.719-0.297,2.937l-2.225,13.272h-6.598l4.523-27.079h7.294l2.975,6.269    c2.062,4.338,3.405,7.546,4.027,9.622c-0.04-0.543-0.06-0.945-0.06-1.211c0-0.767,0.178-2.235,0.536-4.405l1.724-10.274H243.134z"
         id="path19" /><path
         fill="#FFFFFC"
         d="M257.479,146.56h-7.248l-2.529,5.535h-6.71l12.534-27.079h8.495l4.205,27.079h-7.99L257.479,146.56z     M256.996,140.966l-1.077-7.836l-3.567,7.836H256.996z"
         id="path21" /><path
         fill="#FFFFFC"
         d="M295.744,141.621l7.262,0.933c-0.848,2.962-2.299,5.389-4.354,7.279c-2.058,1.892-4.652,2.837-7.787,2.837    c-3.4,0-6.101-1.154-8.104-3.461c-2.005-2.308-3.006-5.273-3.006-8.897c0-4.181,1.237-7.879,3.709-11.101    c2.474-3.22,5.873-4.83,10.198-4.83c3.147,0,5.696,0.965,7.646,2.896c1.95,1.932,2.946,4.484,2.986,7.658l-7.639,0.556    c-0.026-1.667-0.284-2.91-0.772-3.729c-0.489-0.82-1.316-1.229-2.48-1.229c-2.01,0-3.382,1.487-4.116,4.463    s-1.101,5.317-1.101,7.023c0,2.777,1.083,4.165,3.253,4.165c1.07,0,1.938-0.356,2.599-1.071    C294.698,144.397,295.268,143.234,295.744,141.621z"
         id="path23" /><path
         fill="#FFFFFC"
         d="M330.78,125.016l-2.777,16.665c-0.477,2.83-1.104,4.923-1.887,6.277c-0.779,1.355-2.062,2.453-3.848,3.294    c-1.786,0.839-3.914,1.26-6.388,1.26c-3.201,0-5.693-0.684-7.479-2.053c-1.786-1.369-2.68-3.316-2.68-5.844    c0-0.859,0.094-1.838,0.277-2.935l2.799-16.665h8.247l-2.771,16.665c-0.157,0.912-0.237,1.587-0.237,2.022    c0,0.834,0.335,1.487,1.001,1.965c0.666,0.475,1.468,0.713,2.406,0.713c1.176,0,2.067-0.294,2.674-0.883    c0.607-0.589,1.058-1.77,1.35-3.542l2.833-16.94H330.78z M317.773,122.379l8.925-2.651l1.368,3.729l-9.263,1.502L317.773,122.379z    "
         id="path25" /><path
         fill="#FFFFFC"
         d="M342.846,125.016l-4.522,27.079h-7.704l4.524-27.079H342.846z"
         id="path27" /><path
         fill="#FFFFFC"
         d="M367.679,131.304l-6.965,1.766c-0.197-0.806-0.693-1.44-1.486-1.904c-0.794-0.462-1.667-0.693-2.62-0.693    c-1.783,0-2.678,0.594-2.678,1.784c0,0.385,0.126,0.715,0.377,0.992s0.96,0.623,2.124,1.034l4.301,1.535    c1.123,0.398,2.169,0.983,3.135,1.758c0.967,0.774,1.662,1.618,2.086,2.537c0.423,0.919,0.636,1.899,0.636,2.944    c0,2.735-1.076,4.995-3.225,6.779c-2.148,1.783-5.015,2.676-8.6,2.676c-3.068,0-5.743-0.621-8.025-1.865    c-2.28-1.242-3.872-3.141-4.771-5.694l7.816-1.526c0.675,1.916,2.342,2.876,4.999,2.876c1.111,0,1.915-0.202,2.411-0.605    c0.495-0.402,0.743-0.862,0.743-1.378c0-0.331-0.097-0.622-0.287-0.873c-0.191-0.251-0.398-0.434-0.615-0.545    c-0.219-0.113-1.247-0.508-3.083-1.185c-2.484-0.918-4.228-1.643-5.228-2.179c-0.999-0.535-1.832-1.331-2.502-2.389    c-0.667-1.057-1.001-2.299-1.001-3.727c0-2.473,0.908-4.563,2.729-6.273c1.817-1.714,4.598-2.569,8.342-2.569    c2.856,0,5.302,0.603,7.34,1.805C365.668,127.588,367.017,129.229,367.679,131.304z"
         id="path29" /><path
         fill="#FFFFFC"
         d="M389.104,145.865l-1.052,6.229h-19.959l4.523-27.079h19.463l-0.992,5.932h-11.617l-0.702,4.245h9.76    l-0.992,5.872h-9.741l-0.796,4.801H389.104z"
         id="path31" /></g></g></svg>