<?xml version="1.0" encoding="UTF-8" standalone="no"?>
<!-- Generator: Adobe Illustrator 16.0.0, SVG Export Plug-In . SVG Version: 6.00 Build 0)  -->

<svg
    xmlns:dc="http://purl.org/dc/elements/1.1/"
    xmlns:cc="http://creativecommons.org/ns#"
    xmlns:rdf="http://www.w3.org/1999/02/22-rdf-syntax-ns#"
    xmlns:svg="http://www.w3.org/2000/svg"
    xmlns="http://www.w3.org/2000/svg"
    xmlns:sodipodi="http://sodipodi.sourceforge.net/DTD/sodipodi-0.dtd"
    xmlns:inkscape="http://www.inkscape.org/namespaces/inkscape"
    version="1.1"
    id="Capa_1"
    x="0px"
    y="0px"
    width="28.998px"
    height="29.979px"
    viewBox="0 0 28.998 29.979"
    style="enable-background:new 0 0 28.998 29.979;"
    xml:space="preserve"
    inkscape:version="0.48.4 r9939"
    sodipodi:docname="arrow.svg">
    <metadata
        id="metadata41">
        <rdf:RDF>
            <cc:Work rdf:about="">
                <dc:format>image/svg+xml</dc:format>
                <dc:type rdf:resource="http://purl.org/dc/dcmitype/StillImage" />
            </cc:Work>
        </rdf:RDF>
    </metadata>
    <defs id="defs39" />
    <sodipodi:namedview
        pagecolor="#ffffff"
        bordercolor="#666666"
        borderopacity="1"
        objecttolerance="10"
        gridtolerance="10"
        guidetolerance="10"
        inkscape:pageopacity="0"
        inkscape:pageshadow="2"
        inkscape:window-width="640"
        inkscape:window-height="480"
        id="namedview37"
        showgrid="false"
        inkscape:zoom="7.8721772"
        inkscape:cx="14.499"
        inkscape:cy="14.9895"
        inkscape:window-x="0"
        inkscape:window-y="0"
        inkscape:window-maximized="0"
        inkscape:current-layer="Capa_1" />
    <path
        d="M24.973,19.105v6.848H4.025v-6.848H0v8.861c0,1.111,0.9,2.012,2.016,2.012h24.967c1.115,0,2.016-0.9,2.016-2.012v-8.861  H24.973z"
        id="path3"
        style="fill:#ffffff" />
    <path
        d="M14.131,18.426l-5.764-6.965c0,0-0.877-0.828,0.074-0.828s3.248,0,3.248,0s0-0.557,0-1.416c0-2.449,0-6.906,0-8.723  c0,0-0.129-0.494,0.615-0.494c0.75,0,4.035,0,4.572,0C17.412,0,17.4,0.416,17.4,0.416c0,1.762,0,6.373,0,8.742  c0,0.768,0,1.266,0,1.266s1.842,0,2.998,0c1.154,0,0.285,0.867,0.285,0.867s-4.904,6.51-5.588,7.193  C14.602,18.979,14.131,18.426,14.131,18.426z"
        id="path5"
        style="fill:#ffffff" />
    <g id="g7" />
    <g id="g9" />
    <g id="g11" />
    <g id="g13" />
    <g id="g15" />
    <g id="g17" />
    <g id="g19" />
    <g id="g21" />
    <g id="g23" />
    <g id="g25" />
    <g id="g27" />
    <g id="g29" />
    <g id="g31" />
    <g id="g33" />
    <g id="g35" />
</svg>