<?xml version="1.0" encoding="UTF-8" standalone="no"?>
<!-- Generator: Adobe Illustrator 16.0.0, SVG Export Plug-In . SVG Version: 6.00 Build 0)  -->

<svg
   xmlns:dc="http://purl.org/dc/elements/1.1/"
   xmlns:cc="http://creativecommons.org/ns#"
   xmlns:rdf="http://www.w3.org/1999/02/22-rdf-syntax-ns#"
   xmlns:svg="http://www.w3.org/2000/svg"
   xmlns="http://www.w3.org/2000/svg"
   xmlns:sodipodi="http://sodipodi.sourceforge.net/DTD/sodipodi-0.dtd"
   xmlns:inkscape="http://www.inkscape.org/namespaces/inkscape"
   version="1.1"
   id="Layer_1"
   x="0px"
   y="0px"
   width="24px"
   height="24px"
   viewBox="0 0 24 24"
   enable-background="new 0 0 24 24"
   xml:space="preserve"
   inkscape:version="0.48.4 r9939"
   sodipodi:docname="download.svg"><metadata
   id="metadata3014"><rdf:RDF><cc:Work
       rdf:about=""><dc:format>image/svg+xml</dc:format><dc:type
         rdf:resource="http://purl.org/dc/dcmitype/StillImage" /></cc:Work></rdf:RDF></metadata><defs
   id="defs3012" /><sodipodi:namedview
   pagecolor="#ffffff"
   bordercolor="#666666"
   borderopacity="1"
   objecttolerance="10"
   gridtolerance="10"
   guidetolerance="10"
   inkscape:pageopacity="0"
   inkscape:pageshadow="2"
   inkscape:window-width="1366"
   inkscape:window-height="715"
   id="namedview3010"
   showgrid="false"
   inkscape:zoom="11"
   inkscape:cx="6.0143315"
   inkscape:cy="16.047094"
   inkscape:window-x="-8"
   inkscape:window-y="-8"
   inkscape:window-maximized="1"
   inkscape:current-layer="Layer_1" />
<path
   d="m 20.665499,15.297385 v 5.481797 H 3.3303987 V 15.297385 H 0 v 7.092206 C 0,23.281371 0.7446472,24 1.6687893,24 H 22.331211 C 23.252276,24 24,23.28037 24,22.389591 v -7.092206 h -3.334501 z"
   id="path3006"
   inkscape:connector-curvature="0"
   style="fill:#ffffff" />
<path
   d="M 11.695884,14.75391 6.9264498,9.176029 c 0,0 -0.7272105,-0.6615789 0.060516,-0.6615789 H 9.67426 V 0.39434505 C 9.67426,0.39434505 9.565537,0 10.184025,0 h 3.7817 c 0.445147,0 0.436942,0.33229075 0.436942,0.33229075 V 8.346303 h 2.481131 c 0.953887,0 0.234882,0.692606 0.234882,0.692606 0,0 -4.057609,5.214563 -4.626864,5.762042 -0.408223,0.395346 -0.795932,-0.04704 -0.795932,-0.04704"
   id="path3008"
   inkscape:connector-curvature="0"
   style="fill:#ffffff" />
</svg>