<?xml version="1.0" encoding="UTF-8" standalone="no"?>
<!-- Generator: Adobe Illustrator 16.0.0, SVG Export Plug-In . SVG Version: 6.00 Build 0)  -->

<svg
   xmlns:dc="http://purl.org/dc/elements/1.1/"
   xmlns:cc="http://creativecommons.org/ns#"
   xmlns:rdf="http://www.w3.org/1999/02/22-rdf-syntax-ns#"
   xmlns:svg="http://www.w3.org/2000/svg"
   xmlns="http://www.w3.org/2000/svg"
   xmlns:sodipodi="http://sodipodi.sourceforge.net/DTD/sodipodi-0.dtd"
   xmlns:inkscape="http://www.inkscape.org/namespaces/inkscape"
   version="1.1"
   id="Layer_1"
   x="0px"
   y="0px"
   width="60"
   height="43"
   viewBox="0 0 59.999997 43.000001"
   enable-background="new 0 0 58.268 43"
   xml:space="preserve"
   inkscape:version="0.48.4 r9939"
   sodipodi:docname="soundwave.svg"><metadata
   id="metadata3016"><rdf:RDF><cc:Work
       rdf:about=""><dc:format>image/svg+xml</dc:format><dc:type
         rdf:resource="http://purl.org/dc/dcmitype/StillImage" /></cc:Work></rdf:RDF></metadata><defs
   id="defs3014" /><sodipodi:namedview
   pagecolor="#ffffff"
   bordercolor="#666666"
   borderopacity="1"
   objecttolerance="10"
   gridtolerance="10"
   guidetolerance="10"
   inkscape:pageopacity="0"
   inkscape:pageshadow="2"
   inkscape:window-width="1366"
   inkscape:window-height="715"
   id="namedview3012"
   showgrid="false"
   height="1052.36px"
   inkscape:zoom="8.6826135"
   inkscape:cx="19.898352"
   inkscape:cy="16.994192"
   inkscape:window-x="-8"
   inkscape:window-y="-8"
   inkscape:window-maximized="1"
   inkscape:current-layer="Layer_1" />
<path
   d="m 58.587072,14.793101 c -0.770313,0 -1.39954,0.6118 -1.39954,1.3683 v 3.9703 h -0.765164 v -6.9148 c 0,-0.7525 -0.628197,-1.3633 -1.404689,-1.3633 -0.777522,0 -1.404689,0.6108 -1.404689,1.3633 v 6.9148 h -0.767224 v -0.5033 c 0,-0.7585 -0.628197,-1.3693 -1.404689,-1.3693 -0.772374,0 -1.40057,0.6108 -1.40057,1.3693 v 0.5033 h -0.770314 v -2.8351 c 0,-0.7514 -0.627167,-1.3652 -1.405719,-1.3652 -0.771343,0 -1.40057,0.6138 -1.40057,1.3652 v 2.8361 H 45.69874 v -6.9148 c 0,-0.7525 -0.632316,-1.3633 -1.404689,-1.3633 -0.776492,0 -1.403659,0.6108 -1.403659,1.3633 v 6.9148 h -0.768254 v -6.9148 c 0,-0.7525 -0.626137,-1.3633 -1.404689,-1.3633 -0.770314,0 -1.397481,0.6108 -1.397481,1.3633 v 6.9148 H 38.546566 V 7.3328007 c 0,-0.7575 -0.627167,-1.3693 -1.39954,-1.3693 -0.776493,0 -1.40366,0.6118 -1.40366,1.3693 V 20.131701 h -0.767224 v -1.088 c 0,-0.7545 -0.633346,-1.3663 -1.405719,-1.3663 -0.775462,0 -1.403659,0.6118 -1.403659,1.3663 v 1.088 H 31.39851 v -2.8351 c 0,-0.7564 -0.626137,-1.3703 -1.402629,-1.3703 -0.777523,0 -1.404689,0.6139 -1.404689,1.3703 v 2.8361 H 27.822938 V 5.6460007 c 0,-0.7585 -0.628197,-1.3713 -1.39851,-1.3713 -0.777523,0 -1.40469,0.6118 -1.40469,1.3713 V 20.131701 h -0.764134 v -6.9148 c 0,-0.7525 -0.627167,-1.3693 -1.39954,-1.3693 -0.776492,0 -1.403659,0.6128 -1.403659,1.3693 v 6.9148 h -0.769284 v -6.9148 c 0,-0.7525 -0.626137,-1.3693 -1.403659,-1.3693 -0.777522,0 -1.40366,0.6128 -1.40366,1.3693 v 6.9148 h -0.769283 v -2.8351 c 0,-0.7564 -0.627167,-1.3703 -1.40263,-1.3703 -0.773403,0 -1.40057,0.6139 -1.40057,1.3703 v 2.8361 h -0.772373 v -6.9148 c 0,-0.7525 -0.627167,-1.3693 -1.39851,-1.3693 -0.777522,0 -1.405719,0.6128 -1.405719,1.3693 v 6.9148 H 9.9533143 V 1.3713007 C 9.9533143,0.61380071 9.3261474,7.1026955e-7 8.5537743,7.1026955e-7 7.7772819,7.1026955e-7 7.1490852,0.61280071 7.1490852,1.3713007 V 20.131701 H 6.3808314 v -6.9148 c 0,-0.7525 -0.6281967,-1.3693 -1.4046891,-1.3693 -0.7764924,0 -1.4036594,0.6128 -1.4036594,1.3693 v 6.9148 H 2.8042292 v -2.8351 c 0,-0.7564 -0.627167,-1.3703 -1.39954,-1.3703 C 0.62819677,15.925301 0,16.540201 0,17.296601 v 8.4078 c 0,0.7534 0.62819677,1.3653 1.4046892,1.3653 0.772373,0 1.39954,-0.6119 1.39954,-1.3653 v -2.8351 h 0.772373 v 6.9098 c 0,0.7585 0.6281968,1.3703 1.3995401,1.3703 0.7764924,0 1.4046891,-0.6118 1.4046891,-1.3703 v -6.9098 h 0.7672239 v 18.7594 c 0,0.7545 0.6281968,1.3713 1.4046892,1.3713 0.7764924,0 1.4036593,-0.6128 1.4036593,-1.3713 v -18.7604 h 0.7682542 v 6.9098 c 0,0.7585 0.627167,1.3703 1.404689,1.3703 0.772373,0 1.39954,-0.6118 1.39954,-1.3703 v -6.9098 h 0.772373 v 2.8351 c 0,0.7534 0.628197,1.3652 1.40057,1.3652 0.776492,0 1.404689,-0.6118 1.404689,-1.3652 v -2.8351 h 0.767224 v 6.9098 c 0,0.7585 0.628197,1.3703 1.404689,1.3703 0.776492,0 1.404689,-0.6118 1.404689,-1.3703 v -6.9098 h 0.768254 v 6.9098 c 0,0.7585 0.627167,1.3703 1.402629,1.3703 0.772373,0 1.40057,-0.6118 1.40057,-1.3703 v -6.9098 h 0.772373 v 14.4877 c 0,0.7575 0.628197,1.3683 1.39851,1.3683 0.777523,0 1.40469,-0.6108 1.40469,-1.3683 v -14.4877 H 28.5984 v 2.8351 c 0,0.7534 0.627167,1.3652 1.40366,1.3652 0.773403,0 1.405719,-0.6118 1.405719,-1.3652 v -2.8351 h 0.767224 v 1.083 c 0,0.7595 0.627167,1.3713 1.403659,1.3713 0.773403,0 1.40057,-0.6118 1.40057,-1.3713 v -1.083 h 0.771343 v 12.7939 c 0,0.7585 0.628197,1.3703 1.39954,1.3703 0.777522,0 1.404689,-0.6118 1.404689,-1.3703 v -12.7939 h 0.767224 v 6.9098 c 0,0.7585 0.628197,1.3703 1.403659,1.3703 0.777523,0 1.405719,-0.6118 1.405719,-1.3703 v -6.9098 H 42.8976 v 6.9098 c 0,0.7585 0.628197,1.3703 1.40469,1.3703 0.770313,0 1.403659,-0.6118 1.403659,-1.3703 v -6.9098 h 0.768254 v 2.8351 c 0,0.7534 0.626137,1.3652 1.39954,1.3652 0.775462,0 1.403659,-0.6118 1.403659,-1.3652 v -2.8351 h 0.772373 v 0.5033 c 0,0.7585 0.627167,1.3693 1.39954,1.3693 0.776493,0 1.404689,-0.6108 1.404689,-1.3693 v -0.5033 h 0.765165 v 6.9098 c 0,0.7585 0.628196,1.3703 1.406748,1.3703 0.770314,0 1.39954,-0.6118 1.39954,-1.3703 v -6.9098 h 0.771344 v 3.9693 c 0,0.7585 0.626137,1.3713 1.404689,1.3713 0.771343,0 1.39851,-0.6128 1.39851,-1.3713 v -10.6792 c -0.0082,-0.7535 -0.635406,-1.3653 -1.412928,-1.3653"
   id="path3010"
   inkscape:connector-curvature="0"
   style="fill:#e2e3e4" />
</svg>