<?xml version="1.0" encoding="UTF-8" standalone="no"?>
<!-- Created with Inkscape (http://www.inkscape.org/) -->

<svg
   xmlns:dc="http://purl.org/dc/elements/1.1/"
   xmlns:cc="http://creativecommons.org/ns#"
   xmlns:rdf="http://www.w3.org/1999/02/22-rdf-syntax-ns#"
   xmlns:svg="http://www.w3.org/2000/svg"
   xmlns="http://www.w3.org/2000/svg"
   xmlns:sodipodi="http://sodipodi.sourceforge.net/DTD/sodipodi-0.dtd"
   xmlns:inkscape="http://www.inkscape.org/namespaces/inkscape"
   id="svg3004"
   version="1.1"
   inkscape:version="0.48.4 r9939"
   width="375"
   height="327.875"
   xml:space="preserve"
   sodipodi:docname="Nuachtlitir button 2.ai"><metadata
     id="metadata3010"><rdf:RDF><cc:Work
         rdf:about=""><dc:format>image/svg+xml</dc:format><dc:type
           rdf:resource="http://purl.org/dc/dcmitype/StillImage" /><dc:title></dc:title></cc:Work></rdf:RDF></metadata><defs
     id="defs3008"><clipPath
       clipPathUnits="userSpaceOnUse"
       id="clipPath3018"><path
         d="m 0,262.3 300,0 L 300,0 0,0 0,262.3 z"
         id="path3020" /></clipPath><clipPath
       clipPathUnits="userSpaceOnUse"
       id="clipPath3026"><path
         d="m 0,262.3 300,0 0,-254.56706 -300,0 L 0,262.3 z"
         id="path3028" /></clipPath><clipPath
       clipPathUnits="userSpaceOnUse"
       id="clipPath3084"><path
         d="m 0,262.3 300,0 L 300,0 0,0 0,262.3 z"
         id="path3086" /></clipPath></defs><sodipodi:namedview
     pagecolor="#ffffff"
     bordercolor="#666666"
     borderopacity="1"
     objecttolerance="10"
     gridtolerance="10"
     guidetolerance="10"
     inkscape:pageopacity="0"
     inkscape:pageshadow="2"
     inkscape:window-width="1920"
     inkscape:window-height="1024"
     id="namedview3006"
     showgrid="false"
     inkscape:zoom="0.7197865"
     inkscape:cx="187.5"
     inkscape:cy="163.9375"
     inkscape:window-x="0"
     inkscape:window-y="0"
     inkscape:window-maximized="1"
     inkscape:current-layer="g3012" /><g
     id="g3012"
     inkscape:groupmode="layer"
     inkscape:label="Nuachtlitir button 2"
     transform="matrix(1.25,0,0,-1.25,0,327.875)"><g
       id="g3014"><g
         id="g3016"
         clip-path="url(#clipPath3018)"><g
           id="g3022"><g
             id="g3024" /><g
             id="g3030"><g
               clip-path="url(#clipPath3026)"
               opacity="0.949997"
               id="g3032"><path
                 d="m 300,7.733 -300,0 0,254.567 300,0 0,-254.567 z"
                 style="fill:#e44284;fill-opacity:1;fill-rule:nonzero;stroke:none"
                 id="path3034" /></g></g></g></g></g><text
       transform="matrix(1,0,0,-1,30,182.9141)"
       id="text3036"><tspan
         style="fill:#ffffff;fill-opacity:1;fill-rule:nonzero;stroke:none;font-family:Arial;font-variant:normal;font-weight:normal;font-stretch:normal;font-size:13;writing-mode:lr;-inkscape-font-specification:ArialMT"
         x="0 9.386 12.272 19.5 23.829 31.057 33.943 41.171 48.399 52.013 59.241 66.469 72.969 80.197 87.425 91.039 97.539 104.767 111.995 119.249"
         y="0"
         sodipodi:role="line"
         id="tspan3038">Cláraigh anseo chun </tspan></text>
<text
       transform="matrix(1,0,0,-1,30,156.5137)"
       id="text3040"><tspan
         style="fill:#ffffff;fill-opacity:1;fill-rule:nonzero;stroke:none;font-family:Georgia;font-variant:normal;font-weight:normal;font-stretch:normal;font-size:22;writing-mode:lr;-inkscape-font-specification:Georgia"
         x="0 4.73 19.492 30.69 35.992 45.98 58.63 67.65 72.952 85.58 97.438 102.74 110.33 123.134 135.784 146.872 153.318 162.338 168.784 178.288 188.276 198.902 203.896"
         y="0"
         sodipodi:role="line"
         id="tspan3042">'Ag cur do thuairisce’ </tspan></text>
<text
       transform="matrix(1,0,0,-1,30,134.5137)"
       id="text3044"><tspan
         style="fill:#ffffff;fill-opacity:1;fill-rule:nonzero;stroke:none;font-family:Arial;font-variant:normal;font-weight:normal;font-stretch:normal;font-size:13;writing-mode:lr;-inkscape-font-specification:ArialMT"
         x="0 9.386 18.772 27.443 36.829 46.215 54.158 61.386 65 72.943 76.557 85.943 89.3243 96.7824 104.0104 111.2384 114.1244 118.4534 121.3394 127.8394 134.3394 137.9534 140.8394 148.0674 151.6892 155.3032 162.5312 166.1452 169.7592 176.9872 184.2152 187.1012 189.9872 193.6012 200.8292 205.1582"
         y="0"
         sodipodi:role="line"
         id="tspan3046">NUACHTLITIR Tuairisc.ie, a fháil ar </tspan><tspan
         style="fill:#ffffff;fill-opacity:1;fill-rule:nonzero;stroke:none;font-family:Arial;font-variant:normal;font-weight:normal;font-stretch:normal;font-size:13;writing-mode:lr;-inkscape-font-specification:ArialMT"
         x="0 4.329 7.943 15.171 26 33.228 40.456 47.684 54.912 61.412 65.026 68.64 72.254 75.868 79.482 90.311 97.539 104.767 111.267 117.767 121.381 128.609 135.837 139.451 142.337 149.565 156.793 161.122 164.736 169.065 176.293 183.521 190.749 194.363 197.977 205.205 208.091 210.977 218.205"
         y="17.004"
         sodipodi:role="line"
         id="tspan3048">ríomhphost. I measc go leor rudaí eile </tspan><tspan
         style="fill:#ffffff;fill-opacity:1;fill-rule:nonzero;stroke:none;font-family:Arial;font-variant:normal;font-weight:normal;font-stretch:normal;font-size:13;writing-mode:lr;-inkscape-font-specification:ArialMT"
         x="0 7.228 14.456 17.342 24.57 31.798 35.412 42.64 49.868 52.754 59.982 66.482 70.096 77.324 81.653 88.881 91.767 98.267 105.495 109.109 116.337 123.565 130.793 134.407 138.021 145.249 152.5017 155.3877 159.0017 165.5017 172.0017 179.2297 186.4577 189.3437 192.9577 200.1857"
         y="34.008"
         sodipodi:role="line"
         id="tspan3050">beidh eolas breise ann faoi scéalta </tspan><tspan
         style="fill:#ffffff;fill-opacity:1;fill-rule:nonzero;stroke:none;font-family:Arial;font-variant:normal;font-weight:normal;font-stretch:normal;font-size:13;writing-mode:lr;-inkscape-font-specification:ArialMT"
         x="0 7.4581 14.6861 21.9141 24.8001 29.1291 32.0151 38.5151 45.0151 48.6291 51.5151 58.7431 62.3571 69.5851 76.8131 84.0411 90.5411 94.1551 101.3831 108.6111 111.4971 117.9971 125.2251 132.4531 139.6811 146.9091 154.1657 157.7797 164.2797 171.5077 175.8367 179.4507 182.3367 188.8367 192.4507 199.6787 206.9067 213.4067 220.6347 224.2487 231.4767 235.8057"
         y="51.012"
         sodipodi:role="line"
         id="tspan3052">Tuairisc.ie agus deiseanna cur isteach ar </tspan><tspan
         style="fill:#ffffff;fill-opacity:1;fill-rule:nonzero;stroke:none;font-family:Arial;font-variant:normal;font-weight:normal;font-stretch:normal;font-size:13;writing-mode:lr;-inkscape-font-specification:ArialMT"
         x="0 6.5 13.728 20.956 31.785 39.013 43.342 46.956 54.184 57.07 63.57 67.184 73.684 80.912 88.14 91.026 97.526 100.412 107.64 110.526 114.14 121.368"
         y="68.016"
         sodipodi:role="line"
         id="tspan3054">chomórtais speisialta.</tspan></text>
<text
       transform="matrix(1,0,0,-1,30,211.1396)"
       id="text3056"><tspan
         style="fill:#ffffff;fill-opacity:1;fill-rule:nonzero;stroke:none;font-family:Georgia;font-variant:normal;font-weight:normal;font-stretch:normal;font-size:32;writing-mode:lr;-inkscape-font-specification:Georgia"
         x="0 24.544 42.944 59.072 73.6 92.224 103.264 112.416 121.792 132.832 142.208"
         y="0"
         sodipodi:role="line"
         id="tspan3058">Nuachtlitir</tspan></text>
<path
       d="m 0,0.005 30,0 0,7.728 -30,0 0,-7.728 z"
       style="fill:#506572;fill-opacity:1;fill-rule:nonzero;stroke:none"
       id="path3060" /><path
       d="m 30,0.005 30.001,0 0,7.728 -30.001,0 0,-7.728 z"
       style="fill:#f3db78;fill-opacity:1;fill-rule:nonzero;stroke:none"
       id="path3062" /><path
       d="m 60,0.005 30,0 0,7.728 -30,0 0,-7.728 z"
       style="fill:#94c27c;fill-opacity:1;fill-rule:nonzero;stroke:none"
       id="path3064" /><path
       d="m 90,0.005 30,0 0,7.728 -30,0 0,-7.728 z"
       style="fill:#89b1d4;fill-opacity:1;fill-rule:nonzero;stroke:none"
       id="path3066" /><path
       d="m 120,0.005 30.001,0 0,7.728 -30.001,0 0,-7.728 z"
       style="fill:#c94c51;fill-opacity:1;fill-rule:nonzero;stroke:none"
       id="path3068" /><path
       d="m 150,0.005 30,0 0,7.728 -30,0 0,-7.728 z"
       style="fill:#434044;fill-opacity:1;fill-rule:nonzero;stroke:none"
       id="path3070" /><path
       d="m 180,0.005 30,0 0,7.728 -30,0 0,-7.728 z"
       style="fill:#e44284;fill-opacity:1;fill-rule:nonzero;stroke:none"
       id="path3072" /><path
       d="m 210,0.005 30.001,0 0,7.728 -30.001,0 0,-7.728 z"
       style="fill:#3e5371;fill-opacity:1;fill-rule:nonzero;stroke:none"
       id="path3074" /><path
       d="m 240,0.005 30,0 0,7.728 -30,0 0,-7.728 z"
       style="fill:#caab60;fill-opacity:1;fill-rule:nonzero;stroke:none"
       id="path3076" /><path
       d="m 270,0.005 30,0 0,7.728 -30,0 0,-7.728 z"
       style="fill:#7e5c91;fill-opacity:1;fill-rule:nonzero;stroke:none"
       id="path3078" /><g
       id="g3080"><g
         id="g3082"
         clip-path="url(#clipPath3084)"><g
           id="g3088"
           transform="translate(212.5292,43.7021)"><path
             d="m 0,0 c 0,-0.496 -0.163,-0.928 -0.489,-1.297 -0.326,-0.37 -0.728,-0.555 -1.206,-0.555 -0.443,0 -0.828,0.176 -1.154,0.529 -0.326,0.352 -0.489,0.754 -0.489,1.206 0,0.478 0.163,0.895 0.489,1.251 0.326,0.357 0.711,0.535 1.154,0.535 0.496,0 0.902,-0.167 1.219,-0.502 C -0.159,0.832 0,0.443 0,0"
             style="fill:#ffffff;fill-opacity:1;fill-rule:nonzero;stroke:none"
             id="path3090" /></g><g
           id="g3092"
           transform="translate(230.4865,43.7021)"><path
             d="m 0,0 c 0,-0.496 -0.163,-0.928 -0.489,-1.297 -0.326,-0.37 -0.728,-0.555 -1.206,-0.555 -0.443,0 -0.827,0.176 -1.154,0.529 -0.326,0.352 -0.489,0.754 -0.489,1.206 0,0.478 0.163,0.895 0.489,1.251 0.327,0.357 0.711,0.535 1.154,0.535 0.495,0 0.902,-0.167 1.219,-0.502 C -0.158,0.832 0,0.443 0,0"
             style="fill:#ffffff;fill-opacity:1;fill-rule:nonzero;stroke:none"
             id="path3094" /></g><g
           id="g3096"
           transform="translate(194.6863,25.8522)"><path
             d="m 0,0 -4.198,-0.287 -0.196,0.182 0,1.631 -0.078,0 C -4.68,1.308 -4.915,1.076 -5.175,0.828 -5.435,0.581 -5.735,0.356 -6.073,0.156 -6.464,-0.079 -6.841,-0.256 -7.206,-0.379 -7.57,-0.5 -8.087,-0.561 -8.755,-0.561 c -1.137,0 -2.002,0.371 -2.597,1.114 -0.594,0.742 -0.891,1.821 -0.891,3.237 l 0,6.147 c 0,0.313 -0.06,0.575 -0.178,0.788 -0.118,0.213 -0.291,0.397 -0.518,0.554 -0.158,0.104 -0.354,0.18 -0.591,0.227 -0.236,0.048 -0.485,0.081 -0.747,0.098 l 0,0.861 4.289,0.313 0.196,-0.183 0,-8.931 c 0,-0.93 0.209,-1.63 0.626,-2.1 0.417,-0.469 0.917,-0.703 1.499,-0.703 0.478,0 0.904,0.073 1.278,0.221 0.374,0.147 0.687,0.321 0.939,0.521 0.235,0.182 0.441,0.375 0.619,0.579 0.178,0.204 0.315,0.393 0.411,0.567 l 0,7.28 c 0,0.286 -0.061,0.54 -0.183,0.761 -0.121,0.222 -0.291,0.41 -0.508,0.567 -0.157,0.104 -0.389,0.167 -0.698,0.189 -0.308,0.021 -0.654,0.041 -1.036,0.058 l 0,0.861 4.68,0.313 0.196,-0.183 0,-10.198 c 0,-0.295 0.061,-0.547 0.183,-0.755 C -1.665,1.434 -1.495,1.256 -1.278,1.108 -1.121,1.012 -0.934,0.949 -0.717,0.919 -0.5,0.889 -0.261,0.869 0,0.861 L 0,0 z"
             style="fill:#ffffff;fill-opacity:1;fill-rule:nonzero;stroke:none"
             id="path3098" /></g><g
           id="g3100"
           transform="translate(214.1592,25.6174)"><path
             d="m 0,0 -6.207,0 0,0.86 c 0.2,0.018 0.407,0.035 0.62,0.052 0.213,0.018 0.397,0.053 0.554,0.105 0.243,0.078 0.424,0.214 0.541,0.41 0.117,0.195 0.176,0.449 0.176,0.762 l 0,7.931 c 0,0.278 -0.063,0.532 -0.189,0.762 -0.126,0.23 -0.302,0.423 -0.528,0.579 -0.165,0.105 -0.404,0.194 -0.717,0.267 -0.313,0.074 -0.6,0.12 -0.861,0.137 l 0,0.861 4.538,0.287 0.182,-0.183 0,-10.483 c 0,-0.304 0.059,-0.557 0.175,-0.756 0.117,-0.2 0.3,-0.348 0.55,-0.444 C -0.976,1.069 -0.79,1.006 -0.609,0.958 -0.427,0.91 -0.225,0.878 0,0.86 L 0,0 z"
             style="fill:#ffffff;fill-opacity:1;fill-rule:nonzero;stroke:none"
             id="path3102" /></g><g
           id="g3104"
           transform="translate(201.4742,27.1635)"><path
             d="m 0,0 c -0.469,-0.301 -1.013,-0.451 -1.63,-0.451 -0.583,0 -1.063,0.17 -1.441,0.51 -0.378,0.34 -0.567,0.87 -0.567,1.594 0,0.557 0.126,1.039 0.378,1.444 0.252,0.405 0.596,0.755 1.03,1.052 0.478,0.313 0.996,0.574 1.552,0.784 0.556,0.209 1.204,0.422 1.943,0.64 L 1.187,1.065 C 0.865,0.655 0.469,0.3 0,0 M 4.897,-0.577 C 4.715,-0.53 4.53,-0.466 4.34,-0.388 4.089,-0.292 3.906,-0.144 3.789,0.056 3.673,0.255 3.614,0.507 3.614,0.812 l 0,0.954 0,0 c 0.005,0.841 0.017,1.63 0.037,2.366 0.026,0.961 0.039,2.063 0.039,3.306 0,0.869 -0.115,1.579 -0.346,2.131 -0.23,0.552 -0.567,0.989 -1.01,1.311 -0.443,0.33 -0.937,0.545 -1.48,0.645 -0.543,0.1 -1.18,0.15 -1.91,0.15 -0.53,0 -1.074,-0.085 -1.63,-0.254 -0.556,-0.17 -1.03,-0.376 -1.421,-0.62 -0.452,-0.286 -0.82,-0.612 -1.102,-0.977 -0.283,-0.366 -0.424,-0.748 -0.424,-1.148 0,-0.382 0.102,-0.728 0.307,-1.036 0.204,-0.309 0.523,-0.463 0.958,-0.463 0.487,0 0.867,0.126 1.141,0.378 0.274,0.252 0.41,0.53 0.41,0.834 0,0.287 -0.041,0.6 -0.123,0.939 -0.083,0.339 -0.124,0.595 -0.124,0.769 0.139,0.148 0.38,0.289 0.724,0.424 0.343,0.135 0.714,0.202 1.115,0.202 0.581,0 1.031,-0.12 1.349,-0.358 C 0.441,10.126 0.687,9.845 0.86,9.524 1.017,9.237 1.119,8.933 1.167,8.611 1.215,8.289 1.239,8.072 1.239,7.959 l 0,-1.291 C 0.822,6.442 0.015,6.129 -1.18,5.73 -2.375,5.33 -3.168,5.056 -3.56,4.908 -3.873,4.786 -4.207,4.623 -4.564,4.419 -4.92,4.215 -5.207,3.982 -5.424,3.721 -5.703,3.408 -5.911,3.057 -6.05,2.665 -6.189,2.275 -6.259,1.831 -6.259,1.335 c 0,-0.956 0.311,-1.73 0.933,-2.321 0.621,-0.591 1.414,-0.886 2.379,-0.886 0.913,0 1.693,0.165 2.341,0.496 0.647,0.329 1.254,0.808 1.819,1.433 l 0.078,0 c 0.113,-0.608 0.372,-1.071 0.776,-1.388 0.404,-0.317 0.945,-0.476 1.623,-0.476 0.391,0 1.407,0.123 1.815,0.272 l 0,0.86 c -0.224,0.017 -0.427,0.05 -0.608,0.098"
             style="fill:#ffffff;fill-opacity:1;fill-rule:nonzero;stroke:none"
             id="path3106" /></g><g
           id="g3108"
           transform="translate(224.9546,36.8176)"><path
             d="m 0,0 c 0,-0.443 -0.109,-0.837 -0.326,-1.18 -0.217,-0.343 -0.552,-0.515 -1.004,-0.515 -0.486,0 -0.859,0.126 -1.114,0.378 -0.257,0.252 -0.385,0.53 -0.385,0.834 0,0.192 0.015,0.365 0.045,0.522 0.031,0.157 0.059,0.313 0.085,0.469 -0.409,0 -0.886,-0.165 -1.434,-0.495 -0.548,-0.33 -1.013,-0.8 -1.396,-1.408 l 0,-7.484 c 0,-0.304 0.059,-0.553 0.176,-0.744 0.118,-0.191 0.302,-0.334 0.554,-0.43 0.218,-0.087 0.498,-0.152 0.842,-0.196 0.343,-0.043 0.641,-0.074 0.893,-0.091 l 0,-0.86 -6.782,0 0,0.86 c 0.2,0.017 0.407,0.035 0.62,0.052 0.213,0.018 0.398,0.052 0.554,0.104 0.243,0.079 0.424,0.215 0.541,0.411 0.117,0.195 0.176,0.449 0.176,0.762 l 0,7.931 c 0,0.269 -0.063,0.534 -0.189,0.794 -0.126,0.26 -0.302,0.469 -0.528,0.625 -0.165,0.104 -0.361,0.18 -0.587,0.228 -0.226,0.048 -0.469,0.08 -0.73,0.098 l 0,0.861 4.277,0.286 0.183,-0.182 0,-1.813 0.065,0 c 0.54,0.704 1.14,1.239 1.8,1.604 0.661,0.365 1.265,0.548 1.812,0.548 0.548,0 0.994,-0.179 1.337,-0.535 C -0.172,1.078 0,0.6 0,0"
             style="fill:#ffffff;fill-opacity:1;fill-rule:nonzero;stroke:none"
             id="path3110" /></g><g
           id="g3112"
           transform="translate(230.2261,27.9646)"><path
             d="M 0,0 C 0,-0.305 0.058,-0.557 0.174,-0.756 0.291,-0.957 0.475,-1.104 0.725,-1.2 0.915,-1.278 1.101,-1.341 1.282,-1.389 1.463,-1.437 1.666,-1.47 1.89,-1.487 l 0,-0.86 -6.206,0 0,0.86 c 0.2,0.017 0.406,0.035 0.619,0.052 0.213,0.018 0.398,0.052 0.555,0.104 0.243,0.079 0.424,0.215 0.54,0.411 0.118,0.195 0.177,0.449 0.177,0.762 l 0,7.931 c 0,0.278 -0.064,0.532 -0.189,0.762 C -2.74,8.765 -2.917,8.958 -3.142,9.114 -3.308,9.218 -3.547,9.307 -3.86,9.381 -4.173,9.455 -4.459,9.5 -4.721,9.518 l 0,0.861 4.539,0.287 L 0,10.483 0,0 z"
             style="fill:#ffffff;fill-opacity:1;fill-rule:nonzero;stroke:none"
             id="path3114" /></g><g
           id="g3116"
           transform="translate(241.555,31.9153)"><path
             d="m 0,0 c 0.356,-0.313 0.63,-0.674 0.821,-1.082 0.191,-0.409 0.287,-0.909 0.287,-1.5 0,-1.191 -0.445,-2.165 -1.336,-2.921 -0.891,-0.756 -2.045,-1.134 -3.462,-1.134 -0.748,0 -1.437,0.135 -2.067,0.404 -0.63,0.27 -1.08,0.517 -1.349,0.743 l -0.261,-0.847 -0.978,0 -0.13,4.472 0.9,0 c 0.069,-0.34 0.216,-0.737 0.443,-1.191 0.226,-0.453 0.499,-0.863 0.821,-1.23 0.339,-0.383 0.745,-0.706 1.219,-0.967 0.474,-0.263 1.006,-0.393 1.598,-0.393 0.834,0 1.477,0.19 1.929,0.57 0.452,0.381 0.678,0.925 0.678,1.633 0,0.366 -0.071,0.681 -0.215,0.946 -0.143,0.265 -0.354,0.497 -0.632,0.697 -0.287,0.2 -0.64,0.381 -1.057,0.542 -0.417,0.16 -0.882,0.319 -1.395,0.476 -0.408,0.121 -0.862,0.288 -1.362,0.502 -0.5,0.212 -0.928,0.463 -1.284,0.749 -0.383,0.305 -0.696,0.678 -0.939,1.122 -0.244,0.443 -0.365,0.965 -0.365,1.564 0,1.052 0.391,1.943 1.173,2.673 0.783,0.73 1.83,1.095 3.143,1.095 0.503,0 1.018,-0.065 1.545,-0.195 0.525,-0.131 0.953,-0.287 1.283,-0.47 l 0.301,0.678 0.939,0 0.195,-4.133 -0.899,0 c -0.183,0.926 -0.576,1.678 -1.18,2.259 -0.605,0.58 -1.341,0.87 -2.211,0.87 -0.712,0 -1.273,-0.179 -1.682,-0.538 -0.408,-0.359 -0.613,-0.792 -0.613,-1.3 0,-0.391 0.068,-0.717 0.203,-0.978 0.134,-0.26 0.336,-0.482 0.606,-0.664 0.261,-0.175 0.589,-0.338 0.984,-0.49 C -3.953,1.81 -3.464,1.639 -2.882,1.447 -2.308,1.265 -1.767,1.052 -1.258,0.808 -0.75,0.565 -0.33,0.295 0,0"
             style="fill:#ffffff;fill-opacity:1;fill-rule:nonzero;stroke:none"
             id="path3118" /></g><g
           id="g3120"
           transform="translate(249.9109,25.2785)"><path
             d="m 0,0 c -1.86,0 -3.316,0.617 -4.369,1.851 -1.051,1.234 -1.577,2.89 -1.577,4.968 0,0.904 0.141,1.75 0.424,2.536 0.282,0.787 0.693,1.501 1.232,2.145 0.513,0.617 1.156,1.115 1.93,1.493 0.773,0.378 1.617,0.567 2.53,0.567 1.26,0 2.285,-0.302 3.077,-0.906 0.79,-0.605 1.186,-1.428 1.186,-2.471 C 4.433,9.749 4.329,9.364 4.12,9.03 3.912,8.695 3.568,8.527 3.09,8.527 c -0.513,0 -0.911,0.13 -1.193,0.39 -0.282,0.26 -0.424,0.55 -0.424,0.871 0,0.39 0.053,0.79 0.157,1.202 0.104,0.411 0.165,0.713 0.183,0.903 -0.157,0.269 -0.389,0.448 -0.697,0.54 -0.308,0.09 -0.639,0.136 -0.995,0.136 -0.416,0 -0.812,-0.089 -1.19,-0.267 -0.377,-0.179 -0.743,-0.507 -1.099,-0.985 -0.321,-0.434 -0.581,-1.021 -0.78,-1.76 -0.2,-0.739 -0.299,-1.621 -0.299,-2.647 0,-1.617 0.358,-2.936 1.074,-3.957 0.716,-1.021 1.656,-1.532 2.819,-1.532 0.842,0 1.547,0.205 2.115,0.616 0.568,0.411 1.096,1.027 1.582,1.848 L 5.176,3.337 C 4.603,2.312 3.846,1.499 2.908,0.899 1.969,0.299 0.999,0 0,0"
             style="fill:#ffffff;fill-opacity:1;fill-rule:nonzero;stroke:none"
             id="path3122" /></g><g
           id="g3124"
           transform="translate(268.1834,31.6842)"><path
             d="m 0,0 c -0.038,0.256 -0.099,0.471 -0.184,0.643 -0.092,0.184 -0.219,0.334 -0.38,0.451 -0.16,0.115 -0.367,0.174 -0.62,0.174 -0.422,0 -0.772,-0.175 -1.051,-0.526 -0.28,-0.35 -0.431,-0.837 -0.455,-1.462 l 2.748,0 C 0.058,-0.496 0.038,-0.256 0,0"
             style="fill:#ffffff;fill-opacity:1;fill-rule:nonzero;stroke:none"
             id="path3126" /></g><g
           id="g3128"
           transform="translate(268.572,27.5658)"><path
             d="m 0,0 c -0.418,-0.281 -0.898,-0.422 -1.44,-0.422 -0.478,0 -0.897,0.085 -1.256,0.253 C -3.055,0 -3.352,0.229 -3.585,0.518 -3.817,0.807 -3.991,1.145 -4.106,1.53 -4.22,1.916 -4.277,2.323 -4.277,2.753 c 0,0.386 0.061,0.765 0.183,1.136 0.122,0.371 0.302,0.706 0.539,1.003 0.23,0.285 0.514,0.515 0.853,0.69 0.339,0.174 0.72,0.262 1.142,0.262 0.434,0 0.805,-0.069 1.115,-0.205 C -0.137,5.503 0.114,5.316 0.307,5.078 0.492,4.854 0.629,4.589 0.72,4.284 0.81,3.978 0.855,3.647 0.855,3.289 l 0,-0.397 -3.933,0 c 0,-0.391 0.037,-0.745 0.111,-1.063 C -2.893,1.511 -2.775,1.231 -2.615,0.99 -2.458,0.756 -2.253,0.572 -2,0.437 c 0.253,-0.135 0.554,-0.202 0.903,-0.202 0.358,0 0.666,0.084 0.926,0.252 0.258,0.167 0.508,0.469 0.749,0.905 L 1,1.133 C 0.751,0.659 0.418,0.281 0,0 m -4.717,-0.265 -2.867,0 0,0.398 c 0.093,0.008 0.188,0.016 0.286,0.024 0.099,0.008 0.184,0.024 0.256,0.048 0.113,0.036 0.197,0.099 0.251,0.189 0.054,0.09 0.081,0.208 0.081,0.352 l 0,3.665 c 0,0.128 -0.029,0.246 -0.088,0.352 -0.058,0.106 -0.14,0.196 -0.244,0.268 -0.076,0.048 -0.186,0.089 -0.331,0.123 -0.145,0.034 -0.277,0.055 -0.398,0.063 l 0,0.398 2.097,0.132 0.084,-0.084 0,-4.843 c 0,-0.141 0.027,-0.258 0.082,-0.35 C -5.455,0.378 -5.37,0.309 -5.254,0.265 -5.167,0.229 -5.081,0.2 -4.997,0.177 -4.914,0.156 -4.82,0.141 -4.717,0.133 l 0,-0.398 z m -4.086,0.118 c -0.163,-0.159 -0.357,-0.239 -0.581,-0.239 -0.225,0 -0.419,0.08 -0.581,0.239 -0.163,0.158 -0.245,0.35 -0.245,0.575 0,0.224 0.082,0.418 0.245,0.581 0.162,0.163 0.356,0.244 0.581,0.244 0.224,0 0.418,-0.081 0.581,-0.244 0.163,-0.163 0.244,-0.357 0.244,-0.581 0,-0.225 -0.081,-0.417 -0.244,-0.575 m 2.018,8.762 c 0.15,0.165 0.328,0.247 0.533,0.247 0.228,0 0.416,-0.077 0.563,-0.232 0.146,-0.155 0.22,-0.334 0.22,-0.539 0,-0.229 -0.076,-0.429 -0.226,-0.6 -0.15,-0.17 -0.337,-0.256 -0.557,-0.256 -0.205,0 -0.383,0.082 -0.533,0.245 -0.151,0.162 -0.227,0.348 -0.227,0.557 0,0.221 0.076,0.413 0.227,0.578 m 7.245,2.297 -10.13,0 c -0.898,0 -1.626,-0.769 -1.626,-1.717 l 0,-9.95 c 0,-0.948 0.728,-1.716 1.626,-1.716 l 10.13,0 c 0.899,0 1.627,0.768 1.627,1.716 l 0,9.95 c 0,0.948 -0.728,1.717 -1.627,1.717"
             style="fill:#ffffff;fill-opacity:1;fill-rule:nonzero;stroke:none"
             id="path3130" /></g><g
           id="g3132"
           transform="translate(165.1729,44.1191)"><path
             d="m 0,0 0,-0.251 0,-3.83 0.913,0 c 0.078,0.218 0.217,0.495 0.417,0.83 0.2,0.335 0.43,0.652 0.691,0.951 0.261,0.298 0.546,0.565 0.854,0.8 0.309,0.236 0.607,0.367 0.893,0.393 0.365,0.033 0.748,0.055 1.148,0.065 0.4,0.01 0.734,0.015 1.004,0.015 l 0.756,0 0,-14.906 c 0,-0.357 -0.067,-0.642 -0.202,-0.854 -0.135,-0.214 -0.346,-0.376 -0.632,-0.489 -0.192,-0.079 -0.537,-0.144 -1.037,-0.196 -0.5,-0.052 -0.871,-0.087 -1.115,-0.104 l 0,-0.926 8.736,0 0,0.926 c -0.278,0.008 -0.667,0.065 -1.167,0.17 -0.5,0.104 -0.828,0.186 -0.984,0.247 -0.305,0.13 -0.517,0.315 -0.639,0.554 -0.122,0.239 -0.183,0.502 -0.183,0.789 l 0,14.789 0.758,0 c 0.349,0 0.728,-0.007 1.137,-0.02 0.41,-0.013 0.75,-0.033 1.02,-0.06 0.287,-0.033 0.585,-0.164 0.895,-0.393 0.309,-0.228 0.594,-0.495 0.856,-0.8 0.253,-0.292 0.481,-0.603 0.686,-0.931 0.204,-0.328 0.346,-0.612 0.425,-0.85 l 0.899,0 0,3.83 0,0.251 L 0,0 z"
             style="fill:#ffffff;fill-opacity:1;fill-rule:nonzero;stroke:none"
             id="path3134" /></g></g></g></g></svg>