<?xml version="1.0" encoding="UTF-8" standalone="no"?>
<!-- Generator: Adobe Illustrator 18.0.0, SVG Export Plug-In . SVG Version: 6.00 Build 0)  -->

<svg
   xmlns:dc="http://purl.org/dc/elements/1.1/"
   xmlns:cc="http://creativecommons.org/ns#"
   xmlns:rdf="http://www.w3.org/1999/02/22-rdf-syntax-ns#"
   xmlns:svg="http://www.w3.org/2000/svg"
   xmlns="http://www.w3.org/2000/svg"
   xmlns:sodipodi="http://sodipodi.sourceforge.net/DTD/sodipodi-0.dtd"
   xmlns:inkscape="http://www.inkscape.org/namespaces/inkscape"
   version="1.1"
   id="Layer_1"
   x="0px"
   y="0px"
   viewBox="0 0 350 30"
   enable-background="new 0 0 349.3 14.1"
   xml:space="preserve"
   inkscape:version="0.48.4 r9939"
   width="100%"
   height="100%"
   sodipodi:docname="oas_banner.svg"><metadata
     id="metadata89"><rdf:RDF><cc:Work
         rdf:about=""><dc:format>image/svg+xml</dc:format><dc:type
           rdf:resource="http://purl.org/dc/dcmitype/StillImage" /><dc:title /></cc:Work></rdf:RDF></metadata><defs
     id="defs87" /><sodipodi:namedview
     pagecolor="#ffffff"
     bordercolor="#666666"
     borderopacity="1"
     objecttolerance="10"
     gridtolerance="10"
     guidetolerance="10"
     inkscape:pageopacity="0"
     inkscape:pageshadow="2"
     inkscape:window-width="1920"
     inkscape:window-height="1059"
     id="namedview85"
     showgrid="false"
     inkscape:zoom="2.8284272"
     inkscape:cx="137.14366"
     inkscape:cy="101.87414"
     inkscape:window-x="0"
     inkscape:window-y="0"
     inkscape:window-maximized="1"
     inkscape:current-layer="Layer_1"
     fit-margin-top="0"
     fit-margin-left="0"
     fit-margin-right="0"
     fit-margin-bottom="0" /><g
     id="g5"
     transform="scale(1.9509476,2.1276596)"><polygon
       points="174.6,14.1 0,14.1 0,0 174.6,0 179.4,6.8 "
       id="polygon7"
       style="fill:#95c27c" /><g
       id="g9"><path
         d="m 9.9,4.5 c 0.4,0.6 0.7,1.3 0.7,2.3 0,1 -0.3,1.8 -0.8,2.5 -0.6,0.8 -1.4,1.2 -2.5,1.2 -1,0 -1.8,-0.3 -2.4,-1 C 4.3,8.7 4.1,7.9 4.1,6.9 4.1,6 4.3,5.2 4.8,4.6 5.4,3.8 6.2,3.4 7.3,3.4 c 1.1,0 2,0.3 2.6,1.1 z M 9.1,8.7 C 9.5,8.1 9.6,7.5 9.6,6.7 9.6,6 9.4,5.4 9,4.9 8.6,4.4 8,4.2 7.3,4.2 6.6,4.2 6.1,4.4 5.6,4.9 5.2,5.3 5,6 5,7 5,7.7 5.2,8.4 5.6,8.9 6,9.4 6.6,9.7 7.4,9.7 8.1,9.6 8.7,9.3 9.1,8.7 z"
         id="path11"
         inkscape:connector-curvature="0"
         style="fill:#ffffff" /><path
         d="m 11.5,3.5 h 0.8 V 4.4 H 11.5 V 3.5 z m 0,1.9 h 0.8 v 4.8 H 11.5 V 5.4 z"
         id="path13"
         inkscape:connector-curvature="0"
         style="fill:#ffffff" /><path
         d="m 13.6,5.3 h 0.8 v 0.8 c 0.1,-0.2 0.2,-0.4 0.5,-0.6 0.2,-0.2 0.5,-0.4 0.9,-0.4 0,0 0,0 0.1,0 0.1,0 0.1,0 0.2,0 V 6 C 16.1,6 16,6 16,6 16,6 15.9,6 15.9,6 15.5,6 15.2,6.1 15,6.4 14.8,6.7 14.7,7 14.7,7.3 v 2.8 H 13.9 V 5.3 z"
         id="path15"
         inkscape:connector-curvature="0"
         style="fill:#ffffff" /><path
         d="m 19.6,5.5 c 0.3,0.2 0.6,0.4 0.7,0.6 0.2,0.2 0.3,0.5 0.3,0.9 0,0.2 0.1,0.6 0.1,1.1 h -3.5 c 0,0.5 0.1,0.9 0.3,1.2 0.2,0.3 0.5,0.4 1,0.4 0.4,0 0.8,-0.1 1,-0.4 0.1,-0.2 0.2,-0.4 0.3,-0.6 h 0.8 c 0,0.2 -0.1,0.4 -0.2,0.6 -0.1,0.2 -0.3,0.4 -0.4,0.5 -0.2,0.2 -0.5,0.4 -0.9,0.5 -0.2,0 -0.4,0.1 -0.7,0.1 -0.6,0 -1.1,-0.2 -1.5,-0.7 -0.4,-0.4 -0.6,-1.1 -0.6,-1.8 0,-0.8 0.2,-1.4 0.6,-1.9 0.4,-0.5 1,-0.7 1.6,-0.7 0.5,-0.1 0.8,0 1.1,0.2 z m 0.3,1.9 C 19.9,7 19.8,6.8 19.7,6.6 19.5,6.2 19.1,6 18.6,6 18.2,6 17.9,6.1 17.7,6.4 17.4,6.7 17.3,7 17.3,7.4 h 2.6 z"
         id="path17"
         inkscape:connector-curvature="0"
         style="fill:#ffffff" /><path
         d="m 24.4,7.2 c 0.2,0 0.3,-0.1 0.4,-0.2 0,-0.1 0.1,-0.2 0.1,-0.3 C 24.9,6.4 24.8,6.2 24.6,6.1 24.3,6 24,5.9 23.6,5.9 23.2,5.9 22.9,6 22.7,6.2 22.6,6.3 22.5,6.5 22.5,6.8 h -0.8 c 0,-0.6 0.2,-1 0.6,-1.2 0.4,-0.2 0.8,-0.4 1.3,-0.4 0.6,0 1,0.1 1.4,0.3 0.4,0.2 0.5,0.6 0.5,1 v 2.8 c 0,0.1 0,0.2 0.1,0.2 0,0.1 0.1,0.1 0.2,0.1 0,0 0.1,0 0.1,0 0,0 0.1,0 0.1,0 v 0.6 c -0.1,0 -0.2,0.1 -0.3,0.1 -0.1,0 -0.2,0 -0.3,0 -0.3,0 -0.5,-0.1 -0.6,-0.3 C 24.7,9.9 24.7,9.7 24.7,9.6 24.5,9.8 24.3,10 24,10.2 23.7,10.4 23.3,10.4 23,10.4 22.6,10.4 22.2,10.3 21.9,10 21.6,9.7 21.5,9.4 21.5,9 21.5,8.6 21.6,8.2 21.9,8 22.2,7.8 22.5,7.6 23,7.5 l 1.4,-0.3 z m -1.8,2.2 c 0.2,0.1 0.4,0.2 0.6,0.2 0.3,0 0.6,-0.1 0.8,-0.2 0.5,-0.2 0.7,-0.6 0.7,-1.1 V 7.7 C 24.6,7.8 24.5,7.8 24.3,7.9 24.1,7.9 24,8 23.8,8 l -0.4,0 c -0.3,0 -0.5,0.1 -0.7,0.2 -0.3,0.1 -0.4,0.4 -0.4,0.7 0.1,0.2 0.2,0.4 0.3,0.5 z"
         id="path19"
         inkscape:connector-curvature="0"
         style="fill:#ffffff" /><path
         d="m 30.1,5.6 c 0.3,0.3 0.5,0.7 0.6,1.4 H 29.9 C 29.9,6.7 29.7,6.5 29.6,6.3 29.4,6.1 29.2,6 28.8,6 28.3,6 27.9,6.3 27.7,6.8 27.6,7.1 27.5,7.5 27.5,8 c 0,0.5 0.1,0.9 0.3,1.2 0.2,0.3 0.5,0.5 1,0.5 0.3,0 0.6,-0.1 0.8,-0.3 0.2,-0.2 0.3,-0.5 0.4,-0.8 h 0.8 c -0.1,0.6 -0.3,1.1 -0.7,1.4 -0.4,0.3 -0.8,0.4 -1.4,0.4 -0.6,0 -1.1,-0.2 -1.5,-0.7 -0.4,-0.5 -0.6,-1 -0.6,-1.7 0,-0.8 0.2,-1.5 0.6,-2 0.4,-0.5 0.9,-0.7 1.6,-0.7 0.5,-0.1 1,0 1.3,0.3 z"
         id="path21"
         inkscape:connector-curvature="0"
         style="fill:#ffffff" /><path
         d="m 31.5,3.5 h 0.8 V 6 c 0.2,-0.2 0.4,-0.4 0.5,-0.5 0.3,-0.2 0.6,-0.3 1,-0.3 0.7,0 1.2,0.2 1.4,0.7 0.1,0.3 0.2,0.6 0.2,1.1 v 3.1 h -0.8 v -3 c 0,-0.4 0,-0.6 -0.1,-0.8 C 34.4,6 34.1,5.9 33.7,5.9 33.4,5.9 33.1,6 32.8,6.2 32.5,6.4 32.4,6.9 32.4,7.5 v 2.6 H 31.6 V 3.5 z"
         id="path23"
         inkscape:connector-curvature="0"
         style="fill:#ffffff" /><path
         d="m 36.8,4 h 0.8 v 1.4 h 0.8 V 6 h -0.8 v 3.2 c 0,0.2 0.1,0.3 0.2,0.3 0.1,0 0.2,0 0.3,0 0,0 0.1,0 0.1,0 0,0 0.1,0 0.2,0 v 0.6 c -0.1,0 -0.2,0 -0.3,0.1 -0.1,0 -0.2,0 -0.3,0 C 37.4,10.2 37.2,10.1 37,9.9 36.9,9.7 36.8,9.5 36.8,9.1 V 6 H 36.1 V 5.3 h 0.7 V 4 z"
         id="path25"
         inkscape:connector-curvature="0"
         style="fill:#ffffff" /><path
         d="M 41.8,7.2 C 42,7.2 42.1,7.1 42.2,7 42.2,6.9 42.3,6.8 42.3,6.7 42.3,6.4 42.2,6.2 42,6.1 41.8,6 41.5,5.9 41.2,5.9 40.8,5.9 40.5,6 40.3,6.2 40.2,6.3 40.1,6.5 40.1,6.8 h -0.8 c 0,-0.6 0.2,-1 0.6,-1.2 0.4,-0.2 0.8,-0.4 1.3,-0.4 0.6,0 1,0.1 1.4,0.3 0.4,0.2 0.5,0.6 0.5,1 v 2.8 c 0,0.1 0,0.2 0.1,0.2 0,0.1 0.1,0.1 0.2,0.1 0,0 0.1,0 0.1,0 0,0 0.1,0 0.1,0 v 0.6 c -0.1,0 -0.2,0.1 -0.3,0.1 -0.1,0 -0.2,0 -0.3,0 -0.3,0 -0.5,-0.1 -0.6,-0.3 -0.1,-0.1 -0.1,-0.3 -0.1,-0.4 -0.2,0.2 -0.4,0.4 -0.7,0.6 -0.3,0.2 -0.7,0.2 -1,0.2 -0.4,0 -0.8,-0.1 -1.1,-0.4 -0.3,-0.3 -0.4,-0.6 -0.4,-1 0,-0.4 0.1,-0.8 0.4,-1 0.3,-0.2 0.6,-0.4 1.1,-0.5 l 1.2,-0.3 z m -1.7,2.2 c 0.2,0.1 0.4,0.2 0.6,0.2 0.3,0 0.6,-0.1 0.8,-0.2 C 42,9.2 42.2,8.8 42.2,8.3 V 7.7 C 42.1,7.8 42,7.8 41.8,7.9 41.6,7.9 41.5,8 41.3,8 l -0.4,0 c -0.3,0 -0.5,0.1 -0.7,0.2 -0.3,0.1 -0.4,0.4 -0.4,0.7 0.1,0.2 0.2,0.4 0.3,0.5 z"
         id="path27"
         inkscape:connector-curvature="0"
         style="fill:#ffffff" /><path
         d="m 44.9,8.7 c 0,0.3 0.1,0.5 0.2,0.6 0.2,0.3 0.6,0.4 1.1,0.4 0.3,0 0.6,-0.1 0.8,-0.2 C 47.2,9.4 47.4,9.2 47.4,8.9 47.4,8.7 47.3,8.5 47.1,8.4 47,8.3 46.7,8.3 46.4,8.2 L 45.7,8 C 45.3,7.9 45,7.8 44.8,7.7 44.4,7.5 44.3,7.2 44.3,6.8 c 0,-0.5 0.2,-0.8 0.5,-1.1 0.3,-0.3 0.8,-0.4 1.3,-0.4 0.7,0 1.3,0.2 1.6,0.6 0.2,0.2 0.3,0.5 0.3,0.8 H 47.2 C 47.2,6.5 47.1,6.4 47,6.2 46.8,6 46.5,5.9 46,5.9 c -0.3,0 -0.6,0.1 -0.7,0.2 -0.2,0.1 -0.2,0.3 -0.2,0.5 0,0.2 0.1,0.4 0.3,0.5 0.1,0.1 0.3,0.1 0.5,0.2 l 0.5,0.1 c 0.6,0.1 1,0.3 1.2,0.4 0.3,0.2 0.5,0.5 0.5,1 0,0.4 -0.2,0.8 -0.5,1.1 -0.3,0.3 -0.8,0.5 -1.5,0.5 -0.7,0 -1.2,-0.2 -1.5,-0.5 C 44.3,9.6 44.1,9.2 44.1,8.7 h 0.8 z"
         id="path29"
         inkscape:connector-curvature="0"
         style="fill:#ffffff" /><path
         d="m 51.6,5.3 h 0.8 V 6 c 0.2,-0.3 0.5,-0.5 0.7,-0.6 0.3,-0.1 0.5,-0.2 0.9,-0.2 0.7,0 1.1,0.2 1.4,0.7 0.1,0.3 0.2,0.6 0.2,1.1 v 3.1 h -0.8 v -3 c 0,-0.3 0,-0.5 -0.1,-0.7 C 54.4,6.1 54.2,6 53.8,6 53.6,6 53.4,6 53.3,6.1 53.1,6.2 52.9,6.3 52.7,6.5 52.6,6.7 52.5,6.8 52.4,7 c 0,0.2 -0.1,0.4 -0.1,0.7 v 2.5 H 51.5 V 5.3 z"
         id="path31"
         inkscape:connector-curvature="0"
         style="fill:#ffffff" /><path
         d="m 59.3,7.2 c 0.2,0 0.3,-0.1 0.4,-0.2 0,-0.1 0.1,-0.2 0.1,-0.3 C 59.8,6.4 59.7,6.2 59.5,6.1 59.3,6 59,5.9 58.6,5.9 58.2,5.9 57.9,6 57.7,6.2 57.6,6.3 57.5,6.5 57.5,6.8 h -0.8 c 0,-0.6 0.2,-1 0.6,-1.2 0.4,-0.2 0.8,-0.4 1.3,-0.4 0.6,0 1,0.1 1.4,0.3 0.4,0.2 0.5,0.6 0.5,1 v 2.8 c 0,0.1 0,0.2 0.1,0.2 0,0.1 0.1,0.1 0.2,0.1 0,0 0.1,0 0.1,0 0,0 0.1,0 0.1,0 v 0.6 c -0.1,0 -0.2,0.1 -0.3,0.1 -0.1,0 -0.2,0 -0.3,0 -0.3,0 -0.5,-0.1 -0.6,-0.3 C 59.7,9.9 59.7,9.7 59.7,9.6 59.5,9.8 59.3,10 59,10.2 58.7,10.4 58.3,10.4 58,10.4 57.6,10.4 57.2,10.3 56.9,10 56.6,9.7 56.5,9.4 56.5,9 56.5,8.6 56.6,8.2 56.9,8 57.2,7.8 57.5,7.6 58,7.5 l 1.3,-0.3 z m -1.7,2.2 c 0.2,0.1 0.4,0.2 0.6,0.2 0.3,0 0.6,-0.1 0.8,-0.2 0.5,-0.2 0.7,-0.6 0.7,-1.1 V 7.7 C 59.6,7.8 59.5,7.8 59.3,7.9 59.1,7.9 59,8 58.8,8 l -0.4,0 c -0.3,0 -0.5,0.1 -0.7,0.2 -0.3,0.1 -0.4,0.4 -0.4,0.7 0.1,0.2 0.1,0.4 0.3,0.5 z"
         id="path33"
         inkscape:connector-curvature="0"
         style="fill:#ffffff" /><path
         d="m 65.1,8 c 0,0.4 0.1,0.7 0.3,0.9 0.3,0.4 0.8,0.7 1.5,0.7 0.3,0 0.6,0 0.9,-0.1 0.5,-0.2 0.8,-0.5 0.8,-1 0,-0.4 -0.1,-0.6 -0.3,-0.8 -0.2,-0.2 -0.6,-0.3 -1,-0.4 L 66.4,7.1 C 65.8,7 65.4,6.8 65.2,6.7 64.8,6.4 64.6,6 64.6,5.5 c 0,-0.6 0.2,-1.1 0.6,-1.5 0.4,-0.4 1,-0.6 1.7,-0.6 0.7,0 1.3,0.2 1.7,0.5 0.4,0.3 0.7,0.9 0.7,1.6 H 68.5 C 68.5,5.1 68.4,4.9 68.2,4.7 67.9,4.4 67.5,4.2 66.9,4.2 66.4,4.2 66,4.3 65.8,4.5 65.6,4.7 65.5,5 65.5,5.3 c 0,0.3 0.1,0.6 0.4,0.7 0.2,0.1 0.6,0.2 1.2,0.4 L 68,6.6 c 0.4,0.1 0.8,0.2 1,0.4 0.4,0.3 0.6,0.8 0.6,1.3 0,0.7 -0.3,1.3 -0.8,1.6 -0.5,0.3 -1.1,0.5 -1.8,0.5 -0.8,0 -1.4,-0.2 -1.9,-0.6 -0.5,-0.4 -0.7,-1 -0.7,-1.7 h 0.7 z"
         id="path35"
         inkscape:connector-curvature="0"
         style="fill:#ffffff" /><path
         d="m 73.2,7.2 c 0.2,0 0.3,-0.1 0.4,-0.2 0,-0.1 0.1,-0.2 0.1,-0.3 C 73.7,6.4 73.6,6.2 73.4,6.1 73.2,6 72.9,5.9 72.6,5.9 72.2,5.9 71.9,6 71.7,6.2 71.6,6.3 71.5,6.5 71.5,6.8 h -0.8 c 0,-0.6 0.2,-1 0.6,-1.2 0.4,-0.2 0.8,-0.4 1.3,-0.4 0.6,0 1,0.1 1.4,0.3 0.4,0.2 0.5,0.6 0.5,1 v 2.8 c 0,0.1 0,0.2 0.1,0.2 0,0.1 0.1,0.1 0.2,0.1 0,0 0.1,0 0.1,0 0,0 0.1,0 0.1,0 v 0.6 c -0.1,0 -0.2,0.1 -0.3,0.1 -0.1,0 -0.2,0 -0.3,0 -0.3,0 -0.5,-0.1 -0.6,-0.3 C 73.7,9.9 73.7,9.7 73.7,9.6 73.5,9.8 73.3,10 73,10.2 72.7,10.4 72.3,10.4 72,10.4 71.6,10.4 71.2,10.3 70.9,10 70.6,9.7 70.5,9.4 70.5,9 70.5,8.6 70.6,8.2 70.9,8 71.2,7.8 71.5,7.6 72,7.5 l 1.2,-0.3 z m -1.7,2.2 c 0.2,0.1 0.4,0.2 0.6,0.2 0.3,0 0.6,-0.1 0.8,-0.2 0.5,-0.2 0.7,-0.6 0.7,-1.1 V 7.7 C 73.5,7.8 73.4,7.8 73.2,7.9 73,7.9 72.9,8 72.7,8 l -0.4,0 c -0.3,0 -0.5,0.1 -0.7,0.2 -0.3,0.1 -0.4,0.4 -0.4,0.7 0,0.2 0.1,0.4 0.3,0.5 z"
         id="path37"
         inkscape:connector-curvature="0"
         style="fill:#ffffff" /><path
         d="m 75.8,5.3 h 0.8 V 6 C 76.8,5.8 77,5.6 77.1,5.5 77.4,5.3 77.7,5.2 78,5.2 c 0.4,0 0.7,0.1 0.9,0.3 0.1,0.1 0.3,0.3 0.4,0.5 0.2,-0.3 0.4,-0.5 0.6,-0.6 0.2,-0.1 0.5,-0.2 0.8,-0.2 0.7,0 1.1,0.2 1.3,0.7 0.1,0.3 0.2,0.6 0.2,1 v 3.2 H 81.4 V 6.8 C 81.4,6.5 81.3,6.3 81.2,6.1 81,6 80.8,6 80.6,6 80.3,6 80,6.1 79.8,6.3 79.6,6.5 79.5,6.9 79.5,7.4 v 2.8 H 78.7 V 7 c 0,-0.3 0,-0.6 -0.1,-0.7 C 78.4,6.1 78.1,6 77.8,6 77.5,6 77.2,6.1 77,6.4 76.7,6.6 76.6,7.1 76.6,7.7 v 2.6 h -0.8 v -5 z"
         id="path39"
         inkscape:connector-curvature="0"
         style="fill:#ffffff" /><path
         d="m 83.5,3.5 h 0.8 V 6 c 0.2,-0.2 0.4,-0.4 0.5,-0.5 0.3,-0.2 0.6,-0.3 1,-0.3 0.7,0 1.2,0.2 1.4,0.7 0.1,0.3 0.2,0.6 0.2,1.1 v 3.1 h -0.8 v -3 c 0,-0.4 0,-0.6 -0.1,-0.8 C 86.4,6 86.1,5.9 85.7,5.9 85.4,5.9 85.1,6 84.8,6.2 84.5,6.4 84.4,6.9 84.4,7.5 v 2.6 H 83.6 V 3.5 z"
         id="path41"
         inkscape:connector-curvature="0"
         style="fill:#ffffff" /><path
         d="m 88.6,5.3 h 0.8 V 6 c 0.2,-0.3 0.5,-0.5 0.7,-0.6 0.3,-0.1 0.5,-0.2 0.9,-0.2 0.7,0 1.1,0.2 1.4,0.7 0.1,0.3 0.2,0.6 0.2,1.1 v 3.1 h -0.8 v -3 c 0,-0.3 0,-0.5 -0.1,-0.7 C 91.4,6.1 91.2,6 90.8,6 90.6,6 90.4,6 90.3,6.1 90.1,6.2 89.9,6.3 89.7,6.5 89.6,6.7 89.5,6.8 89.4,7 c 0,0.2 -0.1,0.4 -0.1,0.7 v 2.5 H 88.5 V 5.3 z"
         id="path43"
         inkscape:connector-curvature="0"
         style="fill:#ffffff" /><path
         d="m 96.3,7.2 c 0.2,0 0.3,-0.1 0.4,-0.2 0,-0.1 0.1,-0.2 0.1,-0.3 C 96.8,6.4 96.7,6.2 96.5,6.1 96.3,6 96,5.9 95.6,5.9 95.2,5.9 94.9,6 94.7,6.2 94.6,6.3 94.5,6.5 94.5,6.8 h -0.8 c 0,-0.6 0.2,-1 0.6,-1.2 0.4,-0.2 0.8,-0.4 1.3,-0.4 0.6,0 1,0.1 1.4,0.3 0.4,0.2 0.5,0.6 0.5,1 v 2.8 c 0,0.1 0,0.2 0.1,0.2 0,0.1 0.1,0.1 0.2,0.1 0,0 0.1,0 0.1,0 0,0 0.1,0 0.1,0 v 0.6 c -0.1,0 -0.2,0.1 -0.3,0.1 -0.1,0 -0.2,0 -0.3,0 -0.3,0 -0.5,-0.1 -0.6,-0.3 C 96.7,9.9 96.7,9.7 96.7,9.6 96.5,9.8 96.3,10 96,10.2 95.7,10.4 95.3,10.4 95,10.4 94.6,10.4 94.2,10.3 93.9,10 93.6,9.7 93.5,9.4 93.5,9 93.5,8.6 93.6,8.2 93.9,8 94.2,7.8 94.5,7.6 95,7.5 l 1.3,-0.3 z m -1.7,2.2 c 0.2,0.1 0.4,0.2 0.6,0.2 0.3,0 0.6,-0.1 0.8,-0.2 0.5,-0.2 0.7,-0.6 0.7,-1.1 V 7.7 C 96.6,7.8 96.5,7.8 96.3,7.9 96.1,7.9 96,8 95.8,8 l -0.4,0 c -0.3,0 -0.5,0.1 -0.7,0.2 -0.3,0.1 -0.4,0.4 -0.4,0.7 0.1,0.2 0.2,0.4 0.3,0.5 z"
         id="path45"
         inkscape:connector-curvature="0"
         style="fill:#ffffff" /><path
         d="m 101.5,8.7 c 0.2,-0.4 0.6,-0.8 1.2,-1.1 l 0.9,-0.5 c 0.4,-0.2 0.7,-0.4 0.8,-0.6 0.2,-0.3 0.4,-0.5 0.4,-0.9 0,-0.4 -0.1,-0.7 -0.3,-0.9 -0.2,-0.2 -0.5,-0.3 -0.9,-0.3 -0.6,0 -0.9,0.2 -1.2,0.6 -0.1,0.2 -0.2,0.5 -0.2,0.9 h -0.8 c 0,-0.6 0.1,-1 0.3,-1.4 0.4,-0.6 1,-0.9 1.9,-0.9 0.7,0 1.3,0.2 1.6,0.6 0.3,0.4 0.5,0.8 0.5,1.3 0,0.5 -0.2,1 -0.5,1.3 -0.2,0.2 -0.6,0.5 -1.1,0.8 l -0.6,0.3 c -0.3,0.2 -0.5,0.3 -0.7,0.5 -0.3,0.3 -0.5,0.6 -0.6,0.9 h 3.5 v 0.8 h -4.4 c -0.1,-0.5 0,-1 0.2,-1.4 z"
         id="path47"
         inkscape:connector-curvature="0"
         style="fill:#516673" /><path
         d="m 110.3,4.7 c 0.3,0.5 0.4,1.3 0.4,2.2 0,0.9 -0.1,1.6 -0.4,2.2 -0.4,0.8 -1,1.2 -1.9,1.2 -0.8,0 -1.4,-0.3 -1.7,-1 -0.3,-0.6 -0.5,-1.3 -0.5,-2.3 0,-0.7 0.1,-1.4 0.3,-1.9 0.4,-1 1,-1.5 1.9,-1.5 1,0.1 1.6,0.5 1.9,1.1 z m -0.8,4.4 c 0.2,-0.4 0.4,-1.1 0.4,-2.1 0,-0.7 -0.1,-1.3 -0.3,-1.8 -0.2,-0.5 -0.5,-0.7 -1.1,-0.7 -0.5,0 -0.8,0.2 -1.1,0.7 -0.3,0.5 -0.3,1.1 -0.3,2 0,0.7 0.1,1.2 0.2,1.6 0.2,0.6 0.6,0.9 1.1,0.9 0.5,-0.1 0.9,-0.3 1.1,-0.6 z"
         id="path49"
         inkscape:connector-curvature="0"
         style="fill:#516673" /><path
         d="M 112,5.6 V 5 c 0.6,-0.1 1,-0.2 1.2,-0.3 0.2,-0.1 0.4,-0.5 0.5,-1 h 0.6 v 6.4 h -0.9 V 5.6 H 112 z"
         id="path51"
         inkscape:connector-curvature="0"
         style="fill:#516673" /><path
         d="M 119.4,10.2 V 8.6 h -2.8 V 7.8 l 3,-4.1 h 0.7 v 4.2 h 1 v 0.7 h -1 v 1.6 h -0.9 z m 0,-2.3 v -3 l -2.1,2.9 h 2.1 z"
         id="path53"
         inkscape:connector-curvature="0"
         style="fill:#516673" /></g><polygon
       points="171.8,2.4 137.7,2.4 141.2,6.7 137.4,11.7 171.8,11.7 175.5,6.7 "
       id="polygon55"
       style="fill:#516673" /><g
       id="g57"><path
         d="m 145.1,5.6 c 0.2,0.2 0.4,0.5 0.4,0.8 H 145 c 0,-0.2 -0.1,-0.4 -0.3,-0.5 -0.1,-0.1 -0.4,-0.2 -0.6,-0.2 -0.3,0 -0.6,0.1 -0.8,0.3 -0.2,0.2 -0.3,0.6 -0.3,1.1 0,0.4 0.1,0.7 0.3,0.9 0.2,0.2 0.4,0.4 0.8,0.4 0.3,0 0.6,-0.1 0.7,-0.4 0.1,-0.1 0.2,-0.3 0.2,-0.5 h 0.4 c 0,0.3 -0.2,0.6 -0.4,0.9 -0.3,0.3 -0.6,0.4 -1.1,0.4 -0.4,0 -0.7,-0.1 -1,-0.4 -0.3,-0.3 -0.5,-0.8 -0.5,-1.4 0,-0.5 0.1,-0.9 0.4,-1.2 0.3,-0.3 0.7,-0.5 1.1,-0.5 0.7,0 1,0.1 1.2,0.3 z"
         id="path59"
         inkscape:connector-curvature="0"
         style="fill:#ffffff" /><path
         d="m 146.1,5.4 h 0.4 v 3.3 h -0.4 V 5.4 z"
         id="path61"
         inkscape:connector-curvature="0"
         style="fill:#ffffff" /><path
         d="m 147.1,5.4 h 0.4 v 0.5 h -0.4 V 5.4 z m 0,0.9 h 0.4 v 2.4 h -0.4 V 6.3 z"
         id="path63"
         inkscape:connector-curvature="0"
         style="fill:#ffffff" /><path
         d="m 149.7,6.4 c 0.2,0.1 0.3,0.4 0.3,0.7 h -0.4 c 0,-0.1 -0.1,-0.3 -0.2,-0.4 -0.1,-0.1 -0.2,-0.1 -0.4,-0.1 -0.3,0 -0.4,0.1 -0.6,0.4 -0.1,0.2 -0.1,0.4 -0.1,0.6 0,0.2 0.1,0.4 0.2,0.6 0.1,0.2 0.3,0.2 0.5,0.2 0.2,0 0.3,-0.1 0.4,-0.2 0.1,-0.1 0.2,-0.2 0.2,-0.4 h 0.4 c 0,0.3 -0.2,0.6 -0.3,0.7 -0.2,0.1 -0.4,0.2 -0.7,0.2 -0.3,0 -0.6,-0.1 -0.8,-0.3 -0.2,-0.2 -0.3,-0.5 -0.3,-0.9 0,-0.4 0.1,-0.8 0.3,-1 0.2,-0.2 0.5,-0.4 0.8,-0.4 0.3,0.1 0.5,0.2 0.7,0.3 z"
         id="path65"
         inkscape:connector-curvature="0"
         style="fill:#ffffff" /><path
         d="m 151.9,6.4 c 0.2,0.1 0.3,0.2 0.4,0.3 0.1,0.1 0.1,0.3 0.2,0.4 0,0.1 0,0.3 0,0.5 h -1.8 c 0,0.2 0.1,0.4 0.2,0.6 0.1,0.1 0.3,0.2 0.5,0.2 0.2,0 0.4,-0.1 0.5,-0.2 C 152,8.1 152,8 152,7.9 h 0.4 c 0,0.1 0,0.2 -0.1,0.3 -0.1,0.1 -0.1,0.2 -0.2,0.3 -0.1,0.1 -0.3,0.2 -0.5,0.2 -0.1,0 -0.2,0 -0.3,0 -0.3,0 -0.6,-0.1 -0.8,-0.3 -0.2,-0.2 -0.3,-0.5 -0.3,-0.9 0,-0.4 0.1,-0.7 0.3,-0.9 0.2,-0.2 0.5,-0.4 0.8,-0.4 0.3,0 0.5,0.1 0.6,0.2 z m 0.2,0.9 C 152.1,7.1 152,7 152,6.9 c -0.1,-0.2 -0.3,-0.3 -0.6,-0.3 -0.2,0 -0.3,0.1 -0.5,0.2 -0.1,0.1 -0.2,0.3 -0.2,0.5 h 1.4 z"
         id="path67"
         inkscape:connector-curvature="0"
         style="fill:#ffffff" /><path
         d="m 154.3,7.2 c 0.1,0 0.2,-0.1 0.2,-0.1 0,0 0,-0.1 0,-0.2 0,-0.1 0,-0.2 -0.1,-0.3 -0.1,-0.1 -0.2,-0.1 -0.4,-0.1 -0.2,0 -0.4,0.1 -0.5,0.2 -0.1,0.1 -0.1,0.2 -0.1,0.3 H 153 c 0,-0.3 0.1,-0.5 0.3,-0.6 0.2,-0.1 0.4,-0.2 0.6,-0.2 0.3,0 0.5,0.1 0.7,0.2 0.2,0.1 0.3,0.3 0.3,0.5 v 1.4 c 0,0 0,0.1 0,0.1 0,0 0.1,0 0.1,0 0,0 0,0 0.1,0 0.1,0 0,0 0.1,0 v 0.3 c -0.1,0 -0.1,0 -0.1,0 0,0 -0.1,0 -0.1,0 -0.1,0 -0.2,0 -0.3,-0.1 0,-0.1 -0.1,-0.1 -0.1,-0.2 -0.1,0.1 -0.2,0.2 -0.4,0.3 -0.2,0.1 -0.3,0.1 -0.5,0.1 -0.2,0 -0.4,-0.1 -0.6,-0.2 -0.1,-0.1 -0.2,-0.3 -0.2,-0.5 0,-0.2 0.1,-0.4 0.2,-0.5 0.1,-0.1 0.3,-0.2 0.6,-0.2 l 0.6,-0.2 z m -0.9,1.1 c 0.1,0.1 0.2,0.1 0.3,0.1 0.1,0 0.3,0 0.4,-0.1 0.2,-0.1 0.3,-0.3 0.3,-0.5 V 7.5 c 0,0 -0.1,0.1 -0.2,0.1 -0.1,0 -0.2,0 -0.2,0 l -0.2,0 c -0.1,0 -0.3,0.1 -0.3,0.1 -0.1,0.1 -0.2,0.2 -0.2,0.3 0,0.2 0,0.3 0.1,0.3 z m 1.1,-3 -0.6,0.7 h -0.3 L 154,5.3 h 0.5 z"
         id="path69"
         inkscape:connector-curvature="0"
         style="fill:#ffffff" /><path
         d="m 155.6,5.4 h 0.4 v 0.5 h -0.4 V 5.4 z m 0,0.9 h 0.4 v 2.4 h -0.4 V 6.3 z"
         id="path71"
         inkscape:connector-curvature="0"
         style="fill:#ffffff" /><path
         d="m 156.6,5.4 h 0.4 v 3.3 h -0.4 V 5.4 z"
         id="path73"
         inkscape:connector-curvature="0"
         style="fill:#ffffff" /><path
         d="m 159.7,5.4 h 0.5 l 1.2,3.3 h -0.5 l -0.3,-1 h -1.3 l -0.4,1 h -0.5 l 1.3,-3.3 z m 0.7,1.9 -0.5,-1.5 -0.5,1.5 h 1 z"
         id="path75"
         inkscape:connector-curvature="0"
         style="fill:#ffffff" /><path
         d="m 161.7,6.3 h 0.4 v 0.3 c 0.1,-0.1 0.2,-0.2 0.4,-0.3 0.1,-0.1 0.3,-0.1 0.4,-0.1 0.3,0 0.6,0.1 0.7,0.4 0.1,0.1 0.1,0.3 0.1,0.6 v 1.6 h -0.4 V 7.2 c 0,-0.1 0,-0.3 -0.1,-0.4 -0.1,-0.2 -0.2,-0.2 -0.4,-0.2 -0.1,0 -0.2,0 -0.2,0 -0.1,0 -0.2,0.1 -0.3,0.2 -0.1,0.1 -0.1,0.2 -0.1,0.2 0,0.1 0,0.2 0,0.4 v 1.3 h -0.4 V 6.3 z"
         id="path77"
         inkscape:connector-curvature="0"
         style="fill:#ffffff" /><path
         d="m 164.6,7.9 c 0,0.1 0,0.2 0.1,0.3 0.1,0.1 0.3,0.2 0.5,0.2 0.2,0 0.3,0 0.4,-0.1 0.1,-0.1 0.2,-0.2 0.2,-0.3 0,-0.1 0,-0.2 -0.1,-0.2 -0.1,0 -0.2,-0.1 -0.4,-0.1 L 165,7.6 c -0.2,-0.1 -0.4,-0.1 -0.5,-0.2 -0.2,-0.1 -0.3,-0.3 -0.3,-0.5 0,-0.2 0.1,-0.4 0.3,-0.6 0.2,-0.1 0.4,-0.2 0.7,-0.2 0.4,0 0.6,0.1 0.8,0.3 0.1,0.1 0.2,0.3 0.1,0.4 h -0.4 c 0,-0.1 0,-0.2 -0.1,-0.2 -0.1,-0.1 -0.3,-0.2 -0.5,-0.2 -0.2,0 -0.3,0 -0.4,0.1 -0.1,0.1 -0.1,0.1 -0.1,0.2 0,0.1 0.1,0.2 0.2,0.3 0.1,0 0.2,0.1 0.3,0.1 l 0.3,0.1 c 0.3,0.1 0.5,0.1 0.6,0.2 0.2,0.1 0.2,0.3 0.2,0.5 0,0.2 -0.1,0.4 -0.2,0.6 -0.2,0.2 -0.4,0.2 -0.8,0.2 -0.4,0 -0.6,-0.1 -0.8,-0.2 -0.2,-0.2 -0.2,-0.4 -0.2,-0.6 h 0.4 z"
         id="path79"
         inkscape:connector-curvature="0"
         style="fill:#ffffff" /><path
         d="m 168.1,6.4 c 0.2,0.1 0.3,0.2 0.4,0.3 0.1,0.1 0.1,0.3 0.2,0.4 0,0.1 0,0.3 0,0.5 h -1.8 c 0,0.2 0.1,0.4 0.2,0.6 0.1,0.2 0.3,0.2 0.5,0.2 0.2,0 0.4,-0.1 0.5,-0.2 0.1,-0.1 0.1,-0.2 0.1,-0.3 h 0.4 c 0,0.1 0,0.2 -0.1,0.3 -0.1,0.1 -0.1,0.2 -0.2,0.3 -0.1,0.1 -0.3,0.2 -0.5,0.2 -0.1,0 -0.2,0 -0.3,0 -0.3,0 -0.6,-0.1 -0.8,-0.3 -0.2,-0.2 -0.3,-0.5 -0.3,-0.9 0,-0.4 0.1,-0.7 0.3,-0.9 0.2,-0.2 0.5,-0.4 0.8,-0.4 0.3,0 0.5,0.1 0.6,0.2 z m 0.2,0.9 c 0,-0.2 -0.1,-0.3 -0.1,-0.4 -0.1,-0.2 -0.3,-0.3 -0.6,-0.3 -0.2,0 -0.3,0.1 -0.5,0.2 -0.1,0.1 -0.2,0.3 -0.2,0.5 h 1.4 z"
         id="path81"
         inkscape:connector-curvature="0"
         style="fill:#ffffff" /><path
         d="m 171,6.5 c 0.2,0.2 0.3,0.5 0.3,0.9 0,0.4 -0.1,0.7 -0.3,1 -0.2,0.3 -0.5,0.4 -0.9,0.4 -0.3,0 -0.6,-0.1 -0.8,-0.3 C 169.1,8.3 169,8 169,7.6 c 0,-0.4 0.1,-0.7 0.3,-1 0.2,-0.2 0.5,-0.4 0.8,-0.4 0.4,0 0.7,0.1 0.9,0.3 z m -0.3,1.6 c 0.1,-0.2 0.1,-0.4 0.1,-0.7 0,-0.2 0,-0.4 -0.1,-0.6 -0.1,-0.2 -0.3,-0.3 -0.6,-0.3 -0.2,0 -0.4,0.1 -0.5,0.3 -0.1,0.2 -0.2,0.4 -0.2,0.7 0,0.3 0.1,0.5 0.2,0.6 0.1,0.2 0.3,0.3 0.5,0.3 0.3,0 0.5,-0.1 0.6,-0.3 z"
         id="path83"
         inkscape:connector-curvature="0"
         style="fill:#ffffff" /></g></g></svg>