<?xml version="1.0" encoding="UTF-8" standalone="no"?>
<!-- Created with Inkscape (http://www.inkscape.org/) -->

<svg
   xmlns:dc="http://purl.org/dc/elements/1.1/"
   xmlns:cc="http://creativecommons.org/ns#"
   xmlns:rdf="http://www.w3.org/1999/02/22-rdf-syntax-ns#"
   xmlns:svg="http://www.w3.org/2000/svg"
   xmlns="http://www.w3.org/2000/svg"
   xmlns:sodipodi="http://sodipodi.sourceforge.net/DTD/sodipodi-0.dtd"
   xmlns:inkscape="http://www.inkscape.org/namespaces/inkscape"
   width="110"
   height="200"
   id="svg2"
   version="1.1"
   inkscape:version="0.48.4 r9939"
   sodipodi:docname="New document 1">
  <defs
     id="defs4" />
  <sodipodi:namedview
     id="base"
     pagecolor="#ffffff"
     bordercolor="#666666"
     borderopacity="1.0"
     inkscape:pageopacity="0.0"
     inkscape:pageshadow="2"
     inkscape:zoom="0.5"
     inkscape:cx="326.82977"
     inkscape:cy="540.78488"
     inkscape:document-units="px"
     inkscape:current-layer="layer1"
     showgrid="false"
     inkscape:window-width="1366"
     inkscape:window-height="747"
     inkscape:window-x="0"
     inkscape:window-y="0"
     inkscape:window-maximized="1" />
  <metadata
     id="metadata7">
    <rdf:RDF>
      <cc:Work
         rdf:about="">
        <dc:format>image/svg+xml</dc:format>
        <dc:type
           rdf:resource="http://purl.org/dc/dcmitype/StillImage" />
        <dc:title></dc:title>
      </cc:Work>
    </rdf:RDF>
  </metadata>
  <g
     inkscape:label="Layer 1"
     inkscape:groupmode="layer"
     id="layer1"
     transform="translate(0,-852.36218)">
    <g
       style="font-size:40px;font-style:normal;font-weight:normal;line-height:125%;letter-spacing:0px;word-spacing:0px;fill:#000000;fill-opacity:1;stroke:none;font-family:Sans"
       id="text2985"
       transform="matrix(1.8927911,0,0,1.8927911,-785.21256,836.08226)">
      <path
         d="m 472.65625,20.319763 c -6.11986,3.515908 -11.06777,6.575801 -14.84375,9.179688 -3.7761,2.474233 -7.61724,5.794542 -11.52344,9.960937 -3.64587,3.776305 -6.44535,7.877864 -8.39844,12.304688 -1.95316,4.297125 -3.32034,9.830974 -4.10156,16.601562 l 9.375,0 c 8.07287,2.38e-4 14.38797,2.018466 18.94531,6.054688 4.68744,3.906478 7.03119,9.700743 7.03125,17.382812 -6e-5,5.46896 -2.0834,10.612182 -6.25,15.429692 -4.03651,4.68769 -9.63546,7.03144 -16.79687,7.03125 -11.19795,1.9e-4 -19.20576,-3.64564 -24.02344,-10.9375 -4.81772,-7.421669 -7.22657,-17.12218 -7.22656,-29.101567 -10e-6,-8.463301 1.8229,-16.145585 5.46875,-23.046875 3.64581,-7.030987 8.07289,-13.280981 13.28125,-18.75 5.3385,-5.598678 11.00256,-10.351278 16.99219,-14.257812 5.98952,-3.905958 11.00254,-7.096059 15.03906,-9.5703128 l 7.03125,11.7187498"
         style="font-size:400px;font-variant:normal;font-stretch:normal;font-family:Georgia;-inkscape-font-specification:Georgia"
         id="path2990"
         inkscape:connector-curvature="0" />
    </g>
    <text
       xml:space="preserve"
       style="font-size:75.71164703px;font-style:normal;font-weight:normal;line-height:125%;letter-spacing:0px;word-spacing:0px;fill:#000000;fill-opacity:1;stroke:none;font-family:Sans"
       x="642.49292"
       y="678.31415"
       id="text2992"
       sodipodi:linespacing="125%"><tspan
         sodipodi:role="line"
         id="tspan2994"
         x="642.49292"
         y="678.31415"></tspan></text>
  </g>
</svg>
