<?xml version="1.0" encoding="utf-8"?>
<!-- Generator: Adobe Illustrator 18.1.1, SVG Export Plug-In . SVG Version: 6.00 Build 0)  -->
<svg version="1.1"
	 id="QuotationOpen" xmlns:dc="http://purl.org/dc/elements/1.1/" xmlns:cc="http://creativecommons.org/ns#" xmlns:svg="http://www.w3.org/2000/svg" xmlns:rdf="http://www.w3.org/1999/02/22-rdf-syntax-ns#" xmlns:sodipodi="http://sodipodi.sourceforge.net/DTD/sodipodi-0.dtd" xmlns:inkscape="http://www.inkscape.org/namespaces/inkscape" inkscape:version="0.48.4 r9939" sodipodi:docname="New document 1"
	 xmlns="http://www.w3.org/2000/svg" xmlns:xlink="http://www.w3.org/1999/xlink" x="0px" y="0px" viewBox="-444 1401 110 200"
	 enable-background="new -444 1401 110 200" xml:space="preserve">
<path id="Quotation" inkscape:connector-curvature="0" d="M-334.6,1423.2c-11.6,6.7-20.9,12.4-28.1,17.4c-7.1,4.7-14.4,11-21.8,18.9
	c-6.9,7.1-12.2,14.9-15.9,23.3c-3.7,8.1-6.3,18.6-7.8,31.4h17.7c15.3,0,27.2,3.8,35.9,11.5c8.9,7.4,13.3,18.4,13.3,32.9
	c0,10.4-3.9,20.1-11.8,29.2c-7.6,8.9-18.2,13.3-31.8,13.3c-21.2,0-36.4-6.9-45.5-20.7c-9.1-14-13.7-32.4-13.7-55.1
	c0-16,3.5-30.6,10.4-43.6c6.9-13.3,15.3-25.1,25.1-35.5c10.1-10.6,20.8-19.6,32.2-27c11.3-7.4,20.8-13.4,28.5-18.1L-334.6,1423.2"/>
</svg>
