<?xml version="1.0" encoding="utf-8"?>
<!-- Generator: Adobe Illustrator 15.0.0, SVG Export Plug-In . SVG Version: 6.00 Build 0)  -->
<!DOCTYPE svg PUBLIC "-//W3C//DTD SVG 1.1//EN" "http://www.w3.org/Graphics/SVG/1.1/DTD/svg11.dtd">
<svg version="1.1" id="Layer_1" xmlns="http://www.w3.org/2000/svg" xmlns:xlink="http://www.w3.org/1999/xlink" x="0px" y="0px"
	 width="390.03px" height="74.97px" viewBox="0 0 390.03 74.97" enable-background="new 0 0 390.03 74.97" xml:space="preserve">
<g>
	<path fill="#1A171B" d="M175.097,6.17c0,1.833-0.602,3.431-1.808,4.797s-2.692,2.049-4.46,2.049c-1.639,0-3.061-0.65-4.267-1.953
		c-1.205-1.301-1.807-2.788-1.807-4.459c0-1.767,0.603-3.311,1.807-4.627C165.768,0.659,167.19,0,168.829,0
		c1.833,0,3.334,0.619,4.508,1.856C174.51,3.093,175.097,4.531,175.097,6.17z"/>
	<path fill="#1A171B" d="M241.492,6.17c0,1.833-0.602,3.431-1.807,4.797s-2.693,2.049-4.459,2.049c-1.641,0-3.061-0.65-4.266-1.953
		c-1.207-1.301-1.809-2.788-1.809-4.459c0-1.767,0.602-3.311,1.809-4.627C232.166,0.659,233.586,0,235.227,0
		c1.83,0,3.332,0.619,4.506,1.856S241.492,4.531,241.492,6.17z"/>
	<path fill="#1A171B" d="M109.124,72.17L93.603,73.23l-0.726-0.674v-6.027h-0.288c-0.771,0.805-1.638,1.664-2.6,2.58
		c-0.962,0.914-2.069,1.742-3.321,2.482c-1.444,0.869-2.84,1.525-4.188,1.979c-1.348,0.447-3.257,0.674-5.727,0.674
		c-4.204,0-7.404-1.373-9.603-4.117c-2.198-2.746-3.296-6.734-3.296-11.969V35.427c0-1.156-0.219-2.126-0.656-2.913
		c-0.436-0.786-1.076-1.468-1.916-2.047c-0.583-0.385-1.311-0.667-2.185-0.842c-0.873-0.177-1.794-0.297-2.765-0.362v-3.182
		l15.861-1.157l0.723,0.675v33.024c0,3.439,0.771,6.027,2.314,7.762c1.542,1.736,3.391,2.604,5.544,2.604
		c1.767,0,3.342-0.271,4.725-0.818c1.381-0.543,2.539-1.188,3.471-1.926c0.868-0.674,1.631-1.389,2.29-2.143
		c0.659-0.754,1.166-1.453,1.519-2.096V35.089c0-1.058-0.225-1.998-0.675-2.816c-0.45-0.818-1.076-1.517-1.88-2.095
		c-0.579-0.385-1.438-0.616-2.579-0.698c-1.142-0.08-2.419-0.151-3.833-0.217v-3.182l17.305-1.157l0.725,0.675v37.708
		c0,1.092,0.225,2.021,0.676,2.793c0.449,0.77,1.077,1.428,1.879,1.973c0.58,0.355,1.27,0.588,2.074,0.699
		c0.803,0.113,1.687,0.184,2.651,0.217V72.17z"/>
	<path fill="#1A171B" d="M181.124,73.037h-22.949v-3.182c0.739-0.062,1.503-0.127,2.29-0.191s1.471-0.193,2.05-0.385
		c0.898-0.289,1.566-0.795,2-1.518c0.434-0.721,0.651-1.66,0.651-2.816V35.619c0-1.027-0.234-1.966-0.699-2.816
		c-0.467-0.85-1.117-1.564-1.952-2.142c-0.611-0.386-1.495-0.715-2.652-0.987c-1.157-0.273-2.218-0.441-3.182-0.506v-3.182
		l16.777-1.061l0.675,0.675v38.76c0,1.125,0.216,2.059,0.647,2.797c0.431,0.74,1.108,1.285,2.035,1.641
		c0.702,0.289,1.388,0.521,2.059,0.699c0.67,0.176,1.42,0.297,2.25,0.359V73.037z"/>
	<path fill="#1A171B" d="M152.326,69.455c-0.671-0.176-1.356-0.41-2.059-0.701c-0.926-0.352-1.604-0.898-2.035-1.639
		c-0.431-0.738-0.647-1.67-0.647-2.795v-3.529h-0.001c0.018-3.107,0.062-6.025,0.136-8.75c0.097-3.551,0.145-7.625,0.145-12.221
		c0-3.213-0.427-5.839-1.278-7.881c-0.852-2.041-2.097-3.655-3.736-4.846c-1.639-1.22-3.463-2.016-5.472-2.385
		c-2.009-0.371-4.363-0.555-7.062-0.555c-1.961,0-3.97,0.312-6.027,0.939c-2.057,0.627-3.809,1.39-5.255,2.291
		c-1.672,1.06-3.03,2.266-4.073,3.615c-1.045,1.351-1.567,2.765-1.567,4.242c0,1.415,0.377,2.691,1.133,3.833
		c0.754,1.139,1.936,1.711,3.543,1.711c1.799,0,3.206-0.467,4.218-1.398s1.518-1.959,1.518-3.084c0-1.062-0.152-2.218-0.457-3.471
		c-0.306-1.254-0.458-2.202-0.458-2.845c0.514-0.546,1.405-1.068,2.676-1.566c1.269-0.498,2.643-0.748,4.123-0.748
		c2.152,0,3.815,0.443,4.989,1.326c1.173,0.884,2.081,1.921,2.724,3.11c0.579,1.061,0.957,2.185,1.133,3.374
		c0.176,1.189,0.265,1.994,0.265,2.41v4.774c-1.542,0.834-4.524,1.994-8.943,3.471c-4.42,1.479-7.352,2.49-8.799,3.037
		c-1.157,0.451-2.394,1.055-3.712,1.809s-2.378,1.615-3.182,2.578c-1.029,1.158-1.801,2.459-2.314,3.906
		c-0.514,1.443-0.771,3.084-0.771,4.916c0,3.537,1.148,6.396,3.447,8.582c2.297,2.186,5.23,3.279,8.799,3.279
		c3.375,0,6.258-0.611,8.653-1.834c2.394-1.219,4.636-2.988,6.726-5.301h0.289c0.417,2.248,1.374,3.961,2.868,5.133
		c1.495,1.174,3.496,1.76,6.002,1.76c1.446,0,5.201-0.457,6.712-1.004v-3.182C153.747,69.752,152.996,69.631,152.326,69.455z
		 M134.222,67.32c-1.735,1.113-3.745,1.668-6.026,1.668c-2.154,0-3.929-0.627-5.328-1.885c-1.398-1.256-2.097-3.219-2.097-5.895
		c0-2.061,0.466-3.84,1.398-5.338c0.933-1.498,2.202-2.793,3.809-3.891c1.768-1.158,3.68-2.125,5.737-2.898
		c2.056-0.773,4.451-1.562,7.184-2.367l-0.289,16.67C137.419,64.898,135.957,66.211,134.222,67.32z"/>
	<path fill="#1A171B" d="M221.039,31.625c0,1.639-0.402,3.093-1.205,4.362c-0.805,1.27-2.041,1.904-3.713,1.904
		c-1.799,0-3.176-0.465-4.119-1.398c-0.951-0.932-1.426-1.958-1.426-3.084c0-0.707,0.057-1.35,0.168-1.928
		c0.113-0.579,0.219-1.157,0.314-1.735c-1.512,0-3.277,0.61-5.303,1.831c-2.025,1.222-3.746,2.958-5.158,5.206v27.672
		c0,1.125,0.215,2.043,0.648,2.75c0.436,0.707,1.117,1.236,2.049,1.592c0.805,0.32,1.842,0.561,3.111,0.723
		c1.27,0.16,2.371,0.273,3.303,0.336v3.182h-25.074v-3.182c0.739-0.062,1.503-0.127,2.29-0.191s1.471-0.193,2.05-0.385
		c0.899-0.289,1.566-0.795,2-1.518c0.434-0.721,0.65-1.66,0.65-2.816V35.619c0-0.995-0.233-1.974-0.698-2.936
		c-0.467-0.963-1.118-1.734-1.953-2.312c-0.611-0.385-1.334-0.666-2.17-0.843c-0.835-0.175-1.735-0.296-2.699-0.361v-3.182
		l15.815-1.061l0.678,0.675v6.702h0.238c1.996-2.604,4.213-4.581,6.654-5.93c2.443-1.35,4.678-2.025,6.701-2.025
		c2.025,0,3.674,0.66,4.943,1.978C220.402,27.641,221.039,29.407,221.039,31.625z"/>
	<path fill="#1A171B" d="M240.529,64.359c0,1.125,0.215,2.059,0.645,2.797c0.434,0.74,1.111,1.285,2.037,1.641
		c0.701,0.289,1.389,0.521,2.057,0.699c0.672,0.176,1.422,0.297,2.252,0.359v3.182h-22.947v-3.182
		c0.738-0.062,1.502-0.127,2.289-0.191s1.471-0.193,2.049-0.385c0.9-0.289,1.568-0.795,2-1.518c0.436-0.721,0.652-1.66,0.652-2.816
		V35.619c0-1.027-0.234-1.966-0.699-2.816c-0.467-0.85-1.117-1.564-1.953-2.142c-0.611-0.386-1.494-0.715-2.65-0.987
		c-1.158-0.273-2.219-0.441-3.184-0.506v-3.182l16.779-1.061l0.674,0.675V64.359z"/>
	<path fill="#1A171B" d="M282.418,49.752c1.316,1.158,2.33,2.492,3.035,4c0.707,1.514,1.061,3.361,1.061,5.545
		c0,4.404-1.646,8.006-4.939,10.801c-3.295,2.797-7.562,4.193-12.801,4.193c-2.764,0-5.312-0.498-7.643-1.494
		c-2.328-0.996-3.992-1.91-4.988-2.748l-0.965,3.135h-3.615l-0.482-16.537h3.328c0.256,1.258,0.801,2.727,1.639,4.404
		c0.836,1.676,1.846,3.191,3.037,4.547c1.252,1.418,2.756,2.613,4.506,3.578c1.752,0.969,3.721,1.451,5.908,1.451
		c3.084,0,5.463-0.701,7.133-2.109c1.672-1.406,2.508-3.418,2.508-6.037c0-1.35-0.264-2.516-0.795-3.496s-1.311-1.84-2.338-2.578
		c-1.061-0.738-2.365-1.406-3.906-2.002c-1.543-0.594-3.262-1.182-5.158-1.76c-1.51-0.449-3.189-1.068-5.039-1.855
		c-1.848-0.787-3.428-1.713-4.748-2.771c-1.416-1.127-2.57-2.508-3.471-4.148c-0.9-1.639-1.35-3.566-1.35-5.783
		c0-3.889,1.445-7.184,4.34-9.883c2.893-2.701,6.764-4.049,11.617-4.049c1.863,0,3.768,0.24,5.713,0.722s3.527,1.061,4.748,1.735
		l1.109-2.506h3.473l0.723,15.282h-3.326c-0.676-3.421-2.131-6.204-4.363-8.35c-2.236-2.146-4.959-3.219-8.172-3.219
		c-2.637,0-4.709,0.664-6.221,1.992c-1.51,1.327-2.266,2.929-2.266,4.806c0,1.445,0.25,2.65,0.75,3.613
		c0.496,0.965,1.242,1.785,2.24,2.459c0.963,0.645,2.178,1.246,3.639,1.809c1.463,0.562,3.271,1.197,5.424,1.904
		c2.123,0.676,4.123,1.463,6.004,2.363C279.645,47.662,281.195,48.66,282.418,49.752z"/>
	<path fill="#1A171B" d="M313.312,74.291c-6.879,0-12.262-2.281-16.152-6.846c-3.887-4.562-5.832-10.686-5.832-18.369
		c0-3.342,0.521-6.467,1.568-9.375c1.043-2.91,2.561-5.552,4.555-7.931c1.896-2.281,4.275-4.122,7.137-5.52
		c2.859-1.398,5.979-2.097,9.354-2.097c4.658,0,8.449,1.116,11.375,3.35c2.924,2.235,4.387,5.279,4.387,9.134
		c0,1.608-0.385,3.032-1.156,4.266c-0.77,1.238-2.043,1.857-3.809,1.857c-1.896,0-3.367-0.48-4.412-1.441
		c-1.043-0.961-1.566-2.035-1.566-3.221c0-1.442,0.193-2.922,0.578-4.443c0.387-1.522,0.611-2.636,0.678-3.341
		c-0.58-0.994-1.438-1.656-2.576-1.994c-1.137-0.336-2.363-0.504-3.678-0.504c-1.539,0-3.004,0.33-4.4,0.987
		c-1.395,0.66-2.748,1.874-4.064,3.642c-1.186,1.605-2.146,3.774-2.885,6.507c-0.736,2.732-1.104,5.994-1.104,9.787
		c0,5.979,1.322,10.855,3.971,14.631c2.648,3.777,6.121,5.666,10.422,5.666c3.111,0,5.721-0.76,7.822-2.277
		c2.1-1.52,4.049-3.797,5.848-6.836l3.08,2.027c-2.119,3.791-4.916,6.795-8.387,9.014S317.008,74.291,313.312,74.291z"/>
	<g>
		<path fill="#506572" d="M380.875,50.605c-0.141-0.947-0.367-1.74-0.682-2.377c-0.34-0.682-0.809-1.234-1.402-1.666
			c-0.594-0.428-1.357-0.643-2.295-0.643c-1.559,0-2.854,0.646-3.887,1.941c-1.033,1.297-1.592,3.098-1.68,5.408h10.158
			C381.088,52.441,381.016,51.551,380.875,50.605z"/>
		<path fill="#506572" d="M384.012,25.489h-37.455c-3.32,0-6.012,2.841-6.012,6.345v36.791c0,3.504,2.691,6.344,6.012,6.344h37.455
			c3.322,0,6.016-2.84,6.016-6.344V31.834C390.027,28.33,387.334,25.489,384.012,25.489z M357.223,33.981
			c0.555-0.609,1.213-0.914,1.971-0.914c0.846,0,1.539,0.286,2.082,0.858c0.541,0.571,0.812,1.234,0.812,1.992
			c0,0.848-0.277,1.586-0.834,2.217c-0.557,0.631-1.244,0.947-2.061,0.947c-0.758,0-1.416-0.301-1.971-0.904
			c-0.559-0.6-0.836-1.288-0.836-2.059C356.387,35.301,356.664,34.589,357.223,33.981z M349.764,66.379
			c-0.604,0.586-1.32,0.881-2.15,0.881c-0.832,0-1.549-0.295-2.148-0.881c-0.602-0.586-0.904-1.297-0.904-2.127
			s0.303-1.547,0.904-2.15c0.6-0.602,1.316-0.9,2.148-0.9c0.83,0,1.547,0.299,2.15,0.9c0.602,0.604,0.902,1.32,0.902,2.15
			S350.365,65.793,349.764,66.379z M364.871,66.812H354.27v-1.469c0.344-0.031,0.695-0.061,1.059-0.09
			c0.365-0.029,0.68-0.088,0.947-0.178c0.416-0.133,0.725-0.367,0.926-0.701c0.201-0.332,0.299-0.768,0.299-1.301V49.523
			c0-0.475-0.107-0.908-0.324-1.301c-0.215-0.393-0.516-0.723-0.9-0.99c-0.283-0.178-0.691-0.33-1.225-0.455
			c-0.535-0.127-1.023-0.203-1.471-0.234v-1.471l7.75-0.49l0.312,0.312v17.908c0,0.521,0.1,0.951,0.301,1.293
			c0.197,0.342,0.512,0.596,0.939,0.758c0.324,0.133,0.641,0.242,0.951,0.324c0.309,0.08,0.654,0.135,1.037,0.166V66.812z
			 M382.311,65.834c-1.545,1.039-3.318,1.559-5.322,1.559c-1.768,0-3.318-0.312-4.646-0.936c-1.326-0.623-2.424-1.471-3.285-2.539
			c-0.859-1.068-1.502-2.316-1.926-3.742s-0.635-2.934-0.635-4.521c0-1.426,0.225-2.826,0.678-4.199s1.117-2.609,1.994-3.709
			c0.85-1.055,1.898-1.904,3.152-2.551c1.256-0.646,2.662-0.969,4.223-0.969c1.604,0,2.977,0.252,4.121,0.758
			c1.143,0.504,2.07,1.195,2.783,2.072c0.684,0.83,1.189,1.811,1.527,2.938c0.332,1.131,0.498,2.355,0.498,3.678v1.471H370.93
			c0,1.443,0.137,2.752,0.41,3.928c0.275,1.176,0.709,2.211,1.303,3.104c0.58,0.863,1.338,1.545,2.273,2.043s2.049,0.748,3.34,0.748
			c1.322,0,2.463-0.311,3.422-0.93c0.957-0.619,1.881-1.734,2.771-3.348l1.561,0.959C385.088,63.398,383.855,64.793,382.311,65.834z
			"/>
	</g>
	<path fill="#1A171B" d="M0,4.628v0.927v14.164h3.375c0.291-0.809,0.803-1.833,1.543-3.071c0.739-1.237,1.591-2.409,2.555-3.514
		c0.965-1.105,2.017-2.09,3.158-2.961c1.14-0.87,2.242-1.355,3.302-1.453c1.35-0.121,2.764-0.203,4.243-0.24
		c1.478-0.036,2.716-0.054,3.712-0.054h2.796v55.116c0,1.318-0.25,2.371-0.748,3.158c-0.498,0.787-1.277,1.391-2.338,1.807
		c-0.707,0.291-1.985,0.531-3.833,0.725c-1.848,0.191-3.222,0.32-4.122,0.385v3.422h32.301v-3.422
		c-1.029-0.031-2.467-0.24-4.315-0.627c-1.848-0.385-3.061-0.689-3.64-0.916c-1.125-0.48-1.912-1.162-2.362-2.049
		c-0.45-0.883-0.675-1.855-0.675-2.916V8.425h2.803c1.288,0,2.69,0.025,4.203,0.074c1.515,0.048,2.771,0.123,3.77,0.22
		c1.063,0.123,2.166,0.607,3.31,1.453c1.143,0.846,2.198,1.833,3.165,2.961c0.935,1.079,1.78,2.226,2.537,3.44
		c0.757,1.214,1.281,2.262,1.571,3.145h3.327V5.556V4.628H0z"/>
</g>
</svg>
