<?xml version="1.0" encoding="utf-8"?>
<!-- Generator: Adobe Illustrator 19.1.0, SVG Export Plug-In . SVG Version: 6.00 Build 0)  -->
<svg version="1.1" id="Layer_1" xmlns="http://www.w3.org/2000/svg" xmlns:xlink="http://www.w3.org/1999/xlink" x="0px" y="0px"
	 width="550.4px" height="67.1px" viewBox="-1224 717.9 550.4 67.1" style="enable-background:new -1224 717.9 550.4 67.1;"
	 xml:space="preserve">
<style type="text/css">
	.st0{fill:#FFFFFF;}
</style>
<g>
	<g>
		<path class="st0" d="M-1104.2,760.6c0,2.3,0.1,3.9,0.6,4.5c0.3,0.6,1.1,0.9,2.5,0.9l2.9,0.2v1.8c-3.2-0.1-6-0.2-8.8-0.2
			c-3,0-5.8,0.1-9,0.2v-1.8l2.9-0.2c1.5-0.1,2.2-0.3,2.6-0.9c0.4-0.7,0.6-2.2,0.6-4.5v-27.1c0-2.3-0.1-3.9-0.6-4.5
			c-0.4-0.6-1.1-0.9-2.6-0.9l-2.9-0.3V726c1.7,0,3.4,0.1,5.1,0.1c1.7,0,3.4,0.1,5.2,0.1c4.1,0,9.6-0.2,13.1-0.2
			c2.7,0,5.4,0.1,7.8,0.2c-0.7,2.7-1,6.1-1,9.2h-2.1v-3.9c0-0.8,0-1.5-0.5-1.6c-3.2-1.2-8-1.3-10.7-1.3c-1.6,0-3.4,0.1-5.1,0.5v16.2
			c1.9,0.1,4.1,0.2,7,0.2c3.7,0,5.8-0.3,6.4-0.7c0.3-0.2,0.4-0.8,0.5-1.6l0.3-3.1h1.8c0,2.5-0.2,4.8-0.2,7s0.1,4.5,0.2,6.7h-1.8
			l-0.3-3.6c0-0.8-0.2-1.3-0.5-1.5c-0.7-0.5-2.7-0.7-6.4-0.7c-2.9,0-5.2,0-7,0.2C-1104.2,748.2-1104.2,760.6-1104.2,760.6z"/>
		<path class="st0" d="M-1068.8,769.1c-7.4,0-12.9-6-12.9-14.2c0-9.1,5.7-15.4,15.4-15.4c7.8,0,13.7,6,13.7,13.8
			c0,9.3-6.6,15.8-15.8,15.8H-1068.8z M-1076.1,752.4c0,6.4,2.3,14.8,10.1,14.8c5.5,0,7.9-5.5,7.9-11.1c0-7.8-3.7-14.5-9.5-14.5
			C-1074.1,741.5-1076.1,746.7-1076.1,752.4z"/>
		<path class="st0" d="M-1044.3,748.1c0-1.9-0.1-3.3-0.4-3.8c-0.4-0.5-0.9-0.7-2.2-0.7h-2.2v-1.7c3.6-0.4,7.2-1.5,9.5-2.5l0.5,0.2
			v6.3h0.1l3.3-3.9c1.4-1.7,3.5-2.5,5.1-2.5c1,0,2.3,0.3,2.8,0.7l-0.5,7.3h-1.3c-0.7-1.4-1.9-2.8-4.1-2.8c-2.6,0-5.3,2.8-5.3,6.7
			v10.4c0,1.6,0.1,2.8,0.3,3.5c0.2,0.5,1.1,0.8,2.5,0.8l3.2,0.2v1.8c-3.2-0.1-5.6-0.2-8.5-0.2c-3,0-5.4,0.1-7.6,0.2v-1.8l2.8-0.2
			c1-0.1,1.7-0.3,1.9-0.8c0.2-0.7,0.3-1.9,0.3-3.5v-13.7H-1044.3z"/>
		<path class="st0" d="M-1007.1,750.5v-0.2c0-4.6-2.4-7.6-7.6-7.6c-2.6,0-3.4,0.2-4.3,1.3c-0.4,0.5-0.7,1.2-1,2l-0.8,1.9l-1.6-0.4
			v-3.9l3.2-1.9c2.6-1.6,5.1-2.1,7-2.1c7.6,0,9.9,3.3,9.9,12.1v11.1c0,1,0,1.9,0.2,2.6c0.1,0.6,0.7,0.8,1.5,0.9l2.4,0.1v1.8
			c-1.5-0.1-3-0.2-4.5-0.2c-1.6,0-3.1,0.1-4.7,0.2l0.3-5.2l-7.5,5.2c-0.5,0.4-1.7,0.5-2.8,0.5c-4.1,0-7.4-2.4-7.4-7.3
			c0-7,6.1-8.7,11.7-9.7L-1007.1,750.5z M-1007.1,752.4c-3,0.4-5.8,0.9-8.8,2.1c-2.1,0.8-3.6,3.4-3.6,5.7c0,3.1,2.3,5,4.7,5
			c1.9,0,3.8-1.3,5.8-2.8c1-0.7,1.7-1.6,1.9-2L-1007.1,752.4L-1007.1,752.4z"/>
		<path class="st0" d="M-992.1,759.3v2.5c0,3.8,4.3,5.1,7.8,5.1c3.8,0,7.1-2.2,7.1-5.5c0-1.9-1-3.5-2.9-4c-2.7-0.7-6-1.3-8.9-2.4
			c-2.9-1.1-5.2-2.9-5.2-6.6c0-6.5,5.7-8.8,11.4-8.8c2.9,0,5.5,0.7,7.8,1.5c-0.2,2.2-0.2,4.4-0.3,6.9h-1.7v-1.4c0-3.1-3.5-5-7-5
			c-5.2,0-5.9,2.8-5.9,4.9c0,2.6,2,4,6.6,4.8c7.2,1.2,10.6,3,10.6,7.8c0,6.7-6.7,10.2-13.4,10.2c-2.9,0-5.5-0.4-8.5-1.4
			c0.6-2.7,0.7-5.6,0.7-8.4h1.8V759.3z"/>
		<path class="st0" d="M-945.2,761.7c0,1.6,0.1,2.8,0.3,3.5c0.3,0.5,0.9,0.8,1.9,0.8l2.7,0.2v1.8c-2.1-0.1-4.5-0.2-7.5-0.2
			s-5.4,0.1-7.5,0.2v-1.8l2.7-0.2c1-0.1,1.7-0.3,1.9-0.8c0.2-0.7,0.3-1.9,0.3-3.5v-13.6c0-1.9-0.1-3.3-0.4-3.8
			c-0.4-0.5-1-0.7-2.3-0.7h-2.2v-1.7c3.6-0.4,7.2-1.5,9.5-2.5l0.5,0.2v5.3h0.1l4.5-3.9c1.3-1.1,2.5-1.5,4.9-1.5
			c7.1,0,10,3.9,10,10.5v11.7c0,1.6,0.1,2.8,0.3,3.5c0.2,0.5,0.9,0.8,1.9,0.8l2.5,0.2v1.8c-1.5-0.1-3.3-0.2-5-0.2s-3.5,0.1-4.9,0.2
			v-17.1c0-5-2.8-7.7-6.9-7.7c-3.7,0-7.5,3.2-7.5,5.7v12.8H-945.2z"/>
		<path class="st0" d="M-900.8,750.5v-0.2c0-4.6-2.4-7.6-7.6-7.6c-2.6,0-3.5,0.2-4.3,1.3c-0.4,0.5-0.7,1.2-1,2l-0.8,1.9l-1.6-0.4
			v-3.9l3.2-1.9c2.6-1.6,5.1-2.1,7-2.1c7.6,0,9.9,3.3,9.9,12.1v11.1c0,1,0,1.9,0.2,2.6c0.1,0.6,0.7,0.8,1.5,0.9l2.4,0.1v1.8
			c-1.5-0.1-3-0.2-4.5-0.2c-1.6,0-3.1,0.1-4.7,0.2l0.3-5.2l-7.5,5.2c-0.5,0.4-1.7,0.5-2.8,0.5c-4.1,0-7.4-2.4-7.4-7.3
			c0-7,6.1-8.7,11.7-9.7L-900.8,750.5z M-900.8,752.4c-3,0.4-5.8,0.9-8.8,2.1c-2.1,0.8-3.6,3.4-3.6,5.7c0,3.1,2.3,5,4.7,5
			c1.9,0,3.8-1.3,5.8-2.8c1-0.7,1.7-1.6,1.9-2V752.4z"/>
		<path class="st0" d="M-839,755.9c0-1.4-0.5-2-2.1-2.1l-5-0.4v-1.8c2.5,0.1,5,0.1,7.4,0.1c2.5,0,5,0,7.5-0.1l0.2,1.5l-1.7,0.6
			c-0.7,0.2-0.7,0.5-0.7,2.2v10.2c-5.2,1.5-11.7,3.1-15.9,3.1c-13.5,0-24.4-7-24.4-22.2c0-13.3,11-21.9,25.6-21.9
			c7.5,0,12.2,1.7,15,2.5c-0.7,2.8-1.2,6-1.2,9.2h-1.9v-3.2c0-2.8-2.2-3.8-5-4.8c-1.9-0.7-4.5-1.1-8.5-1.1
			c-11.5,0-17.5,7.6-17.5,18.3c0,12,7,20.7,19.5,20.7c4.7,0,8.1-1,8.5-2.1c0.2-0.7,0.3-1,0.3-2.5L-839,755.9L-839,755.9z"/>
		<path class="st0" d="M-809.3,750.5v-0.2c0-4.6-2.4-7.6-7.6-7.6c-2.6,0-3.5,0.2-4.2,1.3c-0.4,0.5-0.7,1.2-1,2l-0.8,1.9l-1.6-0.4
			v-3.9l3.2-1.9c2.6-1.6,5.1-2.1,7-2.1c7.6,0,9.9,3.3,9.9,12.1v11.1c0,1,0.1,1.9,0.2,2.6c0.1,0.6,0.7,0.8,1.5,0.9l2.4,0.1v1.8
			c-1.5-0.1-3-0.2-4.5-0.2c-1.6,0-3.1,0.1-4.7,0.2l0.3-5.2l-7.5,5.2c-0.5,0.4-1.7,0.5-2.8,0.5c-4.1,0-7.4-2.4-7.4-7.3
			c0-7,6.1-8.7,11.7-9.7L-809.3,750.5z M-809.3,752.4c-3,0.4-5.8,0.9-8.8,2.1c-2.1,0.8-3.6,3.4-3.6,5.7c0,3.1,2.3,5,4.7,5
			c1.9,0,3.8-1.3,5.8-2.8c1-0.7,1.7-1.6,1.9-2V752.4z"/>
		<path class="st0" d="M-771.5,750.6c0,0.9,0,1.7-0.1,2.5c-3.6,0.6-7.3,0.9-11,0.9h-8.8c0,7.1,3.5,11.9,11,11.9
			c2.9,0,5.2-1.5,7.5-2.8l0.8,0.6l-1.2,2.1c-0.4,0.7-5.6,3.4-9.7,3.4c-9.2,0-14-5.8-14-14c0-5.9,1.6-9.4,4.3-11.6
			c1.2-0.9,2.4-1.8,3.8-2.4c2.1-1,3.9-1.6,5.9-1.6C-776.4,739.5-771.5,743.8-771.5,750.6z M-791.3,750.8v0.8
			c2.6,0.3,5.2,0.4,7.7,0.4c2.4,0,4.6-0.1,6.7-0.2c0-5.6-2-10.2-6.4-10.2C-787.8,741.5-791.3,744.7-791.3,750.8z"/>
		<path class="st0" d="M-758.2,761.7c0,1.6,0,2.8,0.3,3.5c0.2,0.5,0.9,0.8,1.9,0.8l2.8,0.2v1.8c-2.2-0.1-4.6-0.2-7.6-0.2
			s-5.4,0.1-7.6,0.2v-1.8l2.8-0.2c1-0.1,1.7-0.3,1.9-0.8c0.2-0.7,0.3-1.9,0.3-3.5v-13.6c0-1.9-0.1-3.3-0.4-3.8
			c-0.4-0.5-1-0.7-2.2-0.7h-2.3v-1.7c3.6-0.4,7.2-1.5,9.5-2.5l0.6,0.2L-758.2,761.7L-758.2,761.7z M-757.7,729.7
			c0,1.8-1.7,3.3-3.4,3.3c-1.7,0-3.3-1.6-3.3-3.3c0-1.8,1.6-3.4,3.3-3.4C-759.4,726.3-757.7,728-757.7,729.7z"/>
		<path class="st0" d="M-745.7,730.4c0-1.4-0.2-2.5-1.5-2.5h-3.4v-1.7c3.2-0.5,6.4-1,9.5-2.2l0.5,0.5v37.3c0,1.6,0.1,2.8,0.3,3.5
			c0.2,0.5,0.9,0.8,1.9,0.8l2.8,0.2v1.8c-2.2-0.1-4.6-0.2-7.6-0.2s-5.4,0.1-7.6,0.2v-1.8l2.8-0.2c1-0.1,1.7-0.3,1.9-0.8
			c0.2-0.7,0.3-1.9,0.3-3.5v-31.4H-745.7z"/>
		<path class="st0" d="M-708.6,745c0.5,1.1,0.7,2.2,0.7,3.4c0,3.3-1.7,5.9-4.1,7.5c-2.7,1.9-5.7,2.9-8.5,2.9c-0.4,0-0.9-0.1-1.3-0.1
			c-0.9,0.8-2.8,2.1-2.8,3.4c0,2.3,2.8,2.4,4.6,2.4h9.7c5.4,0,7.1,4.5,7.1,7.5c0,6.4-6.2,13-16.4,13c-7.3,0-13-3.7-13-9.1
			c0-1.8,0.4-3.7,1.7-4.8l5.3-2.9c-2.7-0.7-4-1.8-4-3.6c0-0.9,0.4-1.8,0.9-2.5l4.7-3.6v-0.1c-1.9-0.1-7.1-1.8-7.1-8.1
			c0-3.9,1.9-6.5,4.6-8.2c2.8-1.8,6.5-2.6,8.8-2.6c2.7,0,5.4,0.8,7.4,2.5l8.6-0.2l0.2,0.7l-1.5,2.5C-703,745-708.6,745-708.6,745z
			 M-707.8,774.2c0-3.6-1.7-5.4-8.5-5.4c-1.6,0-3.7,0-6.4,0.2c-1.7,0.2-5.1,2.6-5.1,6.4c0,5.2,4,7.8,8.8,7.8
			C-712.4,783.2-707.8,779.1-707.8,774.2z M-719.9,741.6c-4.1,0-6,3.1-6,7.1c0,5.3,3,8,6.9,8c3.5,0,6.1-2.7,6.1-6.4
			C-713,745.9-714.9,741.6-719.9,741.6z"/>
		<path class="st0" d="M-673.6,750.6c0,0.9,0,1.7-0.1,2.5c-3.6,0.6-7.3,0.9-11,0.9h-8.8c0,7.1,3.5,11.9,11,11.9
			c2.9,0,5.2-1.5,7.5-2.8l0.8,0.6l-1.2,2.1c-0.4,0.7-5.6,3.4-9.7,3.4c-9.1,0-14-5.8-14-14c0-5.9,1.6-9.4,4.4-11.6
			c1.1-0.9,2.4-1.8,3.7-2.4c2.1-1,3.9-1.6,5.9-1.6C-678.5,739.5-673.6,743.8-673.6,750.6z M-693.4,750.8v0.8
			c2.6,0.3,5.2,0.4,7.7,0.4c2.4,0,4.6-0.1,6.7-0.2c0-5.6-2.1-10.2-6.4-10.2C-689.9,741.5-693.4,744.7-693.4,750.8z"/>
	</g>
	<path class="st0" d="M-1145.3,767.4c-2.4-15.8-24.1-19.5-32.3-19.6c-6.1-0.1-19.8,2.8-19.2,12.2c0.6,9.4,13,13.5,21.6,13.5
		c8.7,0,13.1-4.1,12.4-7.3c-0.7-2.9-1.4-3.9-4.6-6c-5.1-3.3-1.8-8.5,5-5.8c6.7,2.6,13.9,12.1,8,18.9c-6,6.8-16.4,8.8-30.3,6.5
		c-13.9-2.3-22.9-12.2-22.9-21.2s12.9-18.6,28.9-18.1c17.1,0.6,44.2,6.5,43.8,30.5c2.8-5.9,4.3-12.6,4.3-19.5
		c0-13.3-5.6-25.3-14.6-33.8h-64.2c-9,8.7-14.6,20.7-14.6,34c0,13,5.4,24.8,14.1,33.3h37.3C-1161.3,784-1143.3,780.6-1145.3,767.4z
		 M-1169.8,763.6c-0.4,3.7-5.4,6.1-11,5.4c-5.7-0.7-9.9-4.1-9.5-7.8c0.4-3.6,5.4-6.1,11.1-5.4
		C-1173.7,756.5-1169.4,760-1169.8,763.6z"/>
</g>
</svg>
