<?xml version="1.0" encoding="utf-8"?>
<!-- Generator: Adobe Illustrator 19.1.0, SVG Export Plug-In . SVG Version: 6.00 Build 0)  -->
<svg version="1.1" id="Layer_1" xmlns="http://www.w3.org/2000/svg" xmlns:xlink="http://www.w3.org/1999/xlink" x="0px" y="0px"
	 width="550.4px" height="67.1px" viewBox="0 0 550.4 67.1" style="enable-background:new 0 0 550.4 67.1;" xml:space="preserve">
<g>
	<g>
		<path d="M119.8,42.7c0,2.3,0.1,3.9,0.6,4.5c0.3,0.6,1.1,0.9,2.5,0.9l2.9,0.2v1.8c-3.2-0.1-6-0.2-8.8-0.2c-3,0-5.8,0.1-9,0.2v-1.8
			l2.9-0.2c1.5-0.1,2.2-0.3,2.6-0.9c0.4-0.7,0.6-2.2,0.6-4.5V15.6c0-2.3-0.1-3.9-0.6-4.5c-0.4-0.6-1.1-0.9-2.6-0.9L108,9.9V8.1
			c1.7,0,3.4,0.1,5.1,0.1c1.7,0,3.4,0.1,5.2,0.1c4.1,0,9.6-0.2,13.1-0.2c2.7,0,5.4,0.1,7.8,0.2c-0.7,2.7-1,6.1-1,9.2h-2.1v-3.9
			c0-0.8,0-1.5-0.5-1.6c-3.2-1.2-8-1.3-10.7-1.3c-1.6,0-3.4,0.1-5.1,0.5v16.2c1.9,0.1,4.1,0.2,7,0.2c3.7,0,5.8-0.3,6.4-0.7
			c0.3-0.2,0.4-0.8,0.5-1.6l0.3-3.1h1.8c0,2.5-0.2,4.8-0.2,7c0,2.2,0.1,4.5,0.2,6.7H134l-0.3-3.6c0-0.8-0.2-1.3-0.5-1.5
			c-0.7-0.5-2.7-0.7-6.4-0.7c-2.9,0-5.2,0-7,0.2V42.7z"/>
		<path d="M155.2,51.2c-7.4,0-12.9-6-12.9-14.2c0-9.1,5.7-15.4,15.4-15.4c7.8,0,13.7,6,13.7,13.8c0,9.3-6.6,15.8-15.8,15.8H155.2z
			 M147.9,34.5c0,6.4,2.3,14.8,10.1,14.8c5.5,0,7.9-5.5,7.9-11.1c0-7.8-3.7-14.5-9.5-14.5C149.9,23.6,147.9,28.8,147.9,34.5z"/>
		<path d="M179.7,30.2c0-1.9-0.1-3.3-0.4-3.8c-0.4-0.5-0.9-0.7-2.2-0.7h-2.2v-1.7c3.6-0.4,7.2-1.5,9.5-2.5l0.5,0.2V28h0.1l3.3-3.9
			c1.4-1.7,3.5-2.5,5.1-2.5c1,0,2.3,0.3,2.8,0.7l-0.5,7.3h-1.3c-0.7-1.4-1.9-2.8-4.1-2.8c-2.6,0-5.3,2.8-5.3,6.7v10.4
			c0,1.6,0.1,2.8,0.3,3.5c0.2,0.5,1.1,0.8,2.5,0.8l3.2,0.2v1.8c-3.2-0.1-5.6-0.2-8.5-0.2c-3,0-5.4,0.1-7.6,0.2v-1.8l2.8-0.2
			c1-0.1,1.7-0.3,1.9-0.8c0.2-0.7,0.3-1.9,0.3-3.5V30.2z"/>
		<path d="M216.9,32.6v-0.2c0-4.6-2.4-7.6-7.6-7.6c-2.6,0-3.4,0.2-4.3,1.3c-0.4,0.5-0.7,1.2-1,2l-0.8,1.9l-1.6-0.4v-3.9l3.2-1.9
			c2.6-1.6,5.1-2.1,7-2.1c7.6,0,9.9,3.3,9.9,12.1v11.1c0,1,0,1.9,0.2,2.6c0.1,0.6,0.7,0.8,1.5,0.9l2.4,0.1v1.8
			c-1.5-0.1-3-0.2-4.5-0.2c-1.6,0-3.1,0.1-4.7,0.2l0.3-5.2l-7.5,5.2c-0.5,0.4-1.7,0.5-2.8,0.5c-4.1,0-7.4-2.4-7.4-7.3
			c0-7,6.1-8.7,11.7-9.7L216.9,32.6z M216.9,34.5c-3,0.4-5.8,0.9-8.8,2.1c-2.1,0.8-3.6,3.4-3.6,5.7c0,3.1,2.3,5,4.7,5
			c1.9,0,3.8-1.3,5.8-2.8c1-0.7,1.7-1.6,1.9-2V34.5z"/>
		<path d="M231.9,41.4v2.5c0,3.8,4.3,5.1,7.8,5.1c3.8,0,7.1-2.2,7.1-5.5c0-1.9-1-3.5-2.9-4c-2.7-0.7-6-1.3-8.9-2.4
			c-2.9-1.1-5.2-2.9-5.2-6.6c0-6.5,5.7-8.8,11.4-8.8c2.9,0,5.5,0.7,7.8,1.5c-0.2,2.2-0.2,4.4-0.3,6.9H247v-1.4c0-3.1-3.5-5-7-5
			c-5.2,0-5.9,2.8-5.9,4.9c0,2.6,2,4,6.6,4.8c7.2,1.2,10.6,3,10.6,7.8c0,6.7-6.7,10.2-13.4,10.2c-2.9,0-5.5-0.4-8.5-1.4
			c0.6-2.7,0.7-5.6,0.7-8.4H231.9z"/>
		<path d="M278.8,43.8c0,1.6,0.1,2.8,0.3,3.5c0.3,0.5,0.9,0.8,1.9,0.8l2.7,0.2v1.8c-2.1-0.1-4.5-0.2-7.5-0.2c-3,0-5.4,0.1-7.5,0.2
			v-1.8l2.7-0.2c1-0.1,1.7-0.3,1.9-0.8c0.2-0.7,0.3-1.9,0.3-3.5V30.2c0-1.9-0.1-3.3-0.4-3.8c-0.4-0.5-1-0.7-2.3-0.7h-2.2v-1.7
			c3.6-0.4,7.2-1.5,9.5-2.5l0.5,0.2V27h0.1l4.5-3.9c1.3-1.1,2.5-1.5,4.9-1.5c7.1,0,10,3.9,10,10.5v11.7c0,1.6,0.1,2.8,0.3,3.5
			c0.2,0.5,0.9,0.8,1.9,0.8l2.5,0.2v1.8c-1.5-0.1-3.3-0.2-5-0.2c-1.7,0-3.5,0.1-4.9,0.2V33c0-5-2.8-7.7-6.9-7.7
			c-3.7,0-7.5,3.2-7.5,5.7V43.8z"/>
		<path d="M323.2,32.6v-0.2c0-4.6-2.4-7.6-7.6-7.6c-2.6,0-3.5,0.2-4.3,1.3c-0.4,0.5-0.7,1.2-1,2l-0.8,1.9l-1.6-0.4v-3.9l3.2-1.9
			c2.6-1.6,5.1-2.1,7-2.1c7.6,0,9.9,3.3,9.9,12.1v11.1c0,1,0,1.9,0.2,2.6c0.1,0.6,0.7,0.8,1.5,0.9l2.4,0.1v1.8
			c-1.5-0.1-3-0.2-4.5-0.2c-1.6,0-3.1,0.1-4.7,0.2l0.3-5.2l-7.5,5.2c-0.5,0.4-1.7,0.5-2.8,0.5c-4.1,0-7.4-2.4-7.4-7.3
			c0-7,6.1-8.7,11.7-9.7L323.2,32.6z M323.2,34.5c-3,0.4-5.8,0.9-8.8,2.1c-2.1,0.8-3.6,3.4-3.6,5.7c0,3.1,2.3,5,4.7,5
			c1.9,0,3.8-1.3,5.8-2.8c1-0.7,1.7-1.6,1.9-2V34.5z"/>
		<path d="M385,38c0-1.4-0.5-2-2.1-2.1l-5-0.4v-1.8c2.5,0.1,5,0.1,7.4,0.1c2.5,0,5,0,7.5-0.1l0.2,1.5l-1.7,0.6
			c-0.7,0.2-0.7,0.5-0.7,2.2v10.2c-5.2,1.5-11.7,3.1-15.9,3.1c-13.5,0-24.4-7-24.4-22.2c0-13.3,11-21.9,25.6-21.9
			c7.5,0,12.2,1.7,15,2.5c-0.7,2.8-1.2,6-1.2,9.2h-1.9v-3.2c0-2.8-2.2-3.8-5-4.8c-1.9-0.7-4.5-1.1-8.5-1.1
			c-11.5,0-17.5,7.6-17.5,18.3c0,12,7,20.7,19.5,20.7c4.7,0,8.1-1,8.5-2.1c0.2-0.7,0.3-1,0.3-2.5V38z"/>
		<path d="M414.7,32.6v-0.2c0-4.6-2.4-7.6-7.6-7.6c-2.6,0-3.5,0.2-4.2,1.3c-0.4,0.5-0.7,1.2-1,2l-0.8,1.9l-1.6-0.4v-3.9l3.2-1.9
			c2.6-1.6,5.1-2.1,7-2.1c7.6,0,9.9,3.3,9.9,12.1v11.1c0,1,0.1,1.9,0.2,2.6c0.1,0.6,0.7,0.8,1.5,0.9l2.4,0.1v1.8
			c-1.5-0.1-3-0.2-4.5-0.2c-1.6,0-3.1,0.1-4.7,0.2l0.3-5.2l-7.5,5.2c-0.5,0.4-1.7,0.5-2.8,0.5c-4.1,0-7.4-2.4-7.4-7.3
			c0-7,6.1-8.7,11.7-9.7L414.7,32.6z M414.7,34.5c-3,0.4-5.8,0.9-8.8,2.1c-2.1,0.8-3.6,3.4-3.6,5.7c0,3.1,2.3,5,4.7,5
			c1.9,0,3.8-1.3,5.8-2.8c1-0.7,1.7-1.6,1.9-2V34.5z"/>
		<path d="M452.5,32.7c0,0.9,0,1.7-0.1,2.5c-3.6,0.6-7.3,0.9-11,0.9h-8.8c0,7.1,3.5,11.9,11,11.9c2.9,0,5.2-1.5,7.5-2.8l0.8,0.6
			l-1.2,2.1c-0.4,0.7-5.6,3.4-9.7,3.4c-9.2,0-14-5.8-14-14c0-5.9,1.6-9.4,4.3-11.6c1.2-0.9,2.4-1.8,3.8-2.4c2.1-1,3.9-1.6,5.9-1.6
			C447.6,21.6,452.5,25.9,452.5,32.7z M432.7,32.9v0.8c2.6,0.3,5.2,0.4,7.7,0.4c2.4,0,4.6-0.1,6.7-0.2c0-5.6-2-10.2-6.4-10.2
			C436.2,23.6,432.7,26.8,432.7,32.9z"/>
		<path d="M465.8,43.8c0,1.6,0,2.8,0.3,3.5c0.2,0.5,0.9,0.8,1.9,0.8l2.8,0.2v1.8c-2.2-0.1-4.6-0.2-7.6-0.2c-3,0-5.4,0.1-7.6,0.2
			v-1.8l2.8-0.2c1-0.1,1.7-0.3,1.9-0.8c0.2-0.7,0.3-1.9,0.3-3.5V30.2c0-1.9-0.1-3.3-0.4-3.8c-0.4-0.5-1-0.7-2.2-0.7h-2.3v-1.7
			c3.6-0.4,7.2-1.5,9.5-2.5l0.6,0.2V43.8z M466.3,11.8c0,1.8-1.7,3.3-3.4,3.3c-1.7,0-3.3-1.6-3.3-3.3c0-1.8,1.6-3.4,3.3-3.4
			C464.6,8.4,466.3,10.1,466.3,11.8z"/>
		<path d="M478.3,12.5c0-1.4-0.2-2.5-1.5-2.5h-3.4V8.3c3.2-0.5,6.4-1,9.5-2.2l0.5,0.5v37.3c0,1.6,0.1,2.8,0.3,3.5
			c0.2,0.5,0.9,0.8,1.9,0.8l2.8,0.2v1.8c-2.2-0.1-4.6-0.2-7.6-0.2c-3,0-5.4,0.1-7.6,0.2v-1.8l2.8-0.2c1-0.1,1.7-0.3,1.9-0.8
			c0.2-0.7,0.3-1.9,0.3-3.5V12.5z"/>
		<path d="M515.4,27.1c0.5,1.1,0.7,2.2,0.7,3.4c0,3.3-1.7,5.9-4.1,7.5c-2.7,1.9-5.7,2.9-8.5,2.9c-0.4,0-0.9-0.1-1.3-0.1
			c-0.9,0.8-2.8,2.1-2.8,3.4c0,2.3,2.8,2.4,4.6,2.4h9.7c5.4,0,7.1,4.5,7.1,7.5c0,6.4-6.2,13-16.4,13c-7.3,0-13-3.7-13-9.1
			c0-1.8,0.4-3.7,1.7-4.8l5.3-2.9c-2.7-0.7-4-1.8-4-3.6c0-0.9,0.4-1.8,0.9-2.5l4.7-3.6v-0.1c-1.9-0.1-7.1-1.8-7.1-8.1
			c0-3.9,1.9-6.5,4.6-8.2c2.8-1.8,6.5-2.6,8.8-2.6c2.7,0,5.4,0.8,7.4,2.5l8.6-0.2l0.2,0.7l-1.5,2.5H515.4z M516.2,56.3
			c0-3.6-1.7-5.4-8.5-5.4c-1.6,0-3.7,0-6.4,0.2c-1.7,0.2-5.1,2.6-5.1,6.4c0,5.2,4,7.8,8.8,7.8C511.6,65.3,516.2,61.2,516.2,56.3z
			 M504.1,23.7c-4.1,0-6,3.1-6,7.1c0,5.3,3,8,6.9,8c3.5,0,6.1-2.7,6.1-6.4C511,28,509.1,23.7,504.1,23.7z"/>
		<path d="M550.4,32.7c0,0.9,0,1.7-0.1,2.5c-3.6,0.6-7.3,0.9-11,0.9h-8.8c0,7.1,3.5,11.9,11,11.9c2.9,0,5.2-1.5,7.5-2.8l0.8,0.6
			l-1.2,2.1c-0.4,0.7-5.6,3.4-9.7,3.4c-9.1,0-14-5.8-14-14c0-5.9,1.6-9.4,4.4-11.6c1.1-0.9,2.4-1.8,3.7-2.4c2.1-1,3.9-1.6,5.9-1.6
			C545.5,21.6,550.4,25.9,550.4,32.7z M530.6,32.9v0.8c2.6,0.3,5.2,0.4,7.7,0.4c2.4,0,4.6-0.1,6.7-0.2c0-5.6-2.1-10.2-6.4-10.2
			C534.1,23.6,530.6,26.8,530.6,32.9z"/>
	</g>
	<path d="M78.7,49.5C76.3,33.7,54.6,30,46.4,29.9c-6.1-0.1-19.8,2.8-19.2,12.2c0.6,9.4,13,13.5,21.6,13.5c8.7,0,13.1-4.1,12.4-7.3
		c-0.7-2.9-1.4-3.9-4.6-6c-5.1-3.3-1.8-8.5,5-5.8c6.7,2.6,13.9,12.1,8,18.9c-6,6.8-16.4,8.8-30.3,6.5c-13.9-2.3-22.9-12.2-22.9-21.2
		c0-9,12.9-18.6,28.9-18.1c17.1,0.6,44.2,6.5,43.8,30.5c2.8-5.9,4.3-12.6,4.3-19.5c0-13.3-5.6-25.3-14.6-33.8H14.6
		C5.6,8.5,0,20.5,0,33.8c0,13,5.4,24.8,14.1,33.3h37.3C62.7,66.1,80.7,62.7,78.7,49.5z M54.2,45.7c-0.4,3.7-5.4,6.1-11,5.4
		c-5.7-0.7-9.9-4.1-9.5-7.8c0.4-3.6,5.4-6.1,11.1-5.4C50.3,38.6,54.6,42.1,54.2,45.7z"/>
</g>
</svg>
