<?xml version="1.0" encoding="utf-8"?>
<!-- Generator: Adobe Illustrator 18.1.1, SVG Export Plug-In . SVG Version: 6.00 Build 0)  -->
<svg version="1.1"
	 id="TuairiscWhite_1_" sodipodi:docname="New document 1" xmlns:inkscape="http://www.inkscape.org/namespaces/inkscape" xmlns:rdf="http://www.w3.org/1999/02/22-rdf-syntax-ns#" xmlns:cc="http://creativecommons.org/ns#" xmlns:dc="http://purl.org/dc/elements/1.1/" xmlns:sodipodi="http://sodipodi.sourceforge.net/DTD/sodipodi-0.dtd" xmlns:svg="http://www.w3.org/2000/svg" inkscape:version="0.48.4 r9939"
	 xmlns="http://www.w3.org/2000/svg" xmlns:xlink="http://www.w3.org/1999/xlink" x="0px" y="0px" viewBox="-433 1488 132 26"
	 enable-background="new -433 1488 132 26" xml:space="preserve">
<g id="TuairiscWhite">
	<g id="g3088" transform="translate(212.5292,43.7021)">
		<path id="path3090" inkscape:connector-curvature="0" fill="#FFFFFF" d="M-586.3,1446.4c0,0.6-0.2,1.2-0.6,1.7
			c-0.4,0.5-0.9,0.7-1.5,0.7c-0.6,0-1-0.2-1.4-0.7c-0.4-0.5-0.6-1-0.6-1.5c0-0.6,0.2-1.1,0.6-1.6c0.4-0.5,0.9-0.7,1.4-0.7
			c0.6,0,1.1,0.2,1.5,0.6S-586.3,1445.9-586.3,1446.4"/>
	</g>
	<g id="g3092" transform="translate(230.4865,43.7021)">
		<path id="path3094" inkscape:connector-curvature="0" fill="#FFFFFF" d="M-581.8,1446.4c0,0.6-0.2,1.2-0.6,1.7
			c-0.4,0.5-0.9,0.7-1.5,0.7c-0.6,0-1-0.2-1.4-0.7c-0.4-0.5-0.6-1-0.6-1.5c0-0.6,0.2-1.1,0.6-1.6c0.4-0.5,0.9-0.7,1.4-0.7
			c0.6,0,1.1,0.2,1.5,0.6C-582,1445.4-581.8,1445.9-581.8,1446.4"/>
	</g>
	<g id="g3096" transform="translate(194.6863,25.8522)">
		<path id="path3098" inkscape:connector-curvature="0" fill="#FFFFFF" d="M-590.8,1487.2l-5.3,0.4l-0.2-0.2v-2.1h-0.1
			c-0.3,0.3-0.6,0.6-0.9,0.9c-0.3,0.3-0.7,0.6-1.1,0.9c-0.5,0.3-1,0.5-1.4,0.7c-0.5,0.2-1.1,0.2-1.9,0.2c-1.4,0-2.5-0.5-3.2-1.4
			c-0.7-1-1.1-2.3-1.1-4.2v-7.9c0-0.4-0.1-0.7-0.2-1c-0.1-0.3-0.4-0.5-0.6-0.7c-0.2-0.1-0.4-0.2-0.7-0.3c-0.3-0.1-0.6-0.1-0.9-0.1
			v-1.1l5.4-0.4l0.2,0.2v11.5c0,1.2,0.3,2.1,0.8,2.7c0.5,0.6,1.1,0.9,1.9,0.9c0.6,0,1.1-0.1,1.6-0.3c0.5-0.2,0.9-0.4,1.2-0.7
			c0.3-0.2,0.6-0.5,0.8-0.7s0.4-0.5,0.5-0.7v-9.3c0-0.4-0.1-0.7-0.2-1c-0.2-0.3-0.4-0.5-0.6-0.7c-0.2-0.1-0.5-0.2-0.9-0.2
			c-0.4,0-0.8-0.1-1.3-0.1v-1.1l5.9-0.4l0.2,0.2v13.1c0,0.4,0.1,0.7,0.2,1c0.2,0.3,0.4,0.5,0.6,0.7c0.2,0.1,0.4,0.2,0.7,0.2
			s0.6,0.1,0.9,0.1V1487.2z"/>
	</g>
	<g id="g3100" transform="translate(214.1592,25.6174)">
		<path id="path3102" inkscape:connector-curvature="0" fill="#FFFFFF" d="M-585.9,1487.7h-7.8v-1.1c0.3,0,0.5,0,0.8-0.1
			c0.3,0,0.5-0.1,0.7-0.1c0.3-0.1,0.5-0.3,0.7-0.5c0.1-0.2,0.2-0.6,0.2-1v-10.2c0-0.4-0.1-0.7-0.2-1c-0.2-0.3-0.4-0.5-0.7-0.7
			c-0.2-0.1-0.5-0.2-0.9-0.3c-0.4-0.1-0.8-0.2-1.1-0.2v-1.1l5.7-0.4l0.2,0.2v13.4c0,0.4,0.1,0.7,0.2,1c0.1,0.3,0.4,0.4,0.7,0.6
			c0.2,0.1,0.5,0.2,0.7,0.2c0.2,0.1,0.5,0.1,0.8,0.1V1487.7z"/>
	</g>
	<g id="g3104" transform="translate(201.4742,27.1635)">
		<path id="path3106" inkscape:connector-curvature="0" fill="#FFFFFF" d="M-589,1484.2c-0.6,0.4-1.3,0.6-2,0.6
			c-0.7,0-1.3-0.2-1.8-0.7c-0.5-0.4-0.7-1.1-0.7-2c0-0.7,0.2-1.3,0.5-1.9c0.3-0.5,0.7-1,1.3-1.3c0.6-0.4,1.2-0.7,1.9-1
			c0.7-0.3,1.5-0.5,2.4-0.8l-0.1,5.8C-588,1483.3-588.5,1483.8-589,1484.2 M-582.9,1484.9c-0.2-0.1-0.5-0.1-0.7-0.2
			c-0.3-0.1-0.5-0.3-0.7-0.6c-0.1-0.3-0.2-0.6-0.2-1v-1.2l0,0c0-1.1,0-2.1,0-3c0-1.2,0-2.6,0-4.2c0-1.1-0.1-2-0.4-2.7
			c-0.3-0.7-0.7-1.3-1.3-1.7c-0.6-0.4-1.2-0.7-1.9-0.8s-1.5-0.2-2.4-0.2c-0.7,0-1.3,0.1-2,0.3c-0.7,0.2-1.3,0.5-1.8,0.8
			c-0.6,0.4-1,0.8-1.4,1.3c-0.4,0.5-0.5,1-0.5,1.5c0,0.5,0.1,0.9,0.4,1.3c0.3,0.4,0.7,0.6,1.2,0.6c0.6,0,1.1-0.2,1.4-0.5
			c0.3-0.3,0.5-0.7,0.5-1.1c0-0.4-0.1-0.8-0.2-1.2c-0.1-0.4-0.2-0.8-0.2-1c0.2-0.2,0.5-0.4,0.9-0.5c0.4-0.2,0.9-0.3,1.4-0.3
			c0.7,0,1.3,0.2,1.7,0.5c0.4,0.3,0.7,0.7,0.9,1.1c0.2,0.4,0.3,0.8,0.4,1.2c0.1,0.4,0.1,0.7,0.1,0.8v1.7c-0.5,0.3-1.5,0.7-3,1.2
			c-1.5,0.5-2.5,0.9-3,1.1c-0.4,0.2-0.8,0.4-1.3,0.6c-0.4,0.3-0.8,0.6-1.1,0.9c-0.3,0.4-0.6,0.9-0.8,1.4c-0.2,0.5-0.3,1.1-0.3,1.7
			c0,1.2,0.4,2.2,1.2,3c0.8,0.8,1.8,1.1,3,1.1c1.1,0,2.1-0.2,2.9-0.6c0.8-0.4,1.6-1,2.3-1.8h0.1c0.1,0.8,0.5,1.4,1,1.8
			s1.2,0.6,2,0.6c0.5,0,1.8-0.2,2.3-0.3v-1.1C-582.4,1485-582.7,1485-582.9,1484.9"/>
	</g>
	<g id="g3108" transform="translate(224.9546,36.8176)">
		<path id="path3110" inkscape:connector-curvature="0" fill="#FFFFFF" d="M-583.1,1462.2c0,0.6-0.1,1.1-0.4,1.5s-0.7,0.7-1.3,0.7
			c-0.6,0-1.1-0.2-1.4-0.5c-0.3-0.3-0.5-0.7-0.5-1.1c0-0.2,0-0.5,0.1-0.7c0-0.2,0.1-0.4,0.1-0.6c-0.5,0-1.1,0.2-1.8,0.6
			c-0.7,0.4-1.3,1-1.7,1.8v9.6c0,0.4,0.1,0.7,0.2,1c0.1,0.2,0.4,0.4,0.7,0.6c0.3,0.1,0.6,0.2,1.1,0.3c0.4,0.1,0.8,0.1,1.1,0.1v1.1
			h-8.5v-1.1c0.3,0,0.5,0,0.8-0.1c0.3,0,0.5-0.1,0.7-0.1c0.3-0.1,0.5-0.3,0.7-0.5c0.1-0.3,0.2-0.6,0.2-1v-10.2c0-0.3-0.1-0.7-0.2-1
			s-0.4-0.6-0.7-0.8c-0.2-0.1-0.5-0.2-0.7-0.3c-0.3-0.1-0.6-0.1-0.9-0.1v-1.1l5.4-0.4l0.2,0.2v2.3h0.1c0.7-0.9,1.4-1.6,2.3-2.1
			c0.8-0.5,1.6-0.7,2.3-0.7c0.7,0,1.2,0.2,1.7,0.7C-583.4,1460.8-583.1,1461.4-583.1,1462.2"/>
	</g>
	<g id="g3112" transform="translate(230.2261,27.9646)">
		<path id="path3114" inkscape:connector-curvature="0" fill="#FFFFFF" d="M-581.8,1482.4c0,0.4,0.1,0.7,0.2,1
			c0.1,0.3,0.4,0.4,0.7,0.6c0.2,0.1,0.5,0.2,0.7,0.2c0.2,0.1,0.5,0.1,0.8,0.1v1.1h-7.8v-1.1c0.3,0,0.5,0,0.8-0.1
			c0.3,0,0.5-0.1,0.7-0.1c0.3-0.1,0.5-0.3,0.7-0.5c0.1-0.3,0.2-0.6,0.2-1v-10.2c0-0.4-0.1-0.7-0.2-1c-0.2-0.3-0.4-0.5-0.7-0.7
			c-0.2-0.1-0.5-0.2-0.9-0.3c-0.4-0.1-0.7-0.2-1.1-0.2v-1.1l5.7-0.4l0.2,0.2V1482.4z"/>
	</g>
	<g id="g3116" transform="translate(241.555,31.9153)">
		<path id="path3118" inkscape:connector-curvature="0" fill="#FFFFFF" d="M-579,1473.3c0.4,0.4,0.8,0.9,1,1.4
			c0.2,0.5,0.4,1.2,0.4,1.9c0,1.5-0.6,2.8-1.7,3.7c-1.1,1-2.6,1.5-4.3,1.5c-0.9,0-1.8-0.2-2.6-0.5c-0.8-0.3-1.4-0.7-1.7-1l-0.3,1.1
			h-1.2l-0.2-5.7h1.1c0.1,0.4,0.3,0.9,0.6,1.5c0.3,0.6,0.6,1.1,1,1.6c0.4,0.5,0.9,0.9,1.5,1.2c0.6,0.3,1.3,0.5,2,0.5
			c1,0,1.8-0.2,2.4-0.7c0.6-0.5,0.8-1.2,0.8-2.1c0-0.5-0.1-0.9-0.3-1.2c-0.2-0.3-0.4-0.6-0.8-0.9c-0.4-0.3-0.8-0.5-1.3-0.7
			c-0.5-0.2-1.1-0.4-1.7-0.6c-0.5-0.2-1.1-0.4-1.7-0.6c-0.6-0.3-1.2-0.6-1.6-1c-0.5-0.4-0.9-0.9-1.2-1.4c-0.3-0.6-0.5-1.2-0.5-2
			c0-1.3,0.5-2.5,1.5-3.4c1-0.9,2.3-1.4,3.9-1.4c0.6,0,1.3,0.1,1.9,0.2c0.7,0.2,1.2,0.4,1.6,0.6l0.4-0.9h1.2l0.2,5.3h-1.1
			c-0.2-1.2-0.7-2.2-1.5-2.9c-0.8-0.7-1.7-1.1-2.8-1.1c-0.9,0-1.6,0.2-2.1,0.7c-0.5,0.5-0.8,1-0.8,1.7c0,0.5,0.1,0.9,0.3,1.3
			c0.2,0.3,0.4,0.6,0.8,0.9c0.3,0.2,0.7,0.4,1.2,0.6c0.5,0.2,1.1,0.4,1.8,0.7c0.7,0.2,1.4,0.5,2,0.8
			C-579.9,1472.6-579.4,1473-579,1473.3"/>
	</g>
	<g id="g3120" transform="translate(249.9109,25.2785)">
		<path id="path3122" inkscape:connector-curvature="0" fill="#FFFFFF" d="M-576.9,1488.5c-2.3,0-4.1-0.8-5.5-2.4
			c-1.3-1.6-2-3.7-2-6.4c0-1.2,0.2-2.2,0.5-3.3c0.4-1,0.9-1.9,1.5-2.8c0.6-0.8,1.4-1.4,2.4-1.9c1-0.5,2-0.7,3.2-0.7
			c1.6,0,2.9,0.4,3.9,1.2c1,0.8,1.5,1.8,1.5,3.2c0,0.6-0.1,1.1-0.4,1.5c-0.3,0.4-0.7,0.6-1.3,0.6c-0.6,0-1.1-0.2-1.5-0.5
			c-0.4-0.3-0.5-0.7-0.5-1.1c0-0.5,0.1-1,0.2-1.5c0.1-0.5,0.2-0.9,0.2-1.2c-0.2-0.3-0.5-0.6-0.9-0.7c-0.4-0.1-0.8-0.2-1.2-0.2
			c-0.5,0-1,0.1-1.5,0.3c-0.5,0.2-0.9,0.7-1.4,1.3c-0.4,0.6-0.7,1.3-1,2.3c-0.3,0.9-0.4,2.1-0.4,3.4c0,2.1,0.4,3.8,1.3,5.1
			c0.9,1.3,2.1,2,3.5,2c1.1,0,1.9-0.3,2.6-0.8c0.7-0.5,1.4-1.3,2-2.4l1,0.7c-0.7,1.3-1.7,2.4-2.8,3.1
			C-574.4,1488.1-575.6,1488.5-576.9,1488.5"/>
	</g>
	<g id="g3124" transform="translate(268.1834,31.6842)">
		<path id="path3126" inkscape:connector-curvature="0" fill="#FFFFFF" d="M-572.3,1473.9c0-0.3-0.1-0.6-0.2-0.8
			c-0.1-0.2-0.3-0.4-0.5-0.6c-0.2-0.1-0.5-0.2-0.8-0.2c-0.5,0-1,0.2-1.3,0.7c-0.4,0.4-0.5,1.1-0.6,1.9h3.4
			C-572.2,1474.5-572.2,1474.2-572.3,1473.9"/>
	</g>
	<g id="g3128" transform="translate(268.572,27.5658)">
		<path id="path3130" inkscape:connector-curvature="0" fill="#FFFFFF" d="M-572.2,1483.3c-0.5,0.4-1.1,0.5-1.8,0.5
			c-0.6,0-1.1-0.1-1.6-0.3c-0.4-0.2-0.8-0.5-1.1-0.9c-0.3-0.4-0.5-0.8-0.7-1.3c-0.1-0.5-0.2-1-0.2-1.6c0-0.5,0.1-1,0.2-1.5
			c0.2-0.5,0.4-0.9,0.7-1.3c0.3-0.4,0.6-0.7,1.1-0.9c0.4-0.2,0.9-0.3,1.4-0.3c0.5,0,1,0.1,1.4,0.3c0.4,0.2,0.7,0.4,0.9,0.7
			c0.2,0.3,0.4,0.6,0.5,1c0.1,0.4,0.2,0.8,0.2,1.3v0.5h-4.9c0,0.5,0,1,0.1,1.4c0.1,0.4,0.2,0.8,0.4,1.1c0.2,0.3,0.5,0.5,0.8,0.7
			s0.7,0.3,1.1,0.3c0.4,0,0.8-0.1,1.2-0.3c0.3-0.2,0.6-0.6,0.9-1.2l0.5,0.3C-571.2,1482.4-571.7,1482.9-572.2,1483.3 M-578.1,1483.6
			h-3.6v-0.5c0.1,0,0.2,0,0.4,0c0.1,0,0.2,0,0.3-0.1c0.1,0,0.2-0.1,0.3-0.2c0.1-0.1,0.1-0.3,0.1-0.5v-4.7c0-0.2,0-0.3-0.1-0.5
			c-0.1-0.1-0.2-0.3-0.3-0.3c-0.1-0.1-0.2-0.1-0.4-0.2c-0.2,0-0.3-0.1-0.5-0.1v-0.5l2.6-0.2l0.1,0.1v6.2c0,0.2,0,0.3,0.1,0.4
			c0.1,0.1,0.2,0.2,0.3,0.3c0.1,0,0.2,0.1,0.3,0.1c0.1,0,0.2,0,0.4,0.1V1483.6z M-583.2,1483.5c-0.2,0.2-0.4,0.3-0.7,0.3
			c-0.3,0-0.5-0.1-0.7-0.3c-0.2-0.2-0.3-0.4-0.3-0.7c0-0.3,0.1-0.5,0.3-0.7c0.2-0.2,0.4-0.3,0.7-0.3c0.3,0,0.5,0.1,0.7,0.3
			c0.2,0.2,0.3,0.5,0.3,0.7C-582.9,1483-583,1483.3-583.2,1483.5 M-580.7,1472.2c0.2-0.2,0.4-0.3,0.7-0.3c0.3,0,0.5,0.1,0.7,0.3
			c0.2,0.2,0.3,0.4,0.3,0.7c0,0.3-0.1,0.6-0.3,0.8c-0.2,0.2-0.4,0.3-0.7,0.3c-0.3,0-0.5-0.1-0.7-0.3c-0.2-0.2-0.3-0.4-0.3-0.7
			C-581,1472.7-580.9,1472.4-580.7,1472.2 M-571.6,1469.3h-12.7c-1.1,0-2,1-2,2.2v12.8c0,1.2,0.9,2.2,2,2.2h12.7c1.1,0,2-1,2-2.2
			v-12.8C-569.6,1470.3-570.5,1469.3-571.6,1469.3"/>
	</g>
	<g id="g3132" transform="translate(165.1729,44.1191)">
		<path id="path3134" inkscape:connector-curvature="0" fill="#FFFFFF" d="M-598.2,1445.5v0.3v4.9h1.1c0.1-0.3,0.3-0.6,0.5-1.1
			s0.5-0.8,0.9-1.2c0.3-0.4,0.7-0.7,1.1-1c0.4-0.3,0.8-0.5,1.1-0.5c0.5,0,0.9-0.1,1.4-0.1c0.5,0,0.9,0,1.3,0h0.9v19.1
			c0,0.5-0.1,0.8-0.3,1.1c-0.2,0.3-0.4,0.5-0.8,0.6c-0.2,0.1-0.7,0.2-1.3,0.3c-0.6,0.1-1.1,0.1-1.4,0.1v1.2h10.9v-1.2
			c-0.3,0-0.8-0.1-1.5-0.2c-0.6-0.1-1-0.2-1.2-0.3c-0.4-0.2-0.6-0.4-0.8-0.7c-0.2-0.3-0.2-0.6-0.2-1v-19h0.9c0.4,0,0.9,0,1.4,0
			c0.5,0,0.9,0,1.3,0.1c0.4,0,0.7,0.2,1.1,0.5c0.4,0.3,0.7,0.6,1.1,1c0.3,0.4,0.6,0.8,0.9,1.2c0.3,0.4,0.4,0.8,0.5,1.1h1.1v-4.9
			v-0.3H-598.2z"/>
	</g>
</g>
</svg>
